%TF.GenerationSoftware,KiCad,Pcbnew,8.0.1*%
%TF.CreationDate,2024-05-01T14:41:19+05:45*%
%TF.ProjectId,STM32F4_Breakout_REV2,53544d33-3246-4345-9f42-7265616b6f75,rev?*%
%TF.SameCoordinates,Original*%
%TF.FileFunction,Copper,L3,Inr*%
%TF.FilePolarity,Positive*%
%FSLAX46Y46*%
G04 Gerber Fmt 4.6, Leading zero omitted, Abs format (unit mm)*
G04 Created by KiCad (PCBNEW 8.0.1) date 2024-05-01 14:41:19*
%MOMM*%
%LPD*%
G01*
G04 APERTURE LIST*
G04 Aperture macros list*
%AMRoundRect*
0 Rectangle with rounded corners*
0 $1 Rounding radius*
0 $2 $3 $4 $5 $6 $7 $8 $9 X,Y pos of 4 corners*
0 Add a 4 corners polygon primitive as box body*
4,1,4,$2,$3,$4,$5,$6,$7,$8,$9,$2,$3,0*
0 Add four circle primitives for the rounded corners*
1,1,$1+$1,$2,$3*
1,1,$1+$1,$4,$5*
1,1,$1+$1,$6,$7*
1,1,$1+$1,$8,$9*
0 Add four rect primitives between the rounded corners*
20,1,$1+$1,$2,$3,$4,$5,0*
20,1,$1+$1,$4,$5,$6,$7,0*
20,1,$1+$1,$6,$7,$8,$9,0*
20,1,$1+$1,$8,$9,$2,$3,0*%
G04 Aperture macros list end*
%TA.AperFunction,ComponentPad*%
%ADD10C,1.152000*%
%TD*%
%TA.AperFunction,ComponentPad*%
%ADD11C,0.900000*%
%TD*%
%TA.AperFunction,ComponentPad*%
%ADD12C,8.600000*%
%TD*%
%TA.AperFunction,ComponentPad*%
%ADD13RoundRect,0.200000X-0.200000X-0.450000X0.200000X-0.450000X0.200000X0.450000X-0.200000X0.450000X0*%
%TD*%
%TA.AperFunction,ComponentPad*%
%ADD14O,0.800000X1.300000*%
%TD*%
%TA.AperFunction,ComponentPad*%
%ADD15RoundRect,0.200000X0.200000X0.450000X-0.200000X0.450000X-0.200000X-0.450000X0.200000X-0.450000X0*%
%TD*%
%TA.AperFunction,ComponentPad*%
%ADD16O,1.600000X0.900000*%
%TD*%
%TA.AperFunction,ComponentPad*%
%ADD17R,2.400000X2.400000*%
%TD*%
%TA.AperFunction,ComponentPad*%
%ADD18C,2.400000*%
%TD*%
%TA.AperFunction,ViaPad*%
%ADD19C,0.800000*%
%TD*%
G04 APERTURE END LIST*
D10*
%TO.N,N/C*%
%TO.C,REF\u002A\u002A*%
X101354000Y-77086200D03*
%TD*%
%TO.N,N/C*%
%TO.C,REF\u002A\u002A*%
X97282000Y-37846000D03*
%TD*%
%TO.N,N/C*%
%TO.C,REF\u002A\u002A*%
X61476000Y-37592000D03*
%TD*%
D11*
%TO.N,GND*%
%TO.C,H1*%
X100775000Y-37000000D03*
X101719581Y-34719581D03*
X101719581Y-39280419D03*
X104000000Y-33775000D03*
D12*
X104000000Y-37000000D03*
D11*
X104000000Y-40225000D03*
X106280419Y-34719581D03*
X106280419Y-39280419D03*
X107225000Y-37000000D03*
%TD*%
%TO.N,GND*%
%TO.C,H2*%
X100775000Y-83000000D03*
X101719581Y-80719581D03*
X101719581Y-85280419D03*
X104000000Y-79775000D03*
D12*
X104000000Y-83000000D03*
D11*
X104000000Y-86225000D03*
X106280419Y-80719581D03*
X106280419Y-85280419D03*
X107225000Y-83000000D03*
%TD*%
D13*
%TO.N,+3V3*%
%TO.C,J5*%
X64017200Y-82829400D03*
D14*
%TO.N,UART3_TX*%
X65267200Y-82829400D03*
%TO.N,UART3_RX*%
X66517200Y-82829400D03*
%TO.N,GND*%
X67767200Y-82829400D03*
%TD*%
D11*
%TO.N,GND*%
%TO.C,H3*%
X50775000Y-83000000D03*
X51719581Y-80719581D03*
X51719581Y-85280419D03*
X54000000Y-79775000D03*
D12*
X54000000Y-83000000D03*
D11*
X54000000Y-86225000D03*
X56280419Y-80719581D03*
X56280419Y-85280419D03*
X57225000Y-83000000D03*
%TD*%
D15*
%TO.N,+3V3*%
%TO.C,J3*%
X71125000Y-37200000D03*
D14*
%TO.N,I2C1_SCL*%
X69875000Y-37200000D03*
%TO.N,I2C1_SDA*%
X68625000Y-37200000D03*
%TO.N,GND*%
X67375000Y-37200000D03*
%TD*%
D11*
%TO.N,GND*%
%TO.C,H4*%
X51025000Y-37225000D03*
X51969581Y-34944581D03*
X51969581Y-39505419D03*
X54250000Y-34000000D03*
D12*
X54250000Y-37225000D03*
D11*
X54250000Y-40450000D03*
X56530419Y-34944581D03*
X56530419Y-39505419D03*
X57475000Y-37225000D03*
%TD*%
D16*
%TO.N,unconnected-(J1-Shield-Pad6)_3*%
%TO.C,J1*%
X106172000Y-52900000D03*
%TO.N,unconnected-(J1-Shield-Pad6)_0*%
X106172000Y-46300000D03*
%TD*%
D17*
%TO.N,+12V*%
%TO.C,J2*%
X103948000Y-64996000D03*
D18*
%TO.N,GND*%
X103948000Y-61496000D03*
%TD*%
D19*
%TO.N,GND*%
X89408000Y-66040000D03*
X94996000Y-74422000D03*
X89408000Y-75692000D03*
X55118000Y-53340000D03*
X63500000Y-56896000D03*
X94742000Y-65532000D03*
X100584000Y-48260000D03*
X95250000Y-59182000D03*
X67762200Y-80805400D03*
X62738000Y-56896000D03*
X91948000Y-79756000D03*
X88900000Y-45212000D03*
X87884000Y-80264000D03*
X77216000Y-35814000D03*
X81534000Y-33782000D03*
X89408000Y-66802000D03*
X76454000Y-72390000D03*
X101854000Y-48260000D03*
X65532000Y-72136000D03*
X82804000Y-33782000D03*
X60960000Y-60960000D03*
X101854000Y-46990000D03*
X90932000Y-79756000D03*
X96266000Y-59182000D03*
X89408000Y-78232000D03*
X59690000Y-58166000D03*
X96266000Y-61214000D03*
X56388000Y-65532000D03*
X89408000Y-79756000D03*
X61976000Y-64516000D03*
X76962000Y-56896000D03*
X78740000Y-57912000D03*
X62992000Y-59182000D03*
X66802000Y-38354000D03*
X96266000Y-60198000D03*
X100584000Y-46990000D03*
X101854000Y-61468000D03*
X94742000Y-64770000D03*
X60452000Y-69596000D03*
X67310000Y-56642000D03*
X89408000Y-76962000D03*
X98298000Y-73914000D03*
X94488000Y-46736000D03*
X97790000Y-74422000D03*
X76454000Y-71374000D03*
X61214000Y-64516000D03*
X56134000Y-63246000D03*
%TO.N,+3V3*%
X71374000Y-39116000D03*
X67564000Y-53086000D03*
X59182000Y-68834000D03*
X77216000Y-58928000D03*
X83820000Y-78740000D03*
X71374000Y-53086000D03*
X59182000Y-66802000D03*
X64262000Y-54610000D03*
X95948000Y-73660000D03*
X86106000Y-75946000D03*
X85344000Y-35306000D03*
X82296000Y-73660000D03*
X63952200Y-80805400D03*
X86106000Y-78740000D03*
X65278000Y-54610000D03*
X82296000Y-72136000D03*
X88900000Y-43180000D03*
X61976000Y-60960000D03*
X83820000Y-75946000D03*
X55118000Y-48768000D03*
X74422000Y-71120000D03*
X96520000Y-74480000D03*
X86106000Y-73660000D03*
X68072000Y-72136000D03*
X86106000Y-72136000D03*
%TO.N,BUCK_SW*%
X95653000Y-75455000D03*
X89154000Y-67818000D03*
%TO.N,NRST*%
X75184000Y-44958000D03*
X72136000Y-61722000D03*
%TD*%
%TA.AperFunction,Conductor*%
%TO.N,+3V3*%
G36*
X103311766Y-32019685D02*
G01*
X103357521Y-32072489D01*
X103367465Y-32141647D01*
X103338440Y-32205203D01*
X103279662Y-32242977D01*
X103266868Y-32246007D01*
X102928922Y-32307335D01*
X102512604Y-32422231D01*
X102512588Y-32422237D01*
X102309420Y-32498487D01*
X102108234Y-32573994D01*
X102108232Y-32573995D01*
X102108225Y-32573997D01*
X101719114Y-32761383D01*
X101719108Y-32761386D01*
X101348337Y-32982911D01*
X100998938Y-33236765D01*
X100998921Y-33236778D01*
X100673676Y-33520938D01*
X100673671Y-33520942D01*
X100375207Y-33833111D01*
X100375204Y-33833114D01*
X100105916Y-34170790D01*
X100105915Y-34170791D01*
X99867992Y-34531230D01*
X99867992Y-34531231D01*
X99867989Y-34531236D01*
X99867988Y-34531238D01*
X99811691Y-34635854D01*
X99663325Y-34911564D01*
X99493574Y-35308719D01*
X99360110Y-35719477D01*
X99264005Y-36140541D01*
X99206030Y-36568535D01*
X99206029Y-36568544D01*
X99186653Y-36999996D01*
X99186653Y-37000003D01*
X99206029Y-37431455D01*
X99206029Y-37431463D01*
X99206030Y-37431465D01*
X99216519Y-37508897D01*
X99264005Y-37859458D01*
X99360110Y-38280522D01*
X99453180Y-38566962D01*
X99493577Y-38691289D01*
X99663324Y-39088433D01*
X99867988Y-39468762D01*
X99867992Y-39468768D01*
X99867992Y-39468769D01*
X100105915Y-39829208D01*
X100105916Y-39829209D01*
X100105920Y-39829214D01*
X100375206Y-40166887D01*
X100673676Y-40479062D01*
X100998927Y-40763226D01*
X100998937Y-40763233D01*
X100998938Y-40763234D01*
X101348337Y-41017088D01*
X101719108Y-41238613D01*
X101719114Y-41238616D01*
X102108225Y-41426002D01*
X102108226Y-41426002D01*
X102108234Y-41426006D01*
X102512594Y-41577765D01*
X102512601Y-41577767D01*
X102512604Y-41577768D01*
X102928922Y-41692664D01*
X102928924Y-41692664D01*
X102928930Y-41692666D01*
X103353889Y-41769785D01*
X103784050Y-41808500D01*
X103784057Y-41808500D01*
X104215943Y-41808500D01*
X104215950Y-41808500D01*
X104646111Y-41769785D01*
X105071070Y-41692666D01*
X105487406Y-41577765D01*
X105891766Y-41426006D01*
X106280894Y-41238612D01*
X106651658Y-41017091D01*
X107001073Y-40763226D01*
X107326324Y-40479062D01*
X107624794Y-40166887D01*
X107894080Y-39829214D01*
X108132012Y-39468762D01*
X108336676Y-39088433D01*
X108506423Y-38691289D01*
X108639888Y-38280528D01*
X108735995Y-37859456D01*
X108749722Y-37758113D01*
X108778227Y-37694325D01*
X108836695Y-37656072D01*
X108906563Y-37655502D01*
X108965647Y-37692795D01*
X108995190Y-37756112D01*
X108996600Y-37774760D01*
X108996600Y-41619664D01*
X108994416Y-44586450D01*
X108966842Y-82051516D01*
X108947108Y-82118541D01*
X108894270Y-82164257D01*
X108825105Y-82174150D01*
X108761570Y-82145078D01*
X108723839Y-82086272D01*
X108721957Y-82079043D01*
X108639888Y-81719472D01*
X108506423Y-81308711D01*
X108336676Y-80911567D01*
X108132012Y-80531238D01*
X108132007Y-80531230D01*
X107894084Y-80170791D01*
X107894083Y-80170790D01*
X107859599Y-80127549D01*
X107624794Y-79833113D01*
X107326324Y-79520938D01*
X107001073Y-79236774D01*
X106976688Y-79219057D01*
X106651662Y-78982911D01*
X106280891Y-78761386D01*
X106280885Y-78761383D01*
X105891774Y-78573997D01*
X105891769Y-78573995D01*
X105891766Y-78573994D01*
X105487406Y-78422235D01*
X105487404Y-78422234D01*
X105487395Y-78422231D01*
X105071077Y-78307335D01*
X104646117Y-78230216D01*
X104646116Y-78230215D01*
X104646111Y-78230215D01*
X104215950Y-78191500D01*
X103784050Y-78191500D01*
X103353889Y-78230215D01*
X103353884Y-78230215D01*
X103353882Y-78230216D01*
X102928922Y-78307335D01*
X102512604Y-78422231D01*
X102512588Y-78422237D01*
X102309420Y-78498487D01*
X102108234Y-78573994D01*
X102108232Y-78573995D01*
X102108225Y-78573997D01*
X101719114Y-78761383D01*
X101719108Y-78761386D01*
X101348337Y-78982911D01*
X100998938Y-79236765D01*
X100998921Y-79236778D01*
X100673676Y-79520938D01*
X100673671Y-79520942D01*
X100375207Y-79833111D01*
X100375204Y-79833114D01*
X100105916Y-80170790D01*
X100105915Y-80170791D01*
X99867992Y-80531230D01*
X99867992Y-80531231D01*
X99663325Y-80911564D01*
X99493574Y-81308719D01*
X99360110Y-81719477D01*
X99264005Y-82140541D01*
X99206030Y-82568535D01*
X99206029Y-82568544D01*
X99186653Y-82999996D01*
X99186653Y-83000003D01*
X99206029Y-83431455D01*
X99206029Y-83431463D01*
X99206030Y-83431465D01*
X99216633Y-83509742D01*
X99264005Y-83859458D01*
X99360110Y-84280522D01*
X99360112Y-84280528D01*
X99493577Y-84691289D01*
X99663324Y-85088433D01*
X99867988Y-85468762D01*
X99867992Y-85468768D01*
X99867992Y-85468769D01*
X100105915Y-85829208D01*
X100105916Y-85829209D01*
X100105920Y-85829214D01*
X100375206Y-86166887D01*
X100673676Y-86479062D01*
X100998927Y-86763226D01*
X100998937Y-86763233D01*
X100998938Y-86763234D01*
X101348337Y-87017088D01*
X101719108Y-87238613D01*
X101719114Y-87238616D01*
X102108225Y-87426002D01*
X102108226Y-87426002D01*
X102108234Y-87426006D01*
X102512594Y-87577765D01*
X102512601Y-87577767D01*
X102512604Y-87577768D01*
X102928922Y-87692664D01*
X102928924Y-87692664D01*
X102928930Y-87692666D01*
X103104293Y-87724490D01*
X103166739Y-87755827D01*
X103202330Y-87815952D01*
X103199765Y-87885775D01*
X103159859Y-87943127D01*
X103095280Y-87969799D01*
X103082226Y-87970496D01*
X89601397Y-87978600D01*
X54873196Y-87978600D01*
X54806157Y-87958915D01*
X54760402Y-87906111D01*
X54750458Y-87836953D01*
X54779483Y-87773397D01*
X54838261Y-87735623D01*
X54851055Y-87732593D01*
X54851908Y-87732438D01*
X55071070Y-87692666D01*
X55487406Y-87577765D01*
X55891766Y-87426006D01*
X56280894Y-87238612D01*
X56651658Y-87017091D01*
X57001073Y-86763226D01*
X57326324Y-86479062D01*
X57624794Y-86166887D01*
X57894080Y-85829214D01*
X58132012Y-85468762D01*
X58336676Y-85088433D01*
X58506423Y-84691289D01*
X58639888Y-84280528D01*
X58735995Y-83859456D01*
X58793970Y-83431465D01*
X58809781Y-83079400D01*
X63117201Y-83079400D01*
X63117201Y-83335982D01*
X63123608Y-83406502D01*
X63123609Y-83406507D01*
X63174181Y-83568796D01*
X63262127Y-83714277D01*
X63382322Y-83834472D01*
X63527804Y-83922419D01*
X63527803Y-83922419D01*
X63690094Y-83972990D01*
X63690093Y-83972990D01*
X63760608Y-83979398D01*
X63760626Y-83979399D01*
X63767199Y-83979398D01*
X63767200Y-83979398D01*
X63767200Y-83079400D01*
X63117201Y-83079400D01*
X58809781Y-83079400D01*
X58813347Y-83000003D01*
X58813347Y-82999996D01*
X58807919Y-82879128D01*
X63767200Y-82879128D01*
X63805260Y-82971014D01*
X63875586Y-83041340D01*
X63967472Y-83079400D01*
X64066928Y-83079400D01*
X64158814Y-83041340D01*
X64229140Y-82971014D01*
X64267200Y-82879128D01*
X64267200Y-83979399D01*
X64273781Y-83979399D01*
X64344302Y-83972991D01*
X64344307Y-83972990D01*
X64506596Y-83922418D01*
X64642303Y-83840381D01*
X64709857Y-83822545D01*
X64775344Y-83843396D01*
X64836857Y-83884498D01*
X64836861Y-83884500D01*
X64836864Y-83884502D01*
X65002200Y-83952987D01*
X65177716Y-83987899D01*
X65177720Y-83987900D01*
X65177721Y-83987900D01*
X65356680Y-83987900D01*
X65356681Y-83987899D01*
X65532200Y-83952987D01*
X65697536Y-83884502D01*
X65823310Y-83800462D01*
X65889986Y-83779585D01*
X65957366Y-83798069D01*
X65961074Y-83800452D01*
X65994139Y-83822545D01*
X66086857Y-83884498D01*
X66086861Y-83884500D01*
X66086864Y-83884502D01*
X66252200Y-83952987D01*
X66427716Y-83987899D01*
X66427720Y-83987900D01*
X66427721Y-83987900D01*
X66606680Y-83987900D01*
X66606681Y-83987899D01*
X66782200Y-83952987D01*
X66947536Y-83884502D01*
X67073310Y-83800462D01*
X67139986Y-83779585D01*
X67207366Y-83798069D01*
X67211074Y-83800452D01*
X67244139Y-83822545D01*
X67336857Y-83884498D01*
X67336861Y-83884500D01*
X67336864Y-83884502D01*
X67502200Y-83952987D01*
X67677716Y-83987899D01*
X67677720Y-83987900D01*
X67677721Y-83987900D01*
X67856680Y-83987900D01*
X67856681Y-83987899D01*
X68032200Y-83952987D01*
X68197536Y-83884502D01*
X68346335Y-83785078D01*
X68472878Y-83658535D01*
X68572302Y-83509736D01*
X68640787Y-83344400D01*
X68675700Y-83168879D01*
X68675700Y-82489921D01*
X68640787Y-82314400D01*
X68572302Y-82149064D01*
X68572300Y-82149061D01*
X68572298Y-82149057D01*
X68472878Y-82000265D01*
X68472875Y-82000261D01*
X68346338Y-81873724D01*
X68346334Y-81873721D01*
X68229157Y-81795425D01*
X68184352Y-81741812D01*
X68175645Y-81672487D01*
X68205800Y-81609460D01*
X68225160Y-81592007D01*
X68373453Y-81484266D01*
X68501240Y-81342344D01*
X68596727Y-81176956D01*
X68655742Y-80995328D01*
X68675704Y-80805400D01*
X68655742Y-80615472D01*
X68596727Y-80433844D01*
X68501240Y-80268456D01*
X68497228Y-80264000D01*
X86970496Y-80264000D01*
X86990458Y-80453928D01*
X86990459Y-80453931D01*
X87049470Y-80635549D01*
X87049472Y-80635554D01*
X87049473Y-80635556D01*
X87144960Y-80800944D01*
X87272747Y-80942866D01*
X87427248Y-81055118D01*
X87601712Y-81132794D01*
X87788513Y-81172500D01*
X87979487Y-81172500D01*
X88166288Y-81132794D01*
X88340752Y-81055118D01*
X88495253Y-80942866D01*
X88623040Y-80800944D01*
X88718527Y-80635556D01*
X88733480Y-80589534D01*
X88772915Y-80531862D01*
X88837273Y-80504663D01*
X88906119Y-80516576D01*
X88924294Y-80527535D01*
X88951248Y-80547118D01*
X89125712Y-80624794D01*
X89312513Y-80664500D01*
X89503487Y-80664500D01*
X89690288Y-80624794D01*
X89864752Y-80547118D01*
X90019253Y-80434866D01*
X90077850Y-80369786D01*
X90137336Y-80333138D01*
X90207193Y-80334468D01*
X90262149Y-80369786D01*
X90320747Y-80434866D01*
X90475248Y-80547118D01*
X90649712Y-80624794D01*
X90836513Y-80664500D01*
X91027487Y-80664500D01*
X91214283Y-80624795D01*
X91214282Y-80624795D01*
X91214288Y-80624794D01*
X91388752Y-80547118D01*
X91388757Y-80547114D01*
X91389564Y-80546755D01*
X91458814Y-80537471D01*
X91490436Y-80546755D01*
X91491242Y-80547114D01*
X91491248Y-80547118D01*
X91665712Y-80624794D01*
X91665715Y-80624794D01*
X91665716Y-80624795D01*
X91852513Y-80664500D01*
X92043487Y-80664500D01*
X92230288Y-80624794D01*
X92404752Y-80547118D01*
X92559253Y-80434866D01*
X92687040Y-80292944D01*
X92782527Y-80127556D01*
X92841542Y-79945928D01*
X92861504Y-79756000D01*
X92841542Y-79566072D01*
X92782527Y-79384444D01*
X92687040Y-79219056D01*
X92559253Y-79077134D01*
X92404752Y-78964882D01*
X92230288Y-78887206D01*
X92230286Y-78887205D01*
X92043487Y-78847500D01*
X91852513Y-78847500D01*
X91665714Y-78887205D01*
X91490435Y-78965244D01*
X91421185Y-78974528D01*
X91389565Y-78965244D01*
X91388752Y-78964882D01*
X91214288Y-78887206D01*
X91214286Y-78887205D01*
X91027487Y-78847500D01*
X90836513Y-78847500D01*
X90649714Y-78887205D01*
X90475246Y-78964883D01*
X90320747Y-79077133D01*
X90262150Y-79142213D01*
X90202663Y-79178861D01*
X90132806Y-79177530D01*
X90077850Y-79142212D01*
X90019108Y-79076972D01*
X89988878Y-79013980D01*
X89997504Y-78944645D01*
X90019108Y-78911028D01*
X90076308Y-78847500D01*
X90147040Y-78768944D01*
X90242527Y-78603556D01*
X90301542Y-78421928D01*
X90321504Y-78232000D01*
X90301542Y-78042072D01*
X90242527Y-77860444D01*
X90147040Y-77695056D01*
X90133458Y-77679972D01*
X90103229Y-77616981D01*
X90111853Y-77547646D01*
X90133459Y-77514027D01*
X90147040Y-77498944D01*
X90242527Y-77333556D01*
X90301542Y-77151928D01*
X90308450Y-77086199D01*
X100264854Y-77086199D01*
X100268971Y-77130628D01*
X100269500Y-77142070D01*
X100269500Y-77171552D01*
X100276723Y-77217159D01*
X100276736Y-77217238D01*
X100277733Y-77225191D01*
X100283399Y-77286330D01*
X100283399Y-77286332D01*
X100291014Y-77313097D01*
X100294220Y-77327630D01*
X100296203Y-77340150D01*
X100315683Y-77400104D01*
X100317007Y-77404450D01*
X100329337Y-77447785D01*
X100338400Y-77479640D01*
X100338404Y-77479650D01*
X100343306Y-77489495D01*
X100346829Y-77498104D01*
X100347088Y-77497997D01*
X100348955Y-77502504D01*
X100385182Y-77573605D01*
X100385697Y-77574627D01*
X100427989Y-77659561D01*
X100481848Y-77730882D01*
X100483213Y-77732725D01*
X100526786Y-77792700D01*
X100527823Y-77793737D01*
X100539095Y-77806690D01*
X100549111Y-77819953D01*
X100602774Y-77868873D01*
X100606894Y-77872808D01*
X100647496Y-77913410D01*
X100662292Y-77924160D01*
X100672936Y-77932834D01*
X100697643Y-77955357D01*
X100745100Y-77984742D01*
X100752693Y-77989840D01*
X100752702Y-77989847D01*
X100785595Y-78013745D01*
X100785603Y-78013750D01*
X100816841Y-78029666D01*
X100825812Y-78034717D01*
X100868526Y-78061164D01*
X100868530Y-78061165D01*
X100868534Y-78061168D01*
X100904927Y-78075266D01*
X100916414Y-78080401D01*
X100937697Y-78091245D01*
X100937699Y-78091245D01*
X100937702Y-78091247D01*
X100986995Y-78107263D01*
X100993456Y-78109562D01*
X101055941Y-78133769D01*
X101077793Y-78137854D01*
X101093321Y-78141811D01*
X101096664Y-78142897D01*
X101100039Y-78143994D01*
X101100040Y-78143994D01*
X101100046Y-78143996D01*
X101167858Y-78154736D01*
X101171127Y-78155300D01*
X101253506Y-78170700D01*
X101253508Y-78170700D01*
X101454492Y-78170700D01*
X101454494Y-78170700D01*
X101536880Y-78155298D01*
X101540142Y-78154736D01*
X101607954Y-78143996D01*
X101614683Y-78141809D01*
X101630208Y-78137853D01*
X101652059Y-78133769D01*
X101714568Y-78109552D01*
X101720986Y-78107268D01*
X101770303Y-78091245D01*
X101791580Y-78080403D01*
X101803074Y-78075265D01*
X101839474Y-78061164D01*
X101882179Y-78034721D01*
X101891147Y-78029671D01*
X101922402Y-78013747D01*
X101934128Y-78005226D01*
X101955298Y-77989847D01*
X101962907Y-77984737D01*
X101974942Y-77977284D01*
X102010357Y-77955357D01*
X102035072Y-77932825D01*
X102045701Y-77924163D01*
X102060504Y-77913410D01*
X102101124Y-77872788D01*
X102105222Y-77868875D01*
X102158889Y-77819953D01*
X102168902Y-77806692D01*
X102180179Y-77793734D01*
X102181210Y-77792704D01*
X102224839Y-77732651D01*
X102226065Y-77730995D01*
X102280011Y-77659561D01*
X102322395Y-77574437D01*
X102322741Y-77573750D01*
X102359045Y-77502503D01*
X102359046Y-77502499D01*
X102359050Y-77502492D01*
X102360914Y-77497992D01*
X102361180Y-77498102D01*
X102364701Y-77489479D01*
X102365725Y-77487422D01*
X102369598Y-77479645D01*
X102390990Y-77404457D01*
X102392327Y-77400069D01*
X102411796Y-77340154D01*
X102413779Y-77327627D01*
X102416984Y-77313095D01*
X102424601Y-77286330D01*
X102430265Y-77225186D01*
X102431259Y-77217263D01*
X102438500Y-77171552D01*
X102438500Y-77142070D01*
X102439029Y-77130628D01*
X102443146Y-77086199D01*
X102439029Y-77041770D01*
X102438500Y-77030329D01*
X102438500Y-77000850D01*
X102432346Y-76962000D01*
X102431259Y-76955136D01*
X102430264Y-76947197D01*
X102424601Y-76886073D01*
X102424601Y-76886070D01*
X102416985Y-76859303D01*
X102413780Y-76844776D01*
X102411796Y-76832246D01*
X102392317Y-76772300D01*
X102390990Y-76767942D01*
X102388945Y-76760756D01*
X102369598Y-76692755D01*
X102364694Y-76682906D01*
X102361180Y-76674299D01*
X102360915Y-76674410D01*
X102359048Y-76669905D01*
X102359046Y-76669902D01*
X102359045Y-76669897D01*
X102322819Y-76598801D01*
X102322386Y-76597942D01*
X102280011Y-76512839D01*
X102226142Y-76441506D01*
X102224785Y-76439673D01*
X102181213Y-76379699D01*
X102180177Y-76378663D01*
X102168904Y-76365708D01*
X102158892Y-76352451D01*
X102158889Y-76352447D01*
X102105225Y-76303526D01*
X102101104Y-76299590D01*
X102060503Y-76258989D01*
X102060498Y-76258985D01*
X102045717Y-76248246D01*
X102035067Y-76239568D01*
X102010357Y-76217043D01*
X101962903Y-76187660D01*
X101955300Y-76182554D01*
X101951286Y-76179638D01*
X101922402Y-76158653D01*
X101891142Y-76142725D01*
X101882187Y-76137682D01*
X101839474Y-76111236D01*
X101839468Y-76111233D01*
X101811766Y-76100501D01*
X101803069Y-76097132D01*
X101791583Y-76091997D01*
X101782967Y-76087607D01*
X101770306Y-76081156D01*
X101770298Y-76081153D01*
X101721005Y-76065136D01*
X101714533Y-76062833D01*
X101652059Y-76038631D01*
X101652052Y-76038629D01*
X101630211Y-76034546D01*
X101614688Y-76030591D01*
X101607960Y-76028405D01*
X101607957Y-76028404D01*
X101540214Y-76017674D01*
X101536831Y-76017090D01*
X101454495Y-76001700D01*
X101454494Y-76001700D01*
X101253506Y-76001700D01*
X101253502Y-76001700D01*
X101171166Y-76017090D01*
X101167785Y-76017674D01*
X101100039Y-76028405D01*
X101093300Y-76030594D01*
X101077793Y-76034544D01*
X101055949Y-76038628D01*
X100993453Y-76062838D01*
X100986983Y-76065140D01*
X100937693Y-76081156D01*
X100916418Y-76091995D01*
X100904929Y-76097132D01*
X100868528Y-76111235D01*
X100868525Y-76111236D01*
X100825819Y-76137678D01*
X100816843Y-76142732D01*
X100785593Y-76158655D01*
X100752691Y-76182559D01*
X100745090Y-76187663D01*
X100697650Y-76217037D01*
X100697641Y-76217044D01*
X100672938Y-76239563D01*
X100662296Y-76248236D01*
X100647495Y-76258990D01*
X100647493Y-76258992D01*
X100606902Y-76299582D01*
X100602763Y-76303535D01*
X100549108Y-76352449D01*
X100539091Y-76365713D01*
X100527843Y-76378642D01*
X100526791Y-76379693D01*
X100483198Y-76439693D01*
X100481837Y-76441531D01*
X100427989Y-76512839D01*
X100427985Y-76512845D01*
X100385654Y-76597858D01*
X100385139Y-76598880D01*
X100348954Y-76669896D01*
X100347089Y-76674400D01*
X100346830Y-76674292D01*
X100343310Y-76682897D01*
X100338400Y-76692758D01*
X100317013Y-76767926D01*
X100315679Y-76772307D01*
X100296203Y-76832249D01*
X100294219Y-76844776D01*
X100291014Y-76859303D01*
X100283399Y-76886069D01*
X100283398Y-76886074D01*
X100277733Y-76947207D01*
X100276735Y-76955162D01*
X100269500Y-77000842D01*
X100269500Y-77030329D01*
X100268971Y-77041770D01*
X100264854Y-77086199D01*
X90308450Y-77086199D01*
X90321504Y-76962000D01*
X90301542Y-76772072D01*
X90242527Y-76590444D01*
X90147040Y-76425056D01*
X90133458Y-76409972D01*
X90103229Y-76346981D01*
X90111853Y-76277646D01*
X90133459Y-76244027D01*
X90147040Y-76228944D01*
X90242527Y-76063556D01*
X90301542Y-75881928D01*
X90321504Y-75692000D01*
X90301542Y-75502072D01*
X90242527Y-75320444D01*
X90147040Y-75155056D01*
X90019253Y-75013134D01*
X89864752Y-74900882D01*
X89690288Y-74823206D01*
X89690286Y-74823205D01*
X89503487Y-74783500D01*
X89312513Y-74783500D01*
X89125714Y-74823205D01*
X88951246Y-74900883D01*
X88796745Y-75013135D01*
X88668959Y-75155057D01*
X88573473Y-75320443D01*
X88573470Y-75320450D01*
X88514459Y-75502068D01*
X88514458Y-75502072D01*
X88494496Y-75692000D01*
X88514458Y-75881928D01*
X88514459Y-75881931D01*
X88573470Y-76063549D01*
X88573473Y-76063556D01*
X88668957Y-76228940D01*
X88668961Y-76228945D01*
X88682542Y-76244029D01*
X88712771Y-76307022D01*
X88704145Y-76376357D01*
X88682542Y-76409971D01*
X88668961Y-76425054D01*
X88668957Y-76425059D01*
X88573473Y-76590443D01*
X88573470Y-76590450D01*
X88515805Y-76767926D01*
X88514458Y-76772072D01*
X88494496Y-76962000D01*
X88514458Y-77151928D01*
X88514459Y-77151931D01*
X88573470Y-77333549D01*
X88573473Y-77333556D01*
X88668957Y-77498940D01*
X88668961Y-77498945D01*
X88682542Y-77514029D01*
X88712771Y-77577022D01*
X88704145Y-77646357D01*
X88682542Y-77679971D01*
X88668961Y-77695054D01*
X88668957Y-77695059D01*
X88573473Y-77860443D01*
X88573470Y-77860450D01*
X88516845Y-78034725D01*
X88514458Y-78042072D01*
X88494496Y-78232000D01*
X88514458Y-78421928D01*
X88514459Y-78421931D01*
X88573470Y-78603549D01*
X88573473Y-78603556D01*
X88668960Y-78768944D01*
X88730449Y-78837235D01*
X88796892Y-78911028D01*
X88827122Y-78974020D01*
X88818496Y-79043355D01*
X88796892Y-79076972D01*
X88668959Y-79219057D01*
X88573473Y-79384443D01*
X88573470Y-79384450D01*
X88558520Y-79430463D01*
X88519082Y-79488139D01*
X88454724Y-79515337D01*
X88385877Y-79503422D01*
X88367704Y-79492463D01*
X88340756Y-79472884D01*
X88340752Y-79472882D01*
X88166288Y-79395206D01*
X88166286Y-79395205D01*
X87979487Y-79355500D01*
X87788513Y-79355500D01*
X87601714Y-79395205D01*
X87427246Y-79472883D01*
X87272745Y-79585135D01*
X87144959Y-79727057D01*
X87049473Y-79892443D01*
X87049470Y-79892450D01*
X86990459Y-80074068D01*
X86990458Y-80074072D01*
X86970496Y-80264000D01*
X68497228Y-80264000D01*
X68373453Y-80126534D01*
X68218952Y-80014282D01*
X68044488Y-79936606D01*
X68044486Y-79936605D01*
X67857687Y-79896900D01*
X67666713Y-79896900D01*
X67479914Y-79936605D01*
X67305446Y-80014283D01*
X67150945Y-80126535D01*
X67023159Y-80268457D01*
X66927673Y-80433843D01*
X66927670Y-80433850D01*
X66868659Y-80615468D01*
X66868658Y-80615472D01*
X66848696Y-80805400D01*
X66868658Y-80995328D01*
X66868659Y-80995331D01*
X66927670Y-81176949D01*
X66927673Y-81176956D01*
X67023160Y-81342344D01*
X67150947Y-81484266D01*
X67304028Y-81595486D01*
X67346693Y-81650816D01*
X67352672Y-81720430D01*
X67320066Y-81782225D01*
X67300033Y-81798906D01*
X67211091Y-81858336D01*
X67144414Y-81879214D01*
X67077034Y-81860730D01*
X67073309Y-81858336D01*
X66947542Y-81774301D01*
X66947532Y-81774296D01*
X66782200Y-81705813D01*
X66782192Y-81705811D01*
X66606683Y-81670900D01*
X66606679Y-81670900D01*
X66427721Y-81670900D01*
X66427716Y-81670900D01*
X66252207Y-81705811D01*
X66252199Y-81705813D01*
X66086867Y-81774296D01*
X66086857Y-81774301D01*
X65961091Y-81858336D01*
X65894413Y-81879214D01*
X65827033Y-81860729D01*
X65823309Y-81858336D01*
X65697542Y-81774301D01*
X65697532Y-81774296D01*
X65532200Y-81705813D01*
X65532192Y-81705811D01*
X65356683Y-81670900D01*
X65356679Y-81670900D01*
X65177721Y-81670900D01*
X65177716Y-81670900D01*
X65002207Y-81705811D01*
X65002199Y-81705813D01*
X64836863Y-81774298D01*
X64775342Y-81815404D01*
X64708665Y-81836281D01*
X64642303Y-81818418D01*
X64506596Y-81736380D01*
X64344305Y-81685809D01*
X64344306Y-81685809D01*
X64273772Y-81679400D01*
X64267200Y-81679400D01*
X64267200Y-82779672D01*
X64229140Y-82687786D01*
X64158814Y-82617460D01*
X64066928Y-82579400D01*
X63967472Y-82579400D01*
X63875586Y-82617460D01*
X63805260Y-82687786D01*
X63767200Y-82779672D01*
X63767200Y-82879128D01*
X58807919Y-82879128D01*
X58803452Y-82779672D01*
X58794458Y-82579400D01*
X63117200Y-82579400D01*
X63767200Y-82579400D01*
X63767200Y-81679400D01*
X63767199Y-81679399D01*
X63760636Y-81679400D01*
X63760617Y-81679401D01*
X63690097Y-81685808D01*
X63690092Y-81685809D01*
X63527803Y-81736381D01*
X63382322Y-81824327D01*
X63262127Y-81944522D01*
X63174180Y-82090004D01*
X63123609Y-82252293D01*
X63117200Y-82322827D01*
X63117200Y-82579400D01*
X58794458Y-82579400D01*
X58793970Y-82568535D01*
X58735995Y-82140544D01*
X58639888Y-81719472D01*
X58506423Y-81308711D01*
X58336676Y-80911567D01*
X58132012Y-80531238D01*
X58132007Y-80531230D01*
X57894084Y-80170791D01*
X57894083Y-80170790D01*
X57859599Y-80127549D01*
X57624794Y-79833113D01*
X57326324Y-79520938D01*
X57001073Y-79236774D01*
X56976688Y-79219057D01*
X56651662Y-78982911D01*
X56280891Y-78761386D01*
X56280885Y-78761383D01*
X55891774Y-78573997D01*
X55891769Y-78573995D01*
X55891766Y-78573994D01*
X55487406Y-78422235D01*
X55487404Y-78422234D01*
X55487395Y-78422231D01*
X55071077Y-78307335D01*
X54646117Y-78230216D01*
X54646116Y-78230215D01*
X54646111Y-78230215D01*
X54215950Y-78191500D01*
X53784050Y-78191500D01*
X53353889Y-78230215D01*
X53353884Y-78230215D01*
X53353882Y-78230216D01*
X52928922Y-78307335D01*
X52512604Y-78422231D01*
X52512588Y-78422237D01*
X52309420Y-78498487D01*
X52108234Y-78573994D01*
X52108232Y-78573995D01*
X52108225Y-78573997D01*
X51719114Y-78761383D01*
X51719108Y-78761386D01*
X51348337Y-78982911D01*
X50998938Y-79236765D01*
X50998921Y-79236778D01*
X50673676Y-79520938D01*
X50673671Y-79520942D01*
X50375207Y-79833111D01*
X50375204Y-79833114D01*
X50105916Y-80170790D01*
X50105915Y-80170791D01*
X49867992Y-80531230D01*
X49867992Y-80531231D01*
X49663325Y-80911564D01*
X49493574Y-81308719D01*
X49360110Y-81719477D01*
X49264005Y-82140542D01*
X49264005Y-82140544D01*
X49249133Y-82250339D01*
X49246878Y-82266984D01*
X49218372Y-82330774D01*
X49159905Y-82369027D01*
X49090037Y-82369597D01*
X49030953Y-82332304D01*
X49001410Y-82268987D01*
X49000000Y-82250339D01*
X49000000Y-74422000D01*
X94082496Y-74422000D01*
X94102458Y-74611928D01*
X94102459Y-74611931D01*
X94161470Y-74793549D01*
X94161473Y-74793556D01*
X94256960Y-74958944D01*
X94384747Y-75100866D01*
X94539248Y-75213118D01*
X94672527Y-75272457D01*
X94725765Y-75317708D01*
X94746086Y-75384557D01*
X94745413Y-75398697D01*
X94739496Y-75455000D01*
X94759458Y-75644928D01*
X94759459Y-75644931D01*
X94818470Y-75826549D01*
X94818473Y-75826556D01*
X94913960Y-75991944D01*
X95041747Y-76133866D01*
X95196248Y-76246118D01*
X95370712Y-76323794D01*
X95557513Y-76363500D01*
X95748487Y-76363500D01*
X95935288Y-76323794D01*
X96109752Y-76246118D01*
X96264253Y-76133866D01*
X96392040Y-75991944D01*
X96487527Y-75826556D01*
X96546542Y-75644928D01*
X96566504Y-75455000D01*
X96546542Y-75265072D01*
X96487527Y-75083444D01*
X96392040Y-74918056D01*
X96264253Y-74776134D01*
X96109752Y-74663882D01*
X96109751Y-74663881D01*
X95976471Y-74604541D01*
X95923234Y-74559291D01*
X95902913Y-74492442D01*
X95903585Y-74478311D01*
X95909504Y-74422000D01*
X96876496Y-74422000D01*
X96896458Y-74611928D01*
X96896459Y-74611931D01*
X96955470Y-74793549D01*
X96955473Y-74793556D01*
X97050960Y-74958944D01*
X97178747Y-75100866D01*
X97333248Y-75213118D01*
X97507712Y-75290794D01*
X97694513Y-75330500D01*
X97885487Y-75330500D01*
X98072288Y-75290794D01*
X98246752Y-75213118D01*
X98401253Y-75100866D01*
X98529040Y-74958944D01*
X98607409Y-74823206D01*
X98627777Y-74787928D01*
X98630326Y-74789399D01*
X98667176Y-74745915D01*
X98684926Y-74736206D01*
X98754748Y-74705120D01*
X98754748Y-74705119D01*
X98754752Y-74705118D01*
X98909253Y-74592866D01*
X99037040Y-74450944D01*
X99132527Y-74285556D01*
X99191542Y-74103928D01*
X99211504Y-73914000D01*
X99191542Y-73724072D01*
X99134355Y-73548071D01*
X99132529Y-73542450D01*
X99132528Y-73542449D01*
X99132527Y-73542444D01*
X99037040Y-73377056D01*
X98909253Y-73235134D01*
X98754752Y-73122882D01*
X98580288Y-73045206D01*
X98580286Y-73045205D01*
X98393487Y-73005500D01*
X98202513Y-73005500D01*
X98015714Y-73045205D01*
X97841246Y-73122883D01*
X97686745Y-73235135D01*
X97558958Y-73377057D01*
X97460224Y-73548071D01*
X97457726Y-73546628D01*
X97420541Y-73590269D01*
X97403077Y-73599791D01*
X97333248Y-73630881D01*
X97178745Y-73743135D01*
X97050959Y-73885057D01*
X96955473Y-74050443D01*
X96955470Y-74050450D01*
X96896459Y-74232068D01*
X96896458Y-74232072D01*
X96876496Y-74422000D01*
X95909504Y-74422000D01*
X95889542Y-74232072D01*
X95830527Y-74050444D01*
X95735040Y-73885056D01*
X95607253Y-73743134D01*
X95452752Y-73630882D01*
X95278288Y-73553206D01*
X95278286Y-73553205D01*
X95091487Y-73513500D01*
X94900513Y-73513500D01*
X94713714Y-73553205D01*
X94539246Y-73630883D01*
X94384745Y-73743135D01*
X94256959Y-73885057D01*
X94161473Y-74050443D01*
X94161470Y-74050450D01*
X94102459Y-74232068D01*
X94102458Y-74232072D01*
X94082496Y-74422000D01*
X49000000Y-74422000D01*
X49000000Y-72136000D01*
X64618496Y-72136000D01*
X64638458Y-72325928D01*
X64638459Y-72325931D01*
X64697470Y-72507549D01*
X64697473Y-72507556D01*
X64792960Y-72672944D01*
X64920747Y-72814866D01*
X65075248Y-72927118D01*
X65249712Y-73004794D01*
X65436513Y-73044500D01*
X65627487Y-73044500D01*
X65814288Y-73004794D01*
X65988752Y-72927118D01*
X66143253Y-72814866D01*
X66271040Y-72672944D01*
X66366527Y-72507556D01*
X66404724Y-72390000D01*
X75540496Y-72390000D01*
X75560458Y-72579928D01*
X75560459Y-72579931D01*
X75619470Y-72761549D01*
X75619473Y-72761556D01*
X75714960Y-72926944D01*
X75842747Y-73068866D01*
X75997248Y-73181118D01*
X76171712Y-73258794D01*
X76358513Y-73298500D01*
X76549487Y-73298500D01*
X76736288Y-73258794D01*
X76910752Y-73181118D01*
X77065253Y-73068866D01*
X77193040Y-72926944D01*
X77288527Y-72761556D01*
X77347542Y-72579928D01*
X77367504Y-72390000D01*
X77347542Y-72200072D01*
X77288527Y-72018444D01*
X77245545Y-71943998D01*
X77229073Y-71876101D01*
X77245545Y-71820001D01*
X77288527Y-71745556D01*
X77347542Y-71563928D01*
X77367504Y-71374000D01*
X77347542Y-71184072D01*
X77288527Y-71002444D01*
X77193040Y-70837056D01*
X77065253Y-70695134D01*
X76910752Y-70582882D01*
X76736288Y-70505206D01*
X76736286Y-70505205D01*
X76549487Y-70465500D01*
X76358513Y-70465500D01*
X76171714Y-70505205D01*
X75997246Y-70582883D01*
X75842745Y-70695135D01*
X75714959Y-70837057D01*
X75619473Y-71002443D01*
X75619470Y-71002450D01*
X75560459Y-71184068D01*
X75560458Y-71184072D01*
X75540496Y-71374000D01*
X75560458Y-71563928D01*
X75560459Y-71563931D01*
X75619470Y-71745549D01*
X75619475Y-71745561D01*
X75662453Y-71820001D01*
X75678926Y-71887901D01*
X75662453Y-71943999D01*
X75619475Y-72018438D01*
X75619470Y-72018450D01*
X75581276Y-72136000D01*
X75560458Y-72200072D01*
X75540496Y-72390000D01*
X66404724Y-72390000D01*
X66425542Y-72325928D01*
X66445504Y-72136000D01*
X66425542Y-71946072D01*
X66366527Y-71764444D01*
X66271040Y-71599056D01*
X66143253Y-71457134D01*
X65988752Y-71344882D01*
X65814288Y-71267206D01*
X65814286Y-71267205D01*
X65627487Y-71227500D01*
X65436513Y-71227500D01*
X65249714Y-71267205D01*
X65075246Y-71344883D01*
X64920745Y-71457135D01*
X64792959Y-71599057D01*
X64697473Y-71764443D01*
X64697470Y-71764450D01*
X64639131Y-71944001D01*
X64638458Y-71946072D01*
X64618496Y-72136000D01*
X49000000Y-72136000D01*
X49000000Y-69596000D01*
X59538496Y-69596000D01*
X59558458Y-69785928D01*
X59558459Y-69785931D01*
X59617470Y-69967549D01*
X59617473Y-69967556D01*
X59712960Y-70132944D01*
X59840747Y-70274866D01*
X59995248Y-70387118D01*
X60169712Y-70464794D01*
X60356513Y-70504500D01*
X60547487Y-70504500D01*
X60734288Y-70464794D01*
X60908752Y-70387118D01*
X61063253Y-70274866D01*
X61191040Y-70132944D01*
X61286527Y-69967556D01*
X61345542Y-69785928D01*
X61365504Y-69596000D01*
X61345542Y-69406072D01*
X61286527Y-69224444D01*
X61191040Y-69059056D01*
X61063253Y-68917134D01*
X60908752Y-68804882D01*
X60734288Y-68727206D01*
X60734286Y-68727205D01*
X60547487Y-68687500D01*
X60356513Y-68687500D01*
X60169714Y-68727205D01*
X59995246Y-68804883D01*
X59840745Y-68917135D01*
X59712959Y-69059057D01*
X59617473Y-69224443D01*
X59617470Y-69224450D01*
X59558459Y-69406068D01*
X59558458Y-69406072D01*
X59538496Y-69596000D01*
X49000000Y-69596000D01*
X49000000Y-67818000D01*
X88240496Y-67818000D01*
X88260458Y-68007928D01*
X88260459Y-68007931D01*
X88319470Y-68189549D01*
X88319473Y-68189556D01*
X88414960Y-68354944D01*
X88542747Y-68496866D01*
X88697248Y-68609118D01*
X88871712Y-68686794D01*
X89058513Y-68726500D01*
X89249487Y-68726500D01*
X89436288Y-68686794D01*
X89610752Y-68609118D01*
X89765253Y-68496866D01*
X89893040Y-68354944D01*
X89988527Y-68189556D01*
X90047542Y-68007928D01*
X90067504Y-67818000D01*
X90047542Y-67628072D01*
X90027015Y-67564900D01*
X90025021Y-67495061D01*
X90052796Y-67443612D01*
X90147040Y-67338944D01*
X90242527Y-67173556D01*
X90301542Y-66991928D01*
X90321504Y-66802000D01*
X90301542Y-66612072D01*
X90251907Y-66459315D01*
X90249913Y-66389478D01*
X90251897Y-66382717D01*
X90301542Y-66229928D01*
X90321504Y-66040000D01*
X90301542Y-65850072D01*
X90242527Y-65668444D01*
X90163751Y-65532000D01*
X93828496Y-65532000D01*
X93848458Y-65721928D01*
X93848459Y-65721931D01*
X93907470Y-65903549D01*
X93907473Y-65903556D01*
X94002960Y-66068944D01*
X94130747Y-66210866D01*
X94285248Y-66323118D01*
X94459712Y-66400794D01*
X94646513Y-66440500D01*
X94837487Y-66440500D01*
X95024288Y-66400794D01*
X95198752Y-66323118D01*
X95353253Y-66210866D01*
X95481040Y-66068944D01*
X95576527Y-65903556D01*
X95635542Y-65721928D01*
X95655504Y-65532000D01*
X95635542Y-65342072D01*
X95585907Y-65189315D01*
X95583913Y-65119478D01*
X95585897Y-65112717D01*
X95635542Y-64959928D01*
X95655504Y-64770000D01*
X95635542Y-64580072D01*
X95576527Y-64398444D01*
X95481040Y-64233056D01*
X95353253Y-64091134D01*
X95198752Y-63978882D01*
X95024288Y-63901206D01*
X95024286Y-63901205D01*
X94837487Y-63861500D01*
X94646513Y-63861500D01*
X94459714Y-63901205D01*
X94285246Y-63978883D01*
X94130745Y-64091135D01*
X94002959Y-64233057D01*
X93907473Y-64398443D01*
X93907470Y-64398450D01*
X93869276Y-64516000D01*
X93848458Y-64580072D01*
X93828496Y-64770000D01*
X93848458Y-64959928D01*
X93848459Y-64959931D01*
X93898091Y-65112682D01*
X93900086Y-65182523D01*
X93898091Y-65189318D01*
X93878738Y-65248882D01*
X93848458Y-65342072D01*
X93828496Y-65532000D01*
X90163751Y-65532000D01*
X90147040Y-65503056D01*
X90019253Y-65361134D01*
X89864752Y-65248882D01*
X89690288Y-65171206D01*
X89690286Y-65171205D01*
X89503487Y-65131500D01*
X89312513Y-65131500D01*
X89125714Y-65171205D01*
X88951246Y-65248883D01*
X88796745Y-65361135D01*
X88668959Y-65503057D01*
X88573473Y-65668443D01*
X88573470Y-65668450D01*
X88514459Y-65850068D01*
X88514458Y-65850072D01*
X88494496Y-66040000D01*
X88514458Y-66229928D01*
X88514459Y-66229931D01*
X88564091Y-66382682D01*
X88566086Y-66452523D01*
X88564091Y-66459318D01*
X88514458Y-66612072D01*
X88494496Y-66802000D01*
X88514458Y-66991928D01*
X88514459Y-66991931D01*
X88534983Y-67055098D01*
X88536978Y-67124939D01*
X88509203Y-67176387D01*
X88414958Y-67281057D01*
X88319473Y-67446443D01*
X88319470Y-67446450D01*
X88280983Y-67564902D01*
X88260458Y-67628072D01*
X88240496Y-67818000D01*
X49000000Y-67818000D01*
X49000000Y-65532000D01*
X55474496Y-65532000D01*
X55494458Y-65721928D01*
X55494459Y-65721931D01*
X55553470Y-65903549D01*
X55553473Y-65903556D01*
X55648960Y-66068944D01*
X55776747Y-66210866D01*
X55931248Y-66323118D01*
X56105712Y-66400794D01*
X56292513Y-66440500D01*
X56483487Y-66440500D01*
X56670288Y-66400794D01*
X56844752Y-66323118D01*
X56999253Y-66210866D01*
X57127040Y-66068944D01*
X57222527Y-65903556D01*
X57281542Y-65721928D01*
X57301504Y-65532000D01*
X57281542Y-65342072D01*
X57222527Y-65160444D01*
X57127040Y-64995056D01*
X56999253Y-64853134D01*
X56844752Y-64740882D01*
X56670288Y-64663206D01*
X56670286Y-64663205D01*
X56483487Y-64623500D01*
X56292513Y-64623500D01*
X56105714Y-64663205D01*
X55931246Y-64740883D01*
X55776745Y-64853135D01*
X55648959Y-64995057D01*
X55553473Y-65160443D01*
X55553470Y-65160450D01*
X55524737Y-65248883D01*
X55494458Y-65342072D01*
X55474496Y-65532000D01*
X49000000Y-65532000D01*
X49000000Y-64516000D01*
X60300496Y-64516000D01*
X60320458Y-64705928D01*
X60320459Y-64705931D01*
X60379470Y-64887549D01*
X60379473Y-64887556D01*
X60474960Y-65052944D01*
X60545692Y-65131500D01*
X60597751Y-65189318D01*
X60602747Y-65194866D01*
X60757248Y-65307118D01*
X60931712Y-65384794D01*
X61118513Y-65424500D01*
X61309487Y-65424500D01*
X61496288Y-65384794D01*
X61544563Y-65363299D01*
X61613813Y-65354014D01*
X61645435Y-65363299D01*
X61693712Y-65384794D01*
X61880513Y-65424500D01*
X62071487Y-65424500D01*
X62258288Y-65384794D01*
X62432752Y-65307118D01*
X62587253Y-65194866D01*
X62715040Y-65052944D01*
X62810527Y-64887556D01*
X62869542Y-64705928D01*
X62889504Y-64516000D01*
X62869542Y-64326072D01*
X62810527Y-64144444D01*
X62715040Y-63979056D01*
X62587253Y-63837134D01*
X62432752Y-63724882D01*
X62258288Y-63647206D01*
X62258286Y-63647205D01*
X62071487Y-63607500D01*
X61880513Y-63607500D01*
X61693713Y-63647205D01*
X61693710Y-63647206D01*
X61645434Y-63668700D01*
X61576184Y-63677984D01*
X61544566Y-63668700D01*
X61496289Y-63647206D01*
X61496286Y-63647205D01*
X61309487Y-63607500D01*
X61118513Y-63607500D01*
X60931714Y-63647205D01*
X60757246Y-63724883D01*
X60602745Y-63837135D01*
X60474959Y-63979057D01*
X60379473Y-64144443D01*
X60379470Y-64144450D01*
X60320459Y-64326068D01*
X60320458Y-64326072D01*
X60300496Y-64516000D01*
X49000000Y-64516000D01*
X49000000Y-63246000D01*
X55220496Y-63246000D01*
X55240458Y-63435928D01*
X55240459Y-63435931D01*
X55299470Y-63617549D01*
X55299473Y-63617556D01*
X55394960Y-63782944D01*
X55522747Y-63924866D01*
X55677248Y-64037118D01*
X55851712Y-64114794D01*
X56038513Y-64154500D01*
X56229487Y-64154500D01*
X56416288Y-64114794D01*
X56590752Y-64037118D01*
X56745253Y-63924866D01*
X56873040Y-63782944D01*
X56968527Y-63617556D01*
X57027542Y-63435928D01*
X57047504Y-63246000D01*
X57027542Y-63056072D01*
X56968527Y-62874444D01*
X56873040Y-62709056D01*
X56745253Y-62567134D01*
X56590752Y-62454882D01*
X56416288Y-62377206D01*
X56416286Y-62377205D01*
X56229487Y-62337500D01*
X56038513Y-62337500D01*
X55851714Y-62377205D01*
X55677246Y-62454883D01*
X55522745Y-62567135D01*
X55394959Y-62709057D01*
X55299473Y-62874443D01*
X55299470Y-62874450D01*
X55240459Y-63056068D01*
X55240458Y-63056072D01*
X55220496Y-63246000D01*
X49000000Y-63246000D01*
X49000000Y-60960000D01*
X60046496Y-60960000D01*
X60066458Y-61149928D01*
X60066459Y-61149931D01*
X60125470Y-61331549D01*
X60125473Y-61331556D01*
X60220960Y-61496944D01*
X60348747Y-61638866D01*
X60503248Y-61751118D01*
X60677712Y-61828794D01*
X60864513Y-61868500D01*
X61055487Y-61868500D01*
X61242288Y-61828794D01*
X61416752Y-61751118D01*
X61456829Y-61722000D01*
X71222496Y-61722000D01*
X71242458Y-61911928D01*
X71242459Y-61911931D01*
X71301470Y-62093549D01*
X71301473Y-62093556D01*
X71396960Y-62258944D01*
X71524747Y-62400866D01*
X71679248Y-62513118D01*
X71853712Y-62590794D01*
X72040513Y-62630500D01*
X72231487Y-62630500D01*
X72418288Y-62590794D01*
X72592752Y-62513118D01*
X72747253Y-62400866D01*
X72875040Y-62258944D01*
X72970527Y-62093556D01*
X73029542Y-61911928D01*
X73049504Y-61722000D01*
X73029542Y-61532072D01*
X72970527Y-61350444D01*
X72875040Y-61185056D01*
X72747253Y-61043134D01*
X72592752Y-60930882D01*
X72418288Y-60853206D01*
X72418286Y-60853205D01*
X72231487Y-60813500D01*
X72040513Y-60813500D01*
X71853714Y-60853205D01*
X71679246Y-60930883D01*
X71524745Y-61043135D01*
X71396959Y-61185057D01*
X71301473Y-61350443D01*
X71301470Y-61350450D01*
X71242459Y-61532068D01*
X71242458Y-61532072D01*
X71222496Y-61722000D01*
X61456829Y-61722000D01*
X61571253Y-61638866D01*
X61699040Y-61496944D01*
X61794527Y-61331556D01*
X61853542Y-61149928D01*
X61873504Y-60960000D01*
X61853542Y-60770072D01*
X61794527Y-60588444D01*
X61699040Y-60423056D01*
X61571253Y-60281134D01*
X61416752Y-60168882D01*
X61242288Y-60091206D01*
X61242286Y-60091205D01*
X61055487Y-60051500D01*
X60864513Y-60051500D01*
X60677714Y-60091205D01*
X60503246Y-60168883D01*
X60348745Y-60281135D01*
X60220959Y-60423057D01*
X60125473Y-60588443D01*
X60125470Y-60588450D01*
X60067131Y-60768001D01*
X60066458Y-60770072D01*
X60046496Y-60960000D01*
X49000000Y-60960000D01*
X49000000Y-59182000D01*
X62078496Y-59182000D01*
X62098458Y-59371928D01*
X62098459Y-59371931D01*
X62157470Y-59553549D01*
X62157472Y-59553553D01*
X62157473Y-59553556D01*
X62252960Y-59718944D01*
X62380747Y-59860866D01*
X62535248Y-59973118D01*
X62709712Y-60050794D01*
X62896513Y-60090500D01*
X63087487Y-60090500D01*
X63274288Y-60050794D01*
X63448752Y-59973118D01*
X63603253Y-59860866D01*
X63731040Y-59718944D01*
X63826527Y-59553556D01*
X63885542Y-59371928D01*
X63905504Y-59182000D01*
X94336496Y-59182000D01*
X94356458Y-59371928D01*
X94356459Y-59371931D01*
X94415470Y-59553549D01*
X94415472Y-59553553D01*
X94415473Y-59553556D01*
X94510960Y-59718944D01*
X94638747Y-59860866D01*
X94793248Y-59973118D01*
X94967712Y-60050794D01*
X95154513Y-60090500D01*
X95229547Y-60090500D01*
X95296586Y-60110185D01*
X95342341Y-60162989D01*
X95352867Y-60201537D01*
X95372458Y-60387928D01*
X95372459Y-60387931D01*
X95431470Y-60569549D01*
X95431475Y-60569561D01*
X95474453Y-60644001D01*
X95490926Y-60711901D01*
X95474453Y-60767999D01*
X95431475Y-60842438D01*
X95431470Y-60842450D01*
X95372459Y-61024068D01*
X95372458Y-61024072D01*
X95352496Y-61214000D01*
X95372458Y-61403928D01*
X95372459Y-61403931D01*
X95431470Y-61585549D01*
X95431473Y-61585556D01*
X95526960Y-61750944D01*
X95654747Y-61892866D01*
X95809248Y-62005118D01*
X95983712Y-62082794D01*
X96170513Y-62122500D01*
X96361487Y-62122500D01*
X96548288Y-62082794D01*
X96722752Y-62005118D01*
X96877253Y-61892866D01*
X97005040Y-61750944D01*
X97100527Y-61585556D01*
X97138724Y-61468000D01*
X100940496Y-61468000D01*
X100960458Y-61657928D01*
X100960459Y-61657931D01*
X101019470Y-61839549D01*
X101019473Y-61839556D01*
X101114960Y-62004944D01*
X101242747Y-62146866D01*
X101397248Y-62259118D01*
X101571712Y-62336794D01*
X101758513Y-62376500D01*
X101949487Y-62376500D01*
X102136288Y-62336794D01*
X102292308Y-62267329D01*
X102361554Y-62258046D01*
X102424831Y-62287674D01*
X102450127Y-62318609D01*
X102460627Y-62336795D01*
X102532413Y-62461131D01*
X102532415Y-62461133D01*
X102692072Y-62661338D01*
X102869271Y-62825753D01*
X102879781Y-62835505D01*
X103091355Y-62979754D01*
X103091360Y-62979756D01*
X103091361Y-62979757D01*
X103091363Y-62979758D01*
X103240918Y-63051780D01*
X103292778Y-63098602D01*
X103311091Y-63166029D01*
X103290043Y-63232653D01*
X103236317Y-63277322D01*
X103187117Y-63287500D01*
X102699345Y-63287500D01*
X102638797Y-63294011D01*
X102638795Y-63294011D01*
X102501795Y-63345111D01*
X102384739Y-63432739D01*
X102297111Y-63549795D01*
X102246011Y-63686795D01*
X102246011Y-63686797D01*
X102239500Y-63747345D01*
X102239500Y-66244654D01*
X102246011Y-66305202D01*
X102246011Y-66305204D01*
X102285680Y-66411556D01*
X102297111Y-66442204D01*
X102384739Y-66559261D01*
X102501796Y-66646889D01*
X102638799Y-66697989D01*
X102666050Y-66700918D01*
X102699345Y-66704499D01*
X102699362Y-66704500D01*
X105196638Y-66704500D01*
X105196654Y-66704499D01*
X105223692Y-66701591D01*
X105257201Y-66697989D01*
X105394204Y-66646889D01*
X105511261Y-66559261D01*
X105598889Y-66442204D01*
X105649989Y-66305201D01*
X105653591Y-66271692D01*
X105656499Y-66244654D01*
X105656500Y-66244637D01*
X105656500Y-63747362D01*
X105656499Y-63747345D01*
X105650457Y-63691155D01*
X105649989Y-63686799D01*
X105646701Y-63677984D01*
X105620412Y-63607500D01*
X105598889Y-63549796D01*
X105511261Y-63432739D01*
X105394204Y-63345111D01*
X105257203Y-63294011D01*
X105196654Y-63287500D01*
X105196638Y-63287500D01*
X104708883Y-63287500D01*
X104641844Y-63267815D01*
X104596089Y-63215011D01*
X104586145Y-63145853D01*
X104615170Y-63082297D01*
X104655082Y-63051780D01*
X104804638Y-62979758D01*
X104804638Y-62979757D01*
X104804646Y-62979754D01*
X105016219Y-62835505D01*
X105203931Y-62661334D01*
X105363587Y-62461131D01*
X105491622Y-62239369D01*
X105585174Y-62001001D01*
X105642155Y-61751353D01*
X105654580Y-61585556D01*
X105661291Y-61496004D01*
X105661291Y-61495995D01*
X105642156Y-61240656D01*
X105642155Y-61240651D01*
X105642155Y-61240647D01*
X105585174Y-60990999D01*
X105491622Y-60752631D01*
X105363587Y-60530869D01*
X105203931Y-60330666D01*
X105203930Y-60330665D01*
X105203927Y-60330661D01*
X105060951Y-60198000D01*
X105016219Y-60156495D01*
X104920458Y-60091206D01*
X104804649Y-60012248D01*
X104804638Y-60012241D01*
X104573940Y-59901144D01*
X104573921Y-59901137D01*
X104329248Y-59825666D01*
X104329238Y-59825663D01*
X104076041Y-59787500D01*
X104076034Y-59787500D01*
X103819966Y-59787500D01*
X103819958Y-59787500D01*
X103566761Y-59825663D01*
X103566755Y-59825665D01*
X103322061Y-59901143D01*
X103091362Y-60012241D01*
X103091361Y-60012242D01*
X102879780Y-60156495D01*
X102692072Y-60330661D01*
X102532415Y-60530866D01*
X102532413Y-60530869D01*
X102492959Y-60599206D01*
X102475772Y-60628974D01*
X102425204Y-60677189D01*
X102356597Y-60690411D01*
X102317417Y-60677887D01*
X102316689Y-60679525D01*
X102203148Y-60628974D01*
X102136288Y-60599206D01*
X102136286Y-60599205D01*
X101949487Y-60559500D01*
X101758513Y-60559500D01*
X101571714Y-60599205D01*
X101397246Y-60676883D01*
X101242745Y-60789135D01*
X101114959Y-60931057D01*
X101019473Y-61096443D01*
X101019470Y-61096450D01*
X100972615Y-61240656D01*
X100960458Y-61278072D01*
X100940496Y-61468000D01*
X97138724Y-61468000D01*
X97159542Y-61403928D01*
X97179504Y-61214000D01*
X97159542Y-61024072D01*
X97104024Y-60853206D01*
X97100528Y-60842446D01*
X97100527Y-60842444D01*
X97057545Y-60767998D01*
X97041073Y-60700101D01*
X97057545Y-60644001D01*
X97100527Y-60569556D01*
X97159542Y-60387928D01*
X97179504Y-60198000D01*
X97159542Y-60008072D01*
X97120198Y-59886986D01*
X97100528Y-59826446D01*
X97078042Y-59787500D01*
X97057545Y-59751998D01*
X97041073Y-59684101D01*
X97057545Y-59628001D01*
X97100527Y-59553556D01*
X97159542Y-59371928D01*
X97179504Y-59182000D01*
X97159542Y-58992072D01*
X97100527Y-58810444D01*
X97005040Y-58645056D01*
X96877253Y-58503134D01*
X96722752Y-58390882D01*
X96548288Y-58313206D01*
X96548286Y-58313205D01*
X96361487Y-58273500D01*
X96170513Y-58273500D01*
X95983714Y-58313205D01*
X95808435Y-58391244D01*
X95739185Y-58400528D01*
X95707565Y-58391244D01*
X95628250Y-58355931D01*
X95532288Y-58313206D01*
X95532286Y-58313205D01*
X95345487Y-58273500D01*
X95154513Y-58273500D01*
X94967714Y-58313205D01*
X94793246Y-58390883D01*
X94638745Y-58503135D01*
X94510959Y-58645057D01*
X94415473Y-58810443D01*
X94415470Y-58810450D01*
X94367816Y-58957116D01*
X94356458Y-58992072D01*
X94336496Y-59182000D01*
X63905504Y-59182000D01*
X63885542Y-58992072D01*
X63826527Y-58810444D01*
X63731040Y-58645056D01*
X63603253Y-58503134D01*
X63448752Y-58390882D01*
X63274288Y-58313206D01*
X63274286Y-58313205D01*
X63087487Y-58273500D01*
X62896513Y-58273500D01*
X62709714Y-58313205D01*
X62535246Y-58390883D01*
X62380745Y-58503135D01*
X62252959Y-58645057D01*
X62157473Y-58810443D01*
X62157470Y-58810450D01*
X62109816Y-58957116D01*
X62098458Y-58992072D01*
X62078496Y-59182000D01*
X49000000Y-59182000D01*
X49000000Y-58166000D01*
X58776496Y-58166000D01*
X58796458Y-58355928D01*
X58796459Y-58355931D01*
X58855470Y-58537549D01*
X58855473Y-58537556D01*
X58950960Y-58702944D01*
X59078747Y-58844866D01*
X59233248Y-58957118D01*
X59407712Y-59034794D01*
X59594513Y-59074500D01*
X59785487Y-59074500D01*
X59972288Y-59034794D01*
X60146752Y-58957118D01*
X60301253Y-58844866D01*
X60429040Y-58702944D01*
X60524527Y-58537556D01*
X60583542Y-58355928D01*
X60603504Y-58166000D01*
X60583542Y-57976072D01*
X60524527Y-57794444D01*
X60429040Y-57629056D01*
X60301253Y-57487134D01*
X60146752Y-57374882D01*
X59972288Y-57297206D01*
X59972286Y-57297205D01*
X59785487Y-57257500D01*
X59594513Y-57257500D01*
X59407714Y-57297205D01*
X59233246Y-57374883D01*
X59078745Y-57487135D01*
X58950959Y-57629057D01*
X58855473Y-57794443D01*
X58855470Y-57794450D01*
X58817276Y-57912000D01*
X58796458Y-57976072D01*
X58776496Y-58166000D01*
X49000000Y-58166000D01*
X49000000Y-56896000D01*
X61824496Y-56896000D01*
X61844458Y-57085928D01*
X61844459Y-57085930D01*
X61844459Y-57085931D01*
X61903470Y-57267549D01*
X61903473Y-57267556D01*
X61998960Y-57432944D01*
X62126747Y-57574866D01*
X62281248Y-57687118D01*
X62455712Y-57764794D01*
X62642513Y-57804500D01*
X62833487Y-57804500D01*
X63020288Y-57764794D01*
X63068563Y-57743299D01*
X63137813Y-57734014D01*
X63169435Y-57743299D01*
X63217712Y-57764794D01*
X63404513Y-57804500D01*
X63595487Y-57804500D01*
X63782288Y-57764794D01*
X63956752Y-57687118D01*
X64111253Y-57574866D01*
X64239040Y-57432944D01*
X64334527Y-57267556D01*
X64393542Y-57085928D01*
X64413504Y-56896000D01*
X64393542Y-56706072D01*
X64372724Y-56642000D01*
X66396496Y-56642000D01*
X66416458Y-56831928D01*
X66416459Y-56831931D01*
X66475470Y-57013549D01*
X66475473Y-57013556D01*
X66570960Y-57178944D01*
X66698747Y-57320866D01*
X66853248Y-57433118D01*
X67027712Y-57510794D01*
X67214513Y-57550500D01*
X67405487Y-57550500D01*
X67592288Y-57510794D01*
X67766752Y-57433118D01*
X67921253Y-57320866D01*
X68049040Y-57178944D01*
X68144527Y-57013556D01*
X68182724Y-56896000D01*
X76048496Y-56896000D01*
X76068458Y-57085928D01*
X76068459Y-57085930D01*
X76068459Y-57085931D01*
X76127470Y-57267549D01*
X76127473Y-57267556D01*
X76222960Y-57432944D01*
X76350747Y-57574866D01*
X76505248Y-57687118D01*
X76679712Y-57764794D01*
X76866513Y-57804500D01*
X77057487Y-57804500D01*
X77244288Y-57764794D01*
X77418752Y-57687118D01*
X77573253Y-57574866D01*
X77685194Y-57450542D01*
X77744678Y-57413895D01*
X77814535Y-57415225D01*
X77872584Y-57454112D01*
X77900394Y-57518208D01*
X77895273Y-57571834D01*
X77857816Y-57687116D01*
X77846458Y-57722072D01*
X77826496Y-57912000D01*
X77846458Y-58101928D01*
X77846459Y-58101931D01*
X77905470Y-58283549D01*
X77905473Y-58283556D01*
X78000960Y-58448944D01*
X78128747Y-58590866D01*
X78283248Y-58703118D01*
X78457712Y-58780794D01*
X78644513Y-58820500D01*
X78835487Y-58820500D01*
X79022288Y-58780794D01*
X79196752Y-58703118D01*
X79351253Y-58590866D01*
X79479040Y-58448944D01*
X79574527Y-58283556D01*
X79633542Y-58101928D01*
X79653504Y-57912000D01*
X79633542Y-57722072D01*
X79574527Y-57540444D01*
X79479040Y-57375056D01*
X79351253Y-57233134D01*
X79196752Y-57120882D01*
X79022288Y-57043206D01*
X79022286Y-57043205D01*
X78835487Y-57003500D01*
X78644513Y-57003500D01*
X78457714Y-57043205D01*
X78283246Y-57120883D01*
X78128747Y-57233133D01*
X78016807Y-57357456D01*
X77957320Y-57394104D01*
X77887463Y-57392773D01*
X77829415Y-57353886D01*
X77801605Y-57289790D01*
X77806725Y-57236168D01*
X77855542Y-57085928D01*
X77875504Y-56896000D01*
X77855542Y-56706072D01*
X77796527Y-56524444D01*
X77701040Y-56359056D01*
X77573253Y-56217134D01*
X77418752Y-56104882D01*
X77244288Y-56027206D01*
X77244286Y-56027205D01*
X77057487Y-55987500D01*
X76866513Y-55987500D01*
X76679714Y-56027205D01*
X76505246Y-56104883D01*
X76350745Y-56217135D01*
X76222959Y-56359057D01*
X76127473Y-56524443D01*
X76127470Y-56524450D01*
X76089276Y-56642000D01*
X76068458Y-56706072D01*
X76048496Y-56896000D01*
X68182724Y-56896000D01*
X68203542Y-56831928D01*
X68223504Y-56642000D01*
X68203542Y-56452072D01*
X68144527Y-56270444D01*
X68049040Y-56105056D01*
X67921253Y-55963134D01*
X67766752Y-55850882D01*
X67592288Y-55773206D01*
X67592286Y-55773205D01*
X67405487Y-55733500D01*
X67214513Y-55733500D01*
X67027714Y-55773205D01*
X66853246Y-55850883D01*
X66698745Y-55963135D01*
X66570959Y-56105057D01*
X66475473Y-56270443D01*
X66475470Y-56270450D01*
X66416459Y-56452068D01*
X66416458Y-56452072D01*
X66396496Y-56642000D01*
X64372724Y-56642000D01*
X64334527Y-56524444D01*
X64239040Y-56359056D01*
X64111253Y-56217134D01*
X63956752Y-56104882D01*
X63782288Y-56027206D01*
X63782286Y-56027205D01*
X63595487Y-55987500D01*
X63404513Y-55987500D01*
X63217713Y-56027205D01*
X63217710Y-56027206D01*
X63169434Y-56048700D01*
X63100184Y-56057984D01*
X63068566Y-56048700D01*
X63020289Y-56027206D01*
X63020286Y-56027205D01*
X62833487Y-55987500D01*
X62642513Y-55987500D01*
X62455714Y-56027205D01*
X62281246Y-56104883D01*
X62126745Y-56217135D01*
X61998959Y-56359057D01*
X61903473Y-56524443D01*
X61903470Y-56524450D01*
X61865276Y-56642000D01*
X61844458Y-56706072D01*
X61824496Y-56896000D01*
X49000000Y-56896000D01*
X49000000Y-53340000D01*
X54204496Y-53340000D01*
X54224458Y-53529928D01*
X54224459Y-53529931D01*
X54283470Y-53711549D01*
X54283473Y-53711556D01*
X54378960Y-53876944D01*
X54506747Y-54018866D01*
X54661248Y-54131118D01*
X54835712Y-54208794D01*
X55022513Y-54248500D01*
X55213487Y-54248500D01*
X55400288Y-54208794D01*
X55574752Y-54131118D01*
X55729253Y-54018866D01*
X55857040Y-53876944D01*
X55952527Y-53711556D01*
X56011542Y-53529928D01*
X56031504Y-53340000D01*
X56011542Y-53150072D01*
X55960963Y-52994408D01*
X104863500Y-52994408D01*
X104900332Y-53179576D01*
X104900334Y-53179584D01*
X104972586Y-53354017D01*
X104972591Y-53354026D01*
X105077483Y-53511007D01*
X105077486Y-53511011D01*
X105210988Y-53644513D01*
X105210992Y-53644516D01*
X105367973Y-53749408D01*
X105367979Y-53749411D01*
X105367980Y-53749412D01*
X105542416Y-53821666D01*
X105727591Y-53858499D01*
X105727595Y-53858500D01*
X105727596Y-53858500D01*
X106616405Y-53858500D01*
X106616406Y-53858499D01*
X106801584Y-53821666D01*
X106976020Y-53749412D01*
X107133008Y-53644516D01*
X107266516Y-53511008D01*
X107371412Y-53354020D01*
X107443666Y-53179584D01*
X107480500Y-52994404D01*
X107480500Y-52805596D01*
X107443666Y-52620416D01*
X107371412Y-52445980D01*
X107371411Y-52445979D01*
X107371408Y-52445973D01*
X107266516Y-52288992D01*
X107266513Y-52288988D01*
X107133011Y-52155486D01*
X107133007Y-52155483D01*
X106976026Y-52050591D01*
X106976017Y-52050586D01*
X106801584Y-51978334D01*
X106801576Y-51978332D01*
X106616408Y-51941500D01*
X106616404Y-51941500D01*
X105727596Y-51941500D01*
X105727591Y-51941500D01*
X105542423Y-51978332D01*
X105542415Y-51978334D01*
X105367982Y-52050586D01*
X105367973Y-52050591D01*
X105210992Y-52155483D01*
X105210988Y-52155486D01*
X105077486Y-52288988D01*
X105077483Y-52288992D01*
X104972591Y-52445973D01*
X104972586Y-52445982D01*
X104900334Y-52620415D01*
X104900332Y-52620423D01*
X104863500Y-52805591D01*
X104863500Y-52994408D01*
X55960963Y-52994408D01*
X55952527Y-52968444D01*
X55857040Y-52803056D01*
X55729253Y-52661134D01*
X55574752Y-52548882D01*
X55400288Y-52471206D01*
X55400286Y-52471205D01*
X55213487Y-52431500D01*
X55022513Y-52431500D01*
X54835714Y-52471205D01*
X54661246Y-52548883D01*
X54506745Y-52661135D01*
X54378959Y-52803057D01*
X54283473Y-52968443D01*
X54283470Y-52968450D01*
X54233977Y-53120775D01*
X54224458Y-53150072D01*
X54204496Y-53340000D01*
X49000000Y-53340000D01*
X49000000Y-52568995D01*
X50277499Y-52568995D01*
X50304418Y-52704322D01*
X50304421Y-52704332D01*
X50357221Y-52831804D01*
X50357228Y-52831817D01*
X50433885Y-52946541D01*
X50433888Y-52946545D01*
X50531454Y-53044111D01*
X50531458Y-53044114D01*
X50646182Y-53120771D01*
X50646195Y-53120778D01*
X50716918Y-53150072D01*
X50773672Y-53173580D01*
X50773676Y-53173580D01*
X50773677Y-53173581D01*
X50909004Y-53200500D01*
X50909007Y-53200500D01*
X51046995Y-53200500D01*
X51152184Y-53179576D01*
X51182328Y-53173580D01*
X51309811Y-53120775D01*
X51424542Y-53044114D01*
X51522114Y-52946542D01*
X51598775Y-52831811D01*
X51651580Y-52704328D01*
X51668271Y-52620416D01*
X51678500Y-52568995D01*
X51678500Y-52431004D01*
X51651581Y-52295677D01*
X51651580Y-52295676D01*
X51651580Y-52295672D01*
X51648813Y-52288992D01*
X51598778Y-52168195D01*
X51598771Y-52168182D01*
X51522114Y-52053458D01*
X51522111Y-52053454D01*
X51424545Y-51955888D01*
X51424541Y-51955885D01*
X51309817Y-51879228D01*
X51309804Y-51879221D01*
X51182332Y-51826421D01*
X51182322Y-51826418D01*
X51046995Y-51799500D01*
X51046993Y-51799500D01*
X50909007Y-51799500D01*
X50909005Y-51799500D01*
X50773677Y-51826418D01*
X50773667Y-51826421D01*
X50646195Y-51879221D01*
X50646182Y-51879228D01*
X50531458Y-51955885D01*
X50531454Y-51955888D01*
X50433888Y-52053454D01*
X50433885Y-52053458D01*
X50357228Y-52168182D01*
X50357221Y-52168195D01*
X50304421Y-52295667D01*
X50304418Y-52295677D01*
X50277500Y-52431004D01*
X50277500Y-52431007D01*
X50277500Y-52568993D01*
X50277500Y-52568995D01*
X50277499Y-52568995D01*
X49000000Y-52568995D01*
X49000000Y-49568995D01*
X50277499Y-49568995D01*
X50304418Y-49704322D01*
X50304421Y-49704332D01*
X50357221Y-49831804D01*
X50357228Y-49831817D01*
X50433885Y-49946541D01*
X50433888Y-49946545D01*
X50531454Y-50044111D01*
X50531458Y-50044114D01*
X50646182Y-50120771D01*
X50646195Y-50120778D01*
X50773667Y-50173578D01*
X50773672Y-50173580D01*
X50773676Y-50173580D01*
X50773677Y-50173581D01*
X50909004Y-50200500D01*
X50909007Y-50200500D01*
X51046995Y-50200500D01*
X51138041Y-50182389D01*
X51182328Y-50173580D01*
X51309811Y-50120775D01*
X51424542Y-50044114D01*
X51522114Y-49946542D01*
X51598775Y-49831811D01*
X51651580Y-49704328D01*
X51678500Y-49568993D01*
X51678500Y-49431007D01*
X51678500Y-49431004D01*
X51651581Y-49295677D01*
X51651580Y-49295676D01*
X51651580Y-49295672D01*
X51598904Y-49168500D01*
X51598778Y-49168195D01*
X51598771Y-49168182D01*
X51522114Y-49053458D01*
X51522111Y-49053454D01*
X51424545Y-48955888D01*
X51424541Y-48955885D01*
X51309817Y-48879228D01*
X51309804Y-48879221D01*
X51182332Y-48826421D01*
X51182322Y-48826418D01*
X51046995Y-48799500D01*
X51046993Y-48799500D01*
X50909007Y-48799500D01*
X50909005Y-48799500D01*
X50773677Y-48826418D01*
X50773667Y-48826421D01*
X50646195Y-48879221D01*
X50646182Y-48879228D01*
X50531458Y-48955885D01*
X50531454Y-48955888D01*
X50433888Y-49053454D01*
X50433885Y-49053458D01*
X50357228Y-49168182D01*
X50357221Y-49168195D01*
X50304421Y-49295667D01*
X50304418Y-49295677D01*
X50277500Y-49431004D01*
X50277500Y-49431007D01*
X50277500Y-49568993D01*
X50277500Y-49568995D01*
X50277499Y-49568995D01*
X49000000Y-49568995D01*
X49000000Y-48260000D01*
X99670496Y-48260000D01*
X99690458Y-48449928D01*
X99690459Y-48449931D01*
X99749470Y-48631549D01*
X99749473Y-48631556D01*
X99844960Y-48796944D01*
X99972747Y-48938866D01*
X100127248Y-49051118D01*
X100301712Y-49128794D01*
X100488513Y-49168500D01*
X100679487Y-49168500D01*
X100866288Y-49128794D01*
X101040752Y-49051118D01*
X101146115Y-48974566D01*
X101211920Y-48951087D01*
X101279974Y-48966912D01*
X101291877Y-48974561D01*
X101397248Y-49051118D01*
X101571712Y-49128794D01*
X101758513Y-49168500D01*
X101949487Y-49168500D01*
X102136288Y-49128794D01*
X102310752Y-49051118D01*
X102465253Y-48938866D01*
X102593040Y-48796944D01*
X102688527Y-48631556D01*
X102747542Y-48449928D01*
X102767504Y-48260000D01*
X102747542Y-48070072D01*
X102688527Y-47888444D01*
X102593040Y-47723056D01*
X102579458Y-47707972D01*
X102549229Y-47644981D01*
X102557853Y-47575646D01*
X102579459Y-47542027D01*
X102593040Y-47526944D01*
X102688527Y-47361556D01*
X102747542Y-47179928D01*
X102767504Y-46990000D01*
X102747542Y-46800072D01*
X102688527Y-46618444D01*
X102593040Y-46453056D01*
X102540233Y-46394408D01*
X104863500Y-46394408D01*
X104900332Y-46579576D01*
X104900334Y-46579584D01*
X104972586Y-46754017D01*
X104972591Y-46754026D01*
X105077483Y-46911007D01*
X105077486Y-46911011D01*
X105210988Y-47044513D01*
X105210992Y-47044516D01*
X105367973Y-47149408D01*
X105367979Y-47149411D01*
X105367980Y-47149412D01*
X105542416Y-47221666D01*
X105727591Y-47258499D01*
X105727595Y-47258500D01*
X105727596Y-47258500D01*
X106616405Y-47258500D01*
X106616406Y-47258499D01*
X106801584Y-47221666D01*
X106976020Y-47149412D01*
X107133008Y-47044516D01*
X107266516Y-46911008D01*
X107371412Y-46754020D01*
X107443666Y-46579584D01*
X107480500Y-46394404D01*
X107480500Y-46205596D01*
X107443666Y-46020416D01*
X107371412Y-45845980D01*
X107371411Y-45845979D01*
X107371408Y-45845973D01*
X107266516Y-45688992D01*
X107266513Y-45688988D01*
X107133011Y-45555486D01*
X107133007Y-45555483D01*
X106976026Y-45450591D01*
X106976017Y-45450586D01*
X106801584Y-45378334D01*
X106801576Y-45378332D01*
X106616408Y-45341500D01*
X106616404Y-45341500D01*
X105727596Y-45341500D01*
X105727591Y-45341500D01*
X105542423Y-45378332D01*
X105542415Y-45378334D01*
X105367982Y-45450586D01*
X105367973Y-45450591D01*
X105210992Y-45555483D01*
X105210988Y-45555486D01*
X105077486Y-45688988D01*
X105077483Y-45688992D01*
X104972591Y-45845973D01*
X104972586Y-45845982D01*
X104900334Y-46020415D01*
X104900332Y-46020423D01*
X104863500Y-46205591D01*
X104863500Y-46394408D01*
X102540233Y-46394408D01*
X102465253Y-46311134D01*
X102310752Y-46198882D01*
X102136288Y-46121206D01*
X102136286Y-46121205D01*
X101949487Y-46081500D01*
X101758513Y-46081500D01*
X101571714Y-46121205D01*
X101397243Y-46198884D01*
X101291885Y-46275432D01*
X101226079Y-46298912D01*
X101158025Y-46283086D01*
X101146115Y-46275432D01*
X101040756Y-46198884D01*
X101040752Y-46198882D01*
X100866288Y-46121206D01*
X100866286Y-46121205D01*
X100679487Y-46081500D01*
X100488513Y-46081500D01*
X100301714Y-46121205D01*
X100127246Y-46198883D01*
X99972745Y-46311135D01*
X99844959Y-46453057D01*
X99749473Y-46618443D01*
X99749470Y-46618450D01*
X99711276Y-46736000D01*
X99690458Y-46800072D01*
X99670496Y-46990000D01*
X99690458Y-47179928D01*
X99690459Y-47179931D01*
X99749470Y-47361549D01*
X99749473Y-47361556D01*
X99844957Y-47526940D01*
X99844961Y-47526945D01*
X99858542Y-47542029D01*
X99888771Y-47605022D01*
X99880145Y-47674357D01*
X99858542Y-47707971D01*
X99844961Y-47723054D01*
X99844957Y-47723059D01*
X99749473Y-47888443D01*
X99749470Y-47888450D01*
X99690459Y-48070068D01*
X99690458Y-48070072D01*
X99670496Y-48260000D01*
X49000000Y-48260000D01*
X49000000Y-46736000D01*
X93574496Y-46736000D01*
X93594458Y-46925928D01*
X93594459Y-46925931D01*
X93653470Y-47107549D01*
X93653473Y-47107556D01*
X93748960Y-47272944D01*
X93876747Y-47414866D01*
X94031248Y-47527118D01*
X94205712Y-47604794D01*
X94392513Y-47644500D01*
X94583487Y-47644500D01*
X94770288Y-47604794D01*
X94944752Y-47527118D01*
X95099253Y-47414866D01*
X95227040Y-47272944D01*
X95322527Y-47107556D01*
X95381542Y-46925928D01*
X95401504Y-46736000D01*
X95381542Y-46546072D01*
X95322527Y-46364444D01*
X95227040Y-46199056D01*
X95099253Y-46057134D01*
X94944752Y-45944882D01*
X94770288Y-45867206D01*
X94770286Y-45867205D01*
X94583487Y-45827500D01*
X94392513Y-45827500D01*
X94205714Y-45867205D01*
X94031246Y-45944883D01*
X93876745Y-46057135D01*
X93748959Y-46199057D01*
X93653473Y-46364443D01*
X93653470Y-46364450D01*
X93594459Y-46546068D01*
X93594458Y-46546072D01*
X93574496Y-46736000D01*
X49000000Y-46736000D01*
X49000000Y-44958000D01*
X74270496Y-44958000D01*
X74290458Y-45147928D01*
X74290459Y-45147931D01*
X74349470Y-45329549D01*
X74349473Y-45329556D01*
X74444960Y-45494944D01*
X74572747Y-45636866D01*
X74727248Y-45749118D01*
X74901712Y-45826794D01*
X75088513Y-45866500D01*
X75279487Y-45866500D01*
X75466288Y-45826794D01*
X75640752Y-45749118D01*
X75795253Y-45636866D01*
X75923040Y-45494944D01*
X76018527Y-45329556D01*
X76056724Y-45212000D01*
X87986496Y-45212000D01*
X88006458Y-45401928D01*
X88006459Y-45401931D01*
X88065470Y-45583549D01*
X88065473Y-45583556D01*
X88160960Y-45748944D01*
X88288747Y-45890866D01*
X88443248Y-46003118D01*
X88617712Y-46080794D01*
X88804513Y-46120500D01*
X88995487Y-46120500D01*
X89182288Y-46080794D01*
X89356752Y-46003118D01*
X89511253Y-45890866D01*
X89639040Y-45748944D01*
X89734527Y-45583556D01*
X89793542Y-45401928D01*
X89813504Y-45212000D01*
X89793542Y-45022072D01*
X89734527Y-44840444D01*
X89639040Y-44675056D01*
X89511253Y-44533134D01*
X89356752Y-44420882D01*
X89182288Y-44343206D01*
X89182286Y-44343205D01*
X88995487Y-44303500D01*
X88804513Y-44303500D01*
X88617714Y-44343205D01*
X88443246Y-44420883D01*
X88288745Y-44533135D01*
X88160959Y-44675057D01*
X88065473Y-44840443D01*
X88065470Y-44840450D01*
X88027276Y-44958000D01*
X88006458Y-45022072D01*
X87986496Y-45212000D01*
X76056724Y-45212000D01*
X76077542Y-45147928D01*
X76097504Y-44958000D01*
X76077542Y-44768072D01*
X76018527Y-44586444D01*
X75923040Y-44421056D01*
X75795253Y-44279134D01*
X75640752Y-44166882D01*
X75466288Y-44089206D01*
X75466286Y-44089205D01*
X75279487Y-44049500D01*
X75088513Y-44049500D01*
X74901714Y-44089205D01*
X74727246Y-44166883D01*
X74572745Y-44279135D01*
X74444959Y-44421057D01*
X74349473Y-44586443D01*
X74349470Y-44586450D01*
X74290459Y-44768068D01*
X74290458Y-44768072D01*
X74270496Y-44958000D01*
X49000000Y-44958000D01*
X49000000Y-37225003D01*
X49436653Y-37225003D01*
X49456029Y-37656455D01*
X49456029Y-37656463D01*
X49456030Y-37656465D01*
X49470143Y-37760650D01*
X49514005Y-38084458D01*
X49610110Y-38505522D01*
X49743091Y-38914795D01*
X49743577Y-38916289D01*
X49913324Y-39313433D01*
X50117988Y-39693762D01*
X50117992Y-39693768D01*
X50117992Y-39693769D01*
X50355915Y-40054208D01*
X50355916Y-40054209D01*
X50355920Y-40054214D01*
X50625206Y-40391887D01*
X50923676Y-40704062D01*
X51248927Y-40988226D01*
X51248937Y-40988233D01*
X51248938Y-40988234D01*
X51598337Y-41242088D01*
X51598341Y-41242090D01*
X51598342Y-41242091D01*
X51906157Y-41426002D01*
X51969108Y-41463613D01*
X51969114Y-41463616D01*
X52358225Y-41651002D01*
X52358226Y-41651002D01*
X52358234Y-41651006D01*
X52762594Y-41802765D01*
X52762601Y-41802767D01*
X52762604Y-41802768D01*
X53178922Y-41917664D01*
X53178924Y-41917664D01*
X53178930Y-41917666D01*
X53603889Y-41994785D01*
X54034050Y-42033500D01*
X54034057Y-42033500D01*
X54465943Y-42033500D01*
X54465950Y-42033500D01*
X54896111Y-41994785D01*
X55321070Y-41917666D01*
X55737406Y-41802765D01*
X56141766Y-41651006D01*
X56530894Y-41463612D01*
X56901658Y-41242091D01*
X57251073Y-40988226D01*
X57576324Y-40704062D01*
X57874794Y-40391887D01*
X58144080Y-40054214D01*
X58382012Y-39693762D01*
X58586676Y-39313433D01*
X58756423Y-38916289D01*
X58889888Y-38505528D01*
X58985995Y-38084456D01*
X59043970Y-37656465D01*
X59046865Y-37592000D01*
X60386854Y-37592000D01*
X60386859Y-37592049D01*
X60390971Y-37636428D01*
X60391500Y-37647870D01*
X60391500Y-37677352D01*
X60397457Y-37714962D01*
X60398736Y-37723038D01*
X60399733Y-37730991D01*
X60405399Y-37792130D01*
X60405399Y-37792132D01*
X60413014Y-37818897D01*
X60416220Y-37833430D01*
X60418203Y-37845950D01*
X60437683Y-37905904D01*
X60439007Y-37910250D01*
X60447300Y-37939395D01*
X60460400Y-37985440D01*
X60460404Y-37985450D01*
X60465306Y-37995295D01*
X60468829Y-38003904D01*
X60469088Y-38003797D01*
X60470955Y-38008304D01*
X60507182Y-38079405D01*
X60507697Y-38080427D01*
X60549989Y-38165361D01*
X60603848Y-38236682D01*
X60605213Y-38238525D01*
X60648786Y-38298500D01*
X60649823Y-38299537D01*
X60661095Y-38312490D01*
X60671111Y-38325753D01*
X60724774Y-38374673D01*
X60728894Y-38378608D01*
X60769496Y-38419210D01*
X60784292Y-38429960D01*
X60794936Y-38438634D01*
X60819643Y-38461157D01*
X60867100Y-38490542D01*
X60874693Y-38495640D01*
X60874702Y-38495647D01*
X60907595Y-38519545D01*
X60907603Y-38519550D01*
X60938841Y-38535466D01*
X60947812Y-38540517D01*
X60990526Y-38566964D01*
X60990530Y-38566965D01*
X60990534Y-38566968D01*
X61026927Y-38581066D01*
X61038414Y-38586201D01*
X61059697Y-38597045D01*
X61059699Y-38597045D01*
X61059702Y-38597047D01*
X61108995Y-38613063D01*
X61115456Y-38615362D01*
X61177941Y-38639569D01*
X61199793Y-38643654D01*
X61215321Y-38647611D01*
X61218664Y-38648697D01*
X61222039Y-38649794D01*
X61222040Y-38649794D01*
X61222046Y-38649796D01*
X61289858Y-38660536D01*
X61293127Y-38661100D01*
X61375506Y-38676500D01*
X61375508Y-38676500D01*
X61576492Y-38676500D01*
X61576494Y-38676500D01*
X61658880Y-38661098D01*
X61662142Y-38660536D01*
X61729954Y-38649796D01*
X61736683Y-38647609D01*
X61752208Y-38643653D01*
X61774059Y-38639569D01*
X61836568Y-38615352D01*
X61842986Y-38613068D01*
X61892303Y-38597045D01*
X61913580Y-38586203D01*
X61925074Y-38581065D01*
X61928466Y-38579751D01*
X61961474Y-38566964D01*
X62004179Y-38540521D01*
X62013147Y-38535471D01*
X62044402Y-38519547D01*
X62056128Y-38511026D01*
X62077298Y-38495647D01*
X62084907Y-38490537D01*
X62096942Y-38483084D01*
X62132357Y-38461157D01*
X62157072Y-38438625D01*
X62167701Y-38429963D01*
X62182504Y-38419210D01*
X62223124Y-38378588D01*
X62227222Y-38374675D01*
X62249902Y-38354000D01*
X65888496Y-38354000D01*
X65908458Y-38543928D01*
X65908459Y-38543931D01*
X65967470Y-38725549D01*
X65967473Y-38725556D01*
X66062960Y-38890944D01*
X66190747Y-39032866D01*
X66345248Y-39145118D01*
X66519712Y-39222794D01*
X66706513Y-39262500D01*
X66897487Y-39262500D01*
X67084288Y-39222794D01*
X67258752Y-39145118D01*
X67413253Y-39032866D01*
X67541040Y-38890944D01*
X67636527Y-38725556D01*
X67695542Y-38543928D01*
X67714571Y-38362868D01*
X67741156Y-38298257D01*
X67790439Y-38261272D01*
X67805336Y-38255102D01*
X67931111Y-38171062D01*
X67997785Y-38150185D01*
X68065165Y-38168669D01*
X68068890Y-38171063D01*
X68194657Y-38255098D01*
X68194661Y-38255100D01*
X68194664Y-38255102D01*
X68360000Y-38323587D01*
X68512898Y-38354000D01*
X68535516Y-38358499D01*
X68535520Y-38358500D01*
X68535521Y-38358500D01*
X68714480Y-38358500D01*
X68714481Y-38358499D01*
X68890000Y-38323587D01*
X69055336Y-38255102D01*
X69181110Y-38171062D01*
X69247786Y-38150185D01*
X69315166Y-38168669D01*
X69318874Y-38171052D01*
X69351897Y-38193117D01*
X69444657Y-38255098D01*
X69444661Y-38255100D01*
X69444664Y-38255102D01*
X69610000Y-38323587D01*
X69762898Y-38354000D01*
X69785516Y-38358499D01*
X69785520Y-38358500D01*
X69785521Y-38358500D01*
X69964480Y-38358500D01*
X69964481Y-38358499D01*
X70140000Y-38323587D01*
X70305336Y-38255102D01*
X70366859Y-38213993D01*
X70433531Y-38193117D01*
X70499896Y-38210980D01*
X70635604Y-38293019D01*
X70635603Y-38293019D01*
X70797894Y-38343590D01*
X70797893Y-38343590D01*
X70868408Y-38349998D01*
X70868426Y-38349999D01*
X70874999Y-38349998D01*
X70875000Y-38349998D01*
X70875000Y-37249728D01*
X70913060Y-37341614D01*
X70983386Y-37411940D01*
X71075272Y-37450000D01*
X71174728Y-37450000D01*
X71375000Y-37450000D01*
X71375000Y-38349999D01*
X71381581Y-38349999D01*
X71452102Y-38343591D01*
X71452107Y-38343590D01*
X71614396Y-38293018D01*
X71759877Y-38205072D01*
X71880072Y-38084877D01*
X71968019Y-37939395D01*
X71997122Y-37845999D01*
X96192854Y-37845999D01*
X96196971Y-37890428D01*
X96197500Y-37901870D01*
X96197500Y-37931352D01*
X96204723Y-37976959D01*
X96204736Y-37977038D01*
X96205733Y-37984991D01*
X96211399Y-38046130D01*
X96211399Y-38046132D01*
X96219014Y-38072897D01*
X96222220Y-38087430D01*
X96222221Y-38087439D01*
X96224204Y-38099954D01*
X96236136Y-38136676D01*
X96243683Y-38159904D01*
X96245007Y-38164250D01*
X96246946Y-38171063D01*
X96266400Y-38239440D01*
X96266404Y-38239450D01*
X96271306Y-38249295D01*
X96274829Y-38257904D01*
X96275088Y-38257797D01*
X96276955Y-38262304D01*
X96313182Y-38333405D01*
X96313697Y-38334427D01*
X96355989Y-38419361D01*
X96409848Y-38490682D01*
X96411213Y-38492525D01*
X96454786Y-38552500D01*
X96455823Y-38553537D01*
X96467095Y-38566490D01*
X96477111Y-38579753D01*
X96530774Y-38628673D01*
X96534894Y-38632608D01*
X96575496Y-38673210D01*
X96590292Y-38683960D01*
X96600936Y-38692634D01*
X96625643Y-38715157D01*
X96673100Y-38744542D01*
X96680693Y-38749640D01*
X96680702Y-38749647D01*
X96713595Y-38773545D01*
X96713603Y-38773550D01*
X96744841Y-38789466D01*
X96753812Y-38794517D01*
X96796526Y-38820964D01*
X96796530Y-38820965D01*
X96796534Y-38820968D01*
X96832927Y-38835066D01*
X96844414Y-38840201D01*
X96865697Y-38851045D01*
X96865699Y-38851045D01*
X96865702Y-38851047D01*
X96914995Y-38867063D01*
X96921456Y-38869362D01*
X96983941Y-38893569D01*
X97005793Y-38897654D01*
X97021321Y-38901611D01*
X97024664Y-38902697D01*
X97028039Y-38903794D01*
X97028040Y-38903794D01*
X97028046Y-38903796D01*
X97095858Y-38914536D01*
X97099127Y-38915100D01*
X97181506Y-38930500D01*
X97181508Y-38930500D01*
X97382492Y-38930500D01*
X97382494Y-38930500D01*
X97464880Y-38915098D01*
X97468142Y-38914536D01*
X97535954Y-38903796D01*
X97542683Y-38901609D01*
X97558208Y-38897653D01*
X97580059Y-38893569D01*
X97642568Y-38869352D01*
X97648986Y-38867068D01*
X97698303Y-38851045D01*
X97719580Y-38840203D01*
X97731074Y-38835065D01*
X97767474Y-38820964D01*
X97810179Y-38794521D01*
X97819147Y-38789471D01*
X97850402Y-38773547D01*
X97862128Y-38765026D01*
X97883298Y-38749647D01*
X97890907Y-38744537D01*
X97921573Y-38725549D01*
X97938357Y-38715157D01*
X97963072Y-38692625D01*
X97973701Y-38683963D01*
X97988504Y-38673210D01*
X98029124Y-38632588D01*
X98033222Y-38628675D01*
X98086889Y-38579753D01*
X98096902Y-38566492D01*
X98108179Y-38553534D01*
X98109210Y-38552504D01*
X98152839Y-38492451D01*
X98154065Y-38490795D01*
X98208011Y-38419361D01*
X98250395Y-38334237D01*
X98250741Y-38333550D01*
X98287045Y-38262303D01*
X98287046Y-38262299D01*
X98287050Y-38262292D01*
X98288914Y-38257792D01*
X98289180Y-38257902D01*
X98292701Y-38249279D01*
X98293725Y-38247222D01*
X98297598Y-38239445D01*
X98318990Y-38164257D01*
X98320327Y-38159869D01*
X98336592Y-38109813D01*
X98339796Y-38099954D01*
X98341779Y-38087427D01*
X98344984Y-38072895D01*
X98352601Y-38046130D01*
X98358265Y-37984986D01*
X98359259Y-37977063D01*
X98366500Y-37931352D01*
X98366500Y-37901870D01*
X98367029Y-37890428D01*
X98371146Y-37845999D01*
X98367029Y-37801570D01*
X98366500Y-37790129D01*
X98366500Y-37760650D01*
X98366499Y-37760642D01*
X98359259Y-37714936D01*
X98358264Y-37706997D01*
X98356948Y-37692795D01*
X98352601Y-37645870D01*
X98344985Y-37619103D01*
X98341780Y-37604576D01*
X98339796Y-37592046D01*
X98320317Y-37532100D01*
X98318990Y-37527742D01*
X98312988Y-37506648D01*
X98297598Y-37452555D01*
X98292694Y-37442706D01*
X98289180Y-37434099D01*
X98288915Y-37434210D01*
X98287048Y-37429705D01*
X98287046Y-37429702D01*
X98287045Y-37429697D01*
X98250819Y-37358601D01*
X98250386Y-37357742D01*
X98208011Y-37272639D01*
X98154142Y-37201306D01*
X98152785Y-37199473D01*
X98152120Y-37198558D01*
X98135511Y-37175696D01*
X98109213Y-37139499D01*
X98108177Y-37138463D01*
X98096904Y-37125508D01*
X98086892Y-37112251D01*
X98086889Y-37112247D01*
X98033225Y-37063326D01*
X98029104Y-37059390D01*
X97988503Y-37018789D01*
X97988498Y-37018785D01*
X97973717Y-37008046D01*
X97963067Y-36999368D01*
X97938357Y-36976843D01*
X97890903Y-36947460D01*
X97883300Y-36942354D01*
X97879286Y-36939438D01*
X97850402Y-36918453D01*
X97819142Y-36902525D01*
X97810187Y-36897482D01*
X97767474Y-36871036D01*
X97767468Y-36871033D01*
X97734463Y-36858247D01*
X97731069Y-36856932D01*
X97719583Y-36851797D01*
X97710967Y-36847407D01*
X97698306Y-36840956D01*
X97698298Y-36840953D01*
X97649005Y-36824936D01*
X97642533Y-36822633D01*
X97580059Y-36798431D01*
X97580052Y-36798429D01*
X97558211Y-36794346D01*
X97542688Y-36790391D01*
X97535960Y-36788205D01*
X97535957Y-36788204D01*
X97468214Y-36777474D01*
X97464831Y-36776890D01*
X97382495Y-36761500D01*
X97382494Y-36761500D01*
X97181506Y-36761500D01*
X97181502Y-36761500D01*
X97099166Y-36776890D01*
X97095785Y-36777474D01*
X97028039Y-36788205D01*
X97021300Y-36790394D01*
X97005793Y-36794344D01*
X96983949Y-36798428D01*
X96921453Y-36822638D01*
X96914983Y-36824940D01*
X96865693Y-36840956D01*
X96844418Y-36851795D01*
X96832929Y-36856932D01*
X96796528Y-36871035D01*
X96796525Y-36871036D01*
X96753819Y-36897478D01*
X96744843Y-36902532D01*
X96713593Y-36918455D01*
X96680691Y-36942359D01*
X96673090Y-36947463D01*
X96625650Y-36976837D01*
X96625641Y-36976844D01*
X96600938Y-36999363D01*
X96590296Y-37008036D01*
X96575495Y-37018790D01*
X96575493Y-37018792D01*
X96534902Y-37059382D01*
X96530763Y-37063335D01*
X96477108Y-37112249D01*
X96467091Y-37125513D01*
X96455843Y-37138442D01*
X96454791Y-37139493D01*
X96411198Y-37199493D01*
X96409837Y-37201331D01*
X96355989Y-37272639D01*
X96355985Y-37272645D01*
X96313654Y-37357658D01*
X96313139Y-37358680D01*
X96276954Y-37429696D01*
X96275089Y-37434200D01*
X96274830Y-37434092D01*
X96271310Y-37442697D01*
X96266400Y-37452558D01*
X96245013Y-37527726D01*
X96243679Y-37532107D01*
X96224203Y-37592049D01*
X96222219Y-37604576D01*
X96219014Y-37619103D01*
X96211399Y-37645869D01*
X96211398Y-37645874D01*
X96205733Y-37707007D01*
X96204735Y-37714962D01*
X96197500Y-37760642D01*
X96197500Y-37790129D01*
X96196971Y-37801570D01*
X96192854Y-37845999D01*
X71997122Y-37845999D01*
X72018590Y-37777106D01*
X72025000Y-37706572D01*
X72025000Y-37450000D01*
X71375000Y-37450000D01*
X71174728Y-37450000D01*
X71266614Y-37411940D01*
X71336940Y-37341614D01*
X71375000Y-37249728D01*
X71375000Y-37150272D01*
X71336940Y-37058386D01*
X71266614Y-36988060D01*
X71174728Y-36950000D01*
X71075272Y-36950000D01*
X70983386Y-36988060D01*
X70913060Y-37058386D01*
X70875000Y-37150272D01*
X70875000Y-36050000D01*
X71375000Y-36050000D01*
X71375000Y-36950000D01*
X72024999Y-36950000D01*
X72024999Y-36693417D01*
X72018591Y-36622897D01*
X72018590Y-36622892D01*
X71968018Y-36460603D01*
X71880072Y-36315122D01*
X71759877Y-36194927D01*
X71614395Y-36106980D01*
X71614396Y-36106980D01*
X71452105Y-36056409D01*
X71452106Y-36056409D01*
X71381572Y-36050000D01*
X71375000Y-36050000D01*
X70875000Y-36050000D01*
X70874999Y-36049999D01*
X70868436Y-36050000D01*
X70868417Y-36050001D01*
X70797897Y-36056408D01*
X70797892Y-36056409D01*
X70635601Y-36106981D01*
X70635599Y-36106982D01*
X70499895Y-36189018D01*
X70432341Y-36206854D01*
X70366855Y-36186003D01*
X70305342Y-36144901D01*
X70305332Y-36144896D01*
X70140000Y-36076413D01*
X70139992Y-36076411D01*
X69964483Y-36041500D01*
X69964479Y-36041500D01*
X69785521Y-36041500D01*
X69785516Y-36041500D01*
X69610007Y-36076411D01*
X69609999Y-36076413D01*
X69444667Y-36144896D01*
X69444657Y-36144901D01*
X69318891Y-36228936D01*
X69252213Y-36249814D01*
X69184833Y-36231329D01*
X69181109Y-36228936D01*
X69055342Y-36144901D01*
X69055332Y-36144896D01*
X68890000Y-36076413D01*
X68889992Y-36076411D01*
X68714483Y-36041500D01*
X68714479Y-36041500D01*
X68535521Y-36041500D01*
X68535516Y-36041500D01*
X68360007Y-36076411D01*
X68359999Y-36076413D01*
X68194667Y-36144896D01*
X68194657Y-36144901D01*
X68068891Y-36228936D01*
X68002213Y-36249814D01*
X67934833Y-36231329D01*
X67931109Y-36228936D01*
X67805342Y-36144901D01*
X67805332Y-36144896D01*
X67640000Y-36076413D01*
X67639992Y-36076411D01*
X67464483Y-36041500D01*
X67464479Y-36041500D01*
X67285521Y-36041500D01*
X67285516Y-36041500D01*
X67110007Y-36076411D01*
X67109999Y-36076413D01*
X66944667Y-36144896D01*
X66944657Y-36144901D01*
X66795865Y-36244321D01*
X66795861Y-36244324D01*
X66669324Y-36370861D01*
X66669321Y-36370865D01*
X66569901Y-36519657D01*
X66569896Y-36519667D01*
X66501413Y-36684999D01*
X66501412Y-36685004D01*
X66466500Y-36860516D01*
X66466500Y-37428370D01*
X66446815Y-37495409D01*
X66394011Y-37541164D01*
X66392937Y-37541649D01*
X66345247Y-37562882D01*
X66190745Y-37675135D01*
X66062959Y-37817057D01*
X65967473Y-37982443D01*
X65967470Y-37982450D01*
X65909812Y-38159904D01*
X65908458Y-38164072D01*
X65888496Y-38354000D01*
X62249902Y-38354000D01*
X62280889Y-38325753D01*
X62290902Y-38312492D01*
X62302179Y-38299534D01*
X62303210Y-38298504D01*
X62346839Y-38238451D01*
X62348065Y-38236795D01*
X62402011Y-38165361D01*
X62444395Y-38080237D01*
X62444741Y-38079550D01*
X62481045Y-38008303D01*
X62481046Y-38008299D01*
X62481050Y-38008292D01*
X62482914Y-38003792D01*
X62483180Y-38003902D01*
X62486701Y-37995279D01*
X62487725Y-37993222D01*
X62491598Y-37985445D01*
X62512990Y-37910257D01*
X62514327Y-37905869D01*
X62533796Y-37845954D01*
X62535779Y-37833427D01*
X62538984Y-37818895D01*
X62546601Y-37792130D01*
X62552265Y-37730986D01*
X62553259Y-37723063D01*
X62560500Y-37677352D01*
X62560500Y-37647870D01*
X62561029Y-37636428D01*
X62565141Y-37592049D01*
X62565146Y-37592000D01*
X62561029Y-37547570D01*
X62560500Y-37536129D01*
X62560500Y-37506650D01*
X62560499Y-37506642D01*
X62553259Y-37460936D01*
X62552264Y-37452997D01*
X62552223Y-37452558D01*
X62546601Y-37391870D01*
X62538985Y-37365103D01*
X62535780Y-37350576D01*
X62533796Y-37338046D01*
X62514317Y-37278100D01*
X62512990Y-37273742D01*
X62510945Y-37266556D01*
X62491598Y-37198555D01*
X62486694Y-37188706D01*
X62483180Y-37180099D01*
X62482915Y-37180210D01*
X62481048Y-37175705D01*
X62481046Y-37175702D01*
X62481045Y-37175697D01*
X62444819Y-37104601D01*
X62444386Y-37103742D01*
X62402011Y-37018639D01*
X62387935Y-37000000D01*
X62348150Y-36947316D01*
X62346785Y-36945473D01*
X62346476Y-36945048D01*
X62327156Y-36918455D01*
X62303213Y-36885499D01*
X62302177Y-36884463D01*
X62290904Y-36871508D01*
X62280892Y-36858251D01*
X62280889Y-36858247D01*
X62227225Y-36809326D01*
X62223104Y-36805390D01*
X62182503Y-36764789D01*
X62182498Y-36764785D01*
X62167717Y-36754046D01*
X62157067Y-36745368D01*
X62132357Y-36722843D01*
X62084903Y-36693460D01*
X62077300Y-36688354D01*
X62069647Y-36682794D01*
X62044402Y-36664453D01*
X62013142Y-36648525D01*
X62004187Y-36643482D01*
X61961474Y-36617036D01*
X61961468Y-36617033D01*
X61930706Y-36605116D01*
X61925069Y-36602932D01*
X61913583Y-36597797D01*
X61904967Y-36593407D01*
X61892306Y-36586956D01*
X61892298Y-36586953D01*
X61843005Y-36570936D01*
X61836533Y-36568633D01*
X61774059Y-36544431D01*
X61774052Y-36544429D01*
X61752211Y-36540346D01*
X61736688Y-36536391D01*
X61729960Y-36534205D01*
X61729957Y-36534204D01*
X61662214Y-36523474D01*
X61658831Y-36522890D01*
X61576495Y-36507500D01*
X61576494Y-36507500D01*
X61375506Y-36507500D01*
X61375502Y-36507500D01*
X61293166Y-36522890D01*
X61289785Y-36523474D01*
X61222039Y-36534205D01*
X61215300Y-36536394D01*
X61199793Y-36540344D01*
X61177949Y-36544428D01*
X61115453Y-36568638D01*
X61108983Y-36570940D01*
X61059693Y-36586956D01*
X61038418Y-36597795D01*
X61026929Y-36602932D01*
X60990528Y-36617035D01*
X60990525Y-36617036D01*
X60947819Y-36643478D01*
X60938843Y-36648532D01*
X60907593Y-36664455D01*
X60874691Y-36688359D01*
X60867090Y-36693463D01*
X60819650Y-36722837D01*
X60819641Y-36722844D01*
X60794938Y-36745363D01*
X60784296Y-36754036D01*
X60769495Y-36764790D01*
X60769493Y-36764792D01*
X60728902Y-36805382D01*
X60724763Y-36809335D01*
X60671108Y-36858249D01*
X60661091Y-36871513D01*
X60649843Y-36884442D01*
X60648791Y-36885493D01*
X60605198Y-36945493D01*
X60603837Y-36947331D01*
X60549989Y-37018639D01*
X60549985Y-37018645D01*
X60507654Y-37103658D01*
X60507139Y-37104680D01*
X60470954Y-37175696D01*
X60469089Y-37180200D01*
X60468830Y-37180092D01*
X60465310Y-37188697D01*
X60460400Y-37198558D01*
X60439013Y-37273726D01*
X60437679Y-37278107D01*
X60418203Y-37338049D01*
X60416219Y-37350576D01*
X60413014Y-37365103D01*
X60405399Y-37391869D01*
X60405398Y-37391874D01*
X60399733Y-37453007D01*
X60398735Y-37460962D01*
X60391500Y-37506642D01*
X60391500Y-37536129D01*
X60390971Y-37547570D01*
X60386854Y-37592000D01*
X59046865Y-37592000D01*
X59061208Y-37272636D01*
X59063347Y-37225003D01*
X59063347Y-37224996D01*
X59050794Y-36945493D01*
X59043970Y-36793535D01*
X58985995Y-36365544D01*
X58889888Y-35944472D01*
X58847495Y-35814000D01*
X76302496Y-35814000D01*
X76322458Y-36003928D01*
X76322459Y-36003931D01*
X76381470Y-36185549D01*
X76381473Y-36185556D01*
X76476960Y-36350944D01*
X76604747Y-36492866D01*
X76759248Y-36605118D01*
X76933712Y-36682794D01*
X77120513Y-36722500D01*
X77311487Y-36722500D01*
X77498288Y-36682794D01*
X77672752Y-36605118D01*
X77827253Y-36492866D01*
X77955040Y-36350944D01*
X78050527Y-36185556D01*
X78109542Y-36003928D01*
X78129504Y-35814000D01*
X78109542Y-35624072D01*
X78050527Y-35442444D01*
X77955040Y-35277056D01*
X77827253Y-35135134D01*
X77672752Y-35022882D01*
X77498288Y-34945206D01*
X77498286Y-34945205D01*
X77311487Y-34905500D01*
X77120513Y-34905500D01*
X76933714Y-34945205D01*
X76759246Y-35022883D01*
X76604745Y-35135135D01*
X76476959Y-35277057D01*
X76381473Y-35442443D01*
X76381470Y-35442450D01*
X76322459Y-35624068D01*
X76322458Y-35624072D01*
X76302496Y-35814000D01*
X58847495Y-35814000D01*
X58756423Y-35533711D01*
X58586676Y-35136567D01*
X58382012Y-34756238D01*
X58382007Y-34756230D01*
X58144084Y-34395791D01*
X58144083Y-34395790D01*
X57874795Y-34058114D01*
X57874792Y-34058111D01*
X57610803Y-33782000D01*
X80620496Y-33782000D01*
X80640458Y-33971928D01*
X80640459Y-33971931D01*
X80699470Y-34153549D01*
X80699473Y-34153556D01*
X80794960Y-34318944D01*
X80922747Y-34460866D01*
X81077248Y-34573118D01*
X81251712Y-34650794D01*
X81438513Y-34690500D01*
X81629487Y-34690500D01*
X81816288Y-34650794D01*
X81990752Y-34573118D01*
X82096115Y-34496566D01*
X82161920Y-34473087D01*
X82229974Y-34488912D01*
X82241877Y-34496561D01*
X82347248Y-34573118D01*
X82521712Y-34650794D01*
X82708513Y-34690500D01*
X82899487Y-34690500D01*
X83086288Y-34650794D01*
X83260752Y-34573118D01*
X83415253Y-34460866D01*
X83543040Y-34318944D01*
X83638527Y-34153556D01*
X83697542Y-33971928D01*
X83717504Y-33782000D01*
X83697542Y-33592072D01*
X83638527Y-33410444D01*
X83543040Y-33245056D01*
X83415253Y-33103134D01*
X83260752Y-32990882D01*
X83086288Y-32913206D01*
X83086286Y-32913205D01*
X82899487Y-32873500D01*
X82708513Y-32873500D01*
X82521714Y-32913205D01*
X82347243Y-32990884D01*
X82241885Y-33067432D01*
X82176079Y-33090912D01*
X82108025Y-33075086D01*
X82096115Y-33067432D01*
X81990756Y-32990884D01*
X81980658Y-32986388D01*
X81816288Y-32913206D01*
X81816286Y-32913205D01*
X81629487Y-32873500D01*
X81438513Y-32873500D01*
X81251714Y-32913205D01*
X81077246Y-32990883D01*
X80922745Y-33103135D01*
X80794959Y-33245057D01*
X80699473Y-33410443D01*
X80699470Y-33410450D01*
X80640459Y-33592068D01*
X80640458Y-33592072D01*
X80620496Y-33782000D01*
X57610803Y-33782000D01*
X57576328Y-33745942D01*
X57576327Y-33745941D01*
X57576324Y-33745938D01*
X57318796Y-33520942D01*
X57251078Y-33461778D01*
X57251061Y-33461765D01*
X56901662Y-33207911D01*
X56530891Y-32986386D01*
X56530885Y-32986383D01*
X56141774Y-32798997D01*
X56141769Y-32798995D01*
X56141766Y-32798994D01*
X55737406Y-32647235D01*
X55737404Y-32647234D01*
X55737395Y-32647231D01*
X55321077Y-32532335D01*
X54896117Y-32455216D01*
X54896116Y-32455215D01*
X54896111Y-32455215D01*
X54465950Y-32416500D01*
X54034050Y-32416500D01*
X53603889Y-32455215D01*
X53603884Y-32455215D01*
X53603882Y-32455216D01*
X53178922Y-32532335D01*
X52762604Y-32647231D01*
X52762588Y-32647237D01*
X52559420Y-32723487D01*
X52358234Y-32798994D01*
X52358232Y-32798995D01*
X52358225Y-32798997D01*
X51969114Y-32986383D01*
X51969108Y-32986386D01*
X51598337Y-33207911D01*
X51248938Y-33461765D01*
X51248921Y-33461778D01*
X50923676Y-33745938D01*
X50923671Y-33745942D01*
X50625207Y-34058111D01*
X50625204Y-34058114D01*
X50355916Y-34395790D01*
X50355915Y-34395791D01*
X50117992Y-34756230D01*
X50117992Y-34756231D01*
X49913325Y-35136564D01*
X49913324Y-35136567D01*
X49782587Y-35442444D01*
X49743574Y-35533719D01*
X49610110Y-35944477D01*
X49514005Y-36365541D01*
X49456030Y-36793535D01*
X49456029Y-36793544D01*
X49436653Y-37224996D01*
X49436653Y-37225003D01*
X49000000Y-37225003D01*
X49000000Y-37000710D01*
X49000007Y-36999358D01*
X49000575Y-36947316D01*
X49002328Y-36786517D01*
X49002793Y-36777073D01*
X49003868Y-36764792D01*
X49039943Y-36352444D01*
X49041355Y-36341725D01*
X49046046Y-36315122D01*
X49115257Y-35922602D01*
X49117589Y-35912083D01*
X49227749Y-35500959D01*
X49230989Y-35490683D01*
X49376558Y-35090736D01*
X49380679Y-35080786D01*
X49560552Y-34695047D01*
X49565532Y-34685480D01*
X49778332Y-34316900D01*
X49784125Y-34307806D01*
X50028246Y-33959165D01*
X50034812Y-33950609D01*
X50308394Y-33624566D01*
X50315681Y-33616615D01*
X50616615Y-33315681D01*
X50624566Y-33308394D01*
X50950609Y-33034812D01*
X50959165Y-33028246D01*
X51307806Y-32784125D01*
X51316900Y-32778332D01*
X51685480Y-32565532D01*
X51695047Y-32560552D01*
X52080786Y-32380679D01*
X52090736Y-32376558D01*
X52490683Y-32230989D01*
X52500959Y-32227749D01*
X52912083Y-32117589D01*
X52922602Y-32115257D01*
X53341732Y-32041353D01*
X53352444Y-32039943D01*
X53777085Y-32002792D01*
X53786517Y-32002328D01*
X53999358Y-32000006D01*
X54000710Y-32000000D01*
X103244727Y-32000000D01*
X103311766Y-32019685D01*
G37*
%TD.AperFunction*%
%TD*%
M02*
