%TF.GenerationSoftware,KiCad,Pcbnew,8.0.1*%
%TF.CreationDate,2024-05-01T14:41:19+05:45*%
%TF.ProjectId,STM32F4_Breakout_REV2,53544d33-3246-4345-9f42-7265616b6f75,rev?*%
%TF.SameCoordinates,Original*%
%TF.FileFunction,Copper,L4,Bot*%
%TF.FilePolarity,Positive*%
%FSLAX46Y46*%
G04 Gerber Fmt 4.6, Leading zero omitted, Abs format (unit mm)*
G04 Created by KiCad (PCBNEW 8.0.1) date 2024-05-01 14:41:19*
%MOMM*%
%LPD*%
G01*
G04 APERTURE LIST*
G04 Aperture macros list*
%AMRoundRect*
0 Rectangle with rounded corners*
0 $1 Rounding radius*
0 $2 $3 $4 $5 $6 $7 $8 $9 X,Y pos of 4 corners*
0 Add a 4 corners polygon primitive as box body*
4,1,4,$2,$3,$4,$5,$6,$7,$8,$9,$2,$3,0*
0 Add four circle primitives for the rounded corners*
1,1,$1+$1,$2,$3*
1,1,$1+$1,$4,$5*
1,1,$1+$1,$6,$7*
1,1,$1+$1,$8,$9*
0 Add four rect primitives between the rounded corners*
20,1,$1+$1,$2,$3,$4,$5,0*
20,1,$1+$1,$4,$5,$6,$7,0*
20,1,$1+$1,$6,$7,$8,$9,0*
20,1,$1+$1,$8,$9,$2,$3,0*%
G04 Aperture macros list end*
%TA.AperFunction,ComponentPad*%
%ADD10C,1.152000*%
%TD*%
%TA.AperFunction,ComponentPad*%
%ADD11C,0.900000*%
%TD*%
%TA.AperFunction,ComponentPad*%
%ADD12C,8.600000*%
%TD*%
%TA.AperFunction,ComponentPad*%
%ADD13RoundRect,0.200000X-0.200000X-0.450000X0.200000X-0.450000X0.200000X0.450000X-0.200000X0.450000X0*%
%TD*%
%TA.AperFunction,ComponentPad*%
%ADD14O,0.800000X1.300000*%
%TD*%
%TA.AperFunction,ComponentPad*%
%ADD15RoundRect,0.200000X0.200000X0.450000X-0.200000X0.450000X-0.200000X-0.450000X0.200000X-0.450000X0*%
%TD*%
%TA.AperFunction,ComponentPad*%
%ADD16O,1.600000X0.900000*%
%TD*%
%TA.AperFunction,ComponentPad*%
%ADD17R,2.400000X2.400000*%
%TD*%
%TA.AperFunction,ComponentPad*%
%ADD18C,2.400000*%
%TD*%
%TA.AperFunction,ViaPad*%
%ADD19C,0.800000*%
%TD*%
%TA.AperFunction,Conductor*%
%ADD20C,0.750000*%
%TD*%
%TA.AperFunction,Conductor*%
%ADD21C,0.300000*%
%TD*%
G04 APERTURE END LIST*
D10*
%TO.P,REF\u002A\u002A,1*%
%TO.N,N/C*%
X101354000Y-77086200D03*
%TD*%
%TO.P,REF\u002A\u002A,1*%
%TO.N,N/C*%
X97282000Y-37846000D03*
%TD*%
%TO.P,REF\u002A\u002A,1*%
%TO.N,N/C*%
X61476000Y-37592000D03*
%TD*%
D11*
%TO.P,H1,1,1*%
%TO.N,GND*%
X100775000Y-37000000D03*
X101719581Y-34719581D03*
X101719581Y-39280419D03*
X104000000Y-33775000D03*
D12*
X104000000Y-37000000D03*
D11*
X104000000Y-40225000D03*
X106280419Y-34719581D03*
X106280419Y-39280419D03*
X107225000Y-37000000D03*
%TD*%
%TO.P,H2,1,1*%
%TO.N,GND*%
X100775000Y-83000000D03*
X101719581Y-80719581D03*
X101719581Y-85280419D03*
X104000000Y-79775000D03*
D12*
X104000000Y-83000000D03*
D11*
X104000000Y-86225000D03*
X106280419Y-80719581D03*
X106280419Y-85280419D03*
X107225000Y-83000000D03*
%TD*%
D13*
%TO.P,J5,1,Pin_1*%
%TO.N,+3V3*%
X64017200Y-82829400D03*
D14*
%TO.P,J5,2,Pin_2*%
%TO.N,UART3_TX*%
X65267200Y-82829400D03*
%TO.P,J5,3,Pin_3*%
%TO.N,UART3_RX*%
X66517200Y-82829400D03*
%TO.P,J5,4,Pin_4*%
%TO.N,GND*%
X67767200Y-82829400D03*
%TD*%
D11*
%TO.P,H3,1,1*%
%TO.N,GND*%
X50775000Y-83000000D03*
X51719581Y-80719581D03*
X51719581Y-85280419D03*
X54000000Y-79775000D03*
D12*
X54000000Y-83000000D03*
D11*
X54000000Y-86225000D03*
X56280419Y-80719581D03*
X56280419Y-85280419D03*
X57225000Y-83000000D03*
%TD*%
D15*
%TO.P,J3,1,Pin_1*%
%TO.N,+3V3*%
X71125000Y-37200000D03*
D14*
%TO.P,J3,2,Pin_2*%
%TO.N,I2C1_SCL*%
X69875000Y-37200000D03*
%TO.P,J3,3,Pin_3*%
%TO.N,I2C1_SDA*%
X68625000Y-37200000D03*
%TO.P,J3,4,Pin_4*%
%TO.N,GND*%
X67375000Y-37200000D03*
%TD*%
D11*
%TO.P,H4,1,1*%
%TO.N,GND*%
X51025000Y-37225000D03*
X51969581Y-34944581D03*
X51969581Y-39505419D03*
X54250000Y-34000000D03*
D12*
X54250000Y-37225000D03*
D11*
X54250000Y-40450000D03*
X56530419Y-34944581D03*
X56530419Y-39505419D03*
X57475000Y-37225000D03*
%TD*%
D16*
%TO.P,J1,6,Shield*%
%TO.N,unconnected-(J1-Shield-Pad6)_3*%
X106172000Y-52900000D03*
%TO.N,unconnected-(J1-Shield-Pad6)_0*%
X106172000Y-46300000D03*
%TD*%
D17*
%TO.P,J2,1,Pin_1*%
%TO.N,+12V*%
X103948000Y-64996000D03*
D18*
%TO.P,J2,2,Pin_2*%
%TO.N,GND*%
X103948000Y-61496000D03*
%TD*%
D19*
%TO.N,GND*%
X89408000Y-66040000D03*
X94996000Y-74422000D03*
X89408000Y-75692000D03*
X55118000Y-53340000D03*
X63500000Y-56896000D03*
X94742000Y-65532000D03*
X100584000Y-48260000D03*
X95250000Y-59182000D03*
X67762200Y-80805400D03*
X62738000Y-56896000D03*
X91948000Y-79756000D03*
X88900000Y-45212000D03*
X87884000Y-80264000D03*
X77216000Y-35814000D03*
X81534000Y-33782000D03*
X89408000Y-66802000D03*
X76454000Y-72390000D03*
X101854000Y-48260000D03*
X65532000Y-72136000D03*
X82804000Y-33782000D03*
X60960000Y-60960000D03*
X101854000Y-46990000D03*
X90932000Y-79756000D03*
X96266000Y-59182000D03*
X89408000Y-78232000D03*
X59690000Y-58166000D03*
X96266000Y-61214000D03*
X56388000Y-65532000D03*
X89408000Y-79756000D03*
X61976000Y-64516000D03*
X76962000Y-56896000D03*
X78740000Y-57912000D03*
X62992000Y-59182000D03*
X66802000Y-38354000D03*
X96266000Y-60198000D03*
X100584000Y-46990000D03*
X101854000Y-61468000D03*
X94742000Y-64770000D03*
X60452000Y-69596000D03*
X67310000Y-56642000D03*
X89408000Y-76962000D03*
X98298000Y-73914000D03*
X94488000Y-46736000D03*
X97790000Y-74422000D03*
X76454000Y-71374000D03*
X61214000Y-64516000D03*
X56134000Y-63246000D03*
%TO.N,+3V3*%
X71374000Y-39116000D03*
X67564000Y-53086000D03*
X59182000Y-68834000D03*
X77216000Y-58928000D03*
X83820000Y-78740000D03*
X71374000Y-53086000D03*
X59182000Y-66802000D03*
X64262000Y-54610000D03*
X95948000Y-73660000D03*
X86106000Y-75946000D03*
X85344000Y-35306000D03*
X82296000Y-73660000D03*
X63952200Y-80805400D03*
X86106000Y-78740000D03*
X65278000Y-54610000D03*
X82296000Y-72136000D03*
X88900000Y-43180000D03*
X61976000Y-60960000D03*
X83820000Y-75946000D03*
X55118000Y-48768000D03*
X74422000Y-71120000D03*
X96520000Y-74480000D03*
X86106000Y-73660000D03*
X68072000Y-72136000D03*
X86106000Y-72136000D03*
%TO.N,BUCK_SW*%
X95653000Y-75455000D03*
X89154000Y-67818000D03*
%TO.N,NRST*%
X75184000Y-44958000D03*
X72136000Y-61722000D03*
%TD*%
D20*
%TO.N,BUCK_SW*%
X99568000Y-68580000D02*
X99568000Y-74422000D01*
X98535000Y-75455000D02*
X95653000Y-75455000D01*
X99568000Y-74422000D02*
X98535000Y-75455000D01*
X98806000Y-67818000D02*
X99568000Y-68580000D01*
X89154000Y-67818000D02*
X98806000Y-67818000D01*
D21*
%TO.N,NRST*%
X75184000Y-44958000D02*
X75184000Y-48876662D01*
X73152000Y-50908662D02*
X73152000Y-60706000D01*
X73152000Y-60706000D02*
X72136000Y-61722000D01*
X75184000Y-48876662D02*
X73152000Y-50908662D01*
%TD*%
M02*
