M48
; DRILL file {KiCad 8.0.1} date 2024-05-01T14:40:42+0545
; FORMAT={-:-/ absolute / inch / decimal}
; #@! TF.CreationDate,2024-05-01T14:40:42+05:45
; #@! TF.GenerationSoftware,Kicad,Pcbnew,8.0.1
; #@! TF.FileFunction,Plated,1,4,PTH
FMAT,2
INCH
; #@! TA.AperFunction,Plated,PTH,ViaDrill
T1C0.0157
; #@! TA.AperFunction,Plated,PTH,ComponentDrill
T2C0.0197
; #@! TA.AperFunction,Plated,PTH,ComponentDrill
T3C0.0236
; #@! TA.AperFunction,Plated,PTH,ComponentDrill
T4C0.0454
; #@! TA.AperFunction,Plated,PTH,ComponentDrill
T5C0.0472
; #@! TA.AperFunction,Plated,PTH,ComponentDrill
T6C0.1693
%
G90
G05
T1
X2.17Y-1.92
X2.17Y-2.1
X2.21Y-2.49
X2.22Y-2.58
X2.33Y-2.63
X2.33Y-2.71
X2.35Y-2.29
X2.38Y-2.74
X2.4Y-2.4
X2.41Y-2.54
X2.44Y-2.4
X2.44Y-2.54
X2.47Y-2.24
X2.48Y-2.33
X2.5Y-2.24
X2.5178Y-3.1813
X2.53Y-2.15
X2.57Y-2.15
X2.58Y-2.84
X2.63Y-1.51
X2.65Y-2.23
X2.66Y-2.09
X2.6678Y-3.1813
X2.68Y-2.84
X2.81Y-1.54
X2.81Y-2.09
X2.84Y-2.43
X2.93Y-2.8
X2.96Y-1.77
X3.01Y-2.81
X3.01Y-2.85
X3.03Y-2.24
X3.04Y-1.41
X3.04Y-2.32
X3.1Y-2.28
X3.21Y-1.33
X3.24Y-2.84
X3.24Y-2.9
X3.26Y-1.33
X3.3Y-2.99
X3.3Y-3.1
X3.36Y-1.39
X3.39Y-2.84
X3.39Y-2.9
X3.39Y-2.99
X3.39Y-3.1
X3.46Y-3.16
X3.5Y-1.7
X3.5Y-1.78
X3.51Y-2.67
X3.52Y-2.6
X3.52Y-2.63
X3.52Y-2.98
X3.52Y-3.03
X3.52Y-3.08
X3.52Y-3.14
X3.58Y-3.14
X3.62Y-3.14
X3.72Y-1.84
X3.73Y-2.55
X3.73Y-2.58
X3.74Y-2.93
X3.75Y-2.33
X3.7659Y-2.9707
X3.7775Y-2.9
X3.79Y-2.33
X3.79Y-2.37
X3.79Y-2.41
X3.8Y-2.9323
X3.85Y-2.93
X3.87Y-2.91
X3.96Y-1.85
X3.96Y-1.9
X4.01Y-1.85
X4.01Y-1.9
X4.01Y-2.42
T2
X2.5204Y-3.261
X2.5696Y-3.261
X2.6188Y-3.261
X2.6526Y-1.4646
X2.668Y-3.261
X2.7018Y-1.4646
X2.751Y-1.4646
X2.8002Y-1.4646
T3
X1.999Y-3.2677
X2.0089Y-1.4656
X2.0362Y-3.1779
X2.0362Y-3.3575
X2.046Y-1.3758
X2.046Y-1.5553
X2.126Y-3.1407
X2.126Y-3.3947
X2.1358Y-1.3386
X2.1358Y-1.5925
X2.2158Y-3.1779
X2.2158Y-3.3575
X2.2256Y-1.3758
X2.2256Y-1.5553
X2.253Y-3.2677
X2.2628Y-1.4656
X3.9675Y-1.4567
X3.9675Y-3.2677
X4.0047Y-1.3669
X4.0047Y-1.5465
X4.0047Y-3.1779
X4.0047Y-3.3575
X4.0945Y-1.3297
X4.0945Y-1.5837
X4.0945Y-3.1407
X4.0945Y-3.3947
X4.1843Y-1.3669
X4.1843Y-1.5465
X4.1843Y-3.1779
X4.1843Y-3.3575
X4.2215Y-1.4567
X4.2215Y-3.2677
T4
X2.4203Y-1.48
X3.83Y-1.49
X3.9903Y-3.0349
T5
X4.0924Y-2.4211
X4.0924Y-2.5589
T6
X2.126Y-3.2677
X2.1358Y-1.4656
X4.0945Y-1.4567
X4.0945Y-3.2677
T2
G00X4.1938Y-1.8228
M15
G01X4.1662Y-1.8228
M16
G05
G00X4.1938Y-2.0827
M15
G01X4.1662Y-2.0827
M16
G05
M30
