%TF.GenerationSoftware,KiCad,Pcbnew,8.0.1*%
%TF.CreationDate,2024-05-01T14:41:19+05:45*%
%TF.ProjectId,STM32F4_Breakout_REV2,53544d33-3246-4345-9f42-7265616b6f75,rev?*%
%TF.SameCoordinates,Original*%
%TF.FileFunction,Copper,L1,Top*%
%TF.FilePolarity,Positive*%
%FSLAX46Y46*%
G04 Gerber Fmt 4.6, Leading zero omitted, Abs format (unit mm)*
G04 Created by KiCad (PCBNEW 8.0.1) date 2024-05-01 14:41:19*
%MOMM*%
%LPD*%
G01*
G04 APERTURE LIST*
G04 Aperture macros list*
%AMRoundRect*
0 Rectangle with rounded corners*
0 $1 Rounding radius*
0 $2 $3 $4 $5 $6 $7 $8 $9 X,Y pos of 4 corners*
0 Add a 4 corners polygon primitive as box body*
4,1,4,$2,$3,$4,$5,$6,$7,$8,$9,$2,$3,0*
0 Add four circle primitives for the rounded corners*
1,1,$1+$1,$2,$3*
1,1,$1+$1,$4,$5*
1,1,$1+$1,$6,$7*
1,1,$1+$1,$8,$9*
0 Add four rect primitives between the rounded corners*
20,1,$1+$1,$2,$3,$4,$5,0*
20,1,$1+$1,$4,$5,$6,$7,0*
20,1,$1+$1,$6,$7,$8,$9,0*
20,1,$1+$1,$8,$9,$2,$3,0*%
G04 Aperture macros list end*
%TA.AperFunction,ComponentPad*%
%ADD10C,1.152000*%
%TD*%
%TA.AperFunction,SMDPad,CuDef*%
%ADD11RoundRect,0.250000X0.375000X0.625000X-0.375000X0.625000X-0.375000X-0.625000X0.375000X-0.625000X0*%
%TD*%
%TA.AperFunction,SMDPad,CuDef*%
%ADD12RoundRect,0.225000X0.250000X-0.225000X0.250000X0.225000X-0.250000X0.225000X-0.250000X-0.225000X0*%
%TD*%
%TA.AperFunction,SMDPad,CuDef*%
%ADD13RoundRect,0.218750X0.256250X-0.218750X0.256250X0.218750X-0.256250X0.218750X-0.256250X-0.218750X0*%
%TD*%
%TA.AperFunction,SMDPad,CuDef*%
%ADD14RoundRect,0.150000X0.150000X-0.820000X0.150000X0.820000X-0.150000X0.820000X-0.150000X-0.820000X0*%
%TD*%
%TA.AperFunction,SMDPad,CuDef*%
%ADD15R,3.510000X2.620000*%
%TD*%
%TA.AperFunction,SMDPad,CuDef*%
%ADD16RoundRect,0.218750X0.218750X0.256250X-0.218750X0.256250X-0.218750X-0.256250X0.218750X-0.256250X0*%
%TD*%
%TA.AperFunction,SMDPad,CuDef*%
%ADD17RoundRect,0.200000X0.200000X0.275000X-0.200000X0.275000X-0.200000X-0.275000X0.200000X-0.275000X0*%
%TD*%
%TA.AperFunction,SMDPad,CuDef*%
%ADD18R,0.900000X1.200000*%
%TD*%
%TA.AperFunction,SMDPad,CuDef*%
%ADD19RoundRect,0.140000X0.170000X-0.140000X0.170000X0.140000X-0.170000X0.140000X-0.170000X-0.140000X0*%
%TD*%
%TA.AperFunction,SMDPad,CuDef*%
%ADD20R,1.200000X1.400000*%
%TD*%
%TA.AperFunction,SMDPad,CuDef*%
%ADD21RoundRect,0.200000X-0.200000X-0.275000X0.200000X-0.275000X0.200000X0.275000X-0.200000X0.275000X0*%
%TD*%
%TA.AperFunction,SMDPad,CuDef*%
%ADD22RoundRect,0.140000X0.140000X0.170000X-0.140000X0.170000X-0.140000X-0.170000X0.140000X-0.170000X0*%
%TD*%
%TA.AperFunction,SMDPad,CuDef*%
%ADD23R,0.800000X1.000000*%
%TD*%
%TA.AperFunction,SMDPad,CuDef*%
%ADD24R,1.500000X0.700000*%
%TD*%
%TA.AperFunction,SMDPad,CuDef*%
%ADD25RoundRect,0.140000X-0.140000X-0.170000X0.140000X-0.170000X0.140000X0.170000X-0.140000X0.170000X0*%
%TD*%
%TA.AperFunction,ComponentPad*%
%ADD26C,0.900000*%
%TD*%
%TA.AperFunction,ComponentPad*%
%ADD27C,8.600000*%
%TD*%
%TA.AperFunction,SMDPad,CuDef*%
%ADD28RoundRect,0.150000X0.512500X0.150000X-0.512500X0.150000X-0.512500X-0.150000X0.512500X-0.150000X0*%
%TD*%
%TA.AperFunction,SMDPad,CuDef*%
%ADD29R,2.500000X1.900000*%
%TD*%
%TA.AperFunction,SMDPad,CuDef*%
%ADD30RoundRect,0.135000X-0.135000X-0.185000X0.135000X-0.185000X0.135000X0.185000X-0.135000X0.185000X0*%
%TD*%
%TA.AperFunction,SMDPad,CuDef*%
%ADD31RoundRect,0.218750X-0.381250X0.218750X-0.381250X-0.218750X0.381250X-0.218750X0.381250X0.218750X0*%
%TD*%
%TA.AperFunction,SMDPad,CuDef*%
%ADD32RoundRect,0.135000X0.135000X0.185000X-0.135000X0.185000X-0.135000X-0.185000X0.135000X-0.185000X0*%
%TD*%
%TA.AperFunction,SMDPad,CuDef*%
%ADD33RoundRect,0.250000X-0.325000X-0.650000X0.325000X-0.650000X0.325000X0.650000X-0.325000X0.650000X0*%
%TD*%
%TA.AperFunction,SMDPad,CuDef*%
%ADD34RoundRect,0.075000X-0.700000X-0.075000X0.700000X-0.075000X0.700000X0.075000X-0.700000X0.075000X0*%
%TD*%
%TA.AperFunction,SMDPad,CuDef*%
%ADD35RoundRect,0.075000X-0.075000X-0.700000X0.075000X-0.700000X0.075000X0.700000X-0.075000X0.700000X0*%
%TD*%
%TA.AperFunction,ComponentPad*%
%ADD36RoundRect,0.200000X-0.200000X-0.450000X0.200000X-0.450000X0.200000X0.450000X-0.200000X0.450000X0*%
%TD*%
%TA.AperFunction,ComponentPad*%
%ADD37O,0.800000X1.300000*%
%TD*%
%TA.AperFunction,SMDPad,CuDef*%
%ADD38RoundRect,0.200000X0.275000X-0.200000X0.275000X0.200000X-0.275000X0.200000X-0.275000X-0.200000X0*%
%TD*%
%TA.AperFunction,SMDPad,CuDef*%
%ADD39R,0.740000X2.400000*%
%TD*%
%TA.AperFunction,ComponentPad*%
%ADD40RoundRect,0.200000X0.200000X0.450000X-0.200000X0.450000X-0.200000X-0.450000X0.200000X-0.450000X0*%
%TD*%
%TA.AperFunction,SMDPad,CuDef*%
%ADD41RoundRect,0.200000X-0.275000X0.200000X-0.275000X-0.200000X0.275000X-0.200000X0.275000X0.200000X0*%
%TD*%
%TA.AperFunction,SMDPad,CuDef*%
%ADD42RoundRect,0.225000X-0.225000X-0.250000X0.225000X-0.250000X0.225000X0.250000X-0.225000X0.250000X0*%
%TD*%
%TA.AperFunction,SMDPad,CuDef*%
%ADD43RoundRect,0.225000X0.225000X0.250000X-0.225000X0.250000X-0.225000X-0.250000X0.225000X-0.250000X0*%
%TD*%
%TA.AperFunction,SMDPad,CuDef*%
%ADD44RoundRect,0.150000X-0.150000X0.587500X-0.150000X-0.587500X0.150000X-0.587500X0.150000X0.587500X0*%
%TD*%
%TA.AperFunction,SMDPad,CuDef*%
%ADD45RoundRect,0.147500X-0.147500X-0.172500X0.147500X-0.172500X0.147500X0.172500X-0.147500X0.172500X0*%
%TD*%
%TA.AperFunction,SMDPad,CuDef*%
%ADD46RoundRect,0.100000X0.575000X-0.100000X0.575000X0.100000X-0.575000X0.100000X-0.575000X-0.100000X0*%
%TD*%
%TA.AperFunction,ComponentPad*%
%ADD47O,1.600000X0.900000*%
%TD*%
%TA.AperFunction,SMDPad,CuDef*%
%ADD48RoundRect,0.250000X0.450000X-0.550000X0.450000X0.550000X-0.450000X0.550000X-0.450000X-0.550000X0*%
%TD*%
%TA.AperFunction,SMDPad,CuDef*%
%ADD49RoundRect,0.250000X0.700000X-0.700000X0.700000X0.700000X-0.700000X0.700000X-0.700000X-0.700000X0*%
%TD*%
%TA.AperFunction,ComponentPad*%
%ADD50R,2.400000X2.400000*%
%TD*%
%TA.AperFunction,ComponentPad*%
%ADD51C,2.400000*%
%TD*%
%TA.AperFunction,ViaPad*%
%ADD52C,0.800000*%
%TD*%
%TA.AperFunction,Conductor*%
%ADD53C,0.300000*%
%TD*%
%TA.AperFunction,Conductor*%
%ADD54C,0.750000*%
%TD*%
%TA.AperFunction,Conductor*%
%ADD55C,0.500000*%
%TD*%
%TA.AperFunction,Conductor*%
%ADD56C,1.000000*%
%TD*%
%TA.AperFunction,Conductor*%
%ADD57C,0.261112*%
%TD*%
G04 APERTURE END LIST*
D10*
%TO.P,REF\u002A\u002A,1*%
%TO.N,N/C*%
X101354000Y-77086200D03*
%TD*%
%TO.P,REF\u002A\u002A,1*%
%TO.N,N/C*%
X97282000Y-37846000D03*
%TD*%
%TO.P,REF\u002A\u002A,1*%
%TO.N,N/C*%
X61476000Y-37592000D03*
%TD*%
D11*
%TO.P,F1,1*%
%TO.N,Net-(D2-K)*%
X93433000Y-57498700D03*
%TO.P,F1,2*%
%TO.N,Net-(F1-Pad2)*%
X90633000Y-57498700D03*
%TD*%
D12*
%TO.P,C3,1*%
%TO.N,Net-(U1-VCAP_2)*%
X78673000Y-60573000D03*
%TO.P,C3,2*%
%TO.N,GND*%
X78673000Y-59023000D03*
%TD*%
D13*
%TO.P,D1,1,K*%
%TO.N,Net-(D1-K)*%
X63221000Y-71137500D03*
%TO.P,D1,2,A*%
%TO.N,LED_STATUS*%
X63221000Y-69562500D03*
%TD*%
D12*
%TO.P,C16,1*%
%TO.N,BUCK_BST*%
X88468000Y-71951000D03*
%TO.P,C16,2*%
%TO.N,BUCK_SW*%
X88468000Y-70401000D03*
%TD*%
D14*
%TO.P,U2,1,BS*%
%TO.N,BUCK_BST*%
X90438000Y-74001000D03*
%TO.P,U2,2,IN*%
%TO.N,BUCK_IN*%
X91708000Y-74001000D03*
%TO.P,U2,3,SW*%
%TO.N,BUCK_SW*%
X92978000Y-74001000D03*
%TO.P,U2,4,GND*%
%TO.N,GND*%
X94248000Y-74001000D03*
%TO.P,U2,5,FB*%
%TO.N,BUCK_FB*%
X94248000Y-69041000D03*
%TO.P,U2,6,COMP*%
%TO.N,unconnected-(U2-COMP-Pad6)*%
X92978000Y-69041000D03*
%TO.P,U2,7,EN*%
%TO.N,BUCK_EN*%
X91708000Y-69041000D03*
%TO.P,U2,8,SS*%
%TO.N,unconnected-(U2-SS-Pad8)*%
X90438000Y-69041000D03*
D15*
%TO.P,U2,9*%
%TO.N,N/C*%
X92343000Y-71521000D03*
%TD*%
D16*
%TO.P,D4,1,K*%
%TO.N,Net-(D4-K)*%
X91537500Y-43250000D03*
%TO.P,D4,2,A*%
%TO.N,+3V3*%
X89962500Y-43250000D03*
%TD*%
D17*
%TO.P,R11,1*%
%TO.N,Net-(D4-K)*%
X91650000Y-45250000D03*
%TO.P,R11,2*%
%TO.N,GND*%
X90000000Y-45250000D03*
%TD*%
D18*
%TO.P,D3,1,K*%
%TO.N,BUCK_SW*%
X85068000Y-66176000D03*
%TO.P,D3,2,A*%
%TO.N,GND*%
X88368000Y-66176000D03*
%TD*%
D19*
%TO.P,C7,1*%
%TO.N,+3V3*%
X76175000Y-58666000D03*
%TO.P,C7,2*%
%TO.N,GND*%
X76175000Y-57706000D03*
%TD*%
D20*
%TO.P,Y1,1,1*%
%TO.N,HSE_IN*%
X58053000Y-61122000D03*
%TO.P,Y1,2,2*%
%TO.N,GND*%
X58053000Y-63322000D03*
%TO.P,Y1,3,3*%
%TO.N,Net-(C13-Pad1)*%
X59753000Y-63322000D03*
%TO.P,Y1,4,4*%
%TO.N,GND*%
X59753000Y-61122000D03*
%TD*%
D21*
%TO.P,R9,1*%
%TO.N,BUCK_FB*%
X95903000Y-69001000D03*
%TO.P,R9,2*%
%TO.N,Net-(R10-Pad1)*%
X97553000Y-69001000D03*
%TD*%
D22*
%TO.P,C13,1*%
%TO.N,Net-(C13-Pad1)*%
X59383000Y-65016000D03*
%TO.P,C13,2*%
%TO.N,GND*%
X58423000Y-65016000D03*
%TD*%
D19*
%TO.P,C11,1*%
%TO.N,+3.3VA*%
X61951000Y-66512000D03*
%TO.P,C11,2*%
%TO.N,GND*%
X61951000Y-65552000D03*
%TD*%
%TO.P,C12,1*%
%TO.N,+3.3VA*%
X60825000Y-66540000D03*
%TO.P,C12,2*%
%TO.N,GND*%
X60825000Y-65580000D03*
%TD*%
D23*
%TO.P,SW1,*%
%TO.N,*%
X52088000Y-47350000D03*
X49878000Y-47350000D03*
X52088000Y-54650000D03*
X49878000Y-54650000D03*
D24*
%TO.P,SW1,1,A*%
%TO.N,+3V3*%
X52738000Y-48750000D03*
%TO.P,SW1,2,B*%
%TO.N,Net-(SW1-B)*%
X52738000Y-51750000D03*
%TO.P,SW1,3,C*%
%TO.N,GND*%
X52738000Y-53250000D03*
%TD*%
D25*
%TO.P,C6,1*%
%TO.N,+3V3*%
X75345000Y-70250000D03*
%TO.P,C6,2*%
%TO.N,GND*%
X76305000Y-70250000D03*
%TD*%
D26*
%TO.P,H1,1,1*%
%TO.N,GND*%
X100775000Y-37000000D03*
X101719581Y-34719581D03*
X101719581Y-39280419D03*
X104000000Y-33775000D03*
D27*
X104000000Y-37000000D03*
D26*
X104000000Y-40225000D03*
X106280419Y-34719581D03*
X106280419Y-39280419D03*
X107225000Y-37000000D03*
%TD*%
D25*
%TO.P,C10,1*%
%TO.N,HSE_IN*%
X58423000Y-59428000D03*
%TO.P,C10,2*%
%TO.N,GND*%
X59383000Y-59428000D03*
%TD*%
D22*
%TO.P,C5,1*%
%TO.N,+3V3*%
X67305000Y-72048000D03*
%TO.P,C5,2*%
%TO.N,GND*%
X66345000Y-72048000D03*
%TD*%
D28*
%TO.P,U3,1,I/O1*%
%TO.N,USB_CONN_D-*%
X95887500Y-49950000D03*
%TO.P,U3,2,GND*%
%TO.N,GND*%
X95887500Y-49000000D03*
%TO.P,U3,3,I/O2*%
%TO.N,USB_CONN_D+*%
X95887500Y-48050000D03*
%TO.P,U3,4,I/O2*%
%TO.N,USB_D+*%
X93612500Y-48050000D03*
%TO.P,U3,5,VBUS*%
%TO.N,+5V*%
X93612500Y-49000000D03*
%TO.P,U3,6,I/O1*%
%TO.N,USB_D-*%
X93612500Y-49950000D03*
%TD*%
D25*
%TO.P,C9,1*%
%TO.N,+3V3*%
X66095000Y-55798000D03*
%TO.P,C9,2*%
%TO.N,GND*%
X67055000Y-55798000D03*
%TD*%
D18*
%TO.P,D2,1,K*%
%TO.N,Net-(D2-K)*%
X95463000Y-57458700D03*
%TO.P,D2,2,A*%
%TO.N,+5V*%
X98763000Y-57458700D03*
%TD*%
D29*
%TO.P,L2,1*%
%TO.N,BUCK_SW*%
X84228000Y-68951000D03*
%TO.P,L2,2*%
%TO.N,+3V3*%
X84228000Y-73051000D03*
%TD*%
D26*
%TO.P,H2,1,1*%
%TO.N,GND*%
X100775000Y-83000000D03*
X101719581Y-80719581D03*
X101719581Y-85280419D03*
X104000000Y-79775000D03*
D27*
X104000000Y-83000000D03*
D26*
X104000000Y-86225000D03*
X106280419Y-80719581D03*
X106280419Y-85280419D03*
X107225000Y-83000000D03*
%TD*%
D30*
%TO.P,R6,1*%
%TO.N,+3V3*%
X67490000Y-54000000D03*
%TO.P,R6,2*%
%TO.N,I2C1_SDA*%
X68510000Y-54000000D03*
%TD*%
D21*
%TO.P,R4,1*%
%TO.N,BUCK_IN*%
X91403000Y-76751000D03*
%TO.P,R4,2*%
%TO.N,BUCK_EN*%
X93053000Y-76751000D03*
%TD*%
D31*
%TO.P,FB1,1*%
%TO.N,Net-(F1-Pad2)*%
X90883000Y-60436200D03*
%TO.P,FB1,2*%
%TO.N,BUCK_IN*%
X90883000Y-62561200D03*
%TD*%
D32*
%TO.P,R2,1*%
%TO.N,+3V3*%
X71097000Y-54000000D03*
%TO.P,R2,2*%
%TO.N,I2C1_SCL*%
X70077000Y-54000000D03*
%TD*%
D33*
%TO.P,C15,1*%
%TO.N,+3V3*%
X84993000Y-78676000D03*
%TO.P,C15,2*%
%TO.N,GND*%
X87943000Y-78676000D03*
%TD*%
D34*
%TO.P,U1,1,VBAT*%
%TO.N,+3V3*%
X64150000Y-60250000D03*
%TO.P,U1,2,PC13*%
%TO.N,unconnected-(U1-PC13-Pad2)*%
X64150000Y-60750000D03*
%TO.P,U1,3,PC14*%
%TO.N,unconnected-(U1-PC14-Pad3)*%
X64150000Y-61250000D03*
%TO.P,U1,4,PC15*%
%TO.N,unconnected-(U1-PC15-Pad4)*%
X64150000Y-61750000D03*
%TO.P,U1,5,PH0*%
%TO.N,HSE_IN*%
X64150000Y-62250000D03*
%TO.P,U1,6,PH1*%
%TO.N,HSE_OUT*%
X64150000Y-62750000D03*
%TO.P,U1,7,NRST*%
%TO.N,NRST*%
X64150000Y-63250000D03*
%TO.P,U1,8,PC0*%
%TO.N,unconnected-(U1-PC0-Pad8)*%
X64150000Y-63750000D03*
%TO.P,U1,9,PC1*%
%TO.N,unconnected-(U1-PC1-Pad9)*%
X64150000Y-64250000D03*
%TO.P,U1,10,PC2*%
%TO.N,unconnected-(U1-PC2-Pad10)*%
X64150000Y-64750000D03*
%TO.P,U1,11,PC3*%
%TO.N,unconnected-(U1-PC3-Pad11)*%
X64150000Y-65250000D03*
%TO.P,U1,12,VSSA*%
%TO.N,GND*%
X64150000Y-65750000D03*
%TO.P,U1,13,VDDA*%
%TO.N,+3.3VA*%
X64150000Y-66250000D03*
%TO.P,U1,14,PA0*%
%TO.N,unconnected-(U1-PA0-Pad14)*%
X64150000Y-66750000D03*
%TO.P,U1,15,PA1*%
%TO.N,unconnected-(U1-PA1-Pad15)*%
X64150000Y-67250000D03*
%TO.P,U1,16,PA2*%
%TO.N,LED_STATUS*%
X64150000Y-67750000D03*
D35*
%TO.P,U1,17,PA3*%
%TO.N,unconnected-(U1-PA3-Pad17)*%
X66075000Y-69675000D03*
%TO.P,U1,18,VSS*%
%TO.N,GND*%
X66575000Y-69675000D03*
%TO.P,U1,19,VDD*%
%TO.N,+3V3*%
X67075000Y-69675000D03*
%TO.P,U1,20,PA4*%
%TO.N,unconnected-(U1-PA4-Pad20)*%
X67575000Y-69675000D03*
%TO.P,U1,21,PA5*%
%TO.N,unconnected-(U1-PA5-Pad21)*%
X68075000Y-69675000D03*
%TO.P,U1,22,PA6*%
%TO.N,unconnected-(U1-PA6-Pad22)*%
X68575000Y-69675000D03*
%TO.P,U1,23,PA7*%
%TO.N,unconnected-(U1-PA7-Pad23)*%
X69075000Y-69675000D03*
%TO.P,U1,24,PC4*%
%TO.N,unconnected-(U1-PC4-Pad24)*%
X69575000Y-69675000D03*
%TO.P,U1,25,PC5*%
%TO.N,unconnected-(U1-PC5-Pad25)*%
X70075000Y-69675000D03*
%TO.P,U1,26,PB0*%
%TO.N,unconnected-(U1-PB0-Pad26)*%
X70575000Y-69675000D03*
%TO.P,U1,27,PB1*%
%TO.N,unconnected-(U1-PB1-Pad27)*%
X71075000Y-69675000D03*
%TO.P,U1,28,PB2*%
%TO.N,unconnected-(U1-PB2-Pad28)*%
X71575000Y-69675000D03*
%TO.P,U1,29,PB10*%
%TO.N,UART3_TX*%
X72075000Y-69675000D03*
%TO.P,U1,30,PB11*%
%TO.N,UART3_RX*%
X72575000Y-69675000D03*
%TO.P,U1,31,VCAP_1*%
%TO.N,Net-(U1-VCAP_1)*%
X73075000Y-69675000D03*
%TO.P,U1,32,VDD*%
%TO.N,+3V3*%
X73575000Y-69675000D03*
D34*
%TO.P,U1,33,PB12*%
%TO.N,unconnected-(U1-PB12-Pad33)*%
X75500000Y-67750000D03*
%TO.P,U1,34,PB13*%
%TO.N,unconnected-(U1-PB13-Pad34)*%
X75500000Y-67250000D03*
%TO.P,U1,35,PB14*%
%TO.N,unconnected-(U1-PB14-Pad35)*%
X75500000Y-66750000D03*
%TO.P,U1,36,PB15*%
%TO.N,unconnected-(U1-PB15-Pad36)*%
X75500000Y-66250000D03*
%TO.P,U1,37,PC6*%
%TO.N,unconnected-(U1-PC6-Pad37)*%
X75500000Y-65750000D03*
%TO.P,U1,38,PC7*%
%TO.N,unconnected-(U1-PC7-Pad38)*%
X75500000Y-65250000D03*
%TO.P,U1,39,PC8*%
%TO.N,unconnected-(U1-PC8-Pad39)*%
X75500000Y-64750000D03*
%TO.P,U1,40,PC9*%
%TO.N,unconnected-(U1-PC9-Pad40)*%
X75500000Y-64250000D03*
%TO.P,U1,41,PA8*%
%TO.N,unconnected-(U1-PA8-Pad41)*%
X75500000Y-63750000D03*
%TO.P,U1,42,PA9*%
%TO.N,unconnected-(U1-PA9-Pad42)*%
X75500000Y-63250000D03*
%TO.P,U1,43,PA10*%
%TO.N,unconnected-(U1-PA10-Pad43)*%
X75500000Y-62750000D03*
%TO.P,U1,44,PA11*%
%TO.N,USB_D-*%
X75500000Y-62250000D03*
%TO.P,U1,45,PA12*%
%TO.N,USB_D+*%
X75500000Y-61750000D03*
%TO.P,U1,46,PA13*%
%TO.N,SWDIO*%
X75500000Y-61250000D03*
%TO.P,U1,47,VCAP_2*%
%TO.N,Net-(U1-VCAP_2)*%
X75500000Y-60750000D03*
%TO.P,U1,48,VDD*%
%TO.N,+3V3*%
X75500000Y-60250000D03*
D35*
%TO.P,U1,49,PA14*%
%TO.N,SWCLK*%
X73575000Y-58325000D03*
%TO.P,U1,50,PA15*%
%TO.N,unconnected-(U1-PA15-Pad50)*%
X73075000Y-58325000D03*
%TO.P,U1,51,PC10*%
%TO.N,unconnected-(U1-PC10-Pad51)*%
X72575000Y-58325000D03*
%TO.P,U1,52,PC11*%
%TO.N,unconnected-(U1-PC11-Pad52)*%
X72075000Y-58325000D03*
%TO.P,U1,53,PC12*%
%TO.N,unconnected-(U1-PC12-Pad53)*%
X71575000Y-58325000D03*
%TO.P,U1,54,PD2*%
%TO.N,unconnected-(U1-PD2-Pad54)*%
X71075000Y-58325000D03*
%TO.P,U1,55,PB3*%
%TO.N,SWO*%
X70575000Y-58325000D03*
%TO.P,U1,56,PB4*%
%TO.N,unconnected-(U1-PB4-Pad56)*%
X70075000Y-58325000D03*
%TO.P,U1,57,PB5*%
%TO.N,unconnected-(U1-PB5-Pad57)*%
X69575000Y-58325000D03*
%TO.P,U1,58,PB6*%
%TO.N,I2C1_SCL*%
X69075000Y-58325000D03*
%TO.P,U1,59,PB7*%
%TO.N,I2C1_SDA*%
X68575000Y-58325000D03*
%TO.P,U1,60,BOOT0*%
%TO.N,BOOT0*%
X68075000Y-58325000D03*
%TO.P,U1,61,PB8*%
%TO.N,unconnected-(U1-PB8-Pad61)*%
X67575000Y-58325000D03*
%TO.P,U1,62,PB9*%
%TO.N,unconnected-(U1-PB9-Pad62)*%
X67075000Y-58325000D03*
%TO.P,U1,63,VSS*%
%TO.N,GND*%
X66575000Y-58325000D03*
%TO.P,U1,64,VDD*%
%TO.N,+3V3*%
X66075000Y-58325000D03*
%TD*%
D36*
%TO.P,J5,1,Pin_1*%
%TO.N,+3V3*%
X64017200Y-82829400D03*
D37*
%TO.P,J5,2,Pin_2*%
%TO.N,UART3_TX*%
X65267200Y-82829400D03*
%TO.P,J5,3,Pin_3*%
%TO.N,UART3_RX*%
X66517200Y-82829400D03*
%TO.P,J5,4,Pin_4*%
%TO.N,GND*%
X67767200Y-82829400D03*
%TD*%
D38*
%TO.P,R1,1*%
%TO.N,Net-(D1-K)*%
X61443000Y-71175000D03*
%TO.P,R1,2*%
%TO.N,GND*%
X61443000Y-69525000D03*
%TD*%
D39*
%TO.P,J4,1,Pin_1*%
%TO.N,+3V3*%
X84074000Y-35724000D03*
%TO.P,J4,2,Pin_2*%
%TO.N,SWDIO*%
X84074000Y-39624000D03*
%TO.P,J4,3,Pin_3*%
%TO.N,GND*%
X82804000Y-35724000D03*
%TO.P,J4,4,Pin_4*%
%TO.N,SWCLK*%
X82804000Y-39624000D03*
%TO.P,J4,5,Pin_5*%
%TO.N,GND*%
X81534000Y-35724000D03*
%TO.P,J4,6,Pin_6*%
%TO.N,SWO*%
X81534000Y-39624000D03*
%TO.P,J4,7,Pin_7*%
%TO.N,unconnected-(J4-Pin_7-Pad7)*%
X80264000Y-35724000D03*
%TO.P,J4,8,Pin_8*%
%TO.N,unconnected-(J4-Pin_8-Pad8)*%
X80264000Y-39624000D03*
%TO.P,J4,9,Pin_9*%
%TO.N,GND*%
X78994000Y-35724000D03*
%TO.P,J4,10,Pin_10*%
%TO.N,NRST*%
X78994000Y-39624000D03*
%TD*%
D26*
%TO.P,H3,1,1*%
%TO.N,GND*%
X50775000Y-83000000D03*
X51719581Y-80719581D03*
X51719581Y-85280419D03*
X54000000Y-79775000D03*
D27*
X54000000Y-83000000D03*
D26*
X54000000Y-86225000D03*
X56280419Y-80719581D03*
X56280419Y-85280419D03*
X57225000Y-83000000D03*
%TD*%
D19*
%TO.P,C4,1*%
%TO.N,+3V3*%
X62173000Y-60162000D03*
%TO.P,C4,2*%
%TO.N,GND*%
X62173000Y-59202000D03*
%TD*%
D40*
%TO.P,J3,1,Pin_1*%
%TO.N,+3V3*%
X71125000Y-37200000D03*
D37*
%TO.P,J3,2,Pin_2*%
%TO.N,I2C1_SCL*%
X69875000Y-37200000D03*
%TO.P,J3,3,Pin_3*%
%TO.N,I2C1_SDA*%
X68625000Y-37200000D03*
%TO.P,J3,4,Pin_4*%
%TO.N,GND*%
X67375000Y-37200000D03*
%TD*%
D41*
%TO.P,R10,1*%
%TO.N,Net-(R10-Pad1)*%
X97728000Y-70926000D03*
%TO.P,R10,2*%
%TO.N,GND*%
X97728000Y-72576000D03*
%TD*%
D17*
%TO.P,R5,1*%
%TO.N,BUCK_EN*%
X93053000Y-78501000D03*
%TO.P,R5,2*%
%TO.N,GND*%
X91403000Y-78501000D03*
%TD*%
D42*
%TO.P,C8,1*%
%TO.N,BUCK_IN*%
X92108000Y-64883700D03*
%TO.P,C8,2*%
%TO.N,GND*%
X93658000Y-64883700D03*
%TD*%
D32*
%TO.P,R3,1*%
%TO.N,BOOT0*%
X57406000Y-51816000D03*
%TO.P,R3,2*%
%TO.N,Net-(SW1-B)*%
X56386000Y-51816000D03*
%TD*%
D43*
%TO.P,C2,1*%
%TO.N,+3V3*%
X64350000Y-55750000D03*
%TO.P,C2,2*%
%TO.N,GND*%
X62800000Y-55750000D03*
%TD*%
D32*
%TO.P,R7,1*%
%TO.N,HSE_OUT*%
X62463000Y-62984000D03*
%TO.P,R7,2*%
%TO.N,Net-(C13-Pad1)*%
X61443000Y-62984000D03*
%TD*%
D26*
%TO.P,H4,1,1*%
%TO.N,GND*%
X51025000Y-37225000D03*
X51969581Y-34944581D03*
X51969581Y-39505419D03*
X54250000Y-34000000D03*
D27*
X54250000Y-37225000D03*
D26*
X54250000Y-40450000D03*
X56530419Y-34944581D03*
X56530419Y-39505419D03*
X57475000Y-37225000D03*
%TD*%
D44*
%TO.P,Q1,1,G*%
%TO.N,GND*%
X95333000Y-60623700D03*
%TO.P,Q1,2,S*%
%TO.N,Net-(D2-K)*%
X93433000Y-60623700D03*
%TO.P,Q1,3,D*%
%TO.N,+12V*%
X94383000Y-62498700D03*
%TD*%
D38*
%TO.P,R8,1*%
%TO.N,+3V3*%
X95978000Y-72576000D03*
%TO.P,R8,2*%
%TO.N,BUCK_FB*%
X95978000Y-70926000D03*
%TD*%
D33*
%TO.P,C14,1*%
%TO.N,+3V3*%
X84993000Y-75926000D03*
%TO.P,C14,2*%
%TO.N,GND*%
X87943000Y-75926000D03*
%TD*%
D45*
%TO.P,L1,1*%
%TO.N,+3V3*%
X59180000Y-67810000D03*
%TO.P,L1,2*%
%TO.N,+3.3VA*%
X60150000Y-67810000D03*
%TD*%
D46*
%TO.P,J1,1,VBUS*%
%TO.N,+5V*%
X103497000Y-50900000D03*
%TO.P,J1,2,D-*%
%TO.N,USB_CONN_D-*%
X103497000Y-50250000D03*
%TO.P,J1,3,D+*%
%TO.N,USB_CONN_D+*%
X103497000Y-49600000D03*
%TO.P,J1,4,ID*%
%TO.N,unconnected-(J1-ID-Pad4)*%
X103497000Y-48950000D03*
%TO.P,J1,5,GND*%
%TO.N,GND*%
X103497000Y-48300000D03*
D47*
%TO.P,J1,6,Shield*%
%TO.N,unconnected-(J1-Shield-Pad6)_3*%
X106172000Y-52900000D03*
D48*
%TO.N,unconnected-(J1-Shield-Pad6)_2*%
X103722000Y-52800000D03*
D49*
%TO.N,unconnected-(J1-Shield-Pad6)_1*%
X106172000Y-50800000D03*
%TO.N,unconnected-(J1-Shield-Pad6)_4*%
X106172000Y-48400000D03*
D48*
%TO.N,unconnected-(J1-Shield-Pad6)*%
X103722000Y-46400000D03*
D47*
%TO.N,unconnected-(J1-Shield-Pad6)_0*%
X106172000Y-46300000D03*
%TD*%
D50*
%TO.P,J2,1,Pin_1*%
%TO.N,+12V*%
X103948000Y-64996000D03*
D51*
%TO.P,J2,2,Pin_2*%
%TO.N,GND*%
X103948000Y-61496000D03*
%TD*%
D42*
%TO.P,C1,1*%
%TO.N,Net-(U1-VCAP_1)*%
X73725000Y-72250000D03*
%TO.P,C1,2*%
%TO.N,GND*%
X75275000Y-72250000D03*
%TD*%
D52*
%TO.N,GND*%
X89408000Y-66040000D03*
X94996000Y-74422000D03*
X89408000Y-75692000D03*
X55118000Y-53340000D03*
X63500000Y-56896000D03*
X94742000Y-65532000D03*
X100584000Y-48260000D03*
X95250000Y-59182000D03*
X67762200Y-80805400D03*
X62738000Y-56896000D03*
X91948000Y-79756000D03*
X88900000Y-45212000D03*
X87884000Y-80264000D03*
X77216000Y-35814000D03*
X81534000Y-33782000D03*
X89408000Y-66802000D03*
X76454000Y-72390000D03*
X101854000Y-48260000D03*
X65532000Y-72136000D03*
X82804000Y-33782000D03*
X60960000Y-60960000D03*
X101854000Y-46990000D03*
X90932000Y-79756000D03*
X96266000Y-59182000D03*
X89408000Y-78232000D03*
X59690000Y-58166000D03*
X96266000Y-61214000D03*
X56388000Y-65532000D03*
X89408000Y-79756000D03*
X61976000Y-64516000D03*
X76962000Y-56896000D03*
X78740000Y-57912000D03*
X62992000Y-59182000D03*
X66802000Y-38354000D03*
X96266000Y-60198000D03*
X100584000Y-46990000D03*
X101854000Y-61468000D03*
X94742000Y-64770000D03*
X60452000Y-69596000D03*
X67310000Y-56642000D03*
X89408000Y-76962000D03*
X98298000Y-73914000D03*
X94488000Y-46736000D03*
X97790000Y-74422000D03*
X76454000Y-71374000D03*
X61214000Y-64516000D03*
X56134000Y-63246000D03*
%TO.N,+3V3*%
X71374000Y-39116000D03*
X67564000Y-53086000D03*
X59182000Y-68834000D03*
X77216000Y-58928000D03*
X83820000Y-78740000D03*
X71374000Y-53086000D03*
X59182000Y-66802000D03*
X64262000Y-54610000D03*
X95948000Y-73660000D03*
X86106000Y-75946000D03*
X85344000Y-35306000D03*
X82296000Y-73660000D03*
X63952200Y-80805400D03*
X86106000Y-78740000D03*
X65278000Y-54610000D03*
X82296000Y-72136000D03*
X88900000Y-43180000D03*
X61976000Y-60960000D03*
X83820000Y-75946000D03*
X55118000Y-48768000D03*
X74422000Y-71120000D03*
X96520000Y-74480000D03*
X86106000Y-73660000D03*
X68072000Y-72136000D03*
X86106000Y-72136000D03*
%TO.N,BUCK_SW*%
X95653000Y-75455000D03*
X89154000Y-67818000D03*
%TO.N,NRST*%
X75184000Y-44958000D03*
X72136000Y-61722000D03*
%TD*%
D53*
%TO.N,UART3_RX*%
X66517200Y-78232800D02*
X66517200Y-82829400D01*
X72575000Y-72175000D02*
X66517200Y-78232800D01*
X72575000Y-69675000D02*
X72575000Y-72175000D01*
%TO.N,UART3_TX*%
X65267200Y-77360920D02*
X65267200Y-82829400D01*
X72075000Y-69675000D02*
X72075000Y-70553120D01*
X72075000Y-70553120D02*
X65267200Y-77360920D01*
%TO.N,Net-(U1-VCAP_1)*%
X73725000Y-72250000D02*
X73075000Y-71600000D01*
X73075000Y-71600000D02*
X73075000Y-69675000D01*
D54*
%TO.N,GND*%
X94742000Y-65532000D02*
X94742000Y-64770000D01*
X89408000Y-79756000D02*
X89408000Y-79248000D01*
X62738000Y-56896000D02*
X63500000Y-56896000D01*
X102639636Y-48175000D02*
X103497000Y-48175000D01*
X88646000Y-77470000D02*
X88646000Y-76962000D01*
X89408000Y-79756000D02*
X89023000Y-79756000D01*
X96266000Y-61214000D02*
X96266000Y-59182000D01*
X67762200Y-80805400D02*
X67762200Y-82824400D01*
X67310000Y-56642000D02*
X67310000Y-56053000D01*
D53*
X59753000Y-59798000D02*
X59383000Y-59428000D01*
D54*
X88900000Y-45212000D02*
X89962000Y-45212000D01*
D55*
X95887500Y-49000000D02*
X95322316Y-49000000D01*
D53*
X77356000Y-57706000D02*
X76175000Y-57706000D01*
D54*
X59915000Y-60960000D02*
X59753000Y-61122000D01*
X62738000Y-55812000D02*
X62800000Y-55750000D01*
X65532000Y-72136000D02*
X66257000Y-72136000D01*
X61214000Y-64815000D02*
X61951000Y-65552000D01*
X89408000Y-75692000D02*
X88177000Y-75692000D01*
D55*
X94742000Y-48419684D02*
X94742000Y-46990000D01*
D54*
X106072000Y-52800000D02*
X106172000Y-52900000D01*
X87943000Y-75926000D02*
X88646000Y-76629000D01*
X95333000Y-61043000D02*
X95504000Y-61214000D01*
D53*
X67055000Y-55844846D02*
X67055000Y-55798000D01*
D54*
X89408000Y-79248000D02*
X88900000Y-78740000D01*
X81534000Y-35724000D02*
X81534000Y-33782000D01*
X88900000Y-78740000D02*
X88580500Y-79059500D01*
X93771700Y-64770000D02*
X93658000Y-64883700D01*
D55*
X95322316Y-49000000D02*
X94742000Y-48419684D01*
D54*
X101854000Y-46990000D02*
X101854000Y-48260000D01*
X76962000Y-56896000D02*
X76962000Y-56919000D01*
X66802000Y-38354000D02*
X66802000Y-37773000D01*
D53*
X66575000Y-69675000D02*
X66575000Y-71818000D01*
X61976000Y-65527000D02*
X61951000Y-65552000D01*
D54*
X89023000Y-79756000D02*
X88580500Y-79313500D01*
X91948000Y-79756000D02*
X91048000Y-78856000D01*
X56134000Y-63246000D02*
X57977000Y-63246000D01*
X100584000Y-46990000D02*
X100584000Y-48260000D01*
X88392000Y-79756000D02*
X87884000Y-80264000D01*
X97849000Y-72697000D02*
X97728000Y-72576000D01*
X89408000Y-66040000D02*
X88504000Y-66040000D01*
X97849000Y-74363000D02*
X97849000Y-72697000D01*
X76962000Y-56919000D02*
X76175000Y-57706000D01*
X89408000Y-75692000D02*
X89408000Y-79756000D01*
X96266000Y-61214000D02*
X95504350Y-60452350D01*
X78904000Y-35814000D02*
X78994000Y-35724000D01*
X56388000Y-65532000D02*
X57907000Y-65532000D01*
X61214000Y-64516000D02*
X61214000Y-64815000D01*
X106072000Y-46400000D02*
X106172000Y-46300000D01*
D53*
X58423000Y-65016000D02*
X58341000Y-65016000D01*
X78673000Y-59023000D02*
X77356000Y-57706000D01*
D54*
X90932000Y-79756000D02*
X91948000Y-79756000D01*
X103920000Y-61468000D02*
X103948000Y-61496000D01*
D53*
X66575000Y-56324846D02*
X67055000Y-55844846D01*
D54*
X62738000Y-56896000D02*
X62738000Y-55812000D01*
X88387000Y-78232000D02*
X87943000Y-78676000D01*
X82804000Y-33782000D02*
X82804000Y-35724000D01*
X89154000Y-76454000D02*
X88646000Y-76962000D01*
X88197000Y-76962000D02*
X87943000Y-77216000D01*
X91048000Y-78856000D02*
X91403000Y-78501000D01*
D53*
X60825000Y-65580000D02*
X61923000Y-65580000D01*
D54*
X62173000Y-59202000D02*
X62972000Y-59202000D01*
X89408000Y-76200000D02*
X89154000Y-76454000D01*
D53*
X62149000Y-65750000D02*
X64150000Y-65750000D01*
D54*
X103722000Y-46400000D02*
X106072000Y-46400000D01*
X96266000Y-60198000D02*
X95758700Y-60198000D01*
X60452000Y-69596000D02*
X61372000Y-69596000D01*
X88626000Y-75926000D02*
X89154000Y-76454000D01*
X95250000Y-59182000D02*
X95250000Y-60540700D01*
X87943000Y-77724000D02*
X87943000Y-77216000D01*
X88177000Y-75692000D02*
X87943000Y-75926000D01*
X88646000Y-76962000D02*
X88197000Y-76962000D01*
X87943000Y-78676000D02*
X87943000Y-77724000D01*
X89408000Y-78232000D02*
X88646000Y-77470000D01*
X57907000Y-65532000D02*
X58423000Y-65016000D01*
X94742000Y-64770000D02*
X93771700Y-64770000D01*
X87943000Y-77216000D02*
X87943000Y-75926000D01*
X88646000Y-76629000D02*
X88646000Y-76962000D01*
X95333000Y-60623700D02*
X95333000Y-61043000D01*
X89408000Y-75692000D02*
X89408000Y-76200000D01*
X90932000Y-79756000D02*
X90932000Y-78972000D01*
X102554636Y-48260000D02*
X102639636Y-48175000D01*
X67100000Y-55843000D02*
X67055000Y-55843000D01*
X61214000Y-64516000D02*
X61976000Y-64516000D01*
X89408000Y-66802000D02*
X89408000Y-66040000D01*
X89027000Y-77851000D02*
X88070000Y-77851000D01*
X87884000Y-78735000D02*
X87943000Y-78676000D01*
X75415000Y-72390000D02*
X75275000Y-72250000D01*
X78740000Y-57912000D02*
X78740000Y-58956000D01*
X61214000Y-64516000D02*
X61214000Y-65191000D01*
D53*
X58341000Y-65016000D02*
X58053000Y-64728000D01*
D54*
X97790000Y-74422000D02*
X97849000Y-74363000D01*
X91948000Y-79756000D02*
X91948000Y-79046000D01*
X101854000Y-61468000D02*
X103920000Y-61468000D01*
X89408000Y-78232000D02*
X88900000Y-78740000D01*
X66802000Y-37773000D02*
X67375000Y-37200000D01*
D53*
X59753000Y-61122000D02*
X59753000Y-59798000D01*
X66575000Y-58325000D02*
X66575000Y-56324846D01*
D54*
X97790000Y-74422000D02*
X98298000Y-73914000D01*
D55*
X94742000Y-46990000D02*
X94488000Y-46736000D01*
D54*
X96266000Y-59944000D02*
X95504000Y-59182000D01*
X87943000Y-75926000D02*
X88626000Y-75926000D01*
X61214000Y-65191000D02*
X60825000Y-65580000D01*
X94996000Y-74422000D02*
X94669000Y-74422000D01*
X89408000Y-78232000D02*
X88387000Y-78232000D01*
X67762200Y-82824400D02*
X67767200Y-82829400D01*
X88504000Y-66040000D02*
X88368000Y-66176000D01*
X87884000Y-80264000D02*
X87884000Y-78735000D01*
D53*
X61976000Y-64516000D02*
X61976000Y-65527000D01*
D54*
X101854000Y-48260000D02*
X102554636Y-48260000D01*
X94669000Y-74422000D02*
X94248000Y-74001000D01*
X62972000Y-59202000D02*
X62992000Y-59182000D01*
X67310000Y-56053000D02*
X67100000Y-55843000D01*
X100584000Y-48260000D02*
X101854000Y-46990000D01*
X59690000Y-59121000D02*
X59383000Y-59428000D01*
X55118000Y-53340000D02*
X55028000Y-53250000D01*
X95504350Y-60452350D02*
X95333000Y-60623700D01*
X95758700Y-60198000D02*
X95504350Y-60452350D01*
X57977000Y-63246000D02*
X58053000Y-63322000D01*
X55028000Y-53250000D02*
X52738000Y-53250000D01*
X60960000Y-60960000D02*
X59915000Y-60960000D01*
X88070000Y-77851000D02*
X87943000Y-77724000D01*
X90932000Y-78972000D02*
X91048000Y-78856000D01*
X88580500Y-79313500D02*
X87943000Y-78676000D01*
X89962000Y-45212000D02*
X90000000Y-45250000D01*
D53*
X66575000Y-71818000D02*
X66345000Y-72048000D01*
D54*
X100584000Y-46990000D02*
X101854000Y-46990000D01*
X91948000Y-79046000D02*
X91403000Y-78501000D01*
X96266000Y-60198000D02*
X96266000Y-59944000D01*
X89408000Y-78232000D02*
X89027000Y-77851000D01*
X76454000Y-72390000D02*
X76454000Y-70399000D01*
X95504000Y-59182000D02*
X96266000Y-59182000D01*
X89408000Y-79756000D02*
X88392000Y-79756000D01*
X89408000Y-76962000D02*
X88646000Y-76962000D01*
X59690000Y-58166000D02*
X59690000Y-59121000D01*
D53*
X58053000Y-64728000D02*
X58053000Y-63322000D01*
D54*
X76454000Y-72390000D02*
X75415000Y-72390000D01*
X95250000Y-60540700D02*
X95333000Y-60623700D01*
X103722000Y-52800000D02*
X106072000Y-52800000D01*
X78740000Y-58956000D02*
X78673000Y-59023000D01*
D53*
X61951000Y-65552000D02*
X62149000Y-65750000D01*
D54*
X101854000Y-48260000D02*
X100584000Y-48260000D01*
X106172000Y-46300000D02*
X106172000Y-52900000D01*
X76454000Y-70399000D02*
X76305000Y-70250000D01*
X95504000Y-61214000D02*
X96266000Y-61214000D01*
D53*
X61923000Y-65580000D02*
X61951000Y-65552000D01*
D54*
X61372000Y-69596000D02*
X61443000Y-69525000D01*
X77216000Y-35814000D02*
X78904000Y-35814000D01*
X88580500Y-79059500D02*
X88580500Y-79313500D01*
X95250000Y-59182000D02*
X95504000Y-59182000D01*
X66257000Y-72136000D02*
X66345000Y-72048000D01*
D55*
%TO.N,+3V3*%
X59182000Y-66802000D02*
X59182000Y-67808000D01*
X88900000Y-43180000D02*
X89892500Y-43180000D01*
D53*
X67984000Y-72048000D02*
X68072000Y-72136000D01*
D55*
X67490000Y-54000000D02*
X67490000Y-53160000D01*
D53*
X62261000Y-60250000D02*
X62173000Y-60162000D01*
D54*
X71125000Y-38867000D02*
X71374000Y-39116000D01*
D53*
X67075000Y-71818000D02*
X67305000Y-72048000D01*
D56*
X95978000Y-72576000D02*
X95978000Y-73630000D01*
X83820000Y-78740000D02*
X86106000Y-78740000D01*
D53*
X64150000Y-60250000D02*
X62261000Y-60250000D01*
D54*
X84926000Y-35724000D02*
X85344000Y-35306000D01*
D55*
X76437000Y-58928000D02*
X76175000Y-58666000D01*
D54*
X71125000Y-37200000D02*
X71125000Y-38867000D01*
D56*
X86106000Y-73660000D02*
X86106000Y-72136000D01*
D53*
X76175000Y-58666000D02*
X76175000Y-59575000D01*
D56*
X82296000Y-73660000D02*
X86106000Y-73660000D01*
D54*
X84993000Y-73816000D02*
X84228000Y-73051000D01*
D55*
X59182000Y-67808000D02*
X59180000Y-67810000D01*
X52756000Y-48768000D02*
X52738000Y-48750000D01*
X89892500Y-43180000D02*
X89962500Y-43250000D01*
D56*
X95978000Y-73630000D02*
X95948000Y-73660000D01*
D55*
X64350000Y-55750000D02*
X64350000Y-55538000D01*
X71097000Y-54000000D02*
X71097000Y-53363000D01*
D54*
X63952200Y-80805400D02*
X63952200Y-82764400D01*
X64262000Y-54610000D02*
X65278000Y-54610000D01*
D53*
X74150000Y-70250000D02*
X73575000Y-69675000D01*
X66075000Y-58325000D02*
X66075000Y-55818000D01*
D55*
X71097000Y-53363000D02*
X71374000Y-53086000D01*
X74422000Y-71120000D02*
X74475000Y-71120000D01*
X61976000Y-60359000D02*
X62173000Y-60162000D01*
D56*
X96520000Y-74232000D02*
X95948000Y-73660000D01*
D54*
X84074000Y-35724000D02*
X84926000Y-35724000D01*
D55*
X74475000Y-71120000D02*
X75345000Y-70250000D01*
D56*
X84582000Y-72136000D02*
X84074000Y-72136000D01*
X82296000Y-72136000D02*
X82296000Y-73660000D01*
X82296000Y-73660000D02*
X83820000Y-72136000D01*
D55*
X66047000Y-55750000D02*
X66095000Y-55798000D01*
X61976000Y-60960000D02*
X61976000Y-60359000D01*
X64350000Y-55750000D02*
X66047000Y-55750000D01*
D53*
X67305000Y-72048000D02*
X67984000Y-72048000D01*
D56*
X82296000Y-72136000D02*
X84074000Y-72136000D01*
X96520000Y-74480000D02*
X96520000Y-74232000D01*
D53*
X76175000Y-59575000D02*
X75500000Y-60250000D01*
D55*
X64350000Y-55750000D02*
X64350000Y-54698000D01*
D54*
X63952200Y-82764400D02*
X64017200Y-82829400D01*
D56*
X86106000Y-73660000D02*
X84582000Y-72136000D01*
D55*
X59182000Y-68834000D02*
X59182000Y-67812000D01*
D53*
X67075000Y-69675000D02*
X67075000Y-71818000D01*
D56*
X84074000Y-72136000D02*
X86106000Y-72136000D01*
X83820000Y-75946000D02*
X86106000Y-75946000D01*
D55*
X59182000Y-67812000D02*
X59180000Y-67810000D01*
D53*
X75345000Y-70250000D02*
X74150000Y-70250000D01*
D54*
X84993000Y-78676000D02*
X84993000Y-73816000D01*
D55*
X64350000Y-55538000D02*
X65278000Y-54610000D01*
X64350000Y-54698000D02*
X64262000Y-54610000D01*
X55118000Y-48768000D02*
X52756000Y-48768000D01*
D56*
X83820000Y-72136000D02*
X84074000Y-72136000D01*
D55*
X77216000Y-58928000D02*
X76437000Y-58928000D01*
X67490000Y-53160000D02*
X67564000Y-53086000D01*
D53*
%TO.N,Net-(U1-VCAP_2)*%
X78673000Y-60573000D02*
X78496000Y-60750000D01*
X78496000Y-60750000D02*
X75500000Y-60750000D01*
D54*
%TO.N,BUCK_IN*%
X92108000Y-63786200D02*
X90883000Y-62561200D01*
X91403000Y-76751000D02*
X91708000Y-76446000D01*
X91708000Y-76446000D02*
X91708000Y-74001000D01*
X92108000Y-64883700D02*
X92108000Y-63786200D01*
D53*
%TO.N,HSE_IN*%
X58423000Y-59428000D02*
X58147000Y-59428000D01*
X64150000Y-62250000D02*
X59075000Y-62250000D01*
X59075000Y-62250000D02*
X58053000Y-61228000D01*
X58147000Y-59428000D02*
X58053000Y-59522000D01*
X58053000Y-61228000D02*
X58053000Y-61122000D01*
X58053000Y-59522000D02*
X58053000Y-61122000D01*
%TO.N,+3.3VA*%
X60150000Y-67215000D02*
X60825000Y-66540000D01*
X64150000Y-66250000D02*
X62213000Y-66250000D01*
X61951000Y-66512000D02*
X60853000Y-66512000D01*
X60150000Y-67810000D02*
X60150000Y-67215000D01*
X62213000Y-66250000D02*
X61951000Y-66512000D01*
%TO.N,Net-(C13-Pad1)*%
X59383000Y-65016000D02*
X59383000Y-63692000D01*
X61105000Y-63322000D02*
X61443000Y-62984000D01*
X59383000Y-63692000D02*
X59753000Y-63322000D01*
X59753000Y-63322000D02*
X61105000Y-63322000D01*
D54*
%TO.N,BUCK_BST*%
X88468000Y-71951000D02*
X88468000Y-72031000D01*
X88468000Y-72031000D02*
X90438000Y-74001000D01*
%TO.N,BUCK_SW*%
X93553001Y-75546000D02*
X95562000Y-75546000D01*
X88468000Y-69432000D02*
X88468000Y-70401000D01*
X85678000Y-70401000D02*
X84228000Y-68951000D01*
X92978000Y-74970999D02*
X93553001Y-75546000D01*
X84228000Y-67016000D02*
X85068000Y-66176000D01*
X89154000Y-67818000D02*
X89154000Y-68746000D01*
X84228000Y-68951000D02*
X84228000Y-67016000D01*
X95562000Y-75546000D02*
X95653000Y-75455000D01*
X89154000Y-68746000D02*
X88468000Y-69432000D01*
X88468000Y-70401000D02*
X85678000Y-70401000D01*
X92978000Y-74001000D02*
X92978000Y-74970999D01*
D55*
%TO.N,Net-(D1-K)*%
X63221000Y-71137500D02*
X61480500Y-71137500D01*
X61480500Y-71137500D02*
X61443000Y-71175000D01*
D53*
%TO.N,LED_STATUS*%
X63221000Y-69562500D02*
X63221000Y-69354000D01*
X63221000Y-69354000D02*
X64150000Y-68425000D01*
X64150000Y-68425000D02*
X64150000Y-67750000D01*
D54*
%TO.N,Net-(D2-K)*%
X95463000Y-57458700D02*
X93473000Y-57458700D01*
X93433000Y-60623700D02*
X93433000Y-57498700D01*
X93473000Y-57458700D02*
X93433000Y-57498700D01*
D55*
%TO.N,+5V*%
X94742000Y-50319684D02*
X95222316Y-50800000D01*
X103497000Y-50900000D02*
X98763000Y-55634000D01*
X102213469Y-50800000D02*
X102313469Y-50900000D01*
X94742000Y-49467001D02*
X94742000Y-50319684D01*
X93612500Y-49000000D02*
X94274999Y-49000000D01*
X95222316Y-50800000D02*
X102213469Y-50800000D01*
X94274999Y-49000000D02*
X94742000Y-49467001D01*
X102313469Y-50900000D02*
X103497000Y-50900000D01*
X98763000Y-55634000D02*
X98763000Y-57458700D01*
D53*
%TO.N,Net-(D4-K)*%
X91650000Y-45250000D02*
X91650000Y-43362500D01*
X91650000Y-43362500D02*
X91537500Y-43250000D01*
D54*
%TO.N,+12V*%
X103948000Y-64996000D02*
X96880300Y-64996000D01*
X96880300Y-64996000D02*
X94383000Y-62498700D01*
%TO.N,Net-(F1-Pad2)*%
X90883000Y-57748700D02*
X90633000Y-57498700D01*
X90883000Y-60436200D02*
X90883000Y-57748700D01*
D57*
%TO.N,USB_CONN_D-*%
X97338019Y-50157156D02*
X102391655Y-50157156D01*
X97130863Y-49950000D02*
X97338019Y-50157156D01*
X102484499Y-50250000D02*
X103497000Y-50250000D01*
X95887500Y-49950000D02*
X97130863Y-49950000D01*
X102391655Y-50157156D02*
X102484499Y-50250000D01*
%TO.N,USB_CONN_D+*%
X102484499Y-49600000D02*
X103497000Y-49600000D01*
X97530344Y-49692844D02*
X102391655Y-49692844D01*
X96880556Y-49043056D02*
X97530344Y-49692844D01*
X102391655Y-49692844D02*
X102484499Y-49600000D01*
X96880556Y-48646792D02*
X96880556Y-49043056D01*
X96206944Y-48369444D02*
X96603208Y-48369444D01*
X96603208Y-48369444D02*
X96880556Y-48646792D01*
X95887500Y-48050000D02*
X96206944Y-48369444D01*
D53*
%TO.N,I2C1_SCL*%
X70077000Y-55923000D02*
X70077000Y-54000000D01*
X70077000Y-37402000D02*
X69875000Y-37200000D01*
X69075000Y-58325000D02*
X69075000Y-56925000D01*
X69075000Y-56925000D02*
X70077000Y-55923000D01*
X70077000Y-54000000D02*
X70077000Y-37402000D01*
%TO.N,I2C1_SDA*%
X68557000Y-37268000D02*
X68625000Y-37200000D01*
X68510000Y-54000000D02*
X68557000Y-53953000D01*
X68575000Y-54065000D02*
X68510000Y-54000000D01*
X68575000Y-58325000D02*
X68575000Y-54065000D01*
X68557000Y-53953000D02*
X68557000Y-37268000D01*
%TO.N,SWDIO*%
X84074000Y-39624000D02*
X84074000Y-43426000D01*
X84074000Y-43426000D02*
X76500000Y-51000000D01*
X76500000Y-51000000D02*
X76500000Y-55834000D01*
X74621880Y-61250000D02*
X75500000Y-61250000D01*
X76500000Y-55834000D02*
X74375000Y-57959000D01*
X74375000Y-57959000D02*
X74375000Y-61003120D01*
X74375000Y-61003120D02*
X74621880Y-61250000D01*
%TO.N,SWCLK*%
X82804000Y-40894000D02*
X82804000Y-39624000D01*
X73575000Y-50123000D02*
X82804000Y-40894000D01*
X73575000Y-58325000D02*
X73575000Y-50123000D01*
%TO.N,SWO*%
X70575000Y-58325000D02*
X70575000Y-56425000D01*
X78232000Y-37592000D02*
X80332000Y-37592000D01*
X70575000Y-56425000D02*
X72500000Y-54500000D01*
X72500000Y-54500000D02*
X72500000Y-43324000D01*
X72500000Y-43324000D02*
X78232000Y-37592000D01*
X81534000Y-38794000D02*
X81534000Y-39624000D01*
X80332000Y-37592000D02*
X81534000Y-38794000D01*
%TO.N,NRST*%
X70608000Y-63250000D02*
X64150000Y-63250000D01*
X72136000Y-61722000D02*
X70608000Y-63250000D01*
X78994000Y-41148000D02*
X75184000Y-44958000D01*
X78994000Y-39624000D02*
X78994000Y-41148000D01*
%TO.N,BOOT0*%
X67564000Y-55118000D02*
X67056000Y-55118000D01*
X67056000Y-55118000D02*
X63754000Y-51816000D01*
X63754000Y-51816000D02*
X57406000Y-51816000D01*
X68075000Y-58325000D02*
X68075000Y-55629000D01*
X68075000Y-55629000D02*
X67564000Y-55118000D01*
%TO.N,Net-(SW1-B)*%
X52405000Y-51750000D02*
X56320000Y-51750000D01*
X56320000Y-51750000D02*
X56386000Y-51816000D01*
D54*
%TO.N,BUCK_EN*%
X93053000Y-76751000D02*
X93053000Y-78501000D01*
X93053000Y-78501000D02*
X95909000Y-78501000D01*
X98294600Y-66844400D02*
X92452600Y-66844400D01*
X92452600Y-66844400D02*
X91708000Y-67589000D01*
X95909000Y-78501000D02*
X99488400Y-74921600D01*
X99488400Y-74921600D02*
X99488400Y-68038200D01*
X91708000Y-67589000D02*
X91708000Y-69041000D01*
X99488400Y-68038200D02*
X98294600Y-66844400D01*
D53*
%TO.N,HSE_OUT*%
X62463000Y-62984000D02*
X62697000Y-62750000D01*
X62697000Y-62750000D02*
X64150000Y-62750000D01*
D54*
%TO.N,BUCK_FB*%
X95978000Y-69076000D02*
X95903000Y-69001000D01*
X95903000Y-69001000D02*
X94288000Y-69001000D01*
X95978000Y-70926000D02*
X95978000Y-69076000D01*
%TO.N,Net-(R10-Pad1)*%
X97728000Y-69176000D02*
X97553000Y-69001000D01*
X97728000Y-70926000D02*
X97728000Y-69176000D01*
D57*
%TO.N,USB_D-*%
X80844164Y-62232156D02*
X84560156Y-58516164D01*
X91780548Y-48514312D02*
X92896792Y-49630556D01*
X76662501Y-62250000D02*
X76680345Y-62232156D01*
X92896792Y-49630556D02*
X93293056Y-49630556D01*
X76680345Y-62232156D02*
X80844164Y-62232156D01*
X84560156Y-49880164D02*
X85926008Y-48514312D01*
X93293056Y-49630556D02*
X93612500Y-49950000D01*
X84560156Y-58516164D02*
X84560156Y-49880164D01*
X75500000Y-62250000D02*
X76662501Y-62250000D01*
X85926008Y-48514312D02*
X91780548Y-48514312D01*
%TO.N,USB_D+*%
X76680345Y-61767844D02*
X80651836Y-61767844D01*
X85733680Y-48050000D02*
X93612500Y-48050000D01*
X84095844Y-58323836D02*
X84095844Y-49687836D01*
X84095844Y-49687836D02*
X85733680Y-48050000D01*
X76662501Y-61750000D02*
X76680345Y-61767844D01*
X80651836Y-61767844D02*
X84095844Y-58323836D01*
X75500000Y-61750000D02*
X76662501Y-61750000D01*
%TD*%
M02*
