%TF.GenerationSoftware,KiCad,Pcbnew,8.0.1*%
%TF.CreationDate,2024-05-01T14:41:20+05:45*%
%TF.ProjectId,STM32F4_Breakout_REV2,53544d33-3246-4345-9f42-7265616b6f75,rev?*%
%TF.SameCoordinates,Original*%
%TF.FileFunction,Soldermask,Bot*%
%TF.FilePolarity,Negative*%
%FSLAX46Y46*%
G04 Gerber Fmt 4.6, Leading zero omitted, Abs format (unit mm)*
G04 Created by KiCad (PCBNEW 8.0.1) date 2024-05-01 14:41:20*
%MOMM*%
%LPD*%
G01*
G04 APERTURE LIST*
G04 Aperture macros list*
%AMRoundRect*
0 Rectangle with rounded corners*
0 $1 Rounding radius*
0 $2 $3 $4 $5 $6 $7 $8 $9 X,Y pos of 4 corners*
0 Add a 4 corners polygon primitive as box body*
4,1,4,$2,$3,$4,$5,$6,$7,$8,$9,$2,$3,0*
0 Add four circle primitives for the rounded corners*
1,1,$1+$1,$2,$3*
1,1,$1+$1,$4,$5*
1,1,$1+$1,$6,$7*
1,1,$1+$1,$8,$9*
0 Add four rect primitives between the rounded corners*
20,1,$1+$1,$2,$3,$4,$5,0*
20,1,$1+$1,$4,$5,$6,$7,0*
20,1,$1+$1,$6,$7,$8,$9,0*
20,1,$1+$1,$8,$9,$2,$3,0*%
G04 Aperture macros list end*
%ADD10C,1.448000*%
%ADD11C,0.900000*%
%ADD12C,8.600000*%
%ADD13RoundRect,0.200000X-0.200000X-0.450000X0.200000X-0.450000X0.200000X0.450000X-0.200000X0.450000X0*%
%ADD14O,0.800000X1.300000*%
%ADD15RoundRect,0.200000X0.200000X0.450000X-0.200000X0.450000X-0.200000X-0.450000X0.200000X-0.450000X0*%
%ADD16O,1.600000X0.900000*%
%ADD17R,2.400000X2.400000*%
%ADD18C,2.400000*%
G04 APERTURE END LIST*
D10*
%TO.C,REF\u002A\u002A*%
X101354000Y-77086200D03*
%TD*%
%TO.C,REF\u002A\u002A*%
X97282000Y-37846000D03*
%TD*%
%TO.C,REF\u002A\u002A*%
X61476000Y-37592000D03*
%TD*%
D11*
%TO.C,SW1*%
X50978000Y-49500000D03*
X50978000Y-52500000D03*
%TD*%
%TO.C,H1*%
X100775000Y-37000000D03*
X101719581Y-34719581D03*
X101719581Y-39280419D03*
X104000000Y-33775000D03*
D12*
X104000000Y-37000000D03*
D11*
X104000000Y-40225000D03*
X106280419Y-34719581D03*
X106280419Y-39280419D03*
X107225000Y-37000000D03*
%TD*%
%TO.C,H2*%
X100775000Y-83000000D03*
X101719581Y-80719581D03*
X101719581Y-85280419D03*
X104000000Y-79775000D03*
D12*
X104000000Y-83000000D03*
D11*
X104000000Y-86225000D03*
X106280419Y-80719581D03*
X106280419Y-85280419D03*
X107225000Y-83000000D03*
%TD*%
D13*
%TO.C,J5*%
X64017200Y-82829400D03*
D14*
X65267200Y-82829400D03*
X66517200Y-82829400D03*
X67767200Y-82829400D03*
%TD*%
D11*
%TO.C,H3*%
X50775000Y-83000000D03*
X51719581Y-80719581D03*
X51719581Y-85280419D03*
X54000000Y-79775000D03*
D12*
X54000000Y-83000000D03*
D11*
X54000000Y-86225000D03*
X56280419Y-80719581D03*
X56280419Y-85280419D03*
X57225000Y-83000000D03*
%TD*%
D15*
%TO.C,J3*%
X71125000Y-37200000D03*
D14*
X69875000Y-37200000D03*
X68625000Y-37200000D03*
X67375000Y-37200000D03*
%TD*%
D11*
%TO.C,H4*%
X51025000Y-37225000D03*
X51969581Y-34944581D03*
X51969581Y-39505419D03*
X54250000Y-34000000D03*
D12*
X54250000Y-37225000D03*
D11*
X54250000Y-40450000D03*
X56530419Y-34944581D03*
X56530419Y-39505419D03*
X57475000Y-37225000D03*
%TD*%
D16*
%TO.C,J1*%
X106172000Y-52900000D03*
X106172000Y-46300000D03*
%TD*%
D17*
%TO.C,J2*%
X103948000Y-64996000D03*
D18*
X103948000Y-61496000D03*
%TD*%
M02*
