%TF.GenerationSoftware,KiCad,Pcbnew,(6.0.1)*%
%TF.CreationDate,2022-06-16T19:18:00+05:45*%
%TF.ProjectId,Traffic Lights_555 timer,54726166-6669-4632-904c-69676874735f,rev?*%
%TF.SameCoordinates,Original*%
%TF.FileFunction,Soldermask,Top*%
%TF.FilePolarity,Negative*%
%FSLAX46Y46*%
G04 Gerber Fmt 4.6, Leading zero omitted, Abs format (unit mm)*
G04 Created by KiCad (PCBNEW (6.0.1)) date 2022-06-16 19:18:00*
%MOMM*%
%LPD*%
G01*
G04 APERTURE LIST*
G04 Aperture macros list*
%AMRoundRect*
0 Rectangle with rounded corners*
0 $1 Rounding radius*
0 $2 $3 $4 $5 $6 $7 $8 $9 X,Y pos of 4 corners*
0 Add a 4 corners polygon primitive as box body*
4,1,4,$2,$3,$4,$5,$6,$7,$8,$9,$2,$3,0*
0 Add four circle primitives for the rounded corners*
1,1,$1+$1,$2,$3*
1,1,$1+$1,$4,$5*
1,1,$1+$1,$6,$7*
1,1,$1+$1,$8,$9*
0 Add four rect primitives between the rounded corners*
20,1,$1+$1,$2,$3,$4,$5,0*
20,1,$1+$1,$4,$5,$6,$7,0*
20,1,$1+$1,$6,$7,$8,$9,0*
20,1,$1+$1,$8,$9,$2,$3,0*%
G04 Aperture macros list end*
%ADD10R,0.850000X2.350000*%
%ADD11C,3.200000*%
%ADD12R,1.600000X1.600000*%
%ADD13O,1.600000X1.600000*%
%ADD14RoundRect,0.237500X-0.250000X-0.237500X0.250000X-0.237500X0.250000X0.237500X-0.250000X0.237500X0*%
%ADD15RoundRect,0.160000X0.197500X0.160000X-0.197500X0.160000X-0.197500X-0.160000X0.197500X-0.160000X0*%
%ADD16RoundRect,0.237500X0.287500X0.237500X-0.287500X0.237500X-0.287500X-0.237500X0.287500X-0.237500X0*%
%ADD17RoundRect,0.237500X-0.287500X-0.237500X0.287500X-0.237500X0.287500X0.237500X-0.287500X0.237500X0*%
%ADD18RoundRect,0.155000X-0.155000X0.212500X-0.155000X-0.212500X0.155000X-0.212500X0.155000X0.212500X0*%
%ADD19RoundRect,0.155000X0.155000X-0.212500X0.155000X0.212500X-0.155000X0.212500X-0.155000X-0.212500X0*%
G04 APERTURE END LIST*
D10*
%TO.C,J1*%
X19828000Y-33623000D03*
X21828000Y-35973000D03*
%TD*%
D11*
%TO.C,H4*%
X18796000Y-18796000D03*
%TD*%
%TO.C,H3*%
X47244000Y-18796000D03*
%TD*%
%TO.C,H2*%
X18796000Y-50038000D03*
%TD*%
%TO.C,H1*%
X47244000Y-50038000D03*
%TD*%
D12*
%TO.C,U2*%
X25918000Y-38872000D03*
D13*
X25918000Y-41412000D03*
X25918000Y-43952000D03*
X25918000Y-46492000D03*
X33538000Y-46492000D03*
X33538000Y-43952000D03*
X33538000Y-41412000D03*
X33538000Y-38872000D03*
%TD*%
D12*
%TO.C,U1*%
X25664000Y-23124000D03*
D13*
X25664000Y-25664000D03*
X25664000Y-28204000D03*
X25664000Y-30744000D03*
X33284000Y-30744000D03*
X33284000Y-28204000D03*
X33284000Y-25664000D03*
X33284000Y-23124000D03*
%TD*%
D14*
%TO.C,R5*%
X42775500Y-42672000D03*
X44600500Y-42672000D03*
%TD*%
%TO.C,R4*%
X44600500Y-34036000D03*
X42775500Y-34036000D03*
%TD*%
%TO.C,R3*%
X42775500Y-25400000D03*
X44600500Y-25400000D03*
%TD*%
D15*
%TO.C,R2*%
X30315500Y-50038000D03*
X29120500Y-50038000D03*
%TD*%
%TO.C,R1*%
X29807500Y-33528000D03*
X28612500Y-33528000D03*
%TD*%
D16*
%TO.C,D3*%
X40894000Y-42672000D03*
X39144000Y-42672000D03*
%TD*%
D17*
%TO.C,D2*%
X41007000Y-34036000D03*
X39257000Y-34036000D03*
%TD*%
%TO.C,D1*%
X39257000Y-25400000D03*
X41007000Y-25400000D03*
%TD*%
D18*
%TO.C,C2*%
X24130000Y-39310500D03*
X24130000Y-40445500D03*
%TD*%
D19*
%TO.C,C1*%
X23876000Y-24443500D03*
X23876000Y-23308500D03*
%TD*%
M02*
