%TF.GenerationSoftware,KiCad,Pcbnew,(6.0.1)*%
%TF.CreationDate,2022-06-16T19:17:59+05:45*%
%TF.ProjectId,Traffic Lights_555 timer,54726166-6669-4632-904c-69676874735f,rev?*%
%TF.SameCoordinates,Original*%
%TF.FileFunction,Copper,L2,Bot*%
%TF.FilePolarity,Positive*%
%FSLAX46Y46*%
G04 Gerber Fmt 4.6, Leading zero omitted, Abs format (unit mm)*
G04 Created by KiCad (PCBNEW (6.0.1)) date 2022-06-16 19:17:59*
%MOMM*%
%LPD*%
G01*
G04 APERTURE LIST*
%TA.AperFunction,ComponentPad*%
%ADD10R,1.600000X1.600000*%
%TD*%
%TA.AperFunction,ComponentPad*%
%ADD11O,1.600000X1.600000*%
%TD*%
%TA.AperFunction,ViaPad*%
%ADD12C,0.800000*%
%TD*%
%TA.AperFunction,Conductor*%
%ADD13C,0.250000*%
%TD*%
G04 APERTURE END LIST*
D10*
%TO.P,U2,1,GND*%
%TO.N,GND*%
X25918000Y-38872000D03*
D11*
%TO.P,U2,2,TR*%
%TO.N,Net-(C2-Pad2)*%
X25918000Y-41412000D03*
%TO.P,U2,3,Q*%
%TO.N,GREEN*%
X25918000Y-43952000D03*
%TO.P,U2,4,R*%
%TO.N,VCC*%
X25918000Y-46492000D03*
%TO.P,U2,5,CV*%
%TO.N,unconnected-(U2-Pad5)*%
X33538000Y-46492000D03*
%TO.P,U2,6,THR*%
%TO.N,Net-(C2-Pad2)*%
X33538000Y-43952000D03*
%TO.P,U2,7,DIS*%
%TO.N,YELLOW*%
X33538000Y-41412000D03*
%TO.P,U2,8,VCC*%
%TO.N,RED*%
X33538000Y-38872000D03*
%TD*%
D10*
%TO.P,U1,1,GND*%
%TO.N,GND*%
X25664000Y-23124000D03*
D11*
%TO.P,U1,2,TR*%
%TO.N,Net-(C1-Pad1)*%
X25664000Y-25664000D03*
%TO.P,U1,3,Q*%
%TO.N,RED*%
X25664000Y-28204000D03*
%TO.P,U1,4,R*%
%TO.N,VCC*%
X25664000Y-30744000D03*
%TO.P,U1,5,CV*%
%TO.N,unconnected-(U1-Pad5)*%
X33284000Y-30744000D03*
%TO.P,U1,6,THR*%
%TO.N,Net-(C1-Pad1)*%
X33284000Y-28204000D03*
%TO.P,U1,7,DIS*%
%TO.N,unconnected-(U1-Pad7)*%
X33284000Y-25664000D03*
%TO.P,U1,8,VCC*%
%TO.N,VCC*%
X33284000Y-23124000D03*
%TD*%
D12*
%TO.N,VCC*%
X27178000Y-30734000D03*
X46482000Y-34036000D03*
X46482000Y-25400000D03*
X34798000Y-23114000D03*
%TO.N,GND*%
X23876000Y-22098000D03*
X25908000Y-36322000D03*
X25908000Y-37338000D03*
X46482000Y-42672000D03*
%TD*%
D13*
%TO.N,VCC*%
X44958000Y-34036000D02*
X46482000Y-34036000D01*
X44704000Y-34290000D02*
X44958000Y-34036000D01*
X44704000Y-35306000D02*
X44704000Y-34290000D01*
X33782000Y-37338000D02*
X42672000Y-37338000D01*
X42672000Y-37338000D02*
X44704000Y-35306000D01*
X27178000Y-30734000D02*
X33782000Y-37338000D01*
X27168000Y-30744000D02*
X27178000Y-30734000D01*
X25664000Y-30744000D02*
X27168000Y-30744000D01*
X44196000Y-23114000D02*
X34798000Y-23114000D01*
X46482000Y-25400000D02*
X44196000Y-23114000D01*
X46482000Y-25400000D02*
X46482000Y-34036000D01*
%TD*%
%TA.AperFunction,Conductor*%
%TO.N,GND*%
G36*
X50234121Y-15768002D02*
G01*
X50280614Y-15821658D01*
X50292000Y-15874000D01*
X50292000Y-52960000D01*
X50271998Y-53028121D01*
X50218342Y-53074614D01*
X50166000Y-53086000D01*
X15874000Y-53086000D01*
X15805879Y-53065998D01*
X15759386Y-53012342D01*
X15748000Y-52960000D01*
X15748000Y-50170703D01*
X16686743Y-50170703D01*
X16724268Y-50455734D01*
X16800129Y-50733036D01*
X16912923Y-50997476D01*
X17060561Y-51244161D01*
X17240313Y-51468528D01*
X17448851Y-51666423D01*
X17682317Y-51834186D01*
X17686112Y-51836195D01*
X17686113Y-51836196D01*
X17707869Y-51847715D01*
X17936392Y-51968712D01*
X18206373Y-52067511D01*
X18487264Y-52128755D01*
X18515841Y-52131004D01*
X18710282Y-52146307D01*
X18710291Y-52146307D01*
X18712739Y-52146500D01*
X18868271Y-52146500D01*
X18870407Y-52146354D01*
X18870418Y-52146354D01*
X19078548Y-52132165D01*
X19078554Y-52132164D01*
X19082825Y-52131873D01*
X19087020Y-52131004D01*
X19087022Y-52131004D01*
X19223583Y-52102724D01*
X19364342Y-52073574D01*
X19635343Y-51977607D01*
X19890812Y-51845750D01*
X19894313Y-51843289D01*
X19894317Y-51843287D01*
X20008417Y-51763096D01*
X20126023Y-51680441D01*
X20336622Y-51484740D01*
X20518713Y-51262268D01*
X20668927Y-51017142D01*
X20784483Y-50753898D01*
X20863244Y-50477406D01*
X20903751Y-50192784D01*
X20903845Y-50174951D01*
X20903867Y-50170703D01*
X45134743Y-50170703D01*
X45172268Y-50455734D01*
X45248129Y-50733036D01*
X45360923Y-50997476D01*
X45508561Y-51244161D01*
X45688313Y-51468528D01*
X45896851Y-51666423D01*
X46130317Y-51834186D01*
X46134112Y-51836195D01*
X46134113Y-51836196D01*
X46155869Y-51847715D01*
X46384392Y-51968712D01*
X46654373Y-52067511D01*
X46935264Y-52128755D01*
X46963841Y-52131004D01*
X47158282Y-52146307D01*
X47158291Y-52146307D01*
X47160739Y-52146500D01*
X47316271Y-52146500D01*
X47318407Y-52146354D01*
X47318418Y-52146354D01*
X47526548Y-52132165D01*
X47526554Y-52132164D01*
X47530825Y-52131873D01*
X47535020Y-52131004D01*
X47535022Y-52131004D01*
X47671583Y-52102724D01*
X47812342Y-52073574D01*
X48083343Y-51977607D01*
X48338812Y-51845750D01*
X48342313Y-51843289D01*
X48342317Y-51843287D01*
X48456417Y-51763096D01*
X48574023Y-51680441D01*
X48784622Y-51484740D01*
X48966713Y-51262268D01*
X49116927Y-51017142D01*
X49232483Y-50753898D01*
X49311244Y-50477406D01*
X49351751Y-50192784D01*
X49351845Y-50174951D01*
X49353235Y-49909583D01*
X49353235Y-49909576D01*
X49353257Y-49905297D01*
X49315732Y-49620266D01*
X49239871Y-49342964D01*
X49127077Y-49078524D01*
X48979439Y-48831839D01*
X48799687Y-48607472D01*
X48591149Y-48409577D01*
X48357683Y-48241814D01*
X48335843Y-48230250D01*
X48312654Y-48217972D01*
X48103608Y-48107288D01*
X47833627Y-48008489D01*
X47552736Y-47947245D01*
X47521685Y-47944801D01*
X47329718Y-47929693D01*
X47329709Y-47929693D01*
X47327261Y-47929500D01*
X47171729Y-47929500D01*
X47169593Y-47929646D01*
X47169582Y-47929646D01*
X46961452Y-47943835D01*
X46961446Y-47943836D01*
X46957175Y-47944127D01*
X46952980Y-47944996D01*
X46952978Y-47944996D01*
X46816416Y-47973277D01*
X46675658Y-48002426D01*
X46404657Y-48098393D01*
X46149188Y-48230250D01*
X46145687Y-48232711D01*
X46145683Y-48232713D01*
X46135594Y-48239804D01*
X45913977Y-48395559D01*
X45703378Y-48591260D01*
X45521287Y-48813732D01*
X45371073Y-49058858D01*
X45255517Y-49322102D01*
X45176756Y-49598594D01*
X45136249Y-49883216D01*
X45136227Y-49887505D01*
X45136226Y-49887512D01*
X45134765Y-50166417D01*
X45134743Y-50170703D01*
X20903867Y-50170703D01*
X20905235Y-49909583D01*
X20905235Y-49909576D01*
X20905257Y-49905297D01*
X20867732Y-49620266D01*
X20791871Y-49342964D01*
X20679077Y-49078524D01*
X20531439Y-48831839D01*
X20351687Y-48607472D01*
X20143149Y-48409577D01*
X19909683Y-48241814D01*
X19887843Y-48230250D01*
X19864654Y-48217972D01*
X19655608Y-48107288D01*
X19385627Y-48008489D01*
X19104736Y-47947245D01*
X19073685Y-47944801D01*
X18881718Y-47929693D01*
X18881709Y-47929693D01*
X18879261Y-47929500D01*
X18723729Y-47929500D01*
X18721593Y-47929646D01*
X18721582Y-47929646D01*
X18513452Y-47943835D01*
X18513446Y-47943836D01*
X18509175Y-47944127D01*
X18504980Y-47944996D01*
X18504978Y-47944996D01*
X18368417Y-47973276D01*
X18227658Y-48002426D01*
X17956657Y-48098393D01*
X17701188Y-48230250D01*
X17697687Y-48232711D01*
X17697683Y-48232713D01*
X17687594Y-48239804D01*
X17465977Y-48395559D01*
X17255378Y-48591260D01*
X17073287Y-48813732D01*
X16923073Y-49058858D01*
X16807517Y-49322102D01*
X16728756Y-49598594D01*
X16688249Y-49883216D01*
X16688227Y-49887505D01*
X16688226Y-49887512D01*
X16686765Y-50166417D01*
X16686743Y-50170703D01*
X15748000Y-50170703D01*
X15748000Y-46492000D01*
X24604502Y-46492000D01*
X24624457Y-46720087D01*
X24683716Y-46941243D01*
X24686039Y-46946224D01*
X24686039Y-46946225D01*
X24778151Y-47143762D01*
X24778154Y-47143767D01*
X24780477Y-47148749D01*
X24911802Y-47336300D01*
X25073700Y-47498198D01*
X25078208Y-47501355D01*
X25078211Y-47501357D01*
X25156389Y-47556098D01*
X25261251Y-47629523D01*
X25266233Y-47631846D01*
X25266238Y-47631849D01*
X25463775Y-47723961D01*
X25468757Y-47726284D01*
X25474065Y-47727706D01*
X25474067Y-47727707D01*
X25684598Y-47784119D01*
X25684600Y-47784119D01*
X25689913Y-47785543D01*
X25918000Y-47805498D01*
X26146087Y-47785543D01*
X26151400Y-47784119D01*
X26151402Y-47784119D01*
X26361933Y-47727707D01*
X26361935Y-47727706D01*
X26367243Y-47726284D01*
X26372225Y-47723961D01*
X26569762Y-47631849D01*
X26569767Y-47631846D01*
X26574749Y-47629523D01*
X26679611Y-47556098D01*
X26757789Y-47501357D01*
X26757792Y-47501355D01*
X26762300Y-47498198D01*
X26924198Y-47336300D01*
X27055523Y-47148749D01*
X27057846Y-47143767D01*
X27057849Y-47143762D01*
X27149961Y-46946225D01*
X27149961Y-46946224D01*
X27152284Y-46941243D01*
X27211543Y-46720087D01*
X27231498Y-46492000D01*
X27211543Y-46263913D01*
X27152284Y-46042757D01*
X27149961Y-46037775D01*
X27057849Y-45840238D01*
X27057846Y-45840233D01*
X27055523Y-45835251D01*
X26924198Y-45647700D01*
X26762300Y-45485802D01*
X26757792Y-45482645D01*
X26757789Y-45482643D01*
X26679611Y-45427902D01*
X26574749Y-45354477D01*
X26569767Y-45352154D01*
X26569762Y-45352151D01*
X26535543Y-45336195D01*
X26482258Y-45289278D01*
X26462797Y-45221001D01*
X26483339Y-45153041D01*
X26535543Y-45107805D01*
X26569762Y-45091849D01*
X26569767Y-45091846D01*
X26574749Y-45089523D01*
X26679611Y-45016098D01*
X26757789Y-44961357D01*
X26757792Y-44961355D01*
X26762300Y-44958198D01*
X26924198Y-44796300D01*
X27055523Y-44608749D01*
X27057846Y-44603767D01*
X27057849Y-44603762D01*
X27149961Y-44406225D01*
X27149961Y-44406224D01*
X27152284Y-44401243D01*
X27211543Y-44180087D01*
X27231498Y-43952000D01*
X27211543Y-43723913D01*
X27152284Y-43502757D01*
X27149961Y-43497775D01*
X27057849Y-43300238D01*
X27057846Y-43300233D01*
X27055523Y-43295251D01*
X26924198Y-43107700D01*
X26762300Y-42945802D01*
X26757792Y-42942645D01*
X26757789Y-42942643D01*
X26679611Y-42887902D01*
X26574749Y-42814477D01*
X26569767Y-42812154D01*
X26569762Y-42812151D01*
X26535543Y-42796195D01*
X26482258Y-42749278D01*
X26462797Y-42681001D01*
X26483339Y-42613041D01*
X26535543Y-42567805D01*
X26569762Y-42551849D01*
X26569767Y-42551846D01*
X26574749Y-42549523D01*
X26679611Y-42476098D01*
X26757789Y-42421357D01*
X26757792Y-42421355D01*
X26762300Y-42418198D01*
X26924198Y-42256300D01*
X27055523Y-42068749D01*
X27057846Y-42063767D01*
X27057849Y-42063762D01*
X27149961Y-41866225D01*
X27149961Y-41866224D01*
X27152284Y-41861243D01*
X27211543Y-41640087D01*
X27231498Y-41412000D01*
X27211543Y-41183913D01*
X27152284Y-40962757D01*
X27149961Y-40957775D01*
X27057849Y-40760238D01*
X27057846Y-40760233D01*
X27055523Y-40755251D01*
X26924198Y-40567700D01*
X26762300Y-40405802D01*
X26757789Y-40402643D01*
X26753576Y-40399108D01*
X26754388Y-40398140D01*
X26713910Y-40347506D01*
X26706596Y-40276887D01*
X26738624Y-40213524D01*
X26799823Y-40177536D01*
X26816901Y-40174480D01*
X26820352Y-40174105D01*
X26835604Y-40170479D01*
X26956054Y-40125324D01*
X26971649Y-40116786D01*
X27073724Y-40040285D01*
X27086285Y-40027724D01*
X27162786Y-39925649D01*
X27171324Y-39910054D01*
X27216478Y-39789606D01*
X27220105Y-39774351D01*
X27225631Y-39723486D01*
X27226000Y-39716672D01*
X27226000Y-39144115D01*
X27221525Y-39128876D01*
X27220135Y-39127671D01*
X27212452Y-39126000D01*
X24628116Y-39126000D01*
X24612877Y-39130475D01*
X24611672Y-39131865D01*
X24610001Y-39139548D01*
X24610001Y-39716669D01*
X24610371Y-39723490D01*
X24615895Y-39774352D01*
X24619521Y-39789604D01*
X24664676Y-39910054D01*
X24673214Y-39925649D01*
X24749715Y-40027724D01*
X24762276Y-40040285D01*
X24864351Y-40116786D01*
X24879946Y-40125324D01*
X25000394Y-40170478D01*
X25015643Y-40174104D01*
X25019096Y-40174479D01*
X25021606Y-40175522D01*
X25023331Y-40175932D01*
X25023265Y-40176211D01*
X25084659Y-40201719D01*
X25125088Y-40260080D01*
X25127546Y-40331034D01*
X25091253Y-40392054D01*
X25079760Y-40401344D01*
X25078214Y-40402641D01*
X25073700Y-40405802D01*
X24911802Y-40567700D01*
X24780477Y-40755251D01*
X24778154Y-40760233D01*
X24778151Y-40760238D01*
X24686039Y-40957775D01*
X24683716Y-40962757D01*
X24624457Y-41183913D01*
X24604502Y-41412000D01*
X24624457Y-41640087D01*
X24683716Y-41861243D01*
X24686039Y-41866224D01*
X24686039Y-41866225D01*
X24778151Y-42063762D01*
X24778154Y-42063767D01*
X24780477Y-42068749D01*
X24911802Y-42256300D01*
X25073700Y-42418198D01*
X25078208Y-42421355D01*
X25078211Y-42421357D01*
X25156389Y-42476098D01*
X25261251Y-42549523D01*
X25266233Y-42551846D01*
X25266238Y-42551849D01*
X25300457Y-42567805D01*
X25353742Y-42614722D01*
X25373203Y-42682999D01*
X25352661Y-42750959D01*
X25300457Y-42796195D01*
X25266238Y-42812151D01*
X25266233Y-42812154D01*
X25261251Y-42814477D01*
X25156389Y-42887902D01*
X25078211Y-42942643D01*
X25078208Y-42942645D01*
X25073700Y-42945802D01*
X24911802Y-43107700D01*
X24780477Y-43295251D01*
X24778154Y-43300233D01*
X24778151Y-43300238D01*
X24686039Y-43497775D01*
X24683716Y-43502757D01*
X24624457Y-43723913D01*
X24604502Y-43952000D01*
X24624457Y-44180087D01*
X24683716Y-44401243D01*
X24686039Y-44406224D01*
X24686039Y-44406225D01*
X24778151Y-44603762D01*
X24778154Y-44603767D01*
X24780477Y-44608749D01*
X24911802Y-44796300D01*
X25073700Y-44958198D01*
X25078208Y-44961355D01*
X25078211Y-44961357D01*
X25156389Y-45016098D01*
X25261251Y-45089523D01*
X25266233Y-45091846D01*
X25266238Y-45091849D01*
X25300457Y-45107805D01*
X25353742Y-45154722D01*
X25373203Y-45222999D01*
X25352661Y-45290959D01*
X25300457Y-45336195D01*
X25266238Y-45352151D01*
X25266233Y-45352154D01*
X25261251Y-45354477D01*
X25156389Y-45427902D01*
X25078211Y-45482643D01*
X25078208Y-45482645D01*
X25073700Y-45485802D01*
X24911802Y-45647700D01*
X24780477Y-45835251D01*
X24778154Y-45840233D01*
X24778151Y-45840238D01*
X24686039Y-46037775D01*
X24683716Y-46042757D01*
X24624457Y-46263913D01*
X24604502Y-46492000D01*
X15748000Y-46492000D01*
X15748000Y-38599885D01*
X24610000Y-38599885D01*
X24614475Y-38615124D01*
X24615865Y-38616329D01*
X24623548Y-38618000D01*
X25645885Y-38618000D01*
X25661124Y-38613525D01*
X25662329Y-38612135D01*
X25664000Y-38604452D01*
X25664000Y-38599885D01*
X26172000Y-38599885D01*
X26176475Y-38615124D01*
X26177865Y-38616329D01*
X26185548Y-38618000D01*
X27207884Y-38618000D01*
X27223123Y-38613525D01*
X27224328Y-38612135D01*
X27225999Y-38604452D01*
X27225999Y-38027331D01*
X27225629Y-38020510D01*
X27220105Y-37969648D01*
X27216479Y-37954396D01*
X27171324Y-37833946D01*
X27162786Y-37818351D01*
X27086285Y-37716276D01*
X27073724Y-37703715D01*
X26971649Y-37627214D01*
X26956054Y-37618676D01*
X26835606Y-37573522D01*
X26820351Y-37569895D01*
X26769486Y-37564369D01*
X26762672Y-37564000D01*
X26190115Y-37564000D01*
X26174876Y-37568475D01*
X26173671Y-37569865D01*
X26172000Y-37577548D01*
X26172000Y-38599885D01*
X25664000Y-38599885D01*
X25664000Y-37582116D01*
X25659525Y-37566877D01*
X25658135Y-37565672D01*
X25650452Y-37564001D01*
X25073331Y-37564001D01*
X25066510Y-37564371D01*
X25015648Y-37569895D01*
X25000396Y-37573521D01*
X24879946Y-37618676D01*
X24864351Y-37627214D01*
X24762276Y-37703715D01*
X24749715Y-37716276D01*
X24673214Y-37818351D01*
X24664676Y-37833946D01*
X24619522Y-37954394D01*
X24615895Y-37969649D01*
X24610369Y-38020514D01*
X24610000Y-38027328D01*
X24610000Y-38599885D01*
X15748000Y-38599885D01*
X15748000Y-30744000D01*
X24350502Y-30744000D01*
X24370457Y-30972087D01*
X24429716Y-31193243D01*
X24432039Y-31198224D01*
X24432039Y-31198225D01*
X24524151Y-31395762D01*
X24524154Y-31395767D01*
X24526477Y-31400749D01*
X24657802Y-31588300D01*
X24819700Y-31750198D01*
X24824208Y-31753355D01*
X24824211Y-31753357D01*
X24902389Y-31808098D01*
X25007251Y-31881523D01*
X25012233Y-31883846D01*
X25012238Y-31883849D01*
X25209775Y-31975961D01*
X25214757Y-31978284D01*
X25220065Y-31979706D01*
X25220067Y-31979707D01*
X25430598Y-32036119D01*
X25430600Y-32036119D01*
X25435913Y-32037543D01*
X25664000Y-32057498D01*
X25892087Y-32037543D01*
X25897400Y-32036119D01*
X25897402Y-32036119D01*
X26107933Y-31979707D01*
X26107935Y-31979706D01*
X26113243Y-31978284D01*
X26118225Y-31975961D01*
X26315762Y-31883849D01*
X26315767Y-31883846D01*
X26320749Y-31881523D01*
X26425611Y-31808098D01*
X26503789Y-31753357D01*
X26503792Y-31753355D01*
X26508300Y-31750198D01*
X26668409Y-31590089D01*
X26730721Y-31556063D01*
X26801536Y-31561128D01*
X26808738Y-31564071D01*
X26895712Y-31602794D01*
X26989113Y-31622647D01*
X27076056Y-31641128D01*
X27076061Y-31641128D01*
X27082513Y-31642500D01*
X27138406Y-31642500D01*
X27206527Y-31662502D01*
X27227501Y-31679405D01*
X33027705Y-37479609D01*
X33061731Y-37541921D01*
X33056666Y-37612736D01*
X33014119Y-37669572D01*
X32991860Y-37682899D01*
X32886238Y-37732151D01*
X32886233Y-37732154D01*
X32881251Y-37734477D01*
X32782716Y-37803472D01*
X32698211Y-37862643D01*
X32698208Y-37862645D01*
X32693700Y-37865802D01*
X32531802Y-38027700D01*
X32400477Y-38215251D01*
X32398154Y-38220233D01*
X32398151Y-38220238D01*
X32306039Y-38417775D01*
X32303716Y-38422757D01*
X32302294Y-38428065D01*
X32302293Y-38428067D01*
X32252972Y-38612135D01*
X32244457Y-38643913D01*
X32224502Y-38872000D01*
X32244457Y-39100087D01*
X32245881Y-39105400D01*
X32245881Y-39105402D01*
X32255031Y-39139548D01*
X32303716Y-39321243D01*
X32306039Y-39326224D01*
X32306039Y-39326225D01*
X32398151Y-39523762D01*
X32398154Y-39523767D01*
X32400477Y-39528749D01*
X32531802Y-39716300D01*
X32693700Y-39878198D01*
X32698208Y-39881355D01*
X32698211Y-39881357D01*
X32739195Y-39910054D01*
X32881251Y-40009523D01*
X32886233Y-40011846D01*
X32886238Y-40011849D01*
X32920457Y-40027805D01*
X32973742Y-40074722D01*
X32993203Y-40142999D01*
X32972661Y-40210959D01*
X32920457Y-40256195D01*
X32886238Y-40272151D01*
X32886233Y-40272154D01*
X32881251Y-40274477D01*
X32776955Y-40347506D01*
X32698211Y-40402643D01*
X32698208Y-40402645D01*
X32693700Y-40405802D01*
X32531802Y-40567700D01*
X32400477Y-40755251D01*
X32398154Y-40760233D01*
X32398151Y-40760238D01*
X32306039Y-40957775D01*
X32303716Y-40962757D01*
X32244457Y-41183913D01*
X32224502Y-41412000D01*
X32244457Y-41640087D01*
X32303716Y-41861243D01*
X32306039Y-41866224D01*
X32306039Y-41866225D01*
X32398151Y-42063762D01*
X32398154Y-42063767D01*
X32400477Y-42068749D01*
X32531802Y-42256300D01*
X32693700Y-42418198D01*
X32698208Y-42421355D01*
X32698211Y-42421357D01*
X32776389Y-42476098D01*
X32881251Y-42549523D01*
X32886233Y-42551846D01*
X32886238Y-42551849D01*
X32920457Y-42567805D01*
X32973742Y-42614722D01*
X32993203Y-42682999D01*
X32972661Y-42750959D01*
X32920457Y-42796195D01*
X32886238Y-42812151D01*
X32886233Y-42812154D01*
X32881251Y-42814477D01*
X32776389Y-42887902D01*
X32698211Y-42942643D01*
X32698208Y-42942645D01*
X32693700Y-42945802D01*
X32531802Y-43107700D01*
X32400477Y-43295251D01*
X32398154Y-43300233D01*
X32398151Y-43300238D01*
X32306039Y-43497775D01*
X32303716Y-43502757D01*
X32244457Y-43723913D01*
X32224502Y-43952000D01*
X32244457Y-44180087D01*
X32303716Y-44401243D01*
X32306039Y-44406224D01*
X32306039Y-44406225D01*
X32398151Y-44603762D01*
X32398154Y-44603767D01*
X32400477Y-44608749D01*
X32531802Y-44796300D01*
X32693700Y-44958198D01*
X32698208Y-44961355D01*
X32698211Y-44961357D01*
X32776389Y-45016098D01*
X32881251Y-45089523D01*
X32886233Y-45091846D01*
X32886238Y-45091849D01*
X32920457Y-45107805D01*
X32973742Y-45154722D01*
X32993203Y-45222999D01*
X32972661Y-45290959D01*
X32920457Y-45336195D01*
X32886238Y-45352151D01*
X32886233Y-45352154D01*
X32881251Y-45354477D01*
X32776389Y-45427902D01*
X32698211Y-45482643D01*
X32698208Y-45482645D01*
X32693700Y-45485802D01*
X32531802Y-45647700D01*
X32400477Y-45835251D01*
X32398154Y-45840233D01*
X32398151Y-45840238D01*
X32306039Y-46037775D01*
X32303716Y-46042757D01*
X32244457Y-46263913D01*
X32224502Y-46492000D01*
X32244457Y-46720087D01*
X32303716Y-46941243D01*
X32306039Y-46946224D01*
X32306039Y-46946225D01*
X32398151Y-47143762D01*
X32398154Y-47143767D01*
X32400477Y-47148749D01*
X32531802Y-47336300D01*
X32693700Y-47498198D01*
X32698208Y-47501355D01*
X32698211Y-47501357D01*
X32776389Y-47556098D01*
X32881251Y-47629523D01*
X32886233Y-47631846D01*
X32886238Y-47631849D01*
X33083775Y-47723961D01*
X33088757Y-47726284D01*
X33094065Y-47727706D01*
X33094067Y-47727707D01*
X33304598Y-47784119D01*
X33304600Y-47784119D01*
X33309913Y-47785543D01*
X33538000Y-47805498D01*
X33766087Y-47785543D01*
X33771400Y-47784119D01*
X33771402Y-47784119D01*
X33981933Y-47727707D01*
X33981935Y-47727706D01*
X33987243Y-47726284D01*
X33992225Y-47723961D01*
X34189762Y-47631849D01*
X34189767Y-47631846D01*
X34194749Y-47629523D01*
X34299611Y-47556098D01*
X34377789Y-47501357D01*
X34377792Y-47501355D01*
X34382300Y-47498198D01*
X34544198Y-47336300D01*
X34675523Y-47148749D01*
X34677846Y-47143767D01*
X34677849Y-47143762D01*
X34769961Y-46946225D01*
X34769961Y-46946224D01*
X34772284Y-46941243D01*
X34831543Y-46720087D01*
X34851498Y-46492000D01*
X34831543Y-46263913D01*
X34772284Y-46042757D01*
X34769961Y-46037775D01*
X34677849Y-45840238D01*
X34677846Y-45840233D01*
X34675523Y-45835251D01*
X34544198Y-45647700D01*
X34382300Y-45485802D01*
X34377792Y-45482645D01*
X34377789Y-45482643D01*
X34299611Y-45427902D01*
X34194749Y-45354477D01*
X34189767Y-45352154D01*
X34189762Y-45352151D01*
X34155543Y-45336195D01*
X34102258Y-45289278D01*
X34082797Y-45221001D01*
X34103339Y-45153041D01*
X34155543Y-45107805D01*
X34189762Y-45091849D01*
X34189767Y-45091846D01*
X34194749Y-45089523D01*
X34299611Y-45016098D01*
X34377789Y-44961357D01*
X34377792Y-44961355D01*
X34382300Y-44958198D01*
X34544198Y-44796300D01*
X34675523Y-44608749D01*
X34677846Y-44603767D01*
X34677849Y-44603762D01*
X34769961Y-44406225D01*
X34769961Y-44406224D01*
X34772284Y-44401243D01*
X34831543Y-44180087D01*
X34851498Y-43952000D01*
X34831543Y-43723913D01*
X34772284Y-43502757D01*
X34769961Y-43497775D01*
X34677849Y-43300238D01*
X34677846Y-43300233D01*
X34675523Y-43295251D01*
X34544198Y-43107700D01*
X34382300Y-42945802D01*
X34377792Y-42942645D01*
X34377789Y-42942643D01*
X34299611Y-42887902D01*
X34194749Y-42814477D01*
X34189767Y-42812154D01*
X34189762Y-42812151D01*
X34155543Y-42796195D01*
X34102258Y-42749278D01*
X34082797Y-42681001D01*
X34103339Y-42613041D01*
X34155543Y-42567805D01*
X34189762Y-42551849D01*
X34189767Y-42551846D01*
X34194749Y-42549523D01*
X34299611Y-42476098D01*
X34377789Y-42421357D01*
X34377792Y-42421355D01*
X34382300Y-42418198D01*
X34544198Y-42256300D01*
X34675523Y-42068749D01*
X34677846Y-42063767D01*
X34677849Y-42063762D01*
X34769961Y-41866225D01*
X34769961Y-41866224D01*
X34772284Y-41861243D01*
X34831543Y-41640087D01*
X34851498Y-41412000D01*
X34831543Y-41183913D01*
X34772284Y-40962757D01*
X34769961Y-40957775D01*
X34677849Y-40760238D01*
X34677846Y-40760233D01*
X34675523Y-40755251D01*
X34544198Y-40567700D01*
X34382300Y-40405802D01*
X34377792Y-40402645D01*
X34377789Y-40402643D01*
X34299045Y-40347506D01*
X34194749Y-40274477D01*
X34189767Y-40272154D01*
X34189762Y-40272151D01*
X34155543Y-40256195D01*
X34102258Y-40209278D01*
X34082797Y-40141001D01*
X34103339Y-40073041D01*
X34155543Y-40027805D01*
X34189762Y-40011849D01*
X34189767Y-40011846D01*
X34194749Y-40009523D01*
X34336805Y-39910054D01*
X34377789Y-39881357D01*
X34377792Y-39881355D01*
X34382300Y-39878198D01*
X34544198Y-39716300D01*
X34675523Y-39528749D01*
X34677846Y-39523767D01*
X34677849Y-39523762D01*
X34769961Y-39326225D01*
X34769961Y-39326224D01*
X34772284Y-39321243D01*
X34820970Y-39139548D01*
X34830119Y-39105402D01*
X34830119Y-39105400D01*
X34831543Y-39100087D01*
X34851498Y-38872000D01*
X34831543Y-38643913D01*
X34823028Y-38612135D01*
X34773707Y-38428067D01*
X34773706Y-38428065D01*
X34772284Y-38422757D01*
X34769961Y-38417775D01*
X34677849Y-38220238D01*
X34677846Y-38220233D01*
X34675523Y-38215251D01*
X34643677Y-38169770D01*
X34620989Y-38102498D01*
X34638273Y-38033637D01*
X34690043Y-37985053D01*
X34746890Y-37971500D01*
X42593233Y-37971500D01*
X42604416Y-37972027D01*
X42611909Y-37973702D01*
X42619835Y-37973453D01*
X42619836Y-37973453D01*
X42679986Y-37971562D01*
X42683945Y-37971500D01*
X42711856Y-37971500D01*
X42715791Y-37971003D01*
X42715856Y-37970995D01*
X42727693Y-37970062D01*
X42759951Y-37969048D01*
X42763970Y-37968922D01*
X42771889Y-37968673D01*
X42791343Y-37963021D01*
X42810700Y-37959013D01*
X42822930Y-37957468D01*
X42822931Y-37957468D01*
X42830797Y-37956474D01*
X42838168Y-37953555D01*
X42838170Y-37953555D01*
X42871912Y-37940196D01*
X42883142Y-37936351D01*
X42917983Y-37926229D01*
X42917984Y-37926229D01*
X42925593Y-37924018D01*
X42932412Y-37919985D01*
X42932417Y-37919983D01*
X42943028Y-37913707D01*
X42960776Y-37905012D01*
X42979617Y-37897552D01*
X43015387Y-37871564D01*
X43025307Y-37865048D01*
X43056535Y-37846580D01*
X43056538Y-37846578D01*
X43063362Y-37842542D01*
X43077683Y-37828221D01*
X43092717Y-37815380D01*
X43102694Y-37808131D01*
X43109107Y-37803472D01*
X43137298Y-37769395D01*
X43145288Y-37760616D01*
X45096253Y-35809652D01*
X45104539Y-35802112D01*
X45111018Y-35798000D01*
X45157644Y-35748348D01*
X45160398Y-35745507D01*
X45180135Y-35725770D01*
X45182615Y-35722573D01*
X45190320Y-35713551D01*
X45215159Y-35687100D01*
X45220586Y-35681321D01*
X45224405Y-35674375D01*
X45224407Y-35674372D01*
X45230348Y-35663566D01*
X45241199Y-35647047D01*
X45248758Y-35637301D01*
X45253614Y-35631041D01*
X45256759Y-35623772D01*
X45256762Y-35623768D01*
X45271174Y-35590463D01*
X45276391Y-35579813D01*
X45297695Y-35541060D01*
X45302733Y-35521437D01*
X45309137Y-35502734D01*
X45314033Y-35491420D01*
X45314033Y-35491419D01*
X45317181Y-35484145D01*
X45318420Y-35476322D01*
X45318423Y-35476312D01*
X45324099Y-35440476D01*
X45326505Y-35428856D01*
X45335528Y-35393711D01*
X45335528Y-35393710D01*
X45337500Y-35386030D01*
X45337500Y-35365776D01*
X45339051Y-35346065D01*
X45340980Y-35333886D01*
X45342220Y-35326057D01*
X45338059Y-35282038D01*
X45337500Y-35270181D01*
X45337500Y-34795500D01*
X45357502Y-34727379D01*
X45411158Y-34680886D01*
X45463500Y-34669500D01*
X45773800Y-34669500D01*
X45841921Y-34689502D01*
X45861147Y-34705843D01*
X45861420Y-34705540D01*
X45866332Y-34709963D01*
X45870747Y-34714866D01*
X46025248Y-34827118D01*
X46031276Y-34829802D01*
X46031278Y-34829803D01*
X46193681Y-34902109D01*
X46199712Y-34904794D01*
X46293112Y-34924647D01*
X46380056Y-34943128D01*
X46380061Y-34943128D01*
X46386513Y-34944500D01*
X46577487Y-34944500D01*
X46583939Y-34943128D01*
X46583944Y-34943128D01*
X46670888Y-34924647D01*
X46764288Y-34904794D01*
X46770319Y-34902109D01*
X46932722Y-34829803D01*
X46932724Y-34829802D01*
X46938752Y-34827118D01*
X47093253Y-34714866D01*
X47221040Y-34572944D01*
X47316527Y-34407556D01*
X47375542Y-34225928D01*
X47381721Y-34167144D01*
X47394814Y-34042565D01*
X47395504Y-34036000D01*
X47388037Y-33964959D01*
X47376232Y-33852635D01*
X47376232Y-33852633D01*
X47375542Y-33846072D01*
X47316527Y-33664444D01*
X47221040Y-33499056D01*
X47147863Y-33417785D01*
X47117147Y-33353779D01*
X47115500Y-33333476D01*
X47115500Y-26102524D01*
X47135502Y-26034403D01*
X47147858Y-26018221D01*
X47221040Y-25936944D01*
X47316527Y-25771556D01*
X47375542Y-25589928D01*
X47391154Y-25441393D01*
X47394814Y-25406565D01*
X47395504Y-25400000D01*
X47375542Y-25210072D01*
X47316527Y-25028444D01*
X47307171Y-25012238D01*
X47224341Y-24868774D01*
X47221040Y-24863056D01*
X47093253Y-24721134D01*
X46938752Y-24608882D01*
X46932724Y-24606198D01*
X46932722Y-24606197D01*
X46770319Y-24533891D01*
X46770318Y-24533891D01*
X46764288Y-24531206D01*
X46670887Y-24511353D01*
X46583944Y-24492872D01*
X46583939Y-24492872D01*
X46577487Y-24491500D01*
X46521595Y-24491500D01*
X46453474Y-24471498D01*
X46432500Y-24454595D01*
X44699652Y-22721747D01*
X44692112Y-22713461D01*
X44688000Y-22706982D01*
X44638348Y-22660356D01*
X44635507Y-22657602D01*
X44615770Y-22637865D01*
X44612573Y-22635385D01*
X44603551Y-22627680D01*
X44577100Y-22602841D01*
X44571321Y-22597414D01*
X44564375Y-22593595D01*
X44564372Y-22593593D01*
X44553566Y-22587652D01*
X44537047Y-22576801D01*
X44536583Y-22576441D01*
X44521041Y-22564386D01*
X44513772Y-22561241D01*
X44513768Y-22561238D01*
X44480463Y-22546826D01*
X44469813Y-22541609D01*
X44431060Y-22520305D01*
X44411437Y-22515267D01*
X44392734Y-22508863D01*
X44381420Y-22503967D01*
X44381419Y-22503967D01*
X44374145Y-22500819D01*
X44366322Y-22499580D01*
X44366312Y-22499577D01*
X44330476Y-22493901D01*
X44318856Y-22491495D01*
X44283711Y-22482472D01*
X44283710Y-22482472D01*
X44276030Y-22480500D01*
X44255776Y-22480500D01*
X44236065Y-22478949D01*
X44223886Y-22477020D01*
X44216057Y-22475780D01*
X44208165Y-22476526D01*
X44172039Y-22479941D01*
X44160181Y-22480500D01*
X35506200Y-22480500D01*
X35438079Y-22460498D01*
X35418853Y-22444157D01*
X35418580Y-22444460D01*
X35413668Y-22440037D01*
X35409253Y-22435134D01*
X35387671Y-22419454D01*
X35260094Y-22326763D01*
X35260093Y-22326762D01*
X35254752Y-22322882D01*
X35248724Y-22320198D01*
X35248722Y-22320197D01*
X35086319Y-22247891D01*
X35086318Y-22247891D01*
X35080288Y-22245206D01*
X34969457Y-22221648D01*
X34899944Y-22206872D01*
X34899939Y-22206872D01*
X34893487Y-22205500D01*
X34702513Y-22205500D01*
X34696061Y-22206872D01*
X34696056Y-22206872D01*
X34626543Y-22221648D01*
X34515712Y-22245206D01*
X34509682Y-22247891D01*
X34509681Y-22247891D01*
X34414914Y-22290084D01*
X34344547Y-22299518D01*
X34280250Y-22269412D01*
X34274570Y-22264072D01*
X34128300Y-22117802D01*
X34123792Y-22114645D01*
X34123789Y-22114643D01*
X34045611Y-22059902D01*
X33940749Y-21986477D01*
X33935767Y-21984154D01*
X33935762Y-21984151D01*
X33738225Y-21892039D01*
X33738224Y-21892039D01*
X33733243Y-21889716D01*
X33727935Y-21888294D01*
X33727933Y-21888293D01*
X33517402Y-21831881D01*
X33517400Y-21831881D01*
X33512087Y-21830457D01*
X33284000Y-21810502D01*
X33055913Y-21830457D01*
X33050600Y-21831881D01*
X33050598Y-21831881D01*
X32840067Y-21888293D01*
X32840065Y-21888294D01*
X32834757Y-21889716D01*
X32829776Y-21892039D01*
X32829775Y-21892039D01*
X32632238Y-21984151D01*
X32632233Y-21984154D01*
X32627251Y-21986477D01*
X32522389Y-22059902D01*
X32444211Y-22114643D01*
X32444208Y-22114645D01*
X32439700Y-22117802D01*
X32277802Y-22279700D01*
X32274645Y-22284208D01*
X32274643Y-22284211D01*
X32244848Y-22326763D01*
X32146477Y-22467251D01*
X32144154Y-22472233D01*
X32144151Y-22472238D01*
X32068072Y-22635392D01*
X32049716Y-22674757D01*
X32048294Y-22680065D01*
X32048293Y-22680067D01*
X31998972Y-22864135D01*
X31990457Y-22895913D01*
X31970502Y-23124000D01*
X31990457Y-23352087D01*
X31991881Y-23357400D01*
X31991881Y-23357402D01*
X32001031Y-23391548D01*
X32049716Y-23573243D01*
X32052039Y-23578224D01*
X32052039Y-23578225D01*
X32144151Y-23775762D01*
X32144154Y-23775767D01*
X32146477Y-23780749D01*
X32277802Y-23968300D01*
X32439700Y-24130198D01*
X32444208Y-24133355D01*
X32444211Y-24133357D01*
X32485195Y-24162054D01*
X32627251Y-24261523D01*
X32632233Y-24263846D01*
X32632238Y-24263849D01*
X32666457Y-24279805D01*
X32719742Y-24326722D01*
X32739203Y-24394999D01*
X32718661Y-24462959D01*
X32666457Y-24508195D01*
X32632238Y-24524151D01*
X32632233Y-24524154D01*
X32627251Y-24526477D01*
X32522955Y-24599506D01*
X32444211Y-24654643D01*
X32444208Y-24654645D01*
X32439700Y-24657802D01*
X32277802Y-24819700D01*
X32146477Y-25007251D01*
X32144154Y-25012233D01*
X32144151Y-25012238D01*
X32054828Y-25203794D01*
X32049716Y-25214757D01*
X32048294Y-25220065D01*
X32048293Y-25220067D01*
X31991881Y-25430598D01*
X31990457Y-25435913D01*
X31970502Y-25664000D01*
X31990457Y-25892087D01*
X31991881Y-25897400D01*
X31991881Y-25897402D01*
X32041404Y-26082221D01*
X32049716Y-26113243D01*
X32052039Y-26118224D01*
X32052039Y-26118225D01*
X32144151Y-26315762D01*
X32144154Y-26315767D01*
X32146477Y-26320749D01*
X32277802Y-26508300D01*
X32439700Y-26670198D01*
X32444208Y-26673355D01*
X32444211Y-26673357D01*
X32522389Y-26728098D01*
X32627251Y-26801523D01*
X32632233Y-26803846D01*
X32632238Y-26803849D01*
X32666457Y-26819805D01*
X32719742Y-26866722D01*
X32739203Y-26934999D01*
X32718661Y-27002959D01*
X32666457Y-27048195D01*
X32632238Y-27064151D01*
X32632233Y-27064154D01*
X32627251Y-27066477D01*
X32522389Y-27139902D01*
X32444211Y-27194643D01*
X32444208Y-27194645D01*
X32439700Y-27197802D01*
X32277802Y-27359700D01*
X32146477Y-27547251D01*
X32144154Y-27552233D01*
X32144151Y-27552238D01*
X32052039Y-27749775D01*
X32049716Y-27754757D01*
X31990457Y-27975913D01*
X31970502Y-28204000D01*
X31990457Y-28432087D01*
X32049716Y-28653243D01*
X32052039Y-28658224D01*
X32052039Y-28658225D01*
X32144151Y-28855762D01*
X32144154Y-28855767D01*
X32146477Y-28860749D01*
X32277802Y-29048300D01*
X32439700Y-29210198D01*
X32444208Y-29213355D01*
X32444211Y-29213357D01*
X32522389Y-29268098D01*
X32627251Y-29341523D01*
X32632233Y-29343846D01*
X32632238Y-29343849D01*
X32666457Y-29359805D01*
X32719742Y-29406722D01*
X32739203Y-29474999D01*
X32718661Y-29542959D01*
X32666457Y-29588195D01*
X32632238Y-29604151D01*
X32632233Y-29604154D01*
X32627251Y-29606477D01*
X32522389Y-29679902D01*
X32444211Y-29734643D01*
X32444208Y-29734645D01*
X32439700Y-29737802D01*
X32277802Y-29899700D01*
X32274645Y-29904208D01*
X32274643Y-29904211D01*
X32244848Y-29946763D01*
X32146477Y-30087251D01*
X32144154Y-30092233D01*
X32144151Y-30092238D01*
X32097563Y-30192148D01*
X32049716Y-30294757D01*
X31990457Y-30515913D01*
X31970502Y-30744000D01*
X31990457Y-30972087D01*
X32049716Y-31193243D01*
X32052039Y-31198224D01*
X32052039Y-31198225D01*
X32144151Y-31395762D01*
X32144154Y-31395767D01*
X32146477Y-31400749D01*
X32277802Y-31588300D01*
X32439700Y-31750198D01*
X32444208Y-31753355D01*
X32444211Y-31753357D01*
X32522389Y-31808098D01*
X32627251Y-31881523D01*
X32632233Y-31883846D01*
X32632238Y-31883849D01*
X32829775Y-31975961D01*
X32834757Y-31978284D01*
X32840065Y-31979706D01*
X32840067Y-31979707D01*
X33050598Y-32036119D01*
X33050600Y-32036119D01*
X33055913Y-32037543D01*
X33284000Y-32057498D01*
X33512087Y-32037543D01*
X33517400Y-32036119D01*
X33517402Y-32036119D01*
X33727933Y-31979707D01*
X33727935Y-31979706D01*
X33733243Y-31978284D01*
X33738225Y-31975961D01*
X33935762Y-31883849D01*
X33935767Y-31883846D01*
X33940749Y-31881523D01*
X34045611Y-31808098D01*
X34123789Y-31753357D01*
X34123792Y-31753355D01*
X34128300Y-31750198D01*
X34290198Y-31588300D01*
X34421523Y-31400749D01*
X34423846Y-31395767D01*
X34423849Y-31395762D01*
X34515961Y-31198225D01*
X34515961Y-31198224D01*
X34518284Y-31193243D01*
X34577543Y-30972087D01*
X34597498Y-30744000D01*
X34577543Y-30515913D01*
X34518284Y-30294757D01*
X34470437Y-30192148D01*
X34423849Y-30092238D01*
X34423846Y-30092233D01*
X34421523Y-30087251D01*
X34323152Y-29946763D01*
X34293357Y-29904211D01*
X34293355Y-29904208D01*
X34290198Y-29899700D01*
X34128300Y-29737802D01*
X34123792Y-29734645D01*
X34123789Y-29734643D01*
X34045611Y-29679902D01*
X33940749Y-29606477D01*
X33935767Y-29604154D01*
X33935762Y-29604151D01*
X33901543Y-29588195D01*
X33848258Y-29541278D01*
X33828797Y-29473001D01*
X33849339Y-29405041D01*
X33901543Y-29359805D01*
X33935762Y-29343849D01*
X33935767Y-29343846D01*
X33940749Y-29341523D01*
X34045611Y-29268098D01*
X34123789Y-29213357D01*
X34123792Y-29213355D01*
X34128300Y-29210198D01*
X34290198Y-29048300D01*
X34421523Y-28860749D01*
X34423846Y-28855767D01*
X34423849Y-28855762D01*
X34515961Y-28658225D01*
X34515961Y-28658224D01*
X34518284Y-28653243D01*
X34577543Y-28432087D01*
X34597498Y-28204000D01*
X34577543Y-27975913D01*
X34518284Y-27754757D01*
X34515961Y-27749775D01*
X34423849Y-27552238D01*
X34423846Y-27552233D01*
X34421523Y-27547251D01*
X34290198Y-27359700D01*
X34128300Y-27197802D01*
X34123792Y-27194645D01*
X34123789Y-27194643D01*
X34045611Y-27139902D01*
X33940749Y-27066477D01*
X33935767Y-27064154D01*
X33935762Y-27064151D01*
X33901543Y-27048195D01*
X33848258Y-27001278D01*
X33828797Y-26933001D01*
X33849339Y-26865041D01*
X33901543Y-26819805D01*
X33935762Y-26803849D01*
X33935767Y-26803846D01*
X33940749Y-26801523D01*
X34045611Y-26728098D01*
X34123789Y-26673357D01*
X34123792Y-26673355D01*
X34128300Y-26670198D01*
X34290198Y-26508300D01*
X34421523Y-26320749D01*
X34423846Y-26315767D01*
X34423849Y-26315762D01*
X34515961Y-26118225D01*
X34515961Y-26118224D01*
X34518284Y-26113243D01*
X34526597Y-26082221D01*
X34576119Y-25897402D01*
X34576119Y-25897400D01*
X34577543Y-25892087D01*
X34597498Y-25664000D01*
X34577543Y-25435913D01*
X34576119Y-25430598D01*
X34519707Y-25220067D01*
X34519706Y-25220065D01*
X34518284Y-25214757D01*
X34513172Y-25203794D01*
X34423849Y-25012238D01*
X34423846Y-25012233D01*
X34421523Y-25007251D01*
X34290198Y-24819700D01*
X34128300Y-24657802D01*
X34123792Y-24654645D01*
X34123789Y-24654643D01*
X34045045Y-24599506D01*
X33940749Y-24526477D01*
X33935767Y-24524154D01*
X33935762Y-24524151D01*
X33901543Y-24508195D01*
X33848258Y-24461278D01*
X33828797Y-24393001D01*
X33849339Y-24325041D01*
X33901543Y-24279805D01*
X33935762Y-24263849D01*
X33935767Y-24263846D01*
X33940749Y-24261523D01*
X34082805Y-24162054D01*
X34123789Y-24133357D01*
X34123792Y-24133355D01*
X34128300Y-24130198D01*
X34288409Y-23970089D01*
X34350721Y-23936063D01*
X34421536Y-23941128D01*
X34428738Y-23944071D01*
X34515712Y-23982794D01*
X34609112Y-24002647D01*
X34696056Y-24021128D01*
X34696061Y-24021128D01*
X34702513Y-24022500D01*
X34893487Y-24022500D01*
X34899939Y-24021128D01*
X34899944Y-24021128D01*
X34986888Y-24002647D01*
X35080288Y-23982794D01*
X35086319Y-23980109D01*
X35248722Y-23907803D01*
X35248724Y-23907802D01*
X35254752Y-23905118D01*
X35409253Y-23792866D01*
X35413668Y-23787963D01*
X35418580Y-23783540D01*
X35419705Y-23784789D01*
X35473014Y-23751949D01*
X35506200Y-23747500D01*
X43881406Y-23747500D01*
X43949527Y-23767502D01*
X43970501Y-23784405D01*
X45534878Y-25348782D01*
X45568904Y-25411094D01*
X45571092Y-25424703D01*
X45588458Y-25589928D01*
X45647473Y-25771556D01*
X45742960Y-25936944D01*
X45816137Y-26018215D01*
X45846853Y-26082221D01*
X45848500Y-26102524D01*
X45848500Y-33276500D01*
X45828498Y-33344621D01*
X45774842Y-33391114D01*
X45722500Y-33402500D01*
X45036767Y-33402500D01*
X45025584Y-33401973D01*
X45018091Y-33400298D01*
X45010165Y-33400547D01*
X45010164Y-33400547D01*
X44950014Y-33402438D01*
X44946055Y-33402500D01*
X44918144Y-33402500D01*
X44914210Y-33402997D01*
X44914209Y-33402997D01*
X44914144Y-33403005D01*
X44902307Y-33403938D01*
X44870490Y-33404938D01*
X44866029Y-33405078D01*
X44858110Y-33405327D01*
X44840454Y-33410456D01*
X44838658Y-33410978D01*
X44819306Y-33414986D01*
X44812235Y-33415880D01*
X44799203Y-33417526D01*
X44791834Y-33420443D01*
X44791832Y-33420444D01*
X44758097Y-33433800D01*
X44746869Y-33437645D01*
X44704407Y-33449982D01*
X44697585Y-33454016D01*
X44697579Y-33454019D01*
X44686968Y-33460294D01*
X44669218Y-33468990D01*
X44657756Y-33473528D01*
X44657751Y-33473531D01*
X44650383Y-33476448D01*
X44643968Y-33481109D01*
X44614625Y-33502427D01*
X44604707Y-33508943D01*
X44586019Y-33519995D01*
X44566637Y-33531458D01*
X44552313Y-33545782D01*
X44537281Y-33558621D01*
X44520893Y-33570528D01*
X44492712Y-33604593D01*
X44484722Y-33613373D01*
X44311747Y-33786348D01*
X44303461Y-33793888D01*
X44296982Y-33798000D01*
X44291557Y-33803777D01*
X44250357Y-33847651D01*
X44247602Y-33850493D01*
X44227865Y-33870230D01*
X44225385Y-33873427D01*
X44217682Y-33882447D01*
X44187414Y-33914679D01*
X44183595Y-33921625D01*
X44183593Y-33921628D01*
X44177652Y-33932434D01*
X44166801Y-33948953D01*
X44154386Y-33964959D01*
X44151241Y-33972228D01*
X44151238Y-33972232D01*
X44136826Y-34005537D01*
X44131609Y-34016187D01*
X44110305Y-34054940D01*
X44108334Y-34062615D01*
X44108334Y-34062616D01*
X44105267Y-34074562D01*
X44098863Y-34093266D01*
X44090819Y-34111855D01*
X44089580Y-34119678D01*
X44089577Y-34119688D01*
X44083901Y-34155524D01*
X44081495Y-34167144D01*
X44070500Y-34209970D01*
X44070500Y-34230224D01*
X44068949Y-34249934D01*
X44065780Y-34269943D01*
X44066526Y-34277835D01*
X44069941Y-34313961D01*
X44070500Y-34325819D01*
X44070500Y-34991406D01*
X44050498Y-35059527D01*
X44033595Y-35080501D01*
X42446500Y-36667595D01*
X42384188Y-36701621D01*
X42357405Y-36704500D01*
X34096595Y-36704500D01*
X34028474Y-36684498D01*
X34007500Y-36667595D01*
X28125122Y-30785217D01*
X28091096Y-30722905D01*
X28088907Y-30709292D01*
X28072232Y-30550635D01*
X28072232Y-30550633D01*
X28071542Y-30544072D01*
X28012527Y-30362444D01*
X27917040Y-30197056D01*
X27789253Y-30055134D01*
X27690157Y-29983136D01*
X27640094Y-29946763D01*
X27640093Y-29946762D01*
X27634752Y-29942882D01*
X27628724Y-29940198D01*
X27628722Y-29940197D01*
X27466319Y-29867891D01*
X27466318Y-29867891D01*
X27460288Y-29865206D01*
X27366887Y-29845353D01*
X27279944Y-29826872D01*
X27279939Y-29826872D01*
X27273487Y-29825500D01*
X27082513Y-29825500D01*
X27076061Y-29826872D01*
X27076056Y-29826872D01*
X26989113Y-29845353D01*
X26895712Y-29865206D01*
X26889682Y-29867891D01*
X26889681Y-29867891D01*
X26794914Y-29910084D01*
X26724547Y-29919518D01*
X26660250Y-29889412D01*
X26654570Y-29884072D01*
X26508300Y-29737802D01*
X26503792Y-29734645D01*
X26503789Y-29734643D01*
X26425611Y-29679902D01*
X26320749Y-29606477D01*
X26315767Y-29604154D01*
X26315762Y-29604151D01*
X26281543Y-29588195D01*
X26228258Y-29541278D01*
X26208797Y-29473001D01*
X26229339Y-29405041D01*
X26281543Y-29359805D01*
X26315762Y-29343849D01*
X26315767Y-29343846D01*
X26320749Y-29341523D01*
X26425611Y-29268098D01*
X26503789Y-29213357D01*
X26503792Y-29213355D01*
X26508300Y-29210198D01*
X26670198Y-29048300D01*
X26801523Y-28860749D01*
X26803846Y-28855767D01*
X26803849Y-28855762D01*
X26895961Y-28658225D01*
X26895961Y-28658224D01*
X26898284Y-28653243D01*
X26957543Y-28432087D01*
X26977498Y-28204000D01*
X26957543Y-27975913D01*
X26898284Y-27754757D01*
X26895961Y-27749775D01*
X26803849Y-27552238D01*
X26803846Y-27552233D01*
X26801523Y-27547251D01*
X26670198Y-27359700D01*
X26508300Y-27197802D01*
X26503792Y-27194645D01*
X26503789Y-27194643D01*
X26425611Y-27139902D01*
X26320749Y-27066477D01*
X26315767Y-27064154D01*
X26315762Y-27064151D01*
X26281543Y-27048195D01*
X26228258Y-27001278D01*
X26208797Y-26933001D01*
X26229339Y-26865041D01*
X26281543Y-26819805D01*
X26315762Y-26803849D01*
X26315767Y-26803846D01*
X26320749Y-26801523D01*
X26425611Y-26728098D01*
X26503789Y-26673357D01*
X26503792Y-26673355D01*
X26508300Y-26670198D01*
X26670198Y-26508300D01*
X26801523Y-26320749D01*
X26803846Y-26315767D01*
X26803849Y-26315762D01*
X26895961Y-26118225D01*
X26895961Y-26118224D01*
X26898284Y-26113243D01*
X26906597Y-26082221D01*
X26956119Y-25897402D01*
X26956119Y-25897400D01*
X26957543Y-25892087D01*
X26977498Y-25664000D01*
X26957543Y-25435913D01*
X26956119Y-25430598D01*
X26899707Y-25220067D01*
X26899706Y-25220065D01*
X26898284Y-25214757D01*
X26893172Y-25203794D01*
X26803849Y-25012238D01*
X26803846Y-25012233D01*
X26801523Y-25007251D01*
X26670198Y-24819700D01*
X26508300Y-24657802D01*
X26503789Y-24654643D01*
X26499576Y-24651108D01*
X26500388Y-24650140D01*
X26459910Y-24599506D01*
X26452596Y-24528887D01*
X26484624Y-24465524D01*
X26545823Y-24429536D01*
X26562901Y-24426480D01*
X26566352Y-24426105D01*
X26581604Y-24422479D01*
X26702054Y-24377324D01*
X26717649Y-24368786D01*
X26819724Y-24292285D01*
X26832285Y-24279724D01*
X26908786Y-24177649D01*
X26917324Y-24162054D01*
X26962478Y-24041606D01*
X26966105Y-24026351D01*
X26971631Y-23975486D01*
X26972000Y-23968672D01*
X26972000Y-23396115D01*
X26967525Y-23380876D01*
X26966135Y-23379671D01*
X26958452Y-23378000D01*
X24374116Y-23378000D01*
X24358877Y-23382475D01*
X24357672Y-23383865D01*
X24356001Y-23391548D01*
X24356001Y-23968669D01*
X24356371Y-23975490D01*
X24361895Y-24026352D01*
X24365521Y-24041604D01*
X24410676Y-24162054D01*
X24419214Y-24177649D01*
X24495715Y-24279724D01*
X24508276Y-24292285D01*
X24610351Y-24368786D01*
X24625946Y-24377324D01*
X24746394Y-24422478D01*
X24761643Y-24426104D01*
X24765096Y-24426479D01*
X24767606Y-24427522D01*
X24769331Y-24427932D01*
X24769265Y-24428211D01*
X24830659Y-24453719D01*
X24871088Y-24512080D01*
X24873546Y-24583034D01*
X24837253Y-24644054D01*
X24825760Y-24653344D01*
X24824214Y-24654641D01*
X24819700Y-24657802D01*
X24657802Y-24819700D01*
X24526477Y-25007251D01*
X24524154Y-25012233D01*
X24524151Y-25012238D01*
X24434828Y-25203794D01*
X24429716Y-25214757D01*
X24428294Y-25220065D01*
X24428293Y-25220067D01*
X24371881Y-25430598D01*
X24370457Y-25435913D01*
X24350502Y-25664000D01*
X24370457Y-25892087D01*
X24371881Y-25897400D01*
X24371881Y-25897402D01*
X24421404Y-26082221D01*
X24429716Y-26113243D01*
X24432039Y-26118224D01*
X24432039Y-26118225D01*
X24524151Y-26315762D01*
X24524154Y-26315767D01*
X24526477Y-26320749D01*
X24657802Y-26508300D01*
X24819700Y-26670198D01*
X24824208Y-26673355D01*
X24824211Y-26673357D01*
X24902389Y-26728098D01*
X25007251Y-26801523D01*
X25012233Y-26803846D01*
X25012238Y-26803849D01*
X25046457Y-26819805D01*
X25099742Y-26866722D01*
X25119203Y-26934999D01*
X25098661Y-27002959D01*
X25046457Y-27048195D01*
X25012238Y-27064151D01*
X25012233Y-27064154D01*
X25007251Y-27066477D01*
X24902389Y-27139902D01*
X24824211Y-27194643D01*
X24824208Y-27194645D01*
X24819700Y-27197802D01*
X24657802Y-27359700D01*
X24526477Y-27547251D01*
X24524154Y-27552233D01*
X24524151Y-27552238D01*
X24432039Y-27749775D01*
X24429716Y-27754757D01*
X24370457Y-27975913D01*
X24350502Y-28204000D01*
X24370457Y-28432087D01*
X24429716Y-28653243D01*
X24432039Y-28658224D01*
X24432039Y-28658225D01*
X24524151Y-28855762D01*
X24524154Y-28855767D01*
X24526477Y-28860749D01*
X24657802Y-29048300D01*
X24819700Y-29210198D01*
X24824208Y-29213355D01*
X24824211Y-29213357D01*
X24902389Y-29268098D01*
X25007251Y-29341523D01*
X25012233Y-29343846D01*
X25012238Y-29343849D01*
X25046457Y-29359805D01*
X25099742Y-29406722D01*
X25119203Y-29474999D01*
X25098661Y-29542959D01*
X25046457Y-29588195D01*
X25012238Y-29604151D01*
X25012233Y-29604154D01*
X25007251Y-29606477D01*
X24902389Y-29679902D01*
X24824211Y-29734643D01*
X24824208Y-29734645D01*
X24819700Y-29737802D01*
X24657802Y-29899700D01*
X24654645Y-29904208D01*
X24654643Y-29904211D01*
X24624848Y-29946763D01*
X24526477Y-30087251D01*
X24524154Y-30092233D01*
X24524151Y-30092238D01*
X24477563Y-30192148D01*
X24429716Y-30294757D01*
X24370457Y-30515913D01*
X24350502Y-30744000D01*
X15748000Y-30744000D01*
X15748000Y-22851885D01*
X24356000Y-22851885D01*
X24360475Y-22867124D01*
X24361865Y-22868329D01*
X24369548Y-22870000D01*
X25391885Y-22870000D01*
X25407124Y-22865525D01*
X25408329Y-22864135D01*
X25410000Y-22856452D01*
X25410000Y-22851885D01*
X25918000Y-22851885D01*
X25922475Y-22867124D01*
X25923865Y-22868329D01*
X25931548Y-22870000D01*
X26953884Y-22870000D01*
X26969123Y-22865525D01*
X26970328Y-22864135D01*
X26971999Y-22856452D01*
X26971999Y-22279331D01*
X26971629Y-22272510D01*
X26966105Y-22221648D01*
X26962479Y-22206396D01*
X26917324Y-22085946D01*
X26908786Y-22070351D01*
X26832285Y-21968276D01*
X26819724Y-21955715D01*
X26717649Y-21879214D01*
X26702054Y-21870676D01*
X26581606Y-21825522D01*
X26566351Y-21821895D01*
X26515486Y-21816369D01*
X26508672Y-21816000D01*
X25936115Y-21816000D01*
X25920876Y-21820475D01*
X25919671Y-21821865D01*
X25918000Y-21829548D01*
X25918000Y-22851885D01*
X25410000Y-22851885D01*
X25410000Y-21834116D01*
X25405525Y-21818877D01*
X25404135Y-21817672D01*
X25396452Y-21816001D01*
X24819331Y-21816001D01*
X24812510Y-21816371D01*
X24761648Y-21821895D01*
X24746396Y-21825521D01*
X24625946Y-21870676D01*
X24610351Y-21879214D01*
X24508276Y-21955715D01*
X24495715Y-21968276D01*
X24419214Y-22070351D01*
X24410676Y-22085946D01*
X24365522Y-22206394D01*
X24361895Y-22221649D01*
X24356369Y-22272514D01*
X24356000Y-22279328D01*
X24356000Y-22851885D01*
X15748000Y-22851885D01*
X15748000Y-18928703D01*
X16686743Y-18928703D01*
X16724268Y-19213734D01*
X16800129Y-19491036D01*
X16912923Y-19755476D01*
X17060561Y-20002161D01*
X17240313Y-20226528D01*
X17448851Y-20424423D01*
X17682317Y-20592186D01*
X17686112Y-20594195D01*
X17686113Y-20594196D01*
X17707869Y-20605715D01*
X17936392Y-20726712D01*
X18206373Y-20825511D01*
X18487264Y-20886755D01*
X18515841Y-20889004D01*
X18710282Y-20904307D01*
X18710291Y-20904307D01*
X18712739Y-20904500D01*
X18868271Y-20904500D01*
X18870407Y-20904354D01*
X18870418Y-20904354D01*
X19078548Y-20890165D01*
X19078554Y-20890164D01*
X19082825Y-20889873D01*
X19087020Y-20889004D01*
X19087022Y-20889004D01*
X19223584Y-20860723D01*
X19364342Y-20831574D01*
X19635343Y-20735607D01*
X19890812Y-20603750D01*
X19894313Y-20601289D01*
X19894317Y-20601287D01*
X20008418Y-20521095D01*
X20126023Y-20438441D01*
X20336622Y-20242740D01*
X20518713Y-20020268D01*
X20668927Y-19775142D01*
X20784483Y-19511898D01*
X20863244Y-19235406D01*
X20903751Y-18950784D01*
X20903845Y-18932951D01*
X20903867Y-18928703D01*
X45134743Y-18928703D01*
X45172268Y-19213734D01*
X45248129Y-19491036D01*
X45360923Y-19755476D01*
X45508561Y-20002161D01*
X45688313Y-20226528D01*
X45896851Y-20424423D01*
X46130317Y-20592186D01*
X46134112Y-20594195D01*
X46134113Y-20594196D01*
X46155869Y-20605715D01*
X46384392Y-20726712D01*
X46654373Y-20825511D01*
X46935264Y-20886755D01*
X46963841Y-20889004D01*
X47158282Y-20904307D01*
X47158291Y-20904307D01*
X47160739Y-20904500D01*
X47316271Y-20904500D01*
X47318407Y-20904354D01*
X47318418Y-20904354D01*
X47526548Y-20890165D01*
X47526554Y-20890164D01*
X47530825Y-20889873D01*
X47535020Y-20889004D01*
X47535022Y-20889004D01*
X47671584Y-20860723D01*
X47812342Y-20831574D01*
X48083343Y-20735607D01*
X48338812Y-20603750D01*
X48342313Y-20601289D01*
X48342317Y-20601287D01*
X48456417Y-20521096D01*
X48574023Y-20438441D01*
X48784622Y-20242740D01*
X48966713Y-20020268D01*
X49116927Y-19775142D01*
X49232483Y-19511898D01*
X49311244Y-19235406D01*
X49351751Y-18950784D01*
X49351845Y-18932951D01*
X49353235Y-18667583D01*
X49353235Y-18667576D01*
X49353257Y-18663297D01*
X49315732Y-18378266D01*
X49239871Y-18100964D01*
X49127077Y-17836524D01*
X48979439Y-17589839D01*
X48799687Y-17365472D01*
X48591149Y-17167577D01*
X48357683Y-16999814D01*
X48335843Y-16988250D01*
X48312654Y-16975972D01*
X48103608Y-16865288D01*
X47833627Y-16766489D01*
X47552736Y-16705245D01*
X47521685Y-16702801D01*
X47329718Y-16687693D01*
X47329709Y-16687693D01*
X47327261Y-16687500D01*
X47171729Y-16687500D01*
X47169593Y-16687646D01*
X47169582Y-16687646D01*
X46961452Y-16701835D01*
X46961446Y-16701836D01*
X46957175Y-16702127D01*
X46952980Y-16702996D01*
X46952978Y-16702996D01*
X46816416Y-16731277D01*
X46675658Y-16760426D01*
X46404657Y-16856393D01*
X46149188Y-16988250D01*
X46145687Y-16990711D01*
X46145683Y-16990713D01*
X46135594Y-16997804D01*
X45913977Y-17153559D01*
X45703378Y-17349260D01*
X45521287Y-17571732D01*
X45371073Y-17816858D01*
X45255517Y-18080102D01*
X45176756Y-18356594D01*
X45136249Y-18641216D01*
X45136227Y-18645505D01*
X45136226Y-18645512D01*
X45134765Y-18924417D01*
X45134743Y-18928703D01*
X20903867Y-18928703D01*
X20905235Y-18667583D01*
X20905235Y-18667576D01*
X20905257Y-18663297D01*
X20867732Y-18378266D01*
X20791871Y-18100964D01*
X20679077Y-17836524D01*
X20531439Y-17589839D01*
X20351687Y-17365472D01*
X20143149Y-17167577D01*
X19909683Y-16999814D01*
X19887843Y-16988250D01*
X19864654Y-16975972D01*
X19655608Y-16865288D01*
X19385627Y-16766489D01*
X19104736Y-16705245D01*
X19073685Y-16702801D01*
X18881718Y-16687693D01*
X18881709Y-16687693D01*
X18879261Y-16687500D01*
X18723729Y-16687500D01*
X18721593Y-16687646D01*
X18721582Y-16687646D01*
X18513452Y-16701835D01*
X18513446Y-16701836D01*
X18509175Y-16702127D01*
X18504980Y-16702996D01*
X18504978Y-16702996D01*
X18368416Y-16731277D01*
X18227658Y-16760426D01*
X17956657Y-16856393D01*
X17701188Y-16988250D01*
X17697687Y-16990711D01*
X17697683Y-16990713D01*
X17687594Y-16997804D01*
X17465977Y-17153559D01*
X17255378Y-17349260D01*
X17073287Y-17571732D01*
X16923073Y-17816858D01*
X16807517Y-18080102D01*
X16728756Y-18356594D01*
X16688249Y-18641216D01*
X16688227Y-18645505D01*
X16688226Y-18645512D01*
X16686765Y-18924417D01*
X16686743Y-18928703D01*
X15748000Y-18928703D01*
X15748000Y-15874000D01*
X15768002Y-15805879D01*
X15821658Y-15759386D01*
X15874000Y-15748000D01*
X50166000Y-15748000D01*
X50234121Y-15768002D01*
G37*
%TD.AperFunction*%
%TD*%
M02*
