M48
; DRILL file {KiCad (6.0.1)} date Thu Jun 16 19:18:08 2022
; FORMAT={-:-/ absolute / inch / decimal}
; #@! TF.CreationDate,2022-06-16T19:18:08+05:45
; #@! TF.GenerationSoftware,Kicad,Pcbnew,(6.0.1)
; #@! TF.FileFunction,Plated,1,2,PTH
FMAT,2
INCH
; #@! TA.AperFunction,Plated,PTH,ViaDrill
T1C0.0157
; #@! TA.AperFunction,Plated,PTH,ComponentDrill
T2C0.0315
%
G90
G05
T1
X0.94Y-0.87
X1.02Y-1.43
X1.02Y-1.47
X1.07Y-1.21
X1.37Y-0.91
X1.83Y-1.0
X1.83Y-1.34
X1.83Y-1.68
T2
X1.0104Y-0.9104
X1.0104Y-1.0104
X1.0104Y-1.1104
X1.0104Y-1.2104
X1.0204Y-1.5304
X1.0204Y-1.6304
X1.0204Y-1.7304
X1.0204Y-1.8304
X1.3104Y-0.9104
X1.3104Y-1.0104
X1.3104Y-1.1104
X1.3104Y-1.2104
X1.3204Y-1.5304
X1.3204Y-1.6304
X1.3204Y-1.7304
X1.3204Y-1.8304
T0
M30
