%TF.GenerationSoftware,KiCad,Pcbnew,(6.0.1)*%
%TF.CreationDate,2022-06-16T19:17:59+05:45*%
%TF.ProjectId,Traffic Lights_555 timer,54726166-6669-4632-904c-69676874735f,rev?*%
%TF.SameCoordinates,Original*%
%TF.FileFunction,Legend,Top*%
%TF.FilePolarity,Positive*%
%FSLAX46Y46*%
G04 Gerber Fmt 4.6, Leading zero omitted, Abs format (unit mm)*
G04 Created by KiCad (PCBNEW (6.0.1)) date 2022-06-16 19:17:59*
%MOMM*%
%LPD*%
G01*
G04 APERTURE LIST*
%ADD10C,0.200000*%
%ADD11C,0.150000*%
%ADD12C,0.120000*%
G04 APERTURE END LIST*
D10*
X45720000Y-42672000D02*
G75*
G03*
X45720000Y-42672000I-3810000J0D01*
G01*
X45720000Y-34036000D02*
G75*
G03*
X45720000Y-34036000I-3810000J0D01*
G01*
X45720000Y-25400000D02*
G75*
G03*
X45720000Y-25400000I-3810000J0D01*
G01*
D11*
%TO.C,J1*%
X17220380Y-35131333D02*
X17934666Y-35131333D01*
X18077523Y-35178952D01*
X18172761Y-35274190D01*
X18220380Y-35417047D01*
X18220380Y-35512285D01*
X18220380Y-34131333D02*
X18220380Y-34702761D01*
X18220380Y-34417047D02*
X17220380Y-34417047D01*
X17363238Y-34512285D01*
X17458476Y-34607523D01*
X17506095Y-34702761D01*
%TO.C,H4*%
X18034095Y-23820380D02*
X18034095Y-22820380D01*
X18034095Y-23296571D02*
X18605523Y-23296571D01*
X18605523Y-23820380D02*
X18605523Y-22820380D01*
X19510285Y-23153714D02*
X19510285Y-23820380D01*
X19272190Y-22772761D02*
X19034095Y-23487047D01*
X19653142Y-23487047D01*
%TO.C,H3*%
X46482095Y-23566380D02*
X46482095Y-22566380D01*
X46482095Y-23042571D02*
X47053523Y-23042571D01*
X47053523Y-23566380D02*
X47053523Y-22566380D01*
X47434476Y-22566380D02*
X48053523Y-22566380D01*
X47720190Y-22947333D01*
X47863047Y-22947333D01*
X47958285Y-22994952D01*
X48005904Y-23042571D01*
X48053523Y-23137809D01*
X48053523Y-23375904D01*
X48005904Y-23471142D01*
X47958285Y-23518761D01*
X47863047Y-23566380D01*
X47577333Y-23566380D01*
X47482095Y-23518761D01*
X47434476Y-23471142D01*
%TO.C,H2*%
X18034095Y-46290380D02*
X18034095Y-45290380D01*
X18034095Y-45766571D02*
X18605523Y-45766571D01*
X18605523Y-46290380D02*
X18605523Y-45290380D01*
X19034095Y-45385619D02*
X19081714Y-45338000D01*
X19176952Y-45290380D01*
X19415047Y-45290380D01*
X19510285Y-45338000D01*
X19557904Y-45385619D01*
X19605523Y-45480857D01*
X19605523Y-45576095D01*
X19557904Y-45718952D01*
X18986476Y-46290380D01*
X19605523Y-46290380D01*
%TO.C,H1*%
X46482095Y-46290380D02*
X46482095Y-45290380D01*
X46482095Y-45766571D02*
X47053523Y-45766571D01*
X47053523Y-46290380D02*
X47053523Y-45290380D01*
X48053523Y-46290380D02*
X47482095Y-46290380D01*
X47767809Y-46290380D02*
X47767809Y-45290380D01*
X47672571Y-45433238D01*
X47577333Y-45528476D01*
X47482095Y-45576095D01*
%TO.C,U2*%
X28966095Y-35994380D02*
X28966095Y-36803904D01*
X29013714Y-36899142D01*
X29061333Y-36946761D01*
X29156571Y-36994380D01*
X29347047Y-36994380D01*
X29442285Y-36946761D01*
X29489904Y-36899142D01*
X29537523Y-36803904D01*
X29537523Y-35994380D01*
X29966095Y-36089619D02*
X30013714Y-36042000D01*
X30108952Y-35994380D01*
X30347047Y-35994380D01*
X30442285Y-36042000D01*
X30489904Y-36089619D01*
X30537523Y-36184857D01*
X30537523Y-36280095D01*
X30489904Y-36422952D01*
X29918476Y-36994380D01*
X30537523Y-36994380D01*
%TO.C,U1*%
X28712095Y-20246380D02*
X28712095Y-21055904D01*
X28759714Y-21151142D01*
X28807333Y-21198761D01*
X28902571Y-21246380D01*
X29093047Y-21246380D01*
X29188285Y-21198761D01*
X29235904Y-21151142D01*
X29283523Y-21055904D01*
X29283523Y-20246380D01*
X30283523Y-21246380D02*
X29712095Y-21246380D01*
X29997809Y-21246380D02*
X29997809Y-20246380D01*
X29902571Y-20389238D01*
X29807333Y-20484476D01*
X29712095Y-20532095D01*
%TO.C,R5*%
X43521333Y-41694380D02*
X43188000Y-41218190D01*
X42949904Y-41694380D02*
X42949904Y-40694380D01*
X43330857Y-40694380D01*
X43426095Y-40742000D01*
X43473714Y-40789619D01*
X43521333Y-40884857D01*
X43521333Y-41027714D01*
X43473714Y-41122952D01*
X43426095Y-41170571D01*
X43330857Y-41218190D01*
X42949904Y-41218190D01*
X44426095Y-40694380D02*
X43949904Y-40694380D01*
X43902285Y-41170571D01*
X43949904Y-41122952D01*
X44045142Y-41075333D01*
X44283238Y-41075333D01*
X44378476Y-41122952D01*
X44426095Y-41170571D01*
X44473714Y-41265809D01*
X44473714Y-41503904D01*
X44426095Y-41599142D01*
X44378476Y-41646761D01*
X44283238Y-41694380D01*
X44045142Y-41694380D01*
X43949904Y-41646761D01*
X43902285Y-41599142D01*
%TO.C,R4*%
X43521333Y-33058380D02*
X43188000Y-32582190D01*
X42949904Y-33058380D02*
X42949904Y-32058380D01*
X43330857Y-32058380D01*
X43426095Y-32106000D01*
X43473714Y-32153619D01*
X43521333Y-32248857D01*
X43521333Y-32391714D01*
X43473714Y-32486952D01*
X43426095Y-32534571D01*
X43330857Y-32582190D01*
X42949904Y-32582190D01*
X44378476Y-32391714D02*
X44378476Y-33058380D01*
X44140380Y-32010761D02*
X43902285Y-32725047D01*
X44521333Y-32725047D01*
%TO.C,R3*%
X43521333Y-24422380D02*
X43188000Y-23946190D01*
X42949904Y-24422380D02*
X42949904Y-23422380D01*
X43330857Y-23422380D01*
X43426095Y-23470000D01*
X43473714Y-23517619D01*
X43521333Y-23612857D01*
X43521333Y-23755714D01*
X43473714Y-23850952D01*
X43426095Y-23898571D01*
X43330857Y-23946190D01*
X42949904Y-23946190D01*
X43854666Y-23422380D02*
X44473714Y-23422380D01*
X44140380Y-23803333D01*
X44283238Y-23803333D01*
X44378476Y-23850952D01*
X44426095Y-23898571D01*
X44473714Y-23993809D01*
X44473714Y-24231904D01*
X44426095Y-24327142D01*
X44378476Y-24374761D01*
X44283238Y-24422380D01*
X43997523Y-24422380D01*
X43902285Y-24374761D01*
X43854666Y-24327142D01*
%TO.C,R2*%
X29718954Y-49474380D02*
X29385621Y-48998190D01*
X29147525Y-49474380D02*
X29147525Y-48474380D01*
X29528478Y-48474380D01*
X29623716Y-48522000D01*
X29671335Y-48569619D01*
X29718954Y-48664857D01*
X29718954Y-48807714D01*
X29671335Y-48902952D01*
X29623716Y-48950571D01*
X29528478Y-48998190D01*
X29147525Y-48998190D01*
X30099906Y-48569619D02*
X30147525Y-48522000D01*
X30242763Y-48474380D01*
X30480859Y-48474380D01*
X30576097Y-48522000D01*
X30623716Y-48569619D01*
X30671335Y-48664857D01*
X30671335Y-48760095D01*
X30623716Y-48902952D01*
X30052287Y-49474380D01*
X30671335Y-49474380D01*
%TO.C,R1*%
X29043333Y-35150380D02*
X28710000Y-34674190D01*
X28471904Y-35150380D02*
X28471904Y-34150380D01*
X28852857Y-34150380D01*
X28948095Y-34198000D01*
X28995714Y-34245619D01*
X29043333Y-34340857D01*
X29043333Y-34483714D01*
X28995714Y-34578952D01*
X28948095Y-34626571D01*
X28852857Y-34674190D01*
X28471904Y-34674190D01*
X29995714Y-35150380D02*
X29424285Y-35150380D01*
X29710000Y-35150380D02*
X29710000Y-34150380D01*
X29614761Y-34293238D01*
X29519523Y-34388476D01*
X29424285Y-34436095D01*
%TO.C,D3*%
X39280904Y-41600380D02*
X39280904Y-40600380D01*
X39519000Y-40600380D01*
X39661857Y-40648000D01*
X39757095Y-40743238D01*
X39804714Y-40838476D01*
X39852333Y-41028952D01*
X39852333Y-41171809D01*
X39804714Y-41362285D01*
X39757095Y-41457523D01*
X39661857Y-41552761D01*
X39519000Y-41600380D01*
X39280904Y-41600380D01*
X40185666Y-40600380D02*
X40804714Y-40600380D01*
X40471380Y-40981333D01*
X40614238Y-40981333D01*
X40709476Y-41028952D01*
X40757095Y-41076571D01*
X40804714Y-41171809D01*
X40804714Y-41409904D01*
X40757095Y-41505142D01*
X40709476Y-41552761D01*
X40614238Y-41600380D01*
X40328523Y-41600380D01*
X40233285Y-41552761D01*
X40185666Y-41505142D01*
%TO.C,D2*%
X39393904Y-33058380D02*
X39393904Y-32058380D01*
X39632000Y-32058380D01*
X39774857Y-32106000D01*
X39870095Y-32201238D01*
X39917714Y-32296476D01*
X39965333Y-32486952D01*
X39965333Y-32629809D01*
X39917714Y-32820285D01*
X39870095Y-32915523D01*
X39774857Y-33010761D01*
X39632000Y-33058380D01*
X39393904Y-33058380D01*
X40346285Y-32153619D02*
X40393904Y-32106000D01*
X40489142Y-32058380D01*
X40727238Y-32058380D01*
X40822476Y-32106000D01*
X40870095Y-32153619D01*
X40917714Y-32248857D01*
X40917714Y-32344095D01*
X40870095Y-32486952D01*
X40298666Y-33058380D01*
X40917714Y-33058380D01*
%TO.C,D1*%
X39393904Y-24422380D02*
X39393904Y-23422380D01*
X39632000Y-23422380D01*
X39774857Y-23470000D01*
X39870095Y-23565238D01*
X39917714Y-23660476D01*
X39965333Y-23850952D01*
X39965333Y-23993809D01*
X39917714Y-24184285D01*
X39870095Y-24279523D01*
X39774857Y-24374761D01*
X39632000Y-24422380D01*
X39393904Y-24422380D01*
X40917714Y-24422380D02*
X40346285Y-24422380D01*
X40632000Y-24422380D02*
X40632000Y-23422380D01*
X40536761Y-23565238D01*
X40441523Y-23660476D01*
X40346285Y-23708095D01*
%TO.C,C2*%
X21931333Y-40350977D02*
X21883714Y-40398596D01*
X21740857Y-40446215D01*
X21645619Y-40446215D01*
X21502761Y-40398596D01*
X21407523Y-40303358D01*
X21359904Y-40208120D01*
X21312285Y-40017644D01*
X21312285Y-39874787D01*
X21359904Y-39684311D01*
X21407523Y-39589073D01*
X21502761Y-39493835D01*
X21645619Y-39446215D01*
X21740857Y-39446215D01*
X21883714Y-39493835D01*
X21931333Y-39541454D01*
X22312285Y-39541454D02*
X22359904Y-39493835D01*
X22455142Y-39446215D01*
X22693238Y-39446215D01*
X22788476Y-39493835D01*
X22836095Y-39541454D01*
X22883714Y-39636692D01*
X22883714Y-39731930D01*
X22836095Y-39874787D01*
X22264666Y-40446215D01*
X22883714Y-40446215D01*
%TO.C,C1*%
X21931333Y-24348977D02*
X21883714Y-24396596D01*
X21740857Y-24444215D01*
X21645619Y-24444215D01*
X21502761Y-24396596D01*
X21407523Y-24301358D01*
X21359904Y-24206120D01*
X21312285Y-24015644D01*
X21312285Y-23872787D01*
X21359904Y-23682311D01*
X21407523Y-23587073D01*
X21502761Y-23491835D01*
X21645619Y-23444215D01*
X21740857Y-23444215D01*
X21883714Y-23491835D01*
X21931333Y-23539454D01*
X22883714Y-24444215D02*
X22312285Y-24444215D01*
X22598000Y-24444215D02*
X22598000Y-23444215D01*
X22502761Y-23587073D01*
X22407523Y-23682311D01*
X22312285Y-23729930D01*
D12*
%TO.C,J1*%
X18768000Y-35858000D02*
X21143000Y-35858000D01*
X20513000Y-33738000D02*
X22888000Y-33738000D01*
X18768000Y-35858000D02*
X18768000Y-33738000D01*
X22888000Y-35858000D02*
X22888000Y-33738000D01*
X18768000Y-33738000D02*
X19143000Y-33738000D01*
X22513000Y-35858000D02*
X22888000Y-35858000D01*
X19143000Y-33738000D02*
X19143000Y-32508000D01*
%TO.C,U2*%
X32378000Y-37542000D02*
X30728000Y-37542000D01*
X27078000Y-37542000D02*
X27078000Y-47822000D01*
X32378000Y-47822000D02*
X32378000Y-37542000D01*
X28728000Y-37542000D02*
X27078000Y-37542000D01*
X27078000Y-47822000D02*
X32378000Y-47822000D01*
X28728000Y-37542000D02*
G75*
G03*
X30728000Y-37542000I1000000J0D01*
G01*
%TO.C,U1*%
X32124000Y-21794000D02*
X30474000Y-21794000D01*
X26824000Y-21794000D02*
X26824000Y-32074000D01*
X32124000Y-32074000D02*
X32124000Y-21794000D01*
X28474000Y-21794000D02*
X26824000Y-21794000D01*
X26824000Y-32074000D02*
X32124000Y-32074000D01*
X28474000Y-21794000D02*
G75*
G03*
X30474000Y-21794000I1000000J0D01*
G01*
%TO.C,R5*%
X43433276Y-42149500D02*
X43942724Y-42149500D01*
X43433276Y-43194500D02*
X43942724Y-43194500D01*
%TO.C,R4*%
X43433276Y-34558500D02*
X43942724Y-34558500D01*
X43433276Y-33513500D02*
X43942724Y-33513500D01*
%TO.C,R3*%
X43433276Y-24877500D02*
X43942724Y-24877500D01*
X43433276Y-25922500D02*
X43942724Y-25922500D01*
%TO.C,R2*%
X29885621Y-50418000D02*
X29550379Y-50418000D01*
X29885621Y-49658000D02*
X29550379Y-49658000D01*
%TO.C,R1*%
X29377621Y-33908000D02*
X29042379Y-33908000D01*
X29377621Y-33148000D02*
X29042379Y-33148000D01*
%TO.C,D3*%
X39219000Y-43407000D02*
X41679000Y-43407000D01*
X41679000Y-41937000D02*
X39219000Y-41937000D01*
X41679000Y-43407000D02*
X41679000Y-41937000D01*
%TO.C,D2*%
X38472000Y-33301000D02*
X38472000Y-34771000D01*
X38472000Y-34771000D02*
X40932000Y-34771000D01*
X40932000Y-33301000D02*
X38472000Y-33301000D01*
%TO.C,D1*%
X40932000Y-24665000D02*
X38472000Y-24665000D01*
X38472000Y-26135000D02*
X40932000Y-26135000D01*
X38472000Y-24665000D02*
X38472000Y-26135000D01*
%TO.C,C2*%
X24490000Y-39762165D02*
X24490000Y-39993835D01*
X23770000Y-39762165D02*
X23770000Y-39993835D01*
%TO.C,C1*%
X23516000Y-23991835D02*
X23516000Y-23760165D01*
X24236000Y-23991835D02*
X24236000Y-23760165D01*
%TD*%
M02*
