%TF.GenerationSoftware,KiCad,Pcbnew,(6.0.1)*%
%TF.CreationDate,2022-04-29T13:35:19+05:45*%
%TF.ProjectId,555_Badge,3535355f-4261-4646-9765-2e6b69636164,v01*%
%TF.SameCoordinates,Original*%
%TF.FileFunction,Legend,Bot*%
%TF.FilePolarity,Positive*%
%FSLAX46Y46*%
G04 Gerber Fmt 4.6, Leading zero omitted, Abs format (unit mm)*
G04 Created by KiCad (PCBNEW (6.0.1)) date 2022-04-29 13:35:19*
%MOMM*%
%LPD*%
G01*
G04 APERTURE LIST*
%ADD10C,0.177800*%
G04 APERTURE END LIST*
D10*
X41982571Y-64275788D02*
X42708285Y-64275788D01*
X42780857Y-65001502D01*
X42708285Y-64928931D01*
X42563142Y-64856360D01*
X42200285Y-64856360D01*
X42055142Y-64928931D01*
X41982571Y-65001502D01*
X41910000Y-65146645D01*
X41910000Y-65509502D01*
X41982571Y-65654645D01*
X42055142Y-65727217D01*
X42200285Y-65799788D01*
X42563142Y-65799788D01*
X42708285Y-65727217D01*
X42780857Y-65654645D01*
X40531142Y-64275788D02*
X41256857Y-64275788D01*
X41329428Y-65001502D01*
X41256857Y-64928931D01*
X41111714Y-64856360D01*
X40748857Y-64856360D01*
X40603714Y-64928931D01*
X40531142Y-65001502D01*
X40458571Y-65146645D01*
X40458571Y-65509502D01*
X40531142Y-65654645D01*
X40603714Y-65727217D01*
X40748857Y-65799788D01*
X41111714Y-65799788D01*
X41256857Y-65727217D01*
X41329428Y-65654645D01*
X39079714Y-64275788D02*
X39805428Y-64275788D01*
X39878000Y-65001502D01*
X39805428Y-64928931D01*
X39660285Y-64856360D01*
X39297428Y-64856360D01*
X39152285Y-64928931D01*
X39079714Y-65001502D01*
X39007142Y-65146645D01*
X39007142Y-65509502D01*
X39079714Y-65654645D01*
X39152285Y-65727217D01*
X39297428Y-65799788D01*
X39660285Y-65799788D01*
X39805428Y-65727217D01*
X39878000Y-65654645D01*
X36684857Y-65001502D02*
X36467142Y-65074074D01*
X36394571Y-65146645D01*
X36322000Y-65291788D01*
X36322000Y-65509502D01*
X36394571Y-65654645D01*
X36467142Y-65727217D01*
X36612285Y-65799788D01*
X37192857Y-65799788D01*
X37192857Y-64275788D01*
X36684857Y-64275788D01*
X36539714Y-64348360D01*
X36467142Y-64420931D01*
X36394571Y-64566074D01*
X36394571Y-64711217D01*
X36467142Y-64856360D01*
X36539714Y-64928931D01*
X36684857Y-65001502D01*
X37192857Y-65001502D01*
X35015714Y-65799788D02*
X35015714Y-65001502D01*
X35088285Y-64856360D01*
X35233428Y-64783788D01*
X35523714Y-64783788D01*
X35668857Y-64856360D01*
X35015714Y-65727217D02*
X35160857Y-65799788D01*
X35523714Y-65799788D01*
X35668857Y-65727217D01*
X35741428Y-65582074D01*
X35741428Y-65436931D01*
X35668857Y-65291788D01*
X35523714Y-65219217D01*
X35160857Y-65219217D01*
X35015714Y-65146645D01*
X33636857Y-65799788D02*
X33636857Y-64275788D01*
X33636857Y-65727217D02*
X33782000Y-65799788D01*
X34072285Y-65799788D01*
X34217428Y-65727217D01*
X34290000Y-65654645D01*
X34362571Y-65509502D01*
X34362571Y-65074074D01*
X34290000Y-64928931D01*
X34217428Y-64856360D01*
X34072285Y-64783788D01*
X33782000Y-64783788D01*
X33636857Y-64856360D01*
X32258000Y-64783788D02*
X32258000Y-66017502D01*
X32330571Y-66162645D01*
X32403142Y-66235217D01*
X32548285Y-66307788D01*
X32766000Y-66307788D01*
X32911142Y-66235217D01*
X32258000Y-65727217D02*
X32403142Y-65799788D01*
X32693428Y-65799788D01*
X32838571Y-65727217D01*
X32911142Y-65654645D01*
X32983714Y-65509502D01*
X32983714Y-65074074D01*
X32911142Y-64928931D01*
X32838571Y-64856360D01*
X32693428Y-64783788D01*
X32403142Y-64783788D01*
X32258000Y-64856360D01*
X30951714Y-65727217D02*
X31096857Y-65799788D01*
X31387142Y-65799788D01*
X31532285Y-65727217D01*
X31604857Y-65582074D01*
X31604857Y-65001502D01*
X31532285Y-64856360D01*
X31387142Y-64783788D01*
X31096857Y-64783788D01*
X30951714Y-64856360D01*
X30879142Y-65001502D01*
X30879142Y-65146645D01*
X31604857Y-65291788D01*
X29282571Y-64275788D02*
X28774571Y-65799788D01*
X28266571Y-64275788D01*
X27758571Y-65654645D02*
X27686000Y-65727217D01*
X27758571Y-65799788D01*
X27831142Y-65727217D01*
X27758571Y-65654645D01*
X27758571Y-65799788D01*
X26742571Y-64275788D02*
X26597428Y-64275788D01*
X26452285Y-64348360D01*
X26379714Y-64420931D01*
X26307142Y-64566074D01*
X26234571Y-64856360D01*
X26234571Y-65219217D01*
X26307142Y-65509502D01*
X26379714Y-65654645D01*
X26452285Y-65727217D01*
X26597428Y-65799788D01*
X26742571Y-65799788D01*
X26887714Y-65727217D01*
X26960285Y-65654645D01*
X27032857Y-65509502D01*
X27105428Y-65219217D01*
X27105428Y-64856360D01*
X27032857Y-64566074D01*
X26960285Y-64420931D01*
X26887714Y-64348360D01*
X26742571Y-64275788D01*
X24783142Y-65799788D02*
X25654000Y-65799788D01*
X25218571Y-65799788D02*
X25218571Y-64275788D01*
X25363714Y-64493502D01*
X25508857Y-64638645D01*
X25654000Y-64711217D01*
X44232285Y-67818000D02*
X43506571Y-67818000D01*
X44377428Y-68253428D02*
X43869428Y-66729428D01*
X43361428Y-68253428D01*
X42200285Y-67237428D02*
X42200285Y-68253428D01*
X42853428Y-67237428D02*
X42853428Y-68035714D01*
X42780857Y-68180857D01*
X42635714Y-68253428D01*
X42418000Y-68253428D01*
X42272857Y-68180857D01*
X42200285Y-68108285D01*
X41692285Y-67237428D02*
X41111714Y-67237428D01*
X41474571Y-66729428D02*
X41474571Y-68035714D01*
X41402000Y-68180857D01*
X41256857Y-68253428D01*
X41111714Y-68253428D01*
X40603714Y-68253428D02*
X40603714Y-66729428D01*
X39950571Y-68253428D02*
X39950571Y-67455142D01*
X40023142Y-67310000D01*
X40168285Y-67237428D01*
X40386000Y-67237428D01*
X40531142Y-67310000D01*
X40603714Y-67382571D01*
X39007142Y-68253428D02*
X39152285Y-68180857D01*
X39224857Y-68108285D01*
X39297428Y-67963142D01*
X39297428Y-67527714D01*
X39224857Y-67382571D01*
X39152285Y-67310000D01*
X39007142Y-67237428D01*
X38789428Y-67237428D01*
X38644285Y-67310000D01*
X38571714Y-67382571D01*
X38499142Y-67527714D01*
X38499142Y-67963142D01*
X38571714Y-68108285D01*
X38644285Y-68180857D01*
X38789428Y-68253428D01*
X39007142Y-68253428D01*
X37846000Y-68253428D02*
X37846000Y-67237428D01*
X37846000Y-67527714D02*
X37773428Y-67382571D01*
X37700857Y-67310000D01*
X37555714Y-67237428D01*
X37410571Y-67237428D01*
X36902571Y-68108285D02*
X36830000Y-68180857D01*
X36902571Y-68253428D01*
X36975142Y-68180857D01*
X36902571Y-68108285D01*
X36902571Y-68253428D01*
X36902571Y-67310000D02*
X36830000Y-67382571D01*
X36902571Y-67455142D01*
X36975142Y-67382571D01*
X36902571Y-67310000D01*
X36902571Y-67455142D01*
X36176857Y-66729428D02*
X36176857Y-67963142D01*
X36104285Y-68108285D01*
X36031714Y-68180857D01*
X35886571Y-68253428D01*
X35596285Y-68253428D01*
X35451142Y-68180857D01*
X35378571Y-68108285D01*
X35306000Y-67963142D01*
X35306000Y-66729428D01*
X34580285Y-68253428D02*
X34580285Y-66729428D01*
X34435142Y-67672857D02*
X33999714Y-68253428D01*
X33999714Y-67237428D02*
X34580285Y-67818000D01*
X32766000Y-68180857D02*
X32911142Y-68253428D01*
X33201428Y-68253428D01*
X33346571Y-68180857D01*
X33419142Y-68035714D01*
X33419142Y-67455142D01*
X33346571Y-67310000D01*
X33201428Y-67237428D01*
X32911142Y-67237428D01*
X32766000Y-67310000D01*
X32693428Y-67455142D01*
X32693428Y-67600285D01*
X33419142Y-67745428D01*
X32112857Y-68180857D02*
X31967714Y-68253428D01*
X31677428Y-68253428D01*
X31532285Y-68180857D01*
X31459714Y-68035714D01*
X31459714Y-67963142D01*
X31532285Y-67818000D01*
X31677428Y-67745428D01*
X31895142Y-67745428D01*
X32040285Y-67672857D01*
X32112857Y-67527714D01*
X32112857Y-67455142D01*
X32040285Y-67310000D01*
X31895142Y-67237428D01*
X31677428Y-67237428D01*
X31532285Y-67310000D01*
X30806571Y-68253428D02*
X30806571Y-66729428D01*
X30153428Y-68253428D02*
X30153428Y-67455142D01*
X30226000Y-67310000D01*
X30371142Y-67237428D01*
X30588857Y-67237428D01*
X30734000Y-67310000D01*
X30806571Y-67382571D01*
X28339142Y-67818000D02*
X27613428Y-67818000D01*
X28484285Y-68253428D02*
X27976285Y-66729428D01*
X27468285Y-68253428D01*
X26960285Y-68253428D02*
X26960285Y-67237428D01*
X26960285Y-67527714D02*
X26887714Y-67382571D01*
X26815142Y-67310000D01*
X26670000Y-67237428D01*
X26524857Y-67237428D01*
X26162000Y-67237428D02*
X25799142Y-68253428D01*
X25436285Y-67237428D02*
X25799142Y-68253428D01*
X25944285Y-68616285D01*
X26016857Y-68688857D01*
X26162000Y-68761428D01*
X24202571Y-68253428D02*
X24202571Y-67455142D01*
X24275142Y-67310000D01*
X24420285Y-67237428D01*
X24710571Y-67237428D01*
X24855714Y-67310000D01*
X24202571Y-68180857D02*
X24347714Y-68253428D01*
X24710571Y-68253428D01*
X24855714Y-68180857D01*
X24928285Y-68035714D01*
X24928285Y-67890571D01*
X24855714Y-67745428D01*
X24710571Y-67672857D01*
X24347714Y-67672857D01*
X24202571Y-67600285D01*
X23259142Y-68253428D02*
X23404285Y-68180857D01*
X23476857Y-68035714D01*
X23476857Y-66729428D01*
X40894000Y-69328211D02*
X40821428Y-69255640D01*
X40676285Y-69183068D01*
X40313428Y-69183068D01*
X40168285Y-69255640D01*
X40095714Y-69328211D01*
X40023142Y-69473354D01*
X40023142Y-69618497D01*
X40095714Y-69836211D01*
X40966571Y-70707068D01*
X40023142Y-70707068D01*
X39297428Y-70707068D02*
X39007142Y-70707068D01*
X38862000Y-70634497D01*
X38789428Y-70561925D01*
X38644285Y-70344211D01*
X38571714Y-70053925D01*
X38571714Y-69473354D01*
X38644285Y-69328211D01*
X38716857Y-69255640D01*
X38862000Y-69183068D01*
X39152285Y-69183068D01*
X39297428Y-69255640D01*
X39370000Y-69328211D01*
X39442571Y-69473354D01*
X39442571Y-69836211D01*
X39370000Y-69981354D01*
X39297428Y-70053925D01*
X39152285Y-70126497D01*
X38862000Y-70126497D01*
X38716857Y-70053925D01*
X38644285Y-69981354D01*
X38571714Y-69836211D01*
X36830000Y-69110497D02*
X38136285Y-71069925D01*
X36031714Y-69183068D02*
X35886571Y-69183068D01*
X35741428Y-69255640D01*
X35668857Y-69328211D01*
X35596285Y-69473354D01*
X35523714Y-69763640D01*
X35523714Y-70126497D01*
X35596285Y-70416782D01*
X35668857Y-70561925D01*
X35741428Y-70634497D01*
X35886571Y-70707068D01*
X36031714Y-70707068D01*
X36176857Y-70634497D01*
X36249428Y-70561925D01*
X36322000Y-70416782D01*
X36394571Y-70126497D01*
X36394571Y-69763640D01*
X36322000Y-69473354D01*
X36249428Y-69328211D01*
X36176857Y-69255640D01*
X36031714Y-69183068D01*
X34217428Y-69691068D02*
X34217428Y-70707068D01*
X34580285Y-69110497D02*
X34943142Y-70199068D01*
X33999714Y-70199068D01*
X32330571Y-69110497D02*
X33636857Y-71069925D01*
X31895142Y-69328211D02*
X31822571Y-69255640D01*
X31677428Y-69183068D01*
X31314571Y-69183068D01*
X31169428Y-69255640D01*
X31096857Y-69328211D01*
X31024285Y-69473354D01*
X31024285Y-69618497D01*
X31096857Y-69836211D01*
X31967714Y-70707068D01*
X31024285Y-70707068D01*
X30080857Y-69183068D02*
X29935714Y-69183068D01*
X29790571Y-69255640D01*
X29718000Y-69328211D01*
X29645428Y-69473354D01*
X29572857Y-69763640D01*
X29572857Y-70126497D01*
X29645428Y-70416782D01*
X29718000Y-70561925D01*
X29790571Y-70634497D01*
X29935714Y-70707068D01*
X30080857Y-70707068D01*
X30226000Y-70634497D01*
X30298571Y-70561925D01*
X30371142Y-70416782D01*
X30443714Y-70126497D01*
X30443714Y-69763640D01*
X30371142Y-69473354D01*
X30298571Y-69328211D01*
X30226000Y-69255640D01*
X30080857Y-69183068D01*
X28992285Y-69328211D02*
X28919714Y-69255640D01*
X28774571Y-69183068D01*
X28411714Y-69183068D01*
X28266571Y-69255640D01*
X28194000Y-69328211D01*
X28121428Y-69473354D01*
X28121428Y-69618497D01*
X28194000Y-69836211D01*
X29064857Y-70707068D01*
X28121428Y-70707068D01*
X27540857Y-69328211D02*
X27468285Y-69255640D01*
X27323142Y-69183068D01*
X26960285Y-69183068D01*
X26815142Y-69255640D01*
X26742571Y-69328211D01*
X26670000Y-69473354D01*
X26670000Y-69618497D01*
X26742571Y-69836211D01*
X27613428Y-70707068D01*
X26670000Y-70707068D01*
M02*
