%TF.GenerationSoftware,KiCad,Pcbnew,(6.0.1)*%
%TF.CreationDate,2022-04-29T13:35:19+05:45*%
%TF.ProjectId,555_Badge,3535355f-4261-4646-9765-2e6b69636164,v01*%
%TF.SameCoordinates,Original*%
%TF.FileFunction,Soldermask,Top*%
%TF.FilePolarity,Negative*%
%FSLAX46Y46*%
G04 Gerber Fmt 4.6, Leading zero omitted, Abs format (unit mm)*
G04 Created by KiCad (PCBNEW (6.0.1)) date 2022-04-29 13:35:19*
%MOMM*%
%LPD*%
G01*
G04 APERTURE LIST*
G04 Aperture macros list*
%AMRoundRect*
0 Rectangle with rounded corners*
0 $1 Rounding radius*
0 $2 $3 $4 $5 $6 $7 $8 $9 X,Y pos of 4 corners*
0 Add a 4 corners polygon primitive as box body*
4,1,4,$2,$3,$4,$5,$6,$7,$8,$9,$2,$3,0*
0 Add four circle primitives for the rounded corners*
1,1,$1+$1,$2,$3*
1,1,$1+$1,$4,$5*
1,1,$1+$1,$6,$7*
1,1,$1+$1,$8,$9*
0 Add four rect primitives between the rounded corners*
20,1,$1+$1,$2,$3,$4,$5,0*
20,1,$1+$1,$4,$5,$6,$7,0*
20,1,$1+$1,$6,$7,$8,$9,0*
20,1,$1+$1,$8,$9,$2,$3,0*%
G04 Aperture macros list end*
%ADD10RoundRect,0.150000X-0.825000X-0.150000X0.825000X-0.150000X0.825000X0.150000X-0.825000X0.150000X0*%
%ADD11C,2.500000*%
%ADD12R,2.170000X2.170000*%
%ADD13C,1.900000*%
%ADD14R,1.900000X1.900000*%
%ADD15O,1.600000X1.600000*%
%ADD16C,1.600000*%
%ADD17R,1.050000X1.500000*%
%ADD18O,1.050000X1.500000*%
%ADD19C,1.800000*%
%ADD20R,1.800000X1.800000*%
%ADD21R,1.600000X1.600000*%
G04 APERTURE END LIST*
D10*
%TO.C,U1*%
X48833000Y-91059000D03*
X48833000Y-92329000D03*
X48833000Y-93599000D03*
X48833000Y-94869000D03*
X53783000Y-94869000D03*
X53783000Y-93599000D03*
X53783000Y-92329000D03*
X53783000Y-91059000D03*
%TD*%
D11*
%TO.C,BAT1*%
X45260300Y-89408000D03*
D12*
X25260300Y-89408000D03*
%TD*%
D13*
%TO.C,S1*%
X50292000Y-80692000D03*
X50292000Y-83192000D03*
D14*
X50292000Y-85692000D03*
%TD*%
D15*
%TO.C,R7*%
X69850000Y-78994000D03*
D16*
X69850000Y-86614000D03*
%TD*%
%TO.C,R6*%
X62484000Y-89662000D03*
D15*
X62484000Y-97282000D03*
%TD*%
%TO.C,R5*%
X66294000Y-78994000D03*
D16*
X66294000Y-86614000D03*
%TD*%
%TO.C,R4*%
X62738000Y-86614000D03*
D15*
X62738000Y-78994000D03*
%TD*%
D16*
%TO.C,R3*%
X57912000Y-97282000D03*
D15*
X57912000Y-89662000D03*
%TD*%
%TO.C,R2*%
X59182000Y-86614000D03*
D16*
X59182000Y-78994000D03*
%TD*%
%TO.C,R1*%
X55626000Y-78740000D03*
D15*
X55626000Y-86360000D03*
%TD*%
D17*
%TO.C,Q1*%
X52832000Y-99568000D03*
D18*
X51562000Y-99568000D03*
X50292000Y-99568000D03*
%TD*%
D19*
%TO.C,D2*%
X49784000Y-46228000D03*
D20*
X52324000Y-46228000D03*
%TD*%
%TO.C,D1*%
X42423000Y-45720000D03*
D19*
X39883000Y-45720000D03*
%TD*%
D16*
%TO.C,C2*%
X69088000Y-93773621D03*
D21*
X69088000Y-91273621D03*
%TD*%
%TO.C,C1*%
X69088000Y-100523112D03*
D16*
X69088000Y-98523112D03*
%TD*%
M02*
