%TF.GenerationSoftware,KiCad,Pcbnew,(6.0.1)*%
%TF.CreationDate,2022-05-09T00:38:21+05:45*%
%TF.ProjectId,ST_RF,53545f52-462e-46b6-9963-61645f706362,rev?*%
%TF.SameCoordinates,Original*%
%TF.FileFunction,Copper,L2,Inr*%
%TF.FilePolarity,Positive*%
%FSLAX46Y46*%
G04 Gerber Fmt 4.6, Leading zero omitted, Abs format (unit mm)*
G04 Created by KiCad (PCBNEW (6.0.1)) date 2022-05-09 00:38:21*
%MOMM*%
%LPD*%
G01*
G04 APERTURE LIST*
%TA.AperFunction,ComponentPad*%
%ADD10O,1.000000X1.000000*%
%TD*%
%TA.AperFunction,ComponentPad*%
%ADD11R,1.000000X1.000000*%
%TD*%
%TA.AperFunction,ComponentPad*%
%ADD12O,1.900000X1.200000*%
%TD*%
%TA.AperFunction,ComponentPad*%
%ADD13C,1.450000*%
%TD*%
%TA.AperFunction,ViaPad*%
%ADD14C,0.800000*%
%TD*%
%TA.AperFunction,Conductor*%
%ADD15C,0.500000*%
%TD*%
G04 APERTURE END LIST*
D10*
%TO.N,NRST*%
%TO.C,J3*%
X31496000Y-41910000D03*
%TO.N,GND*%
X31496000Y-40640000D03*
%TO.N,unconnected-(J3-Pad8)*%
X32766000Y-41910000D03*
%TO.N,unconnected-(J3-Pad7)*%
X32766000Y-40640000D03*
%TO.N,unconnected-(J3-Pad6)*%
X34036000Y-41910000D03*
%TO.N,GND*%
X34036000Y-40640000D03*
%TO.N,SW_CLK*%
X35306000Y-41910000D03*
%TO.N,GND*%
X35306000Y-40640000D03*
%TO.N,SW_DIO*%
X36576000Y-41910000D03*
D11*
%TO.N,+3V3*%
X36576000Y-40640000D03*
%TD*%
D12*
%TO.N,unconnected-(J1-Pad6)*%
%TO.C,J1*%
X26702500Y-39441000D03*
D13*
X29402500Y-33441000D03*
D12*
X26702500Y-32441000D03*
D13*
X29402500Y-38441000D03*
%TD*%
D14*
%TO.N,GND*%
X55118000Y-37846000D03*
X55626000Y-41656000D03*
X62230000Y-41910000D03*
X62738000Y-40132000D03*
X62738000Y-31242000D03*
X62230000Y-29210000D03*
X55372000Y-29464000D03*
X55118000Y-33528000D03*
X61468000Y-31750000D03*
X58166000Y-31750000D03*
X61468000Y-39624000D03*
X57404000Y-38608000D03*
X56388000Y-38608000D03*
X50800000Y-28956000D03*
X50038000Y-28956000D03*
X42672000Y-35814000D03*
X41783000Y-35941000D03*
X40894000Y-35814000D03*
X53848000Y-42164000D03*
X45212000Y-39116000D03*
%TO.N,NRST*%
X30226000Y-41910000D03*
%TO.N,GND*%
X31496000Y-39370000D03*
X36068000Y-39370000D03*
X35306000Y-39370000D03*
X43942000Y-30226000D03*
X43180000Y-30480000D03*
%TO.N,+3V3*%
X43434000Y-31496000D03*
%TO.N,NRST*%
X42418000Y-32258000D03*
%TO.N,+5V*%
X30657800Y-31369000D03*
%TO.N,GND*%
X32232600Y-34620200D03*
%TO.N,+3V3*%
X48031400Y-39217600D03*
%TO.N,GND*%
X48006000Y-32867600D03*
%TO.N,SPI_SCK*%
X45618400Y-37388800D03*
X47172548Y-35052248D03*
%TO.N,GND*%
X53416200Y-33756600D03*
X53416200Y-33020000D03*
X53441600Y-28956000D03*
X53467000Y-29845000D03*
%TO.N,+3V3*%
X52171600Y-28702000D03*
X52171600Y-29616400D03*
X40995600Y-32334200D03*
X47904400Y-29692600D03*
X47904400Y-28956000D03*
%TO.N,GND*%
X45288200Y-29210000D03*
X45313600Y-29870400D03*
X47040800Y-30708600D03*
X46329600Y-30734000D03*
%TO.N,+3V3*%
X47015400Y-31927800D03*
X46329600Y-31927800D03*
%TO.N,GND*%
X44450000Y-32791400D03*
X44450000Y-33528000D03*
%TO.N,+3V3*%
X38100000Y-34721800D03*
X38125400Y-33375600D03*
X38150800Y-34010600D03*
%TO.N,GND*%
X35788600Y-31877000D03*
X35788600Y-31089600D03*
%TO.N,+3V3*%
X37541200Y-34925000D03*
X36728400Y-34899600D03*
%TO.N,GND*%
X34544000Y-37084000D03*
%TO.N,+5V*%
X32181800Y-37109400D03*
%TO.N,GND*%
X39243000Y-38862000D03*
%TO.N,+3V3*%
X40894000Y-40132000D03*
%TO.N,GND*%
X50037400Y-38608000D03*
%TD*%
D15*
%TO.N,GND*%
X46863000Y-42164000D02*
X48641000Y-42164000D01*
%TD*%
%TA.AperFunction,Conductor*%
%TO.N,GND*%
G36*
X46945776Y-28722002D02*
G01*
X46992269Y-28775658D01*
X47002965Y-28841170D01*
X46990896Y-28956000D01*
X47010858Y-29145928D01*
X47045041Y-29251129D01*
X47056164Y-29285363D01*
X47058192Y-29356331D01*
X47056169Y-29363221D01*
X47010858Y-29502672D01*
X47010168Y-29509233D01*
X47010168Y-29509235D01*
X47006769Y-29541574D01*
X46990896Y-29692600D01*
X46991586Y-29699165D01*
X46998052Y-29760681D01*
X47010858Y-29882528D01*
X47069873Y-30064156D01*
X47165360Y-30229544D01*
X47169778Y-30234451D01*
X47169779Y-30234452D01*
X47288725Y-30366555D01*
X47293147Y-30371466D01*
X47447648Y-30483718D01*
X47453676Y-30486402D01*
X47453678Y-30486403D01*
X47616081Y-30558709D01*
X47622112Y-30561394D01*
X47687050Y-30575197D01*
X47802456Y-30599728D01*
X47802461Y-30599728D01*
X47808913Y-30601100D01*
X47999887Y-30601100D01*
X48006339Y-30599728D01*
X48006344Y-30599728D01*
X48121750Y-30575197D01*
X48186688Y-30561394D01*
X48192719Y-30558709D01*
X48355122Y-30486403D01*
X48355124Y-30486402D01*
X48361152Y-30483718D01*
X48515653Y-30371466D01*
X48520075Y-30366555D01*
X48639021Y-30234452D01*
X48639022Y-30234451D01*
X48643440Y-30229544D01*
X48738927Y-30064156D01*
X48797942Y-29882528D01*
X48810749Y-29760681D01*
X48817214Y-29699165D01*
X48817904Y-29692600D01*
X48802031Y-29541574D01*
X48798632Y-29509235D01*
X48798632Y-29509233D01*
X48797942Y-29502672D01*
X48752636Y-29363235D01*
X48750608Y-29292269D01*
X48752636Y-29285363D01*
X48763760Y-29251129D01*
X48797942Y-29145928D01*
X48817904Y-28956000D01*
X48805835Y-28841170D01*
X48818607Y-28771332D01*
X48867109Y-28719485D01*
X48931145Y-28702000D01*
X51144645Y-28702000D01*
X51212766Y-28722002D01*
X51259259Y-28775658D01*
X51269955Y-28814829D01*
X51278058Y-28891928D01*
X51337073Y-29073556D01*
X51350146Y-29096200D01*
X51366885Y-29165193D01*
X51350147Y-29222200D01*
X51337073Y-29244844D01*
X51278058Y-29426472D01*
X51258096Y-29616400D01*
X51258786Y-29622965D01*
X51273146Y-29759589D01*
X51278058Y-29806328D01*
X51337073Y-29987956D01*
X51432560Y-30153344D01*
X51560347Y-30295266D01*
X51714848Y-30407518D01*
X51720876Y-30410202D01*
X51720878Y-30410203D01*
X51877280Y-30479837D01*
X51889312Y-30485194D01*
X51982712Y-30505047D01*
X52069656Y-30523528D01*
X52069661Y-30523528D01*
X52076113Y-30524900D01*
X52267087Y-30524900D01*
X52273539Y-30523528D01*
X52273544Y-30523528D01*
X52360488Y-30505047D01*
X52453888Y-30485194D01*
X52465920Y-30479837D01*
X52622322Y-30410203D01*
X52622324Y-30410202D01*
X52628352Y-30407518D01*
X52782853Y-30295266D01*
X52910640Y-30153344D01*
X53006127Y-29987956D01*
X53065142Y-29806328D01*
X53070055Y-29759589D01*
X53084414Y-29622965D01*
X53085104Y-29616400D01*
X53065142Y-29426472D01*
X53006127Y-29244844D01*
X52993054Y-29222200D01*
X52976315Y-29153207D01*
X52993053Y-29096200D01*
X53006127Y-29073556D01*
X53065142Y-28891928D01*
X53073245Y-28814829D01*
X53100258Y-28749173D01*
X53158479Y-28708543D01*
X53198555Y-28702000D01*
X61926672Y-28702000D01*
X61946057Y-28703500D01*
X61960858Y-28705805D01*
X61960861Y-28705805D01*
X61969730Y-28707186D01*
X61982378Y-28705532D01*
X62009693Y-28704948D01*
X62083658Y-28711419D01*
X62141448Y-28716475D01*
X62163069Y-28720287D01*
X62312847Y-28760420D01*
X62333483Y-28767931D01*
X62474010Y-28833460D01*
X62493031Y-28844442D01*
X62620046Y-28933379D01*
X62636870Y-28947497D01*
X62746503Y-29057130D01*
X62760621Y-29073954D01*
X62849558Y-29200969D01*
X62860540Y-29219990D01*
X62926069Y-29360517D01*
X62933580Y-29381153D01*
X62973713Y-29530931D01*
X62977526Y-29552555D01*
X62988449Y-29677418D01*
X62987897Y-29693879D01*
X62988305Y-29693884D01*
X62988195Y-29702858D01*
X62986814Y-29711730D01*
X62987978Y-29720632D01*
X62987978Y-29720635D01*
X62990936Y-29743251D01*
X62992000Y-29759589D01*
X62992000Y-41606672D01*
X62990500Y-41626056D01*
X62986814Y-41649730D01*
X62988454Y-41662270D01*
X62988468Y-41662377D01*
X62989052Y-41689693D01*
X62977526Y-41821445D01*
X62973713Y-41843069D01*
X62947259Y-41941799D01*
X62933581Y-41992845D01*
X62926069Y-42013483D01*
X62860540Y-42154010D01*
X62849558Y-42173031D01*
X62760621Y-42300046D01*
X62746503Y-42316870D01*
X62636870Y-42426503D01*
X62620046Y-42440621D01*
X62493031Y-42529558D01*
X62474010Y-42540540D01*
X62333483Y-42606069D01*
X62312847Y-42613580D01*
X62163069Y-42653713D01*
X62141449Y-42657525D01*
X62089974Y-42662029D01*
X62016582Y-42668449D01*
X62000121Y-42667897D01*
X62000116Y-42668305D01*
X61991142Y-42668195D01*
X61982270Y-42666814D01*
X61973368Y-42667978D01*
X61973365Y-42667978D01*
X61950749Y-42670936D01*
X61934411Y-42672000D01*
X54736000Y-42672000D01*
X54667879Y-42651998D01*
X54621386Y-42598342D01*
X54610000Y-42546000D01*
X54610000Y-36830000D01*
X52196000Y-36830000D01*
X52127879Y-36809998D01*
X52081386Y-36756342D01*
X52070000Y-36704000D01*
X52070000Y-35814000D01*
X50292000Y-35814000D01*
X50292000Y-36704000D01*
X50271998Y-36772121D01*
X50218342Y-36818614D01*
X50166000Y-36830000D01*
X47498000Y-36830000D01*
X47498000Y-38417970D01*
X47477998Y-38486091D01*
X47446062Y-38519905D01*
X47425493Y-38534849D01*
X47425488Y-38534854D01*
X47420147Y-38538734D01*
X47415726Y-38543644D01*
X47415725Y-38543645D01*
X47314549Y-38656013D01*
X47292360Y-38680656D01*
X47196873Y-38846044D01*
X47137858Y-39027672D01*
X47117896Y-39217600D01*
X47118586Y-39224165D01*
X47122972Y-39265891D01*
X47137858Y-39407528D01*
X47196873Y-39589156D01*
X47292360Y-39754544D01*
X47296778Y-39759451D01*
X47296779Y-39759452D01*
X47415725Y-39891555D01*
X47420147Y-39896466D01*
X47425488Y-39900346D01*
X47425493Y-39900351D01*
X47446062Y-39915295D01*
X47489415Y-39971517D01*
X47498000Y-40017230D01*
X47498000Y-42546000D01*
X47477998Y-42614121D01*
X47424342Y-42660614D01*
X47372000Y-42672000D01*
X37519532Y-42672000D01*
X37451411Y-42651998D01*
X37404918Y-42598342D01*
X37394814Y-42528068D01*
X37409976Y-42483763D01*
X37498722Y-42327542D01*
X37501769Y-42322179D01*
X37564197Y-42134513D01*
X37588985Y-41938295D01*
X37589380Y-41910000D01*
X37570080Y-41713167D01*
X37565073Y-41696581D01*
X37514697Y-41529731D01*
X37512916Y-41523831D01*
X37510024Y-41518391D01*
X37508195Y-41513954D01*
X37500731Y-41443350D01*
X37518512Y-41402631D01*
X37516921Y-41401760D01*
X37521229Y-41393891D01*
X37526615Y-41386705D01*
X37577745Y-41250316D01*
X37584500Y-41188134D01*
X37584500Y-40132000D01*
X39980496Y-40132000D01*
X40000458Y-40321928D01*
X40059473Y-40503556D01*
X40154960Y-40668944D01*
X40282747Y-40810866D01*
X40369640Y-40873998D01*
X40425483Y-40914570D01*
X40437248Y-40923118D01*
X40443276Y-40925802D01*
X40443278Y-40925803D01*
X40605681Y-40998109D01*
X40611712Y-41000794D01*
X40705113Y-41020647D01*
X40792056Y-41039128D01*
X40792061Y-41039128D01*
X40798513Y-41040500D01*
X40989487Y-41040500D01*
X40995939Y-41039128D01*
X40995944Y-41039128D01*
X41082887Y-41020647D01*
X41176288Y-41000794D01*
X41182319Y-40998109D01*
X41344722Y-40925803D01*
X41344724Y-40925802D01*
X41350752Y-40923118D01*
X41362518Y-40914570D01*
X41418360Y-40873998D01*
X41505253Y-40810866D01*
X41633040Y-40668944D01*
X41728527Y-40503556D01*
X41787542Y-40321928D01*
X41807504Y-40132000D01*
X41787542Y-39942072D01*
X41728527Y-39760444D01*
X41633040Y-39595056D01*
X41559448Y-39513323D01*
X41509675Y-39458045D01*
X41509674Y-39458044D01*
X41505253Y-39453134D01*
X41350752Y-39340882D01*
X41344724Y-39338198D01*
X41344722Y-39338197D01*
X41182319Y-39265891D01*
X41182318Y-39265891D01*
X41176288Y-39263206D01*
X41082888Y-39243353D01*
X40995944Y-39224872D01*
X40995939Y-39224872D01*
X40989487Y-39223500D01*
X40798513Y-39223500D01*
X40792061Y-39224872D01*
X40792056Y-39224872D01*
X40705112Y-39243353D01*
X40611712Y-39263206D01*
X40605682Y-39265891D01*
X40605681Y-39265891D01*
X40443278Y-39338197D01*
X40443276Y-39338198D01*
X40437248Y-39340882D01*
X40282747Y-39453134D01*
X40278326Y-39458044D01*
X40278325Y-39458045D01*
X40228553Y-39513323D01*
X40154960Y-39595056D01*
X40059473Y-39760444D01*
X40000458Y-39942072D01*
X39980496Y-40132000D01*
X37584500Y-40132000D01*
X37584500Y-40091866D01*
X37577745Y-40029684D01*
X37526615Y-39893295D01*
X37439261Y-39776739D01*
X37322705Y-39689385D01*
X37186316Y-39638255D01*
X37124134Y-39631500D01*
X36027866Y-39631500D01*
X35965684Y-39638255D01*
X35829295Y-39689385D01*
X35822108Y-39694771D01*
X35814240Y-39699079D01*
X35813105Y-39697006D01*
X35758606Y-39717368D01*
X35700723Y-39707850D01*
X35692620Y-39704444D01*
X35577308Y-39668750D01*
X35563205Y-39668544D01*
X35560000Y-39675299D01*
X35560000Y-40768000D01*
X35539998Y-40836121D01*
X35486342Y-40882614D01*
X35434000Y-40894000D01*
X33908000Y-40894000D01*
X33839879Y-40873998D01*
X33793386Y-40820342D01*
X33782000Y-40768000D01*
X33782000Y-40367885D01*
X34290000Y-40367885D01*
X34294475Y-40383124D01*
X34295865Y-40384329D01*
X34303548Y-40386000D01*
X35033885Y-40386000D01*
X35049124Y-40381525D01*
X35050329Y-40380135D01*
X35052000Y-40372452D01*
X35052000Y-39682076D01*
X35048027Y-39668545D01*
X35040232Y-39667425D01*
X34932479Y-39699138D01*
X34921111Y-39703731D01*
X34756846Y-39789607D01*
X34741426Y-39799697D01*
X34740095Y-39797663D01*
X34684357Y-39820653D01*
X34614508Y-39807943D01*
X34600617Y-39799814D01*
X34596971Y-39797355D01*
X34433924Y-39709196D01*
X34422619Y-39704444D01*
X34307308Y-39668750D01*
X34293205Y-39668544D01*
X34290000Y-39675299D01*
X34290000Y-40367885D01*
X33782000Y-40367885D01*
X33782000Y-39682076D01*
X33778027Y-39668545D01*
X33770232Y-39667425D01*
X33662479Y-39699138D01*
X33651111Y-39703731D01*
X33486846Y-39789607D01*
X33471426Y-39799697D01*
X33470003Y-39797522D01*
X33414864Y-39820314D01*
X33345005Y-39807657D01*
X33335055Y-39801839D01*
X33332675Y-39799870D01*
X33158701Y-39705802D01*
X32969768Y-39647318D01*
X32963643Y-39646674D01*
X32963642Y-39646674D01*
X32779204Y-39627289D01*
X32779202Y-39627289D01*
X32773075Y-39626645D01*
X32690576Y-39634153D01*
X32582251Y-39644011D01*
X32582248Y-39644012D01*
X32576112Y-39644570D01*
X32570206Y-39646308D01*
X32570202Y-39646309D01*
X32493954Y-39668750D01*
X32386381Y-39700410D01*
X32380923Y-39703263D01*
X32380919Y-39703265D01*
X32293770Y-39748826D01*
X32211110Y-39792040D01*
X32206310Y-39795900D01*
X32201153Y-39799274D01*
X32199849Y-39797281D01*
X32143977Y-39820354D01*
X32074122Y-39807674D01*
X32060186Y-39799522D01*
X32056980Y-39797360D01*
X31893924Y-39709196D01*
X31882619Y-39704444D01*
X31767308Y-39668750D01*
X31753205Y-39668544D01*
X31750000Y-39675299D01*
X31750000Y-40768000D01*
X31729998Y-40836121D01*
X31676342Y-40882614D01*
X31624000Y-40894000D01*
X30538282Y-40894000D01*
X30524751Y-40897973D01*
X30523448Y-40907036D01*
X30493955Y-40971616D01*
X30434228Y-41009999D01*
X30372535Y-41012350D01*
X30327946Y-41002873D01*
X30327947Y-41002873D01*
X30321487Y-41001500D01*
X30130513Y-41001500D01*
X30124061Y-41002872D01*
X30124056Y-41002872D01*
X30037112Y-41021353D01*
X29943712Y-41041206D01*
X29937682Y-41043891D01*
X29937681Y-41043891D01*
X29775278Y-41116197D01*
X29775276Y-41116198D01*
X29769248Y-41118882D01*
X29614747Y-41231134D01*
X29486960Y-41373056D01*
X29391473Y-41538444D01*
X29332458Y-41720072D01*
X29312496Y-41910000D01*
X29313186Y-41916565D01*
X29315100Y-41934771D01*
X29332458Y-42099928D01*
X29391473Y-42281556D01*
X29394776Y-42287278D01*
X29394777Y-42287279D01*
X29411862Y-42316871D01*
X29486960Y-42446944D01*
X29491378Y-42451851D01*
X29491379Y-42451852D01*
X29500238Y-42461691D01*
X29530955Y-42525699D01*
X29522190Y-42596152D01*
X29476726Y-42650683D01*
X29406601Y-42672000D01*
X26973328Y-42672000D01*
X26953943Y-42670500D01*
X26939142Y-42668195D01*
X26939139Y-42668195D01*
X26930270Y-42666814D01*
X26921369Y-42667978D01*
X26921365Y-42667978D01*
X26917621Y-42668468D01*
X26890307Y-42669052D01*
X26809742Y-42662004D01*
X26758551Y-42657525D01*
X26736930Y-42653713D01*
X26587152Y-42613580D01*
X26566516Y-42606069D01*
X26425990Y-42540540D01*
X26406970Y-42529558D01*
X26279954Y-42440621D01*
X26263129Y-42426503D01*
X26153497Y-42316871D01*
X26139379Y-42300046D01*
X26050442Y-42173030D01*
X26039460Y-42154010D01*
X25973931Y-42013484D01*
X25966419Y-41992846D01*
X25947382Y-41921798D01*
X25926287Y-41843070D01*
X25922474Y-41821445D01*
X25911551Y-41696581D01*
X25912103Y-41680121D01*
X25911695Y-41680116D01*
X25911805Y-41671142D01*
X25913186Y-41662270D01*
X25911547Y-41649730D01*
X25909064Y-41630749D01*
X25908000Y-41614411D01*
X25908000Y-40636629D01*
X25928002Y-40568508D01*
X25981658Y-40522015D01*
X26058149Y-40512965D01*
X26243837Y-40549228D01*
X26249399Y-40549500D01*
X27105346Y-40549500D01*
X27263066Y-40534452D01*
X27466034Y-40474908D01*
X27638660Y-40386000D01*
X27644813Y-40382831D01*
X30524202Y-40382831D01*
X30530763Y-40386000D01*
X31223885Y-40386000D01*
X31239124Y-40381525D01*
X31240329Y-40380135D01*
X31242000Y-40372452D01*
X31242000Y-39682076D01*
X31238027Y-39668545D01*
X31230232Y-39667425D01*
X31122479Y-39699138D01*
X31111111Y-39703731D01*
X30946846Y-39789607D01*
X30936585Y-39796321D01*
X30792127Y-39912468D01*
X30783368Y-39921046D01*
X30664222Y-40063039D01*
X30657292Y-40073159D01*
X30567998Y-40235585D01*
X30563166Y-40246858D01*
X30524506Y-40368731D01*
X30524202Y-40382831D01*
X27644813Y-40382831D01*
X27648749Y-40380804D01*
X27648752Y-40380802D01*
X27654080Y-40378058D01*
X27820420Y-40247396D01*
X27824352Y-40242865D01*
X27824355Y-40242862D01*
X27955121Y-40092167D01*
X27959052Y-40087637D01*
X27962052Y-40082451D01*
X27962055Y-40082447D01*
X28061967Y-39909742D01*
X28064973Y-39904546D01*
X28134361Y-39704729D01*
X28139608Y-39668545D01*
X28163852Y-39501335D01*
X28163852Y-39501334D01*
X28164713Y-39495396D01*
X28154933Y-39284101D01*
X28136509Y-39207653D01*
X28139994Y-39136742D01*
X28181263Y-39078972D01*
X28247214Y-39052685D01*
X28316907Y-39066226D01*
X28362215Y-39105861D01*
X28453975Y-39236907D01*
X28606593Y-39389525D01*
X28611101Y-39392682D01*
X28611104Y-39392684D01*
X28684406Y-39444010D01*
X28783394Y-39513323D01*
X28788376Y-39515646D01*
X28788381Y-39515649D01*
X28970933Y-39600774D01*
X28979007Y-39604539D01*
X28984315Y-39605961D01*
X28984317Y-39605962D01*
X29182172Y-39658977D01*
X29182174Y-39658977D01*
X29187487Y-39660401D01*
X29402500Y-39679212D01*
X29617513Y-39660401D01*
X29622826Y-39658977D01*
X29622828Y-39658977D01*
X29820683Y-39605962D01*
X29820685Y-39605961D01*
X29825993Y-39604539D01*
X29834067Y-39600774D01*
X30016619Y-39515649D01*
X30016624Y-39515646D01*
X30021606Y-39513323D01*
X30120594Y-39444010D01*
X30193896Y-39392684D01*
X30193899Y-39392682D01*
X30198407Y-39389525D01*
X30351025Y-39236907D01*
X30474823Y-39060106D01*
X30477146Y-39055124D01*
X30477149Y-39055119D01*
X30563716Y-38869475D01*
X30563717Y-38869474D01*
X30566039Y-38864493D01*
X30569299Y-38852329D01*
X30620477Y-38661328D01*
X30620477Y-38661326D01*
X30621901Y-38656013D01*
X30640712Y-38441000D01*
X30621901Y-38225987D01*
X30608517Y-38176037D01*
X30567462Y-38022817D01*
X30567461Y-38022815D01*
X30566039Y-38017507D01*
X30511486Y-37900518D01*
X30477149Y-37826881D01*
X30477146Y-37826876D01*
X30474823Y-37821894D01*
X30351025Y-37645093D01*
X30198407Y-37492475D01*
X30190130Y-37486679D01*
X30050344Y-37388800D01*
X30021606Y-37368677D01*
X30016624Y-37366354D01*
X30016619Y-37366351D01*
X29830975Y-37279784D01*
X29830974Y-37279783D01*
X29825993Y-37277461D01*
X29820685Y-37276039D01*
X29820683Y-37276038D01*
X29622828Y-37223023D01*
X29622826Y-37223023D01*
X29617513Y-37221599D01*
X29402500Y-37202788D01*
X29187487Y-37221599D01*
X29182174Y-37223023D01*
X29182172Y-37223023D01*
X28984317Y-37276038D01*
X28984315Y-37276039D01*
X28979007Y-37277461D01*
X28974026Y-37279783D01*
X28974025Y-37279784D01*
X28788381Y-37366351D01*
X28788376Y-37366354D01*
X28783394Y-37368677D01*
X28754656Y-37388800D01*
X28614871Y-37486679D01*
X28606593Y-37492475D01*
X28453975Y-37645093D01*
X28330177Y-37821894D01*
X28327854Y-37826876D01*
X28327851Y-37826881D01*
X28293514Y-37900518D01*
X28238961Y-38017507D01*
X28237539Y-38022815D01*
X28237538Y-38022817D01*
X28196483Y-38176037D01*
X28183099Y-38225987D01*
X28164288Y-38441000D01*
X28183099Y-38656013D01*
X28184523Y-38661326D01*
X28184523Y-38661328D01*
X28200722Y-38721784D01*
X28199032Y-38792761D01*
X28159238Y-38851556D01*
X28093973Y-38879504D01*
X28023960Y-38867730D01*
X27976245Y-38827295D01*
X27951749Y-38792761D01*
X27895446Y-38713389D01*
X27742650Y-38567119D01*
X27564952Y-38452380D01*
X27492152Y-38423041D01*
X27374332Y-38375558D01*
X27374329Y-38375557D01*
X27368763Y-38373314D01*
X27161163Y-38332772D01*
X27155601Y-38332500D01*
X26299654Y-38332500D01*
X26141934Y-38347548D01*
X26069468Y-38368807D01*
X25998473Y-38368790D01*
X25938756Y-38330392D01*
X25909278Y-38265804D01*
X25908000Y-38247902D01*
X25908000Y-37109400D01*
X31268296Y-37109400D01*
X31268986Y-37115965D01*
X31278390Y-37205435D01*
X31288258Y-37299328D01*
X31347273Y-37480956D01*
X31350576Y-37486678D01*
X31350577Y-37486679D01*
X31356173Y-37496372D01*
X31442760Y-37646344D01*
X31570547Y-37788266D01*
X31725048Y-37900518D01*
X31731076Y-37903202D01*
X31731078Y-37903203D01*
X31792730Y-37930652D01*
X31899512Y-37978194D01*
X31992912Y-37998047D01*
X32079856Y-38016528D01*
X32079861Y-38016528D01*
X32086313Y-38017900D01*
X32277287Y-38017900D01*
X32283739Y-38016528D01*
X32283744Y-38016528D01*
X32370688Y-37998047D01*
X32464088Y-37978194D01*
X32570870Y-37930652D01*
X32632522Y-37903203D01*
X32632524Y-37903202D01*
X32638552Y-37900518D01*
X32793053Y-37788266D01*
X32920840Y-37646344D01*
X33007427Y-37496372D01*
X33013023Y-37486679D01*
X33013024Y-37486678D01*
X33016327Y-37480956D01*
X33046271Y-37388800D01*
X44704896Y-37388800D01*
X44705586Y-37395365D01*
X44715793Y-37492475D01*
X44724858Y-37578728D01*
X44783873Y-37760356D01*
X44787176Y-37766078D01*
X44787177Y-37766079D01*
X44799987Y-37788266D01*
X44879360Y-37925744D01*
X44883778Y-37930651D01*
X44883779Y-37930652D01*
X44966765Y-38022817D01*
X45007147Y-38067666D01*
X45161648Y-38179918D01*
X45167676Y-38182602D01*
X45167678Y-38182603D01*
X45314343Y-38247902D01*
X45336112Y-38257594D01*
X45429512Y-38277447D01*
X45516456Y-38295928D01*
X45516461Y-38295928D01*
X45522913Y-38297300D01*
X45713887Y-38297300D01*
X45720339Y-38295928D01*
X45720344Y-38295928D01*
X45807288Y-38277447D01*
X45900688Y-38257594D01*
X45922457Y-38247902D01*
X46069122Y-38182603D01*
X46069124Y-38182602D01*
X46075152Y-38179918D01*
X46229653Y-38067666D01*
X46270035Y-38022817D01*
X46353021Y-37930652D01*
X46353022Y-37930651D01*
X46357440Y-37925744D01*
X46436813Y-37788266D01*
X46449623Y-37766079D01*
X46449624Y-37766078D01*
X46452927Y-37760356D01*
X46511942Y-37578728D01*
X46521008Y-37492475D01*
X46531214Y-37395365D01*
X46531904Y-37388800D01*
X46522500Y-37299328D01*
X46512632Y-37205435D01*
X46512632Y-37205433D01*
X46511942Y-37198872D01*
X46452927Y-37017244D01*
X46357440Y-36851856D01*
X46285647Y-36772121D01*
X46234075Y-36714845D01*
X46234074Y-36714844D01*
X46229653Y-36709934D01*
X46075152Y-36597682D01*
X46069124Y-36594998D01*
X46069122Y-36594997D01*
X45906719Y-36522691D01*
X45906718Y-36522691D01*
X45900688Y-36520006D01*
X45807287Y-36500153D01*
X45720344Y-36481672D01*
X45720339Y-36481672D01*
X45713887Y-36480300D01*
X45522913Y-36480300D01*
X45516461Y-36481672D01*
X45516456Y-36481672D01*
X45429513Y-36500153D01*
X45336112Y-36520006D01*
X45330082Y-36522691D01*
X45330081Y-36522691D01*
X45167678Y-36594997D01*
X45167676Y-36594998D01*
X45161648Y-36597682D01*
X45007147Y-36709934D01*
X45002726Y-36714844D01*
X45002725Y-36714845D01*
X44951154Y-36772121D01*
X44879360Y-36851856D01*
X44783873Y-37017244D01*
X44724858Y-37198872D01*
X44724168Y-37205433D01*
X44724168Y-37205435D01*
X44714300Y-37299328D01*
X44704896Y-37388800D01*
X33046271Y-37388800D01*
X33075342Y-37299328D01*
X33085211Y-37205435D01*
X33094614Y-37115965D01*
X33095304Y-37109400D01*
X33075342Y-36919472D01*
X33016327Y-36737844D01*
X33003049Y-36714845D01*
X32924141Y-36578174D01*
X32920840Y-36572456D01*
X32876032Y-36522691D01*
X32797475Y-36435445D01*
X32797474Y-36435444D01*
X32793053Y-36430534D01*
X32638552Y-36318282D01*
X32632524Y-36315598D01*
X32632522Y-36315597D01*
X32470119Y-36243291D01*
X32470118Y-36243291D01*
X32464088Y-36240606D01*
X32370687Y-36220753D01*
X32283744Y-36202272D01*
X32283739Y-36202272D01*
X32277287Y-36200900D01*
X32086313Y-36200900D01*
X32079861Y-36202272D01*
X32079856Y-36202272D01*
X31992913Y-36220753D01*
X31899512Y-36240606D01*
X31893482Y-36243291D01*
X31893481Y-36243291D01*
X31731078Y-36315597D01*
X31731076Y-36315598D01*
X31725048Y-36318282D01*
X31570547Y-36430534D01*
X31566126Y-36435444D01*
X31566125Y-36435445D01*
X31487569Y-36522691D01*
X31442760Y-36572456D01*
X31439459Y-36578174D01*
X31360552Y-36714845D01*
X31347273Y-36737844D01*
X31288258Y-36919472D01*
X31268296Y-37109400D01*
X25908000Y-37109400D01*
X25908000Y-34899600D01*
X35814896Y-34899600D01*
X35834858Y-35089528D01*
X35893873Y-35271156D01*
X35989360Y-35436544D01*
X36117147Y-35578466D01*
X36271648Y-35690718D01*
X36277676Y-35693402D01*
X36277678Y-35693403D01*
X36401775Y-35748654D01*
X36446112Y-35768394D01*
X36539512Y-35788247D01*
X36626456Y-35806728D01*
X36626461Y-35806728D01*
X36632913Y-35808100D01*
X36823887Y-35808100D01*
X36830339Y-35806728D01*
X36830344Y-35806728D01*
X36917288Y-35788247D01*
X37010688Y-35768394D01*
X37016715Y-35765711D01*
X37016723Y-35765708D01*
X37055025Y-35748654D01*
X37125392Y-35739219D01*
X37157521Y-35748652D01*
X37258912Y-35793794D01*
X37352313Y-35813647D01*
X37439256Y-35832128D01*
X37439261Y-35832128D01*
X37445713Y-35833500D01*
X37636687Y-35833500D01*
X37643139Y-35832128D01*
X37643144Y-35832128D01*
X37730087Y-35813647D01*
X37823488Y-35793794D01*
X37880538Y-35768394D01*
X37991922Y-35718803D01*
X37991924Y-35718802D01*
X37997952Y-35716118D01*
X38029217Y-35693403D01*
X38082949Y-35654364D01*
X38149817Y-35630505D01*
X38157010Y-35630300D01*
X38195487Y-35630300D01*
X38201939Y-35628928D01*
X38201944Y-35628928D01*
X38288887Y-35610447D01*
X38382288Y-35590594D01*
X38409528Y-35578466D01*
X38550722Y-35515603D01*
X38550724Y-35515602D01*
X38556752Y-35512918D01*
X38711253Y-35400666D01*
X38839040Y-35258744D01*
X38934527Y-35093356D01*
X38947884Y-35052248D01*
X46259044Y-35052248D01*
X46279006Y-35242176D01*
X46338021Y-35423804D01*
X46433508Y-35589192D01*
X46437926Y-35594099D01*
X46437927Y-35594100D01*
X46550210Y-35718803D01*
X46561295Y-35731114D01*
X46614495Y-35769766D01*
X46702217Y-35833500D01*
X46715796Y-35843366D01*
X46721824Y-35846050D01*
X46721826Y-35846051D01*
X46884229Y-35918357D01*
X46890260Y-35921042D01*
X46983660Y-35940895D01*
X47070604Y-35959376D01*
X47070609Y-35959376D01*
X47077061Y-35960748D01*
X47268035Y-35960748D01*
X47274487Y-35959376D01*
X47274492Y-35959376D01*
X47361436Y-35940895D01*
X47454836Y-35921042D01*
X47460867Y-35918357D01*
X47623270Y-35846051D01*
X47623272Y-35846050D01*
X47629300Y-35843366D01*
X47642880Y-35833500D01*
X47730601Y-35769766D01*
X47783801Y-35731114D01*
X47794886Y-35718803D01*
X47907169Y-35594100D01*
X47907170Y-35594099D01*
X47911588Y-35589192D01*
X48007075Y-35423804D01*
X48066090Y-35242176D01*
X48086052Y-35052248D01*
X48066090Y-34862320D01*
X48007075Y-34680692D01*
X47911588Y-34515304D01*
X47783801Y-34373382D01*
X47629300Y-34261130D01*
X47623272Y-34258446D01*
X47623270Y-34258445D01*
X47460867Y-34186139D01*
X47460866Y-34186139D01*
X47454836Y-34183454D01*
X47361435Y-34163601D01*
X47274492Y-34145120D01*
X47274487Y-34145120D01*
X47268035Y-34143748D01*
X47077061Y-34143748D01*
X47070609Y-34145120D01*
X47070604Y-34145120D01*
X46983661Y-34163601D01*
X46890260Y-34183454D01*
X46884230Y-34186139D01*
X46884229Y-34186139D01*
X46721826Y-34258445D01*
X46721824Y-34258446D01*
X46715796Y-34261130D01*
X46561295Y-34373382D01*
X46433508Y-34515304D01*
X46338021Y-34680692D01*
X46279006Y-34862320D01*
X46259044Y-35052248D01*
X38947884Y-35052248D01*
X38993542Y-34911728D01*
X39013504Y-34721800D01*
X38993542Y-34531872D01*
X38976581Y-34479671D01*
X38974553Y-34408705D01*
X38981307Y-34389488D01*
X38982025Y-34387875D01*
X38985327Y-34382156D01*
X39044342Y-34200528D01*
X39045855Y-34186139D01*
X39063614Y-34017165D01*
X39064304Y-34010600D01*
X39062399Y-33992472D01*
X39045032Y-33827235D01*
X39045032Y-33827233D01*
X39044342Y-33820672D01*
X39002842Y-33692949D01*
X39000814Y-33621983D01*
X39002842Y-33615077D01*
X39016903Y-33571803D01*
X39018942Y-33565528D01*
X39023516Y-33522015D01*
X39038214Y-33382165D01*
X39038904Y-33375600D01*
X39025819Y-33251102D01*
X39019632Y-33192235D01*
X39019632Y-33192233D01*
X39018942Y-33185672D01*
X38959927Y-33004044D01*
X38864440Y-32838656D01*
X38849348Y-32821894D01*
X38741075Y-32701645D01*
X38741074Y-32701644D01*
X38736653Y-32696734D01*
X38582152Y-32584482D01*
X38576124Y-32581798D01*
X38576122Y-32581797D01*
X38413719Y-32509491D01*
X38413718Y-32509491D01*
X38407688Y-32506806D01*
X38314288Y-32486953D01*
X38227344Y-32468472D01*
X38227339Y-32468472D01*
X38220887Y-32467100D01*
X38029913Y-32467100D01*
X38023461Y-32468472D01*
X38023456Y-32468472D01*
X37936512Y-32486953D01*
X37843112Y-32506806D01*
X37837082Y-32509491D01*
X37837081Y-32509491D01*
X37674678Y-32581797D01*
X37674676Y-32581798D01*
X37668648Y-32584482D01*
X37514147Y-32696734D01*
X37509726Y-32701644D01*
X37509725Y-32701645D01*
X37401453Y-32821894D01*
X37386360Y-32838656D01*
X37290873Y-33004044D01*
X37231858Y-33185672D01*
X37231168Y-33192233D01*
X37231168Y-33192235D01*
X37224981Y-33251102D01*
X37211896Y-33375600D01*
X37212586Y-33382165D01*
X37227285Y-33522015D01*
X37231858Y-33565528D01*
X37273358Y-33693251D01*
X37275386Y-33764217D01*
X37273362Y-33771108D01*
X37257258Y-33820672D01*
X37256568Y-33827233D01*
X37256568Y-33827235D01*
X37243265Y-33953810D01*
X37216252Y-34019467D01*
X37158030Y-34060097D01*
X37087085Y-34062800D01*
X37066709Y-34055748D01*
X37010688Y-34030806D01*
X36915627Y-34010600D01*
X36830344Y-33992472D01*
X36830339Y-33992472D01*
X36823887Y-33991100D01*
X36632913Y-33991100D01*
X36626461Y-33992472D01*
X36626456Y-33992472D01*
X36541173Y-34010600D01*
X36446112Y-34030806D01*
X36440082Y-34033491D01*
X36440081Y-34033491D01*
X36277678Y-34105797D01*
X36277676Y-34105798D01*
X36271648Y-34108482D01*
X36117147Y-34220734D01*
X35989360Y-34362656D01*
X35893873Y-34528044D01*
X35834858Y-34709672D01*
X35814896Y-34899600D01*
X25908000Y-34899600D01*
X25908000Y-33636629D01*
X25928002Y-33568508D01*
X25981658Y-33522015D01*
X26058149Y-33512965D01*
X26243837Y-33549228D01*
X26249399Y-33549500D01*
X27105346Y-33549500D01*
X27263066Y-33534452D01*
X27466034Y-33474908D01*
X27521240Y-33446475D01*
X27648749Y-33380804D01*
X27648752Y-33380802D01*
X27654080Y-33378058D01*
X27820420Y-33247396D01*
X27824352Y-33242865D01*
X27824355Y-33242862D01*
X27955121Y-33092167D01*
X27959052Y-33087637D01*
X27967814Y-33072492D01*
X28019241Y-33023545D01*
X28088967Y-33010172D01*
X28154854Y-33036619D01*
X28195983Y-33094489D01*
X28198582Y-33168203D01*
X28184524Y-33220665D01*
X28184523Y-33220672D01*
X28183099Y-33225987D01*
X28164288Y-33441000D01*
X28183099Y-33656013D01*
X28184523Y-33661326D01*
X28184523Y-33661328D01*
X28213943Y-33771123D01*
X28238961Y-33864493D01*
X28241283Y-33869474D01*
X28241284Y-33869475D01*
X28327851Y-34055119D01*
X28327854Y-34055124D01*
X28330177Y-34060106D01*
X28366768Y-34112363D01*
X28439932Y-34216851D01*
X28453975Y-34236907D01*
X28606593Y-34389525D01*
X28611101Y-34392682D01*
X28611104Y-34392684D01*
X28660064Y-34426966D01*
X28783394Y-34513323D01*
X28788376Y-34515646D01*
X28788381Y-34515649D01*
X28974025Y-34602216D01*
X28979007Y-34604539D01*
X28984315Y-34605961D01*
X28984317Y-34605962D01*
X29182172Y-34658977D01*
X29182174Y-34658977D01*
X29187487Y-34660401D01*
X29402500Y-34679212D01*
X29617513Y-34660401D01*
X29622826Y-34658977D01*
X29622828Y-34658977D01*
X29820683Y-34605962D01*
X29820685Y-34605961D01*
X29825993Y-34604539D01*
X29830975Y-34602216D01*
X30016619Y-34515649D01*
X30016624Y-34515646D01*
X30021606Y-34513323D01*
X30144936Y-34426966D01*
X30193896Y-34392684D01*
X30193899Y-34392682D01*
X30198407Y-34389525D01*
X30351025Y-34236907D01*
X30365069Y-34216851D01*
X30438232Y-34112363D01*
X30474823Y-34060106D01*
X30477146Y-34055124D01*
X30477149Y-34055119D01*
X30563716Y-33869475D01*
X30563717Y-33869474D01*
X30566039Y-33864493D01*
X30591058Y-33771123D01*
X30620477Y-33661328D01*
X30620477Y-33661326D01*
X30621901Y-33656013D01*
X30640712Y-33441000D01*
X30621901Y-33225987D01*
X30611099Y-33185672D01*
X30567462Y-33022817D01*
X30567461Y-33022815D01*
X30566039Y-33017507D01*
X30559761Y-33004044D01*
X30477149Y-32826881D01*
X30477146Y-32826876D01*
X30474823Y-32821894D01*
X30351025Y-32645093D01*
X30198407Y-32492475D01*
X30164128Y-32468472D01*
X30113408Y-32432958D01*
X30021606Y-32368677D01*
X30016624Y-32366354D01*
X30016619Y-32366351D01*
X29947671Y-32334200D01*
X40082096Y-32334200D01*
X40082786Y-32340765D01*
X40100520Y-32509491D01*
X40102058Y-32524128D01*
X40161073Y-32705756D01*
X40256560Y-32871144D01*
X40260978Y-32876051D01*
X40260979Y-32876052D01*
X40379925Y-33008155D01*
X40384347Y-33013066D01*
X40538848Y-33125318D01*
X40544876Y-33128002D01*
X40544878Y-33128003D01*
X40707281Y-33200309D01*
X40713312Y-33202994D01*
X40796447Y-33220665D01*
X40893656Y-33241328D01*
X40893661Y-33241328D01*
X40900113Y-33242700D01*
X41091087Y-33242700D01*
X41097539Y-33241328D01*
X41097544Y-33241328D01*
X41194753Y-33220665D01*
X41277888Y-33202994D01*
X41283919Y-33200309D01*
X41446322Y-33128003D01*
X41446324Y-33128002D01*
X41452352Y-33125318D01*
X41606853Y-33013066D01*
X41651471Y-32963513D01*
X41711915Y-32926275D01*
X41782899Y-32927627D01*
X41819166Y-32945889D01*
X41944045Y-33036619D01*
X41961248Y-33049118D01*
X41967276Y-33051802D01*
X41967278Y-33051803D01*
X42057938Y-33092167D01*
X42135712Y-33126794D01*
X42229112Y-33146647D01*
X42316056Y-33165128D01*
X42316061Y-33165128D01*
X42322513Y-33166500D01*
X42513487Y-33166500D01*
X42519939Y-33165128D01*
X42519944Y-33165128D01*
X42606888Y-33146647D01*
X42700288Y-33126794D01*
X42778062Y-33092167D01*
X42868722Y-33051803D01*
X42868724Y-33051802D01*
X42874752Y-33049118D01*
X42891956Y-33036619D01*
X42931127Y-33008159D01*
X43029253Y-32936866D01*
X43157040Y-32794944D01*
X43252527Y-32629556D01*
X43297364Y-32491563D01*
X43337438Y-32432958D01*
X43402835Y-32405321D01*
X43417197Y-32404500D01*
X43529487Y-32404500D01*
X43535939Y-32403128D01*
X43535944Y-32403128D01*
X43622888Y-32384647D01*
X43716288Y-32364794D01*
X43722319Y-32362109D01*
X43884722Y-32289803D01*
X43884724Y-32289802D01*
X43890752Y-32287118D01*
X43900847Y-32279784D01*
X43981590Y-32221120D01*
X44045253Y-32174866D01*
X44078453Y-32137994D01*
X44168621Y-32037852D01*
X44168622Y-32037851D01*
X44173040Y-32032944D01*
X44233745Y-31927800D01*
X45416096Y-31927800D01*
X45416786Y-31934365D01*
X45432545Y-32084299D01*
X45436058Y-32117728D01*
X45495073Y-32299356D01*
X45498376Y-32305078D01*
X45498377Y-32305079D01*
X45531304Y-32362109D01*
X45590560Y-32464744D01*
X45594978Y-32469651D01*
X45594979Y-32469652D01*
X45649682Y-32530406D01*
X45718347Y-32606666D01*
X45771237Y-32645093D01*
X45853319Y-32704729D01*
X45872848Y-32718918D01*
X45878876Y-32721602D01*
X45878878Y-32721603D01*
X46036697Y-32791868D01*
X46047312Y-32796594D01*
X46135890Y-32815422D01*
X46227656Y-32834928D01*
X46227661Y-32834928D01*
X46234113Y-32836300D01*
X46425087Y-32836300D01*
X46431539Y-32834928D01*
X46431544Y-32834928D01*
X46596560Y-32799852D01*
X46611888Y-32796594D01*
X46617921Y-32793908D01*
X46617924Y-32793907D01*
X46621252Y-32792425D01*
X46623349Y-32792144D01*
X46624198Y-32791868D01*
X46624248Y-32792023D01*
X46691619Y-32782991D01*
X46723748Y-32792425D01*
X46727076Y-32793907D01*
X46727079Y-32793908D01*
X46733112Y-32796594D01*
X46748440Y-32799852D01*
X46913456Y-32834928D01*
X46913461Y-32834928D01*
X46919913Y-32836300D01*
X47110887Y-32836300D01*
X47117339Y-32834928D01*
X47117344Y-32834928D01*
X47209110Y-32815422D01*
X47297688Y-32796594D01*
X47308303Y-32791868D01*
X47466122Y-32721603D01*
X47466124Y-32721602D01*
X47472152Y-32718918D01*
X47491682Y-32704729D01*
X47573763Y-32645093D01*
X47626653Y-32606666D01*
X47695318Y-32530406D01*
X47750021Y-32469652D01*
X47750022Y-32469651D01*
X47754440Y-32464744D01*
X47813696Y-32362109D01*
X47846623Y-32305079D01*
X47846624Y-32305078D01*
X47849927Y-32299356D01*
X47908942Y-32117728D01*
X47912456Y-32084299D01*
X47928214Y-31934365D01*
X47928904Y-31927800D01*
X47921912Y-31861271D01*
X47909632Y-31744435D01*
X47909632Y-31744433D01*
X47908942Y-31737872D01*
X47849927Y-31556244D01*
X47754440Y-31390856D01*
X47715446Y-31347548D01*
X47631075Y-31253845D01*
X47631074Y-31253844D01*
X47626653Y-31248934D01*
X47472152Y-31136682D01*
X47466124Y-31133998D01*
X47466122Y-31133997D01*
X47303719Y-31061691D01*
X47303718Y-31061691D01*
X47297688Y-31059006D01*
X47204287Y-31039153D01*
X47117344Y-31020672D01*
X47117339Y-31020672D01*
X47110887Y-31019300D01*
X46919913Y-31019300D01*
X46913461Y-31020672D01*
X46913456Y-31020672D01*
X46774740Y-31050158D01*
X46733112Y-31059006D01*
X46727079Y-31061692D01*
X46727076Y-31061693D01*
X46723748Y-31063175D01*
X46721651Y-31063456D01*
X46720802Y-31063732D01*
X46720752Y-31063577D01*
X46653381Y-31072609D01*
X46621252Y-31063175D01*
X46617924Y-31061693D01*
X46617921Y-31061692D01*
X46611888Y-31059006D01*
X46570260Y-31050158D01*
X46431544Y-31020672D01*
X46431539Y-31020672D01*
X46425087Y-31019300D01*
X46234113Y-31019300D01*
X46227661Y-31020672D01*
X46227656Y-31020672D01*
X46140713Y-31039153D01*
X46047312Y-31059006D01*
X46041282Y-31061691D01*
X46041281Y-31061691D01*
X45878878Y-31133997D01*
X45878876Y-31133998D01*
X45872848Y-31136682D01*
X45718347Y-31248934D01*
X45713926Y-31253844D01*
X45713925Y-31253845D01*
X45629555Y-31347548D01*
X45590560Y-31390856D01*
X45495073Y-31556244D01*
X45436058Y-31737872D01*
X45435368Y-31744433D01*
X45435368Y-31744435D01*
X45423088Y-31861271D01*
X45416096Y-31927800D01*
X44233745Y-31927800D01*
X44268527Y-31867556D01*
X44327542Y-31685928D01*
X44329645Y-31665925D01*
X44346814Y-31502565D01*
X44347504Y-31496000D01*
X44344444Y-31466882D01*
X44328232Y-31312635D01*
X44328232Y-31312633D01*
X44327542Y-31306072D01*
X44268527Y-31124444D01*
X44233316Y-31063456D01*
X44176341Y-30964774D01*
X44173040Y-30959056D01*
X44045253Y-30817134D01*
X43890752Y-30704882D01*
X43884724Y-30702198D01*
X43884722Y-30702197D01*
X43722319Y-30629891D01*
X43722318Y-30629891D01*
X43716288Y-30627206D01*
X43593470Y-30601100D01*
X43535944Y-30588872D01*
X43535939Y-30588872D01*
X43529487Y-30587500D01*
X43338513Y-30587500D01*
X43332061Y-30588872D01*
X43332056Y-30588872D01*
X43274530Y-30601100D01*
X43151712Y-30627206D01*
X43145682Y-30629891D01*
X43145681Y-30629891D01*
X42983278Y-30702197D01*
X42983276Y-30702198D01*
X42977248Y-30704882D01*
X42822747Y-30817134D01*
X42694960Y-30959056D01*
X42691659Y-30964774D01*
X42634685Y-31063456D01*
X42599473Y-31124444D01*
X42597432Y-31130726D01*
X42554636Y-31262437D01*
X42514562Y-31321042D01*
X42449165Y-31348679D01*
X42434803Y-31349500D01*
X42322513Y-31349500D01*
X42316061Y-31350872D01*
X42316056Y-31350872D01*
X42231761Y-31368790D01*
X42135712Y-31389206D01*
X42129682Y-31391891D01*
X42129681Y-31391891D01*
X41967278Y-31464197D01*
X41967276Y-31464198D01*
X41961248Y-31466882D01*
X41955907Y-31470762D01*
X41955906Y-31470763D01*
X41921171Y-31496000D01*
X41806747Y-31579134D01*
X41762129Y-31628687D01*
X41701685Y-31665925D01*
X41630701Y-31664573D01*
X41594434Y-31646311D01*
X41457694Y-31546963D01*
X41457693Y-31546962D01*
X41452352Y-31543082D01*
X41446324Y-31540398D01*
X41446322Y-31540397D01*
X41283919Y-31468091D01*
X41283918Y-31468091D01*
X41277888Y-31465406D01*
X41184487Y-31445553D01*
X41097544Y-31427072D01*
X41097539Y-31427072D01*
X41091087Y-31425700D01*
X40900113Y-31425700D01*
X40893661Y-31427072D01*
X40893656Y-31427072D01*
X40806713Y-31445553D01*
X40713312Y-31465406D01*
X40707282Y-31468091D01*
X40707281Y-31468091D01*
X40544878Y-31540397D01*
X40544876Y-31540398D01*
X40538848Y-31543082D01*
X40533507Y-31546962D01*
X40533506Y-31546963D01*
X40508397Y-31565206D01*
X40384347Y-31655334D01*
X40379926Y-31660244D01*
X40379925Y-31660245D01*
X40310030Y-31737872D01*
X40256560Y-31797256D01*
X40253259Y-31802974D01*
X40184981Y-31921235D01*
X40161073Y-31962644D01*
X40102058Y-32144272D01*
X40101368Y-32150833D01*
X40101368Y-32150835D01*
X40088059Y-32277461D01*
X40082096Y-32334200D01*
X29947671Y-32334200D01*
X29830975Y-32279784D01*
X29830974Y-32279783D01*
X29825993Y-32277461D01*
X29820685Y-32276039D01*
X29820683Y-32276038D01*
X29622828Y-32223023D01*
X29622826Y-32223023D01*
X29617513Y-32221599D01*
X29402500Y-32202788D01*
X29187487Y-32221599D01*
X29182174Y-32223023D01*
X29182172Y-32223023D01*
X28984317Y-32276038D01*
X28984315Y-32276039D01*
X28979007Y-32277461D01*
X28974026Y-32279783D01*
X28974025Y-32279784D01*
X28788381Y-32366351D01*
X28788376Y-32366354D01*
X28783394Y-32368677D01*
X28691592Y-32432958D01*
X28640873Y-32468472D01*
X28606593Y-32492475D01*
X28453975Y-32645093D01*
X28366789Y-32769608D01*
X28365748Y-32771094D01*
X28310291Y-32815422D01*
X28239672Y-32822731D01*
X28176311Y-32790700D01*
X28140326Y-32729499D01*
X28137839Y-32680743D01*
X28163852Y-32501336D01*
X28163852Y-32501333D01*
X28164713Y-32495396D01*
X28154933Y-32284101D01*
X28114837Y-32117728D01*
X28106781Y-32084299D01*
X28106780Y-32084297D01*
X28105375Y-32078466D01*
X28093228Y-32051749D01*
X28029165Y-31910852D01*
X28017826Y-31885913D01*
X27918777Y-31746279D01*
X27898912Y-31718275D01*
X27898911Y-31718274D01*
X27895446Y-31713389D01*
X27742650Y-31567119D01*
X27564952Y-31452380D01*
X27492152Y-31423041D01*
X27374332Y-31375558D01*
X27374329Y-31375557D01*
X27368763Y-31373314D01*
X27346673Y-31369000D01*
X29744296Y-31369000D01*
X29744986Y-31375565D01*
X29762593Y-31543082D01*
X29764258Y-31558928D01*
X29823273Y-31740556D01*
X29918760Y-31905944D01*
X30046547Y-32047866D01*
X30201048Y-32160118D01*
X30207076Y-32162802D01*
X30207078Y-32162803D01*
X30369481Y-32235109D01*
X30375512Y-32237794D01*
X30468912Y-32257647D01*
X30555856Y-32276128D01*
X30555861Y-32276128D01*
X30562313Y-32277500D01*
X30753287Y-32277500D01*
X30759739Y-32276128D01*
X30759744Y-32276128D01*
X30846688Y-32257647D01*
X30940088Y-32237794D01*
X30946119Y-32235109D01*
X31108522Y-32162803D01*
X31108524Y-32162802D01*
X31114552Y-32160118D01*
X31269053Y-32047866D01*
X31396840Y-31905944D01*
X31492327Y-31740556D01*
X31551342Y-31558928D01*
X31553008Y-31543082D01*
X31570614Y-31375565D01*
X31571304Y-31369000D01*
X31569399Y-31350872D01*
X31552032Y-31185635D01*
X31552032Y-31185633D01*
X31551342Y-31179072D01*
X31492327Y-30997444D01*
X31396840Y-30832056D01*
X31269053Y-30690134D01*
X31144620Y-30599728D01*
X31119894Y-30581763D01*
X31119893Y-30581762D01*
X31114552Y-30577882D01*
X31108524Y-30575198D01*
X31108522Y-30575197D01*
X30946119Y-30502891D01*
X30946118Y-30502891D01*
X30940088Y-30500206D01*
X30844260Y-30479837D01*
X30759744Y-30461872D01*
X30759739Y-30461872D01*
X30753287Y-30460500D01*
X30562313Y-30460500D01*
X30555861Y-30461872D01*
X30555856Y-30461872D01*
X30471340Y-30479837D01*
X30375512Y-30500206D01*
X30369482Y-30502891D01*
X30369481Y-30502891D01*
X30207078Y-30575197D01*
X30207076Y-30575198D01*
X30201048Y-30577882D01*
X30195707Y-30581762D01*
X30195706Y-30581763D01*
X30170980Y-30599728D01*
X30046547Y-30690134D01*
X29918760Y-30832056D01*
X29823273Y-30997444D01*
X29764258Y-31179072D01*
X29763568Y-31185633D01*
X29763568Y-31185635D01*
X29746201Y-31350872D01*
X29744296Y-31369000D01*
X27346673Y-31369000D01*
X27161163Y-31332772D01*
X27155601Y-31332500D01*
X26299654Y-31332500D01*
X26141934Y-31347548D01*
X26069468Y-31368807D01*
X25998473Y-31368790D01*
X25938756Y-31330392D01*
X25909278Y-31265804D01*
X25908000Y-31247902D01*
X25908000Y-29767328D01*
X25909500Y-29747943D01*
X25911805Y-29733142D01*
X25911805Y-29733139D01*
X25913186Y-29724270D01*
X25911532Y-29711622D01*
X25910948Y-29684307D01*
X25922474Y-29552555D01*
X25926287Y-29530931D01*
X25966420Y-29381153D01*
X25973931Y-29360517D01*
X26039460Y-29219990D01*
X26050442Y-29200969D01*
X26139379Y-29073954D01*
X26153497Y-29057130D01*
X26263130Y-28947497D01*
X26279954Y-28933379D01*
X26406969Y-28844442D01*
X26425990Y-28833460D01*
X26566517Y-28767931D01*
X26587153Y-28760420D01*
X26736931Y-28720287D01*
X26758551Y-28716475D01*
X26810026Y-28711971D01*
X26883418Y-28705551D01*
X26899879Y-28706103D01*
X26899884Y-28705695D01*
X26908858Y-28705805D01*
X26917730Y-28707186D01*
X26926632Y-28706022D01*
X26926635Y-28706022D01*
X26949251Y-28703064D01*
X26965589Y-28702000D01*
X46877655Y-28702000D01*
X46945776Y-28722002D01*
G37*
%TD.AperFunction*%
%TD*%
%TA.AperFunction,Conductor*%
%TO.N,GND*%
G36*
X51758121Y-36088002D02*
G01*
X51804614Y-36141658D01*
X51816000Y-36194000D01*
X51816000Y-37325249D01*
X54219935Y-37325249D01*
X54288056Y-37345251D01*
X54334549Y-37398907D01*
X54345935Y-37451249D01*
X54345935Y-42546000D01*
X54325933Y-42614121D01*
X54272277Y-42660614D01*
X54219935Y-42672000D01*
X47867935Y-42672000D01*
X47799814Y-42651998D01*
X47753321Y-42598342D01*
X47741935Y-42546000D01*
X47741935Y-40240466D01*
X47761937Y-40172345D01*
X47815593Y-40125852D01*
X47885867Y-40115748D01*
X47894132Y-40117220D01*
X47929447Y-40124727D01*
X47929460Y-40124728D01*
X47935913Y-40126100D01*
X48126887Y-40126100D01*
X48133339Y-40124728D01*
X48133344Y-40124728D01*
X48220288Y-40106247D01*
X48313688Y-40086394D01*
X48319719Y-40083709D01*
X48482122Y-40011403D01*
X48482124Y-40011402D01*
X48488152Y-40008718D01*
X48642653Y-39896466D01*
X48770440Y-39754544D01*
X48865927Y-39589156D01*
X48924942Y-39407528D01*
X48944904Y-39217600D01*
X48924942Y-39027672D01*
X48865927Y-38846044D01*
X48770440Y-38680656D01*
X48642653Y-38538734D01*
X48488152Y-38426482D01*
X48482124Y-38423798D01*
X48482122Y-38423797D01*
X48319719Y-38351491D01*
X48319718Y-38351491D01*
X48313688Y-38348806D01*
X48220287Y-38328953D01*
X48133344Y-38310472D01*
X48133339Y-38310472D01*
X48126887Y-38309100D01*
X47935913Y-38309100D01*
X47929460Y-38310472D01*
X47929447Y-38310473D01*
X47894132Y-38317980D01*
X47823342Y-38312579D01*
X47766709Y-38269762D01*
X47742215Y-38203125D01*
X47741935Y-38194734D01*
X47741935Y-37451249D01*
X47761937Y-37383128D01*
X47815593Y-37336635D01*
X47867935Y-37325249D01*
X50546000Y-37325249D01*
X50546000Y-36194000D01*
X50566002Y-36125879D01*
X50619658Y-36079386D01*
X50672000Y-36068000D01*
X51690000Y-36068000D01*
X51758121Y-36088002D01*
G37*
%TD.AperFunction*%
%TD*%
M02*
