M48
; DRILL file {KiCad (6.0.1)} date Mon May  9 00:38:25 2022
; FORMAT={-:-/ absolute / metric / decimal}
; #@! TF.CreationDate,2022-05-09T00:38:25+05:45
; #@! TF.GenerationSoftware,Kicad,Pcbnew,(6.0.1)
; #@! TF.FileFunction,Plated,1,4,PTH
FMAT,2
METRIC
; #@! TA.AperFunction,Plated,PTH,ViaDrill
T1C0.400
; #@! TA.AperFunction,Plated,PTH,ComponentDrill
T2C0.600
; #@! TA.AperFunction,Plated,PTH,ComponentDrill
T3C0.650
; #@! TA.AperFunction,Plated,PTH,ComponentDrill
T4C0.850
%
G90
G05
T1
X30.226Y-41.91
X30.658Y-31.369
X31.496Y-39.37
X32.182Y-37.109
X32.233Y-34.62
X34.544Y-37.084
X35.306Y-39.37
X35.789Y-31.09
X35.789Y-31.877
X36.068Y-39.37
X36.728Y-34.9
X37.541Y-34.925
X38.1Y-34.722
X38.125Y-33.376
X38.151Y-34.011
X39.243Y-38.862
X40.894Y-35.814
X40.894Y-40.132
X40.996Y-32.334
X41.783Y-35.941
X42.418Y-32.258
X42.672Y-35.814
X43.18Y-30.48
X43.434Y-31.496
X43.942Y-30.226
X44.45Y-32.791
X44.45Y-33.528
X45.212Y-39.116
X45.288Y-29.21
X45.314Y-29.87
X45.618Y-37.389
X46.33Y-30.734
X46.33Y-31.928
X47.015Y-31.928
X47.041Y-30.709
X47.173Y-35.052
X47.904Y-28.956
X47.904Y-29.693
X48.006Y-32.868
X48.031Y-39.218
X50.037Y-38.608
X50.038Y-28.956
X50.8Y-28.956
X52.172Y-28.702
X52.172Y-29.616
X53.416Y-33.02
X53.416Y-33.757
X53.442Y-28.956
X53.467Y-29.845
X53.848Y-42.164
X55.118Y-33.528
X55.118Y-37.846
X55.372Y-29.464
X55.626Y-41.656
X56.388Y-38.608
X57.404Y-38.608
X58.166Y-31.75
X61.468Y-31.75
X61.468Y-39.624
X62.23Y-29.21
X62.23Y-41.91
X62.738Y-31.242
X62.738Y-40.132
T3
X31.496Y-40.64
X31.496Y-41.91
X32.766Y-40.64
X32.766Y-41.91
X34.036Y-40.64
X34.036Y-41.91
X35.306Y-40.64
X35.306Y-41.91
X36.576Y-40.64
X36.576Y-41.91
T4
X29.402Y-33.441
X29.402Y-38.441
T2
G00X26.352Y-32.441
M15
G01X27.052Y-32.441
M16
G05
G00X27.052Y-39.441
M15
G01X26.352Y-39.441
M16
G05
T0
M30
