%TF.GenerationSoftware,KiCad,Pcbnew,(6.0.1)*%
%TF.CreationDate,2022-05-08T06:10:33+05:45*%
%TF.ProjectId,STM32F4_Breakout,53544d33-3246-4345-9f42-7265616b6f75,rev?*%
%TF.SameCoordinates,Original*%
%TF.FileFunction,Soldermask,Bot*%
%TF.FilePolarity,Negative*%
%FSLAX46Y46*%
G04 Gerber Fmt 4.6, Leading zero omitted, Abs format (unit mm)*
G04 Created by KiCad (PCBNEW (6.0.1)) date 2022-05-08 06:10:33*
%MOMM*%
%LPD*%
G01*
G04 APERTURE LIST*
%ADD10C,0.900000*%
%ADD11C,8.600000*%
%ADD12R,1.700000X1.700000*%
%ADD13O,1.700000X1.700000*%
G04 APERTURE END LIST*
D10*
%TO.C,H3*%
X76733000Y-25296000D03*
X77677581Y-23015581D03*
X79958000Y-28521000D03*
X79958000Y-22071000D03*
X82238419Y-23015581D03*
X83183000Y-25296000D03*
X82238419Y-27576419D03*
X77677581Y-27576419D03*
D11*
X79928000Y-25246000D03*
%TD*%
%TO.C,H1*%
X40500000Y-64500000D03*
D10*
X38053581Y-62385581D03*
X38053581Y-66946419D03*
X40334000Y-67891000D03*
X42614419Y-62385581D03*
X43559000Y-64666000D03*
X42614419Y-66946419D03*
X37109000Y-64666000D03*
X40334000Y-61441000D03*
%TD*%
D12*
%TO.C,J2*%
X37286000Y-44341000D03*
D13*
X37286000Y-46881000D03*
%TD*%
D10*
%TO.C,H4*%
X77423581Y-66946419D03*
X81984419Y-62385581D03*
X81984419Y-66946419D03*
D11*
X79674000Y-64754000D03*
D10*
X79704000Y-61441000D03*
X77423581Y-62385581D03*
X79704000Y-67891000D03*
X82929000Y-64666000D03*
X76479000Y-64666000D03*
%TD*%
%TO.C,H2*%
X40334000Y-22325000D03*
X43559000Y-25550000D03*
D11*
X40500000Y-25500000D03*
D10*
X38053581Y-23269581D03*
X40334000Y-28775000D03*
X38053581Y-27830419D03*
X37109000Y-25550000D03*
X42614419Y-27830419D03*
X42614419Y-23269581D03*
%TD*%
D12*
%TO.C,J3*%
X58378000Y-67460000D03*
D13*
X60918000Y-67460000D03*
X63458000Y-67460000D03*
X65998000Y-67460000D03*
%TD*%
D12*
%TO.C,J5*%
X82752000Y-47399000D03*
D13*
X82752000Y-44859000D03*
%TD*%
D12*
%TO.C,J6*%
X52023000Y-22248000D03*
D13*
X49483000Y-22248000D03*
%TD*%
D12*
%TO.C,J1*%
X68025000Y-22248000D03*
D13*
X65485000Y-22248000D03*
%TD*%
M02*
