%TF.GenerationSoftware,KiCad,Pcbnew,(6.0.1)*%
%TF.CreationDate,2022-05-08T06:10:33+05:45*%
%TF.ProjectId,STM32F4_Breakout,53544d33-3246-4345-9f42-7265616b6f75,rev?*%
%TF.SameCoordinates,Original*%
%TF.FileFunction,Copper,L1,Top*%
%TF.FilePolarity,Positive*%
%FSLAX46Y46*%
G04 Gerber Fmt 4.6, Leading zero omitted, Abs format (unit mm)*
G04 Created by KiCad (PCBNEW (6.0.1)) date 2022-05-08 06:10:33*
%MOMM*%
%LPD*%
G01*
G04 APERTURE LIST*
G04 Aperture macros list*
%AMRoundRect*
0 Rectangle with rounded corners*
0 $1 Rounding radius*
0 $2 $3 $4 $5 $6 $7 $8 $9 X,Y pos of 4 corners*
0 Add a 4 corners polygon primitive as box body*
4,1,4,$2,$3,$4,$5,$6,$7,$8,$9,$2,$3,0*
0 Add four circle primitives for the rounded corners*
1,1,$1+$1,$2,$3*
1,1,$1+$1,$4,$5*
1,1,$1+$1,$6,$7*
1,1,$1+$1,$8,$9*
0 Add four rect primitives between the rounded corners*
20,1,$1+$1,$2,$3,$4,$5,0*
20,1,$1+$1,$4,$5,$6,$7,0*
20,1,$1+$1,$6,$7,$8,$9,0*
20,1,$1+$1,$8,$9,$2,$3,0*%
G04 Aperture macros list end*
%TA.AperFunction,ComponentPad*%
%ADD10C,0.900000*%
%TD*%
%TA.AperFunction,ComponentPad*%
%ADD11C,8.600000*%
%TD*%
%TA.AperFunction,SMDPad,CuDef*%
%ADD12R,2.400000X0.740000*%
%TD*%
%TA.AperFunction,SMDPad,CuDef*%
%ADD13RoundRect,0.225000X-0.250000X0.225000X-0.250000X-0.225000X0.250000X-0.225000X0.250000X0.225000X0*%
%TD*%
%TA.AperFunction,SMDPad,CuDef*%
%ADD14RoundRect,0.140000X0.140000X0.170000X-0.140000X0.170000X-0.140000X-0.170000X0.140000X-0.170000X0*%
%TD*%
%TA.AperFunction,SMDPad,CuDef*%
%ADD15R,1.200000X0.900000*%
%TD*%
%TA.AperFunction,SMDPad,CuDef*%
%ADD16R,2.000000X1.500000*%
%TD*%
%TA.AperFunction,SMDPad,CuDef*%
%ADD17R,2.000000X3.800000*%
%TD*%
%TA.AperFunction,SMDPad,CuDef*%
%ADD18RoundRect,0.140000X-0.140000X-0.170000X0.140000X-0.170000X0.140000X0.170000X-0.140000X0.170000X0*%
%TD*%
%TA.AperFunction,SMDPad,CuDef*%
%ADD19RoundRect,0.135000X0.135000X0.185000X-0.135000X0.185000X-0.135000X-0.185000X0.135000X-0.185000X0*%
%TD*%
%TA.AperFunction,ComponentPad*%
%ADD20R,1.700000X1.700000*%
%TD*%
%TA.AperFunction,ComponentPad*%
%ADD21O,1.700000X1.700000*%
%TD*%
%TA.AperFunction,SMDPad,CuDef*%
%ADD22RoundRect,0.100000X0.130000X0.100000X-0.130000X0.100000X-0.130000X-0.100000X0.130000X-0.100000X0*%
%TD*%
%TA.AperFunction,SMDPad,CuDef*%
%ADD23RoundRect,0.218750X-0.218750X-0.381250X0.218750X-0.381250X0.218750X0.381250X-0.218750X0.381250X0*%
%TD*%
%TA.AperFunction,SMDPad,CuDef*%
%ADD24RoundRect,0.200000X-0.275000X0.200000X-0.275000X-0.200000X0.275000X-0.200000X0.275000X0.200000X0*%
%TD*%
%TA.AperFunction,SMDPad,CuDef*%
%ADD25RoundRect,0.100000X-0.130000X-0.100000X0.130000X-0.100000X0.130000X0.100000X-0.130000X0.100000X0*%
%TD*%
%TA.AperFunction,SMDPad,CuDef*%
%ADD26RoundRect,0.135000X0.185000X-0.135000X0.185000X0.135000X-0.185000X0.135000X-0.185000X-0.135000X0*%
%TD*%
%TA.AperFunction,SMDPad,CuDef*%
%ADD27RoundRect,0.140000X-0.170000X0.140000X-0.170000X-0.140000X0.170000X-0.140000X0.170000X0.140000X0*%
%TD*%
%TA.AperFunction,SMDPad,CuDef*%
%ADD28RoundRect,0.200000X0.200000X0.275000X-0.200000X0.275000X-0.200000X-0.275000X0.200000X-0.275000X0*%
%TD*%
%TA.AperFunction,SMDPad,CuDef*%
%ADD29R,1.200000X1.400000*%
%TD*%
%TA.AperFunction,SMDPad,CuDef*%
%ADD30RoundRect,0.140000X0.170000X-0.140000X0.170000X0.140000X-0.170000X0.140000X-0.170000X-0.140000X0*%
%TD*%
%TA.AperFunction,SMDPad,CuDef*%
%ADD31RoundRect,0.225000X-0.225000X-0.250000X0.225000X-0.250000X0.225000X0.250000X-0.225000X0.250000X0*%
%TD*%
%TA.AperFunction,SMDPad,CuDef*%
%ADD32RoundRect,0.250000X-0.475000X0.250000X-0.475000X-0.250000X0.475000X-0.250000X0.475000X0.250000X0*%
%TD*%
%TA.AperFunction,SMDPad,CuDef*%
%ADD33RoundRect,0.250000X0.475000X-0.250000X0.475000X0.250000X-0.475000X0.250000X-0.475000X-0.250000X0*%
%TD*%
%TA.AperFunction,SMDPad,CuDef*%
%ADD34RoundRect,0.135000X-0.135000X-0.185000X0.135000X-0.185000X0.135000X0.185000X-0.135000X0.185000X0*%
%TD*%
%TA.AperFunction,SMDPad,CuDef*%
%ADD35RoundRect,0.135000X-0.185000X0.135000X-0.185000X-0.135000X0.185000X-0.135000X0.185000X0.135000X0*%
%TD*%
%TA.AperFunction,SMDPad,CuDef*%
%ADD36RoundRect,0.218750X-0.256250X0.218750X-0.256250X-0.218750X0.256250X-0.218750X0.256250X0.218750X0*%
%TD*%
%TA.AperFunction,SMDPad,CuDef*%
%ADD37RoundRect,0.225000X0.225000X0.250000X-0.225000X0.250000X-0.225000X-0.250000X0.225000X-0.250000X0*%
%TD*%
%TA.AperFunction,SMDPad,CuDef*%
%ADD38RoundRect,0.075000X-0.700000X-0.075000X0.700000X-0.075000X0.700000X0.075000X-0.700000X0.075000X0*%
%TD*%
%TA.AperFunction,SMDPad,CuDef*%
%ADD39RoundRect,0.075000X-0.075000X-0.700000X0.075000X-0.700000X0.075000X0.700000X-0.075000X0.700000X0*%
%TD*%
%TA.AperFunction,ViaPad*%
%ADD40C,1.000000*%
%TD*%
%TA.AperFunction,ViaPad*%
%ADD41C,0.800000*%
%TD*%
%TA.AperFunction,Conductor*%
%ADD42C,1.000000*%
%TD*%
%TA.AperFunction,Conductor*%
%ADD43C,0.500000*%
%TD*%
%TA.AperFunction,Conductor*%
%ADD44C,0.300000*%
%TD*%
G04 APERTURE END LIST*
D10*
%TO.P,H3,1,1*%
%TO.N,GND*%
X76733000Y-25296000D03*
X77677581Y-23015581D03*
X79958000Y-28521000D03*
X79958000Y-22071000D03*
X82238419Y-23015581D03*
X83183000Y-25296000D03*
X82238419Y-27576419D03*
X77677581Y-27576419D03*
D11*
X79928000Y-25246000D03*
%TD*%
D12*
%TO.P,J4,1,Pin_1*%
%TO.N,+3V3*%
X78008000Y-33424000D03*
%TO.P,J4,2,Pin_2*%
%TO.N,SWDIO*%
X81908000Y-33424000D03*
%TO.P,J4,3,Pin_3*%
%TO.N,GND*%
X78008000Y-34694000D03*
%TO.P,J4,4,Pin_4*%
%TO.N,SWCLK*%
X81908000Y-34694000D03*
%TO.P,J4,5,Pin_5*%
%TO.N,GND*%
X78008000Y-35964000D03*
%TO.P,J4,6,Pin_6*%
%TO.N,SWO*%
X81908000Y-35964000D03*
%TO.P,J4,7,Pin_7*%
%TO.N,unconnected-(J4-Pad7)*%
X78008000Y-37234000D03*
%TO.P,J4,8,Pin_8*%
%TO.N,unconnected-(J4-Pad8)*%
X81908000Y-37234000D03*
%TO.P,J4,9,Pin_9*%
%TO.N,GND*%
X78008000Y-38504000D03*
%TO.P,J4,10,Pin_10*%
%TO.N,NRST*%
X81908000Y-38504000D03*
%TD*%
D11*
%TO.P,H1,1,1*%
%TO.N,GND*%
X40500000Y-64500000D03*
D10*
X38053581Y-62385581D03*
X38053581Y-66946419D03*
X40334000Y-67891000D03*
X42614419Y-62385581D03*
X43559000Y-64666000D03*
X42614419Y-66946419D03*
X37109000Y-64666000D03*
X40334000Y-61441000D03*
%TD*%
D13*
%TO.P,C12,1*%
%TO.N,Net-(C12-Pad1)*%
X63956000Y-51953000D03*
%TO.P,C12,2*%
%TO.N,GND*%
X63956000Y-53503000D03*
%TD*%
D14*
%TO.P,C17,1*%
%TO.N,Net-(C17-Pad1)*%
X50466000Y-45362000D03*
%TO.P,C17,2*%
%TO.N,GND*%
X49506000Y-45362000D03*
%TD*%
D15*
%TO.P,D1,1,K*%
%TO.N,Net-(D1-Pad1)*%
X48970000Y-29232000D03*
%TO.P,D1,2,A*%
%TO.N,VCC*%
X48970000Y-25932000D03*
%TD*%
D16*
%TO.P,U1,1,GND*%
%TO.N,GND*%
X54202000Y-26806000D03*
%TO.P,U1,2,VO*%
%TO.N,+3V3*%
X54202000Y-29106000D03*
D17*
X60502000Y-29106000D03*
D16*
%TO.P,U1,3,VI*%
%TO.N,Net-(C1-Pad1)*%
X54202000Y-31406000D03*
%TD*%
D18*
%TO.P,C16,1*%
%TO.N,HSE_IN*%
X49506000Y-39774000D03*
%TO.P,C16,2*%
%TO.N,GND*%
X50466000Y-39774000D03*
%TD*%
D19*
%TO.P,R2,1*%
%TO.N,+3V3*%
X68022000Y-27582000D03*
%TO.P,R2,2*%
%TO.N,I2C1_SCL*%
X67002000Y-27582000D03*
%TD*%
D20*
%TO.P,J2,1,Pin_1*%
%TO.N,GND*%
X37286000Y-44341000D03*
D21*
%TO.P,J2,2,Pin_2*%
%TO.N,+3V3*%
X37286000Y-46881000D03*
%TD*%
D22*
%TO.P,D3,1,K*%
%TO.N,Net-(D3-Pad1)*%
X70986449Y-48096269D03*
%TO.P,D3,2,A*%
%TO.N,Net-(D3-Pad2)*%
X70346449Y-48096269D03*
%TD*%
D10*
%TO.P,H4,1,1*%
%TO.N,GND*%
X77423581Y-66946419D03*
X81984419Y-62385581D03*
X81984419Y-66946419D03*
D11*
X79674000Y-64754000D03*
D10*
X79704000Y-61441000D03*
X77423581Y-62385581D03*
X79704000Y-67891000D03*
X82929000Y-64666000D03*
X76479000Y-64666000D03*
%TD*%
D23*
%TO.P,FB1,1*%
%TO.N,Net-(F1-Pad2)*%
X49685500Y-31392000D03*
%TO.P,FB1,2*%
%TO.N,Net-(C1-Pad1)*%
X51810500Y-31392000D03*
%TD*%
D24*
%TO.P,R7,1*%
%TO.N,Net-(D3-Pad1)*%
X70784726Y-49731434D03*
%TO.P,R7,2*%
%TO.N,GND*%
X70784726Y-51381434D03*
%TD*%
D25*
%TO.P,D2,1,K*%
%TO.N,Net-(D2-Pad1)*%
X59892000Y-24788000D03*
%TO.P,D2,2,A*%
%TO.N,+3V3*%
X60532000Y-24788000D03*
%TD*%
D26*
%TO.P,R4,1*%
%TO.N,BOOT0*%
X59384000Y-34696000D03*
%TO.P,R4,2*%
%TO.N,GND*%
X59384000Y-33676000D03*
%TD*%
D23*
%TO.P,FB2,1*%
%TO.N,+3V3*%
X50193500Y-48410000D03*
%TO.P,FB2,2*%
%TO.N,+3.3VA*%
X52318500Y-48410000D03*
%TD*%
D19*
%TO.P,R6,1*%
%TO.N,HSE_OUT*%
X53290000Y-43330000D03*
%TO.P,R6,2*%
%TO.N,Net-(C17-Pad1)*%
X52270000Y-43330000D03*
%TD*%
D27*
%TO.P,C11,1*%
%TO.N,+3V3*%
X65782000Y-50422000D03*
%TO.P,C11,2*%
%TO.N,GND*%
X65782000Y-51382000D03*
%TD*%
D28*
%TO.P,R1,1*%
%TO.N,Net-(D2-Pad1)*%
X57669000Y-24534000D03*
%TO.P,R1,2*%
%TO.N,GND*%
X56019000Y-24534000D03*
%TD*%
D29*
%TO.P,HSE1,1,1*%
%TO.N,HSE_IN*%
X49136000Y-41468000D03*
%TO.P,HSE1,2,2*%
%TO.N,GND*%
X49136000Y-43668000D03*
%TO.P,HSE1,3,3*%
%TO.N,Net-(C17-Pad1)*%
X50836000Y-43668000D03*
%TO.P,HSE1,4,4*%
%TO.N,GND*%
X50836000Y-41468000D03*
%TD*%
D30*
%TO.P,C14,1*%
%TO.N,+3.3VA*%
X52272000Y-46858000D03*
%TO.P,C14,2*%
%TO.N,GND*%
X52272000Y-45898000D03*
%TD*%
D31*
%TO.P,C13,1*%
%TO.N,Net-(C13-Pad1)*%
X68261000Y-40536000D03*
%TO.P,C13,2*%
%TO.N,GND*%
X69811000Y-40536000D03*
%TD*%
D10*
%TO.P,H2,1,1*%
%TO.N,GND*%
X40334000Y-22325000D03*
X43559000Y-25550000D03*
D11*
X40500000Y-25500000D03*
D10*
X38053581Y-23269581D03*
X40334000Y-28775000D03*
X38053581Y-27830419D03*
X37109000Y-25550000D03*
X42614419Y-27830419D03*
X42614419Y-23269581D03*
%TD*%
D18*
%TO.P,C7,1*%
%TO.N,+3V3*%
X56872000Y-35964000D03*
%TO.P,C7,2*%
%TO.N,GND*%
X57832000Y-35964000D03*
%TD*%
D20*
%TO.P,J3,1,Pin_1*%
%TO.N,SPI1_CS*%
X58378000Y-67460000D03*
D21*
%TO.P,J3,2,Pin_2*%
%TO.N,SPI1_SCK*%
X60918000Y-67460000D03*
%TO.P,J3,3,Pin_3*%
%TO.N,SPI1_MISO*%
X63458000Y-67460000D03*
%TO.P,J3,4,Pin_4*%
%TO.N,SPI1_MOSI*%
X65998000Y-67460000D03*
%TD*%
D32*
%TO.P,C1,1*%
%TO.N,Net-(C1-Pad1)*%
X54558000Y-34760000D03*
%TO.P,C1,2*%
%TO.N,GND*%
X54558000Y-36660000D03*
%TD*%
D33*
%TO.P,C2,1*%
%TO.N,+3V3*%
X51510000Y-28786000D03*
%TO.P,C2,2*%
%TO.N,GND*%
X51510000Y-26886000D03*
%TD*%
D30*
%TO.P,C15,1*%
%TO.N,+3.3VA*%
X53288000Y-46858000D03*
%TO.P,C15,2*%
%TO.N,GND*%
X53288000Y-45898000D03*
%TD*%
D34*
%TO.P,R3,1*%
%TO.N,+3V3*%
X64970000Y-27582000D03*
%TO.P,R3,2*%
%TO.N,I2C1_SDA*%
X65990000Y-27582000D03*
%TD*%
D35*
%TO.P,R5,1*%
%TO.N,BOOT1*%
X62432000Y-51966000D03*
%TO.P,R5,2*%
%TO.N,GND*%
X62432000Y-52986000D03*
%TD*%
D18*
%TO.P,C6,1*%
%TO.N,+3V3*%
X56872000Y-36980000D03*
%TO.P,C6,2*%
%TO.N,GND*%
X57832000Y-36980000D03*
%TD*%
D20*
%TO.P,J5,1,Pin_1*%
%TO.N,USART1_TX*%
X82752000Y-47399000D03*
D21*
%TO.P,J5,2,Pin_2*%
%TO.N,USART1_RX*%
X82752000Y-44859000D03*
%TD*%
D27*
%TO.P,C10,1*%
%TO.N,+3V3*%
X66798000Y-50422000D03*
%TO.P,C10,2*%
%TO.N,GND*%
X66798000Y-51382000D03*
%TD*%
D20*
%TO.P,J6,1,Pin_1*%
%TO.N,GND*%
X52023000Y-22248000D03*
D21*
%TO.P,J6,2,Pin_2*%
%TO.N,VCC*%
X49483000Y-22248000D03*
%TD*%
D36*
%TO.P,F1,1*%
%TO.N,Net-(D1-Pad1)*%
X47446000Y-31112500D03*
%TO.P,F1,2*%
%TO.N,Net-(F1-Pad2)*%
X47446000Y-32687500D03*
%TD*%
D18*
%TO.P,C9,1*%
%TO.N,+3V3*%
X56872000Y-33932000D03*
%TO.P,C9,2*%
%TO.N,GND*%
X57832000Y-33932000D03*
%TD*%
D37*
%TO.P,C3,1*%
%TO.N,+3V3*%
X54317000Y-38504000D03*
%TO.P,C3,2*%
%TO.N,GND*%
X52767000Y-38504000D03*
%TD*%
D14*
%TO.P,C5,1*%
%TO.N,+3V3*%
X57352000Y-53744000D03*
%TO.P,C5,2*%
%TO.N,GND*%
X56392000Y-53744000D03*
%TD*%
%TO.P,C4,1*%
%TO.N,+3V3*%
X57352000Y-52728000D03*
%TO.P,C4,2*%
%TO.N,GND*%
X56392000Y-52728000D03*
%TD*%
D38*
%TO.P,U2,1,VBAT*%
%TO.N,+3V3*%
X54979000Y-40596000D03*
%TO.P,U2,2,PC13*%
%TO.N,unconnected-(U2-Pad2)*%
X54979000Y-41096000D03*
%TO.P,U2,3,PC14*%
%TO.N,unconnected-(U2-Pad3)*%
X54979000Y-41596000D03*
%TO.P,U2,4,PC15*%
%TO.N,unconnected-(U2-Pad4)*%
X54979000Y-42096000D03*
%TO.P,U2,5,PH0*%
%TO.N,HSE_IN*%
X54979000Y-42596000D03*
%TO.P,U2,6,PH1*%
%TO.N,HSE_OUT*%
X54979000Y-43096000D03*
%TO.P,U2,7,NRST*%
%TO.N,NRST*%
X54979000Y-43596000D03*
%TO.P,U2,8,PC0*%
%TO.N,unconnected-(U2-Pad8)*%
X54979000Y-44096000D03*
%TO.P,U2,9,PC1*%
%TO.N,unconnected-(U2-Pad9)*%
X54979000Y-44596000D03*
%TO.P,U2,10,PC2*%
%TO.N,unconnected-(U2-Pad10)*%
X54979000Y-45096000D03*
%TO.P,U2,11,PC3*%
%TO.N,unconnected-(U2-Pad11)*%
X54979000Y-45596000D03*
%TO.P,U2,12,VSSA*%
%TO.N,GND*%
X54979000Y-46096000D03*
%TO.P,U2,13,VDDA*%
%TO.N,+3.3VA*%
X54979000Y-46596000D03*
%TO.P,U2,14,PA0*%
%TO.N,unconnected-(U2-Pad14)*%
X54979000Y-47096000D03*
%TO.P,U2,15,PA1*%
%TO.N,unconnected-(U2-Pad15)*%
X54979000Y-47596000D03*
%TO.P,U2,16,PA2*%
%TO.N,unconnected-(U2-Pad16)*%
X54979000Y-48096000D03*
D39*
%TO.P,U2,17,PA3*%
%TO.N,unconnected-(U2-Pad17)*%
X56904000Y-50021000D03*
%TO.P,U2,18,VSS*%
%TO.N,GND*%
X57404000Y-50021000D03*
%TO.P,U2,19,VDD*%
%TO.N,+3V3*%
X57904000Y-50021000D03*
%TO.P,U2,20,PA4*%
%TO.N,SPI1_CS*%
X58404000Y-50021000D03*
%TO.P,U2,21,PA5*%
%TO.N,SPI1_SCK*%
X58904000Y-50021000D03*
%TO.P,U2,22,PA6*%
%TO.N,SPI1_MISO*%
X59404000Y-50021000D03*
%TO.P,U2,23,PA7*%
%TO.N,SPI1_MOSI*%
X59904000Y-50021000D03*
%TO.P,U2,24,PC4*%
%TO.N,unconnected-(U2-Pad24)*%
X60404000Y-50021000D03*
%TO.P,U2,25,PC5*%
%TO.N,unconnected-(U2-Pad25)*%
X60904000Y-50021000D03*
%TO.P,U2,26,PB0*%
%TO.N,unconnected-(U2-Pad26)*%
X61404000Y-50021000D03*
%TO.P,U2,27,PB1*%
%TO.N,unconnected-(U2-Pad27)*%
X61904000Y-50021000D03*
%TO.P,U2,28,PB2*%
%TO.N,BOOT1*%
X62404000Y-50021000D03*
%TO.P,U2,29,PB10*%
%TO.N,unconnected-(U2-Pad29)*%
X62904000Y-50021000D03*
%TO.P,U2,30,PB11*%
%TO.N,unconnected-(U2-Pad30)*%
X63404000Y-50021000D03*
%TO.P,U2,31,VCAP_1*%
%TO.N,Net-(C12-Pad1)*%
X63904000Y-50021000D03*
%TO.P,U2,32,VDD*%
%TO.N,+3V3*%
X64404000Y-50021000D03*
D38*
%TO.P,U2,33,PB12*%
%TO.N,Net-(D3-Pad2)*%
X66329000Y-48096000D03*
%TO.P,U2,34,PB13*%
%TO.N,unconnected-(U2-Pad34)*%
X66329000Y-47596000D03*
%TO.P,U2,35,PB14*%
%TO.N,unconnected-(U2-Pad35)*%
X66329000Y-47096000D03*
%TO.P,U2,36,PB15*%
%TO.N,unconnected-(U2-Pad36)*%
X66329000Y-46596000D03*
%TO.P,U2,37,PC6*%
%TO.N,unconnected-(U2-Pad37)*%
X66329000Y-46096000D03*
%TO.P,U2,38,PC7*%
%TO.N,unconnected-(U2-Pad38)*%
X66329000Y-45596000D03*
%TO.P,U2,39,PC8*%
%TO.N,unconnected-(U2-Pad39)*%
X66329000Y-45096000D03*
%TO.P,U2,40,PC9*%
%TO.N,unconnected-(U2-Pad40)*%
X66329000Y-44596000D03*
%TO.P,U2,41,PA8*%
%TO.N,unconnected-(U2-Pad41)*%
X66329000Y-44096000D03*
%TO.P,U2,42,PA9*%
%TO.N,USART1_TX*%
X66329000Y-43596000D03*
%TO.P,U2,43,PA10*%
%TO.N,USART1_RX*%
X66329000Y-43096000D03*
%TO.P,U2,44,PA11*%
%TO.N,unconnected-(U2-Pad44)*%
X66329000Y-42596000D03*
%TO.P,U2,45,PA12*%
%TO.N,unconnected-(U2-Pad45)*%
X66329000Y-42096000D03*
%TO.P,U2,46,PA13*%
%TO.N,SWDIO*%
X66329000Y-41596000D03*
%TO.P,U2,47,VCAP_2*%
%TO.N,Net-(C13-Pad1)*%
X66329000Y-41096000D03*
%TO.P,U2,48,VDD*%
%TO.N,+3V3*%
X66329000Y-40596000D03*
D39*
%TO.P,U2,49,PA14*%
%TO.N,SWCLK*%
X64404000Y-38671000D03*
%TO.P,U2,50,PA15*%
%TO.N,unconnected-(U2-Pad50)*%
X63904000Y-38671000D03*
%TO.P,U2,51,PC10*%
%TO.N,unconnected-(U2-Pad51)*%
X63404000Y-38671000D03*
%TO.P,U2,52,PC11*%
%TO.N,unconnected-(U2-Pad52)*%
X62904000Y-38671000D03*
%TO.P,U2,53,PC12*%
%TO.N,unconnected-(U2-Pad53)*%
X62404000Y-38671000D03*
%TO.P,U2,54,PD2*%
%TO.N,unconnected-(U2-Pad54)*%
X61904000Y-38671000D03*
%TO.P,U2,55,PB3*%
%TO.N,SWO*%
X61404000Y-38671000D03*
%TO.P,U2,56,PB4*%
%TO.N,unconnected-(U2-Pad56)*%
X60904000Y-38671000D03*
%TO.P,U2,57,PB5*%
%TO.N,unconnected-(U2-Pad57)*%
X60404000Y-38671000D03*
%TO.P,U2,58,PB6*%
%TO.N,I2C1_SCL*%
X59904000Y-38671000D03*
%TO.P,U2,59,PB7*%
%TO.N,I2C1_SDA*%
X59404000Y-38671000D03*
%TO.P,U2,60,BOOT0*%
%TO.N,BOOT0*%
X58904000Y-38671000D03*
%TO.P,U2,61,PB8*%
%TO.N,unconnected-(U2-Pad61)*%
X58404000Y-38671000D03*
%TO.P,U2,62,PB9*%
%TO.N,unconnected-(U2-Pad62)*%
X57904000Y-38671000D03*
%TO.P,U2,63,VSS*%
%TO.N,GND*%
X57404000Y-38671000D03*
%TO.P,U2,64,VDD*%
%TO.N,+3V3*%
X56904000Y-38671000D03*
%TD*%
D20*
%TO.P,J1,1,Pin_1*%
%TO.N,I2C1_SCL*%
X68025000Y-22248000D03*
D21*
%TO.P,J1,2,Pin_2*%
%TO.N,I2C1_SDA*%
X65485000Y-22248000D03*
%TD*%
D18*
%TO.P,C8,1*%
%TO.N,+3V3*%
X56872000Y-34948000D03*
%TO.P,C8,2*%
%TO.N,GND*%
X57832000Y-34948000D03*
%TD*%
D40*
%TO.N,GND*%
X74878000Y-34440000D03*
D41*
X52780000Y-44727000D03*
D40*
X60908000Y-23010000D03*
X74878000Y-31900000D03*
X59638000Y-23010000D03*
D41*
X51256000Y-39774000D03*
D40*
X74878000Y-35710000D03*
X58368000Y-23010000D03*
X54558000Y-23010000D03*
X55828000Y-23010000D03*
X74878000Y-33170000D03*
D41*
X69544000Y-51458000D03*
X71068000Y-40536000D03*
D40*
X57098000Y-23010000D03*
D41*
X48716000Y-45362000D03*
X56082000Y-51712000D03*
X63448000Y-54760000D03*
X62178000Y-54506000D03*
X67766000Y-51458000D03*
%TO.N,+3V3*%
X49478000Y-49934000D03*
X55066000Y-28598000D03*
X67131000Y-39774000D03*
D40*
X62432000Y-30376000D03*
D41*
X68020000Y-28598000D03*
X78688000Y-32154000D03*
X66369000Y-39774000D03*
X57352000Y-54760000D03*
X57352000Y-55522000D03*
X77672000Y-32154000D03*
D40*
X62432000Y-31646000D03*
D41*
X66623000Y-49426000D03*
X67512000Y-49426000D03*
X50494000Y-49934000D03*
D40*
X62432000Y-26058000D03*
X62432000Y-27582000D03*
D41*
%TO.N,NRST*%
X81736000Y-40028000D03*
X57352000Y-43584000D03*
%TD*%
D42*
%TO.N,Net-(C1-Pad1)*%
X54558000Y-31762000D02*
X54202000Y-31406000D01*
X51810500Y-31392000D02*
X54188000Y-31392000D01*
X54558000Y-34760000D02*
X54558000Y-31762000D01*
X54188000Y-31392000D02*
X54202000Y-31406000D01*
D43*
%TO.N,GND*%
X54202000Y-26806000D02*
X55052000Y-26806000D01*
X77754000Y-34440000D02*
X78008000Y-34694000D01*
D42*
X51510000Y-26886000D02*
X54122000Y-26886000D01*
D44*
X56392000Y-52672000D02*
X56392000Y-52728000D01*
D43*
X63956000Y-53503000D02*
X64959000Y-53503000D01*
X53354000Y-36660000D02*
X52767000Y-37247000D01*
X76402000Y-38504000D02*
X78008000Y-38504000D01*
X63194000Y-54506000D02*
X63448000Y-54760000D01*
X63448000Y-54011000D02*
X63581500Y-53877500D01*
X51497000Y-39774000D02*
X52767000Y-38504000D01*
X55574000Y-24534000D02*
X56019000Y-24534000D01*
X74878000Y-34440000D02*
X77754000Y-34440000D01*
D44*
X54979000Y-46096000D02*
X53486000Y-46096000D01*
D43*
X67690000Y-51382000D02*
X67766000Y-51458000D01*
X50466000Y-39774000D02*
X51256000Y-39774000D01*
X49136000Y-44766000D02*
X49136000Y-44992000D01*
X65782000Y-51382000D02*
X66798000Y-51382000D01*
X49136000Y-44992000D02*
X49506000Y-45362000D01*
X62178000Y-54506000D02*
X63194000Y-54506000D01*
X57832000Y-33932000D02*
X57832000Y-36980000D01*
X63581500Y-53877500D02*
X63956000Y-53503000D01*
X56082000Y-51712000D02*
X56082000Y-52418000D01*
X52780000Y-44727000D02*
X52780000Y-45390000D01*
X55052000Y-26806000D02*
X57860000Y-29614000D01*
X74878000Y-31900000D02*
X74878000Y-35710000D01*
D44*
X57404000Y-37450285D02*
X57832000Y-37022285D01*
D43*
X62679500Y-54004500D02*
X63454500Y-54004500D01*
X62178000Y-54506000D02*
X63181000Y-53503000D01*
X54202000Y-26806000D02*
X54202000Y-25906000D01*
D42*
X52023000Y-25545000D02*
X52023000Y-24021000D01*
X52023000Y-24021000D02*
X52023000Y-22248000D01*
D43*
X65782000Y-52680000D02*
X65782000Y-51382000D01*
X54202000Y-25906000D02*
X55574000Y-24534000D01*
D42*
X52023000Y-24021000D02*
X53547000Y-24021000D01*
D43*
X51256000Y-39774000D02*
X51497000Y-39774000D01*
X54558000Y-36660000D02*
X53354000Y-36660000D01*
X56082000Y-52418000D02*
X56392000Y-52728000D01*
X49136000Y-43668000D02*
X49136000Y-44766000D01*
X77754000Y-35710000D02*
X78008000Y-35964000D01*
X64959000Y-53503000D02*
X65782000Y-52680000D01*
D44*
X57404000Y-38671000D02*
X57404000Y-37450285D01*
D43*
X62432000Y-52986000D02*
X62432000Y-54252000D01*
D42*
X54558000Y-23010000D02*
X60908000Y-23010000D01*
D44*
X57832000Y-37022285D02*
X57832000Y-36980000D01*
X57404000Y-50021000D02*
X57404000Y-51660000D01*
D43*
X50836000Y-40144000D02*
X50466000Y-39774000D01*
X62699000Y-53503000D02*
X63435000Y-53503000D01*
X52780000Y-45390000D02*
X53288000Y-45898000D01*
X37286000Y-44341000D02*
X38307000Y-45362000D01*
X57860000Y-29614000D02*
X57860000Y-33904000D01*
D44*
X57832000Y-33932000D02*
X59128000Y-33932000D01*
D43*
X74878000Y-35710000D02*
X74878000Y-36980000D01*
X48716000Y-45362000D02*
X49506000Y-45362000D01*
X63956000Y-53503000D02*
X63956000Y-54252000D01*
X50836000Y-41468000D02*
X50836000Y-40144000D01*
X69811000Y-40536000D02*
X71068000Y-40536000D01*
D42*
X53547000Y-24021000D02*
X54558000Y-23010000D01*
D43*
X52272000Y-45898000D02*
X53288000Y-45898000D01*
D42*
X51510000Y-26058000D02*
X52023000Y-25545000D01*
D43*
X62432000Y-53236000D02*
X62699000Y-53503000D01*
X70708160Y-51458000D02*
X70784726Y-51381434D01*
X62432000Y-54252000D02*
X62178000Y-54506000D01*
X38307000Y-45362000D02*
X48540000Y-45362000D01*
D42*
X51510000Y-26886000D02*
X51510000Y-26058000D01*
D43*
X52767000Y-37247000D02*
X52767000Y-38504000D01*
X63956000Y-54252000D02*
X63448000Y-54760000D01*
X48540000Y-45362000D02*
X49136000Y-44766000D01*
D44*
X59128000Y-33932000D02*
X59384000Y-33676000D01*
X53486000Y-46096000D02*
X53288000Y-45898000D01*
X57404000Y-51660000D02*
X56392000Y-52672000D01*
D43*
X62432000Y-52986000D02*
X62432000Y-53236000D01*
X66798000Y-51382000D02*
X67690000Y-51382000D01*
X74878000Y-36980000D02*
X76402000Y-38504000D01*
X63448000Y-54760000D02*
X63448000Y-54011000D01*
X62178000Y-54506000D02*
X62679500Y-54004500D01*
X74878000Y-35710000D02*
X77754000Y-35710000D01*
D42*
X54122000Y-26886000D02*
X54202000Y-26806000D01*
D43*
X63181000Y-53503000D02*
X63435000Y-53503000D01*
X63454500Y-54004500D02*
X63581500Y-53877500D01*
X56392000Y-52728000D02*
X56392000Y-53744000D01*
X63435000Y-53503000D02*
X63956000Y-53503000D01*
X57860000Y-33904000D02*
X57832000Y-33932000D01*
X69544000Y-51458000D02*
X70708160Y-51458000D01*
D42*
%TO.N,+3V3*%
X61772000Y-30376000D02*
X60502000Y-29106000D01*
D43*
X77672000Y-32154000D02*
X77672000Y-33088000D01*
X77672000Y-33088000D02*
X78008000Y-33424000D01*
X67512000Y-49426000D02*
X67512000Y-49708000D01*
X66369000Y-39774000D02*
X67131000Y-39774000D01*
X57352000Y-55522000D02*
X57352000Y-54760000D01*
D44*
X63446000Y-29106000D02*
X64970000Y-27582000D01*
X57904000Y-52176000D02*
X57352000Y-52728000D01*
X54979000Y-40596000D02*
X54979000Y-39166000D01*
D43*
X57352000Y-53109000D02*
X57352000Y-53744000D01*
D44*
X66329000Y-40596000D02*
X66329000Y-39814000D01*
X62432000Y-26058000D02*
X61802000Y-26058000D01*
X56904000Y-37012000D02*
X56872000Y-36980000D01*
D42*
X60502000Y-29106000D02*
X60502000Y-27988000D01*
D43*
X68022000Y-28596000D02*
X68020000Y-28598000D01*
D44*
X60466000Y-24788000D02*
X60502000Y-24824000D01*
X64970000Y-27582000D02*
X64972000Y-27580000D01*
X54979000Y-39166000D02*
X54317000Y-38504000D01*
D43*
X66623000Y-49426000D02*
X66623000Y-50247000D01*
X56872000Y-31293000D02*
X56872000Y-33932000D01*
X57352000Y-54760000D02*
X57352000Y-53109000D01*
X54558000Y-29106000D02*
X54202000Y-29106000D01*
D42*
X62432000Y-30376000D02*
X61772000Y-30376000D01*
D44*
X57904000Y-50021000D02*
X57904000Y-52176000D01*
D43*
X50494000Y-48710500D02*
X50193500Y-48410000D01*
X56872000Y-33932000D02*
X56872000Y-36980000D01*
X49478000Y-49125500D02*
X50193500Y-48410000D01*
X78688000Y-32744000D02*
X78008000Y-33424000D01*
X49478000Y-49934000D02*
X49478000Y-49125500D01*
D42*
X62026000Y-27582000D02*
X60502000Y-29106000D01*
D44*
X60502000Y-29106000D02*
X63446000Y-29106000D01*
D42*
X51510000Y-28786000D02*
X53882000Y-28786000D01*
D43*
X55066000Y-29487000D02*
X56872000Y-31293000D01*
D44*
X64404000Y-50021000D02*
X65381000Y-50021000D01*
D43*
X56737000Y-38504000D02*
X56804480Y-38571480D01*
X55066000Y-28598000D02*
X54558000Y-29106000D01*
D42*
X62432000Y-31646000D02*
X62432000Y-31036000D01*
D43*
X67512000Y-49708000D02*
X66798000Y-50422000D01*
D44*
X65381000Y-50021000D02*
X65782000Y-50422000D01*
D42*
X53882000Y-28786000D02*
X54202000Y-29106000D01*
D43*
X57352000Y-52728000D02*
X57352000Y-53109000D01*
X68022000Y-27582000D02*
X68022000Y-28596000D01*
X78688000Y-32154000D02*
X78688000Y-32744000D01*
D44*
X56904000Y-38671000D02*
X56904000Y-37012000D01*
D43*
X54317000Y-38504000D02*
X56737000Y-38504000D01*
X55066000Y-28598000D02*
X55066000Y-29487000D01*
X56804480Y-38571480D02*
X56804480Y-38671000D01*
D42*
X60502000Y-27988000D02*
X62432000Y-26058000D01*
D43*
X65782000Y-50422000D02*
X66798000Y-50422000D01*
X66623000Y-50247000D02*
X66798000Y-50422000D01*
X38815000Y-48410000D02*
X37286000Y-46881000D01*
X50494000Y-49934000D02*
X50494000Y-48710500D01*
X50193500Y-48410000D02*
X38815000Y-48410000D01*
D44*
X66329000Y-39814000D02*
X66369000Y-39774000D01*
X61802000Y-26058000D02*
X60532000Y-24788000D01*
D42*
X62432000Y-27582000D02*
X62026000Y-27582000D01*
X62432000Y-31036000D02*
X60502000Y-29106000D01*
D44*
%TO.N,Net-(C12-Pad1)*%
X63904000Y-51901000D02*
X63956000Y-51953000D01*
X63904000Y-50021000D02*
X63904000Y-51901000D01*
%TO.N,Net-(C13-Pad1)*%
X67701000Y-41096000D02*
X68261000Y-40536000D01*
X66329000Y-41096000D02*
X67701000Y-41096000D01*
%TO.N,+3.3VA*%
X53550000Y-46596000D02*
X54979000Y-46596000D01*
D43*
X52272000Y-46858000D02*
X52272000Y-48363500D01*
X53288000Y-46858000D02*
X52272000Y-46858000D01*
X52272000Y-48363500D02*
X52318500Y-48410000D01*
D44*
X53288000Y-46858000D02*
X53550000Y-46596000D01*
%TO.N,HSE_IN*%
X49136000Y-41568000D02*
X49136000Y-41468000D01*
X50164000Y-42596000D02*
X49136000Y-41568000D01*
D43*
X49136000Y-41468000D02*
X49136000Y-40144000D01*
D44*
X54979000Y-42596000D02*
X50164000Y-42596000D01*
D43*
X49136000Y-40144000D02*
X49506000Y-39774000D01*
%TO.N,Net-(C17-Pad1)*%
X51174000Y-43330000D02*
X50836000Y-43668000D01*
X52270000Y-43330000D02*
X51174000Y-43330000D01*
X50836000Y-44992000D02*
X50466000Y-45362000D01*
X50836000Y-43668000D02*
X50836000Y-44992000D01*
D42*
%TO.N,Net-(D1-Pad1)*%
X47446000Y-29868000D02*
X47446000Y-31112500D01*
X48082000Y-29232000D02*
X47446000Y-29868000D01*
X48970000Y-29232000D02*
X48082000Y-29232000D01*
%TO.N,VCC*%
X48970000Y-25932000D02*
X48970000Y-25550000D01*
X48970000Y-25550000D02*
X49483000Y-25037000D01*
X49483000Y-25037000D02*
X49483000Y-22248000D01*
D43*
%TO.N,Net-(D2-Pad1)*%
X57669000Y-24534000D02*
X59638000Y-24534000D01*
X59852480Y-24748480D02*
X59852480Y-24788000D01*
X59638000Y-24534000D02*
X59852480Y-24748480D01*
D44*
%TO.N,Net-(D3-Pad1)*%
X70986449Y-49529711D02*
X70784726Y-49731434D01*
X70986449Y-48096269D02*
X70986449Y-49529711D01*
%TO.N,Net-(D3-Pad2)*%
X66329000Y-48096000D02*
X70346180Y-48096000D01*
X70346180Y-48096000D02*
X70346449Y-48096269D01*
D42*
%TO.N,Net-(F1-Pad2)*%
X48390000Y-32687500D02*
X49685500Y-31392000D01*
X47446000Y-32687500D02*
X48390000Y-32687500D01*
D44*
%TO.N,I2C1_SCL*%
X59904000Y-38671000D02*
X59904000Y-36206000D01*
X59904000Y-36206000D02*
X67004000Y-29106000D01*
X67004000Y-23269000D02*
X68025000Y-22248000D01*
X67004000Y-29106000D02*
X67004000Y-23269000D01*
%TO.N,I2C1_SDA*%
X65990000Y-29377520D02*
X65990000Y-27582000D01*
X65990000Y-27582000D02*
X65990000Y-22753000D01*
X59404000Y-38671000D02*
X59403520Y-38670520D01*
X59403520Y-38670520D02*
X59403520Y-35964000D01*
X65990000Y-22753000D02*
X65485000Y-22248000D01*
X59403520Y-35964000D02*
X65990000Y-29377520D01*
%TO.N,SPI1_CS*%
X58404000Y-67434000D02*
X58378000Y-67460000D01*
X58404000Y-50021000D02*
X58404000Y-67434000D01*
%TO.N,SPI1_SCK*%
X58904000Y-65446000D02*
X60918000Y-67460000D01*
X58904000Y-50021000D02*
X58904000Y-65446000D01*
%TO.N,SPI1_MISO*%
X59404000Y-50021000D02*
X59404000Y-63406000D01*
X59404000Y-63406000D02*
X63458000Y-67460000D01*
%TO.N,SPI1_MOSI*%
X64900366Y-67206000D02*
X65744000Y-67206000D01*
X65744000Y-67206000D02*
X65998000Y-67460000D01*
X59904000Y-62209634D02*
X64900366Y-67206000D01*
X59904000Y-50021000D02*
X59904000Y-62209634D01*
%TO.N,SWDIO*%
X84276000Y-39774000D02*
X84276000Y-34440000D01*
X83260000Y-33424000D02*
X81908000Y-33424000D01*
X66329000Y-41596000D02*
X82454000Y-41596000D01*
X84276000Y-34440000D02*
X83260000Y-33424000D01*
X82454000Y-41596000D02*
X84276000Y-39774000D01*
%TO.N,SWCLK*%
X83260000Y-34694000D02*
X81908000Y-34694000D01*
X64404000Y-37040000D02*
X65480000Y-35964000D01*
X82299572Y-41044000D02*
X83768000Y-39575572D01*
X65480000Y-35964000D02*
X71068000Y-35964000D01*
X83768000Y-39575572D02*
X83768000Y-35202000D01*
X71068000Y-35964000D02*
X76148000Y-41044000D01*
X83768000Y-35202000D02*
X83260000Y-34694000D01*
X64404000Y-38671000D02*
X64404000Y-37040000D01*
X76148000Y-41044000D02*
X82299572Y-41044000D01*
%TO.N,SWO*%
X61404000Y-37500000D02*
X63448000Y-35456000D01*
X80720000Y-35964000D02*
X81908000Y-35964000D01*
X76656000Y-40536000D02*
X79450000Y-40536000D01*
X79958000Y-36726000D02*
X80720000Y-35964000D01*
X71576000Y-35456000D02*
X76656000Y-40536000D01*
X79958000Y-40028000D02*
X79958000Y-36726000D01*
X79450000Y-40536000D02*
X79958000Y-40028000D01*
X63448000Y-35456000D02*
X71576000Y-35456000D01*
X61404000Y-38671000D02*
X61404000Y-37500000D01*
%TO.N,NRST*%
X57340000Y-43596000D02*
X57352000Y-43584000D01*
X54979000Y-43596000D02*
X57340000Y-43596000D01*
D43*
X81908000Y-38504000D02*
X81908000Y-39856000D01*
X81908000Y-39856000D02*
X81736000Y-40028000D01*
D44*
%TO.N,USART1_TX*%
X66329480Y-43595520D02*
X78948520Y-43595520D01*
X78948520Y-43595520D02*
X82752000Y-47399000D01*
X66329000Y-43596000D02*
X66329480Y-43595520D01*
%TO.N,USART1_RX*%
X80979000Y-44859000D02*
X82752000Y-44859000D01*
X66329000Y-43096000D02*
X79216000Y-43096000D01*
X79216000Y-43096000D02*
X80979000Y-44859000D01*
%TO.N,BOOT0*%
X58904000Y-35176000D02*
X59384000Y-34696000D01*
X58904000Y-38671000D02*
X58904000Y-35176000D01*
%TO.N,BOOT1*%
X62404000Y-50021000D02*
X62404000Y-51938000D01*
X62404000Y-51938000D02*
X62432000Y-51966000D01*
%TO.N,HSE_OUT*%
X53524000Y-43096000D02*
X54979000Y-43096000D01*
X53290000Y-43330000D02*
X53524000Y-43096000D01*
%TD*%
%TA.AperFunction,Conductor*%
%TO.N,GND*%
G36*
X78346048Y-20490002D02*
G01*
X78392541Y-20543658D01*
X78402645Y-20613932D01*
X78373151Y-20678512D01*
X78320297Y-20714662D01*
X78112153Y-20788983D01*
X78106965Y-20791100D01*
X77723133Y-20968050D01*
X77718164Y-20970614D01*
X77351581Y-21180984D01*
X77346848Y-21183987D01*
X77000420Y-21426109D01*
X76995979Y-21429517D01*
X76724476Y-21657739D01*
X76716031Y-21670456D01*
X76722139Y-21680929D01*
X83490142Y-28448932D01*
X83503903Y-28456446D01*
X83513263Y-28449989D01*
X83682244Y-28257303D01*
X83685744Y-28252935D01*
X83935073Y-27911645D01*
X83938168Y-27906987D01*
X84156160Y-27544903D01*
X84158841Y-27539964D01*
X84290704Y-27269007D01*
X84338498Y-27216507D01*
X84407089Y-27198181D01*
X84474699Y-27219847D01*
X84519862Y-27274626D01*
X84530000Y-27324143D01*
X84530000Y-33458550D01*
X84509998Y-33526671D01*
X84456342Y-33573164D01*
X84386068Y-33583268D01*
X84321488Y-33553774D01*
X84314905Y-33547645D01*
X83783655Y-33016395D01*
X83775665Y-33007615D01*
X83775663Y-33007613D01*
X83771416Y-33000920D01*
X83719742Y-32952395D01*
X83716901Y-32949641D01*
X83696333Y-32929073D01*
X83692826Y-32926353D01*
X83683804Y-32918647D01*
X83667046Y-32902910D01*
X83650133Y-32887028D01*
X83643181Y-32883206D01*
X83631342Y-32876697D01*
X83614818Y-32865843D01*
X83597870Y-32852697D01*
X83598757Y-32851553D01*
X83560306Y-32811806D01*
X83558615Y-32807295D01*
X83471261Y-32690739D01*
X83354705Y-32603385D01*
X83218316Y-32552255D01*
X83156134Y-32545500D01*
X80659866Y-32545500D01*
X80597684Y-32552255D01*
X80461295Y-32603385D01*
X80344739Y-32690739D01*
X80257385Y-32807295D01*
X80206255Y-32943684D01*
X80199500Y-33005866D01*
X80199500Y-33842134D01*
X80206255Y-33904316D01*
X80209027Y-33911712D01*
X80209029Y-33911718D01*
X80247662Y-34014771D01*
X80252845Y-34085578D01*
X80247662Y-34103229D01*
X80209029Y-34206282D01*
X80209027Y-34206288D01*
X80206255Y-34213684D01*
X80199500Y-34275866D01*
X80199500Y-35112134D01*
X80206255Y-35174316D01*
X80209027Y-35181712D01*
X80209029Y-35181718D01*
X80247662Y-35284771D01*
X80252845Y-35355578D01*
X80247662Y-35373229D01*
X80209029Y-35476282D01*
X80209027Y-35476288D01*
X80206255Y-35483684D01*
X80205402Y-35491539D01*
X80203393Y-35510029D01*
X80176151Y-35575590D01*
X80167225Y-35585515D01*
X79931094Y-35821646D01*
X79868782Y-35855672D01*
X79797967Y-35850607D01*
X79741131Y-35808060D01*
X79716320Y-35741540D01*
X79715999Y-35732551D01*
X79715999Y-35549331D01*
X79715629Y-35542510D01*
X79710105Y-35491648D01*
X79706478Y-35476394D01*
X79667804Y-35373229D01*
X79662621Y-35302422D01*
X79667804Y-35284771D01*
X79706478Y-35181609D01*
X79710105Y-35166351D01*
X79715631Y-35115486D01*
X79716000Y-35108672D01*
X79716000Y-34966115D01*
X79711525Y-34950876D01*
X79710135Y-34949671D01*
X79702452Y-34948000D01*
X78280115Y-34948000D01*
X78264876Y-34952475D01*
X78263671Y-34953865D01*
X78262000Y-34961548D01*
X78262000Y-36092000D01*
X78241998Y-36160121D01*
X78188342Y-36206614D01*
X78136000Y-36218000D01*
X76318116Y-36218000D01*
X76302877Y-36222475D01*
X76301672Y-36223865D01*
X76300001Y-36231548D01*
X76300001Y-36378669D01*
X76300371Y-36385490D01*
X76305895Y-36436352D01*
X76309522Y-36451607D01*
X76347929Y-36554059D01*
X76353112Y-36624866D01*
X76347929Y-36642517D01*
X76309029Y-36746282D01*
X76309027Y-36746288D01*
X76306255Y-36753684D01*
X76299500Y-36815866D01*
X76299500Y-37652134D01*
X76306255Y-37714316D01*
X76309027Y-37721712D01*
X76309029Y-37721718D01*
X76347929Y-37825483D01*
X76353112Y-37896290D01*
X76347929Y-37913941D01*
X76309522Y-38016391D01*
X76305895Y-38031649D01*
X76300369Y-38082514D01*
X76300000Y-38089328D01*
X76300000Y-38231885D01*
X76304475Y-38247124D01*
X76305865Y-38248329D01*
X76313548Y-38250000D01*
X78136000Y-38250000D01*
X78204121Y-38270002D01*
X78250614Y-38323658D01*
X78262000Y-38376000D01*
X78262000Y-39363884D01*
X78266475Y-39379123D01*
X78267865Y-39380328D01*
X78275548Y-39381999D01*
X79173500Y-39381999D01*
X79241621Y-39402001D01*
X79288114Y-39455657D01*
X79299500Y-39507999D01*
X79299500Y-39703050D01*
X79279498Y-39771171D01*
X79262595Y-39792146D01*
X79214144Y-39840596D01*
X79151831Y-39874621D01*
X79125049Y-39877500D01*
X76980950Y-39877500D01*
X76912829Y-39857498D01*
X76891855Y-39840595D01*
X76646449Y-39595189D01*
X76612423Y-39532877D01*
X76617488Y-39462062D01*
X76660035Y-39405226D01*
X76726555Y-39380415D01*
X76749154Y-39380831D01*
X76756519Y-39381631D01*
X76763328Y-39382000D01*
X77735885Y-39382000D01*
X77751124Y-39377525D01*
X77752329Y-39376135D01*
X77754000Y-39368452D01*
X77754000Y-38776115D01*
X77749525Y-38760876D01*
X77748135Y-38759671D01*
X77740452Y-38758000D01*
X76318116Y-38758000D01*
X76302877Y-38762475D01*
X76301672Y-38763865D01*
X76300001Y-38771548D01*
X76300001Y-38918669D01*
X76300371Y-38925493D01*
X76301170Y-38932853D01*
X76288640Y-39002735D01*
X76240318Y-39054749D01*
X76171546Y-39072381D01*
X76104158Y-39050033D01*
X76086812Y-39035552D01*
X72743145Y-35691885D01*
X76300000Y-35691885D01*
X76304475Y-35707124D01*
X76305865Y-35708329D01*
X76313548Y-35710000D01*
X77735885Y-35710000D01*
X77751124Y-35705525D01*
X77752329Y-35704135D01*
X77754000Y-35696452D01*
X77754000Y-34966115D01*
X77749525Y-34950876D01*
X77748135Y-34949671D01*
X77740452Y-34948000D01*
X76318116Y-34948000D01*
X76302877Y-34952475D01*
X76301672Y-34953865D01*
X76300001Y-34961548D01*
X76300001Y-35108669D01*
X76300371Y-35115490D01*
X76305895Y-35166352D01*
X76309522Y-35181606D01*
X76348196Y-35284771D01*
X76353379Y-35355578D01*
X76348196Y-35373229D01*
X76309522Y-35476391D01*
X76305895Y-35491649D01*
X76300369Y-35542514D01*
X76300000Y-35549328D01*
X76300000Y-35691885D01*
X72743145Y-35691885D01*
X72099655Y-35048395D01*
X72091665Y-35039615D01*
X72091663Y-35039613D01*
X72087416Y-35032920D01*
X72069965Y-35016532D01*
X72035743Y-34984396D01*
X72032901Y-34981641D01*
X72012333Y-34961073D01*
X72008826Y-34958353D01*
X71999804Y-34950647D01*
X71995613Y-34946711D01*
X71966133Y-34919028D01*
X71959181Y-34915206D01*
X71947342Y-34908697D01*
X71930818Y-34897843D01*
X71920132Y-34889555D01*
X71913868Y-34884696D01*
X71906596Y-34881549D01*
X71906594Y-34881548D01*
X71871465Y-34866346D01*
X71860805Y-34861124D01*
X71827284Y-34842695D01*
X71827282Y-34842694D01*
X71820337Y-34838876D01*
X71799559Y-34833541D01*
X71780869Y-34827142D01*
X71761176Y-34818620D01*
X71715552Y-34811394D01*
X71703929Y-34808987D01*
X71669657Y-34800188D01*
X71659188Y-34797500D01*
X71637741Y-34797500D01*
X71618031Y-34795949D01*
X71596848Y-34792594D01*
X71550859Y-34796941D01*
X71539004Y-34797500D01*
X63530060Y-34797500D01*
X63518203Y-34796941D01*
X63510463Y-34795211D01*
X63502538Y-34795460D01*
X63502537Y-34795460D01*
X63439599Y-34797438D01*
X63435641Y-34797500D01*
X63406568Y-34797500D01*
X63402634Y-34797997D01*
X63402632Y-34797997D01*
X63402189Y-34798053D01*
X63390354Y-34798985D01*
X63357564Y-34800016D01*
X63352089Y-34800188D01*
X63352088Y-34800188D01*
X63344169Y-34800437D01*
X63324444Y-34806168D01*
X63323571Y-34806421D01*
X63304218Y-34810429D01*
X63300743Y-34810868D01*
X63282936Y-34813118D01*
X63275568Y-34816035D01*
X63275565Y-34816036D01*
X63239982Y-34830125D01*
X63228747Y-34833971D01*
X63192016Y-34844642D01*
X63192013Y-34844643D01*
X63184400Y-34846855D01*
X63165935Y-34857775D01*
X63148195Y-34866466D01*
X63128244Y-34874365D01*
X63090874Y-34901516D01*
X63080952Y-34908033D01*
X63048023Y-34927507D01*
X63048019Y-34927510D01*
X63041193Y-34931547D01*
X63026029Y-34946711D01*
X63010996Y-34959551D01*
X62993643Y-34972159D01*
X62983520Y-34984396D01*
X62964198Y-35007752D01*
X62956208Y-35016532D01*
X60996395Y-36976345D01*
X60987615Y-36984335D01*
X60987613Y-36984337D01*
X60980920Y-36988584D01*
X60975494Y-36994362D01*
X60975493Y-36994363D01*
X60932396Y-37040257D01*
X60929641Y-37043099D01*
X60909073Y-37063667D01*
X60906356Y-37067170D01*
X60898648Y-37076195D01*
X60867028Y-37109867D01*
X60863207Y-37116818D01*
X60863206Y-37116819D01*
X60856697Y-37128658D01*
X60845843Y-37145182D01*
X60838018Y-37155271D01*
X60832696Y-37162132D01*
X60829549Y-37169404D01*
X60829548Y-37169406D01*
X60814346Y-37204535D01*
X60809125Y-37215193D01*
X60798915Y-37233765D01*
X60748572Y-37283823D01*
X60679155Y-37298718D01*
X60612705Y-37273719D01*
X60570320Y-37216763D01*
X60562500Y-37173065D01*
X60562500Y-36530950D01*
X60582502Y-36462829D01*
X60599405Y-36441855D01*
X63199126Y-33842134D01*
X76299500Y-33842134D01*
X76306255Y-33904316D01*
X76309027Y-33911712D01*
X76309029Y-33911718D01*
X76347929Y-34015483D01*
X76353112Y-34086290D01*
X76347929Y-34103941D01*
X76309522Y-34206391D01*
X76305895Y-34221649D01*
X76300369Y-34272514D01*
X76300000Y-34279328D01*
X76300000Y-34421885D01*
X76304475Y-34437124D01*
X76305865Y-34438329D01*
X76313548Y-34440000D01*
X79697884Y-34440000D01*
X79713123Y-34435525D01*
X79714328Y-34434135D01*
X79715999Y-34426452D01*
X79715999Y-34279331D01*
X79715629Y-34272510D01*
X79710105Y-34221648D01*
X79706478Y-34206393D01*
X79668071Y-34103941D01*
X79662888Y-34033134D01*
X79668071Y-34015483D01*
X79706971Y-33911718D01*
X79706973Y-33911712D01*
X79709745Y-33904316D01*
X79716500Y-33842134D01*
X79716500Y-33005866D01*
X79709745Y-32943684D01*
X79658615Y-32807295D01*
X79571261Y-32690739D01*
X79559424Y-32681868D01*
X79516910Y-32625009D01*
X79511886Y-32554190D01*
X79519626Y-32530580D01*
X79522527Y-32525556D01*
X79581542Y-32343928D01*
X79588545Y-32277304D01*
X79600814Y-32160565D01*
X79601504Y-32154000D01*
X79588296Y-32028329D01*
X79582232Y-31970635D01*
X79582232Y-31970633D01*
X79581542Y-31964072D01*
X79522527Y-31782444D01*
X79503703Y-31749839D01*
X79468933Y-31689617D01*
X79427040Y-31617056D01*
X79404752Y-31592302D01*
X79303675Y-31480045D01*
X79303674Y-31480044D01*
X79299253Y-31475134D01*
X79187248Y-31393757D01*
X79150094Y-31366763D01*
X79150093Y-31366762D01*
X79144752Y-31362882D01*
X79138724Y-31360198D01*
X79138722Y-31360197D01*
X78976319Y-31287891D01*
X78976318Y-31287891D01*
X78970288Y-31285206D01*
X78876888Y-31265353D01*
X78789944Y-31246872D01*
X78789939Y-31246872D01*
X78783487Y-31245500D01*
X78592513Y-31245500D01*
X78586061Y-31246872D01*
X78586056Y-31246872D01*
X78499112Y-31265353D01*
X78405712Y-31285206D01*
X78231248Y-31362882D01*
X78160882Y-31372316D01*
X78128753Y-31362882D01*
X78128752Y-31362882D01*
X77954288Y-31285206D01*
X77860888Y-31265353D01*
X77773944Y-31246872D01*
X77773939Y-31246872D01*
X77767487Y-31245500D01*
X77576513Y-31245500D01*
X77570061Y-31246872D01*
X77570056Y-31246872D01*
X77483112Y-31265353D01*
X77389712Y-31285206D01*
X77383682Y-31287891D01*
X77383681Y-31287891D01*
X77221278Y-31360197D01*
X77221276Y-31360198D01*
X77215248Y-31362882D01*
X77209907Y-31366762D01*
X77209906Y-31366763D01*
X77172752Y-31393757D01*
X77060747Y-31475134D01*
X77056326Y-31480044D01*
X77056325Y-31480045D01*
X76955249Y-31592302D01*
X76932960Y-31617056D01*
X76891067Y-31689617D01*
X76856298Y-31749839D01*
X76837473Y-31782444D01*
X76778458Y-31964072D01*
X76777768Y-31970633D01*
X76777768Y-31970635D01*
X76771704Y-32028329D01*
X76758496Y-32154000D01*
X76759186Y-32160565D01*
X76771456Y-32277304D01*
X76778458Y-32343928D01*
X76782667Y-32356882D01*
X76793593Y-32390509D01*
X76795620Y-32461477D01*
X76758958Y-32522275D01*
X76703712Y-32551600D01*
X76697684Y-32552255D01*
X76561295Y-32603385D01*
X76444739Y-32690739D01*
X76357385Y-32807295D01*
X76306255Y-32943684D01*
X76299500Y-33005866D01*
X76299500Y-33842134D01*
X63199126Y-33842134D01*
X67411600Y-29629659D01*
X67420381Y-29621669D01*
X67420390Y-29621661D01*
X67427080Y-29617416D01*
X67475621Y-29565725D01*
X67478375Y-29562884D01*
X67498926Y-29542333D01*
X67501638Y-29538837D01*
X67509349Y-29529808D01*
X67535546Y-29501911D01*
X67540972Y-29496133D01*
X67544486Y-29489741D01*
X67600485Y-29446559D01*
X67671221Y-29440484D01*
X67697449Y-29448868D01*
X67731677Y-29464108D01*
X67731685Y-29464111D01*
X67737712Y-29466794D01*
X67820805Y-29484456D01*
X67918056Y-29505128D01*
X67918061Y-29505128D01*
X67924513Y-29506500D01*
X68115487Y-29506500D01*
X68121939Y-29505128D01*
X68121944Y-29505128D01*
X68219195Y-29484456D01*
X68302288Y-29466794D01*
X68361382Y-29440484D01*
X68470722Y-29391803D01*
X68470724Y-29391802D01*
X68476752Y-29389118D01*
X68631253Y-29276866D01*
X68724937Y-29172819D01*
X68754621Y-29139852D01*
X68754622Y-29139851D01*
X68759040Y-29134944D01*
X68854527Y-28969556D01*
X68902335Y-28822418D01*
X76717122Y-28822418D01*
X76717171Y-28823110D01*
X76722617Y-28831274D01*
X76800268Y-28903812D01*
X76804507Y-28907433D01*
X77137800Y-29167362D01*
X77142359Y-29170602D01*
X77497448Y-29399880D01*
X77502250Y-29402686D01*
X77876316Y-29599491D01*
X77881374Y-29601871D01*
X78271435Y-29764638D01*
X78276690Y-29766561D01*
X78679676Y-29894008D01*
X78685075Y-29895455D01*
X79097796Y-29986575D01*
X79103307Y-29987537D01*
X79522501Y-30041610D01*
X79528064Y-30042077D01*
X79950405Y-30058670D01*
X79955997Y-30058641D01*
X80378125Y-30037626D01*
X80383708Y-30037098D01*
X80802305Y-29978640D01*
X80807792Y-29977623D01*
X81219543Y-29882185D01*
X81224929Y-29880681D01*
X81626567Y-29749018D01*
X81631784Y-29747046D01*
X82020126Y-29580202D01*
X82025169Y-29577764D01*
X82397131Y-29377063D01*
X82401935Y-29374188D01*
X82754563Y-29141231D01*
X82759126Y-29137916D01*
X83089658Y-28874529D01*
X83093873Y-28870852D01*
X83131823Y-28834649D01*
X83139763Y-28820890D01*
X83139713Y-28819843D01*
X83134822Y-28812032D01*
X82787318Y-28464528D01*
X82759158Y-28449151D01*
X82730448Y-28427659D01*
X81879209Y-27576419D01*
X81392379Y-27089590D01*
X81377735Y-27062772D01*
X81375178Y-27064416D01*
X81353543Y-27030753D01*
X79940812Y-25618022D01*
X79926868Y-25610408D01*
X79925035Y-25610539D01*
X79918420Y-25614790D01*
X78535691Y-26997519D01*
X78528077Y-27011463D01*
X78528889Y-27022821D01*
X78513798Y-27092195D01*
X78492305Y-27120906D01*
X77677581Y-27935629D01*
X77225376Y-28387835D01*
X77163064Y-28421860D01*
X77145271Y-28424418D01*
X77108527Y-28427046D01*
X77101913Y-28431297D01*
X76724736Y-28808474D01*
X76717122Y-28822418D01*
X68902335Y-28822418D01*
X68913542Y-28787928D01*
X68933504Y-28598000D01*
X68925062Y-28517679D01*
X68914232Y-28414635D01*
X68914232Y-28414633D01*
X68913542Y-28408072D01*
X68854527Y-28226444D01*
X68843320Y-28207032D01*
X68819713Y-28166145D01*
X68797381Y-28127464D01*
X68780500Y-28064465D01*
X68780500Y-27945357D01*
X68785503Y-27910204D01*
X68795834Y-27874644D01*
X68797629Y-27868466D01*
X68799520Y-27844450D01*
X68800307Y-27834444D01*
X68800307Y-27834438D01*
X68800500Y-27831989D01*
X68800499Y-27332012D01*
X68797629Y-27295534D01*
X68764962Y-27183095D01*
X68754481Y-27147017D01*
X68754480Y-27147015D01*
X68752269Y-27139404D01*
X68674851Y-27008496D01*
X68673540Y-27006280D01*
X68669506Y-26999459D01*
X68554541Y-26884494D01*
X68547720Y-26880460D01*
X68421419Y-26805766D01*
X68421418Y-26805766D01*
X68414596Y-26801731D01*
X68406985Y-26799520D01*
X68406983Y-26799519D01*
X68316250Y-26773159D01*
X68258466Y-26756371D01*
X68252059Y-26755867D01*
X68252055Y-26755866D01*
X68224444Y-26753693D01*
X68224438Y-26753693D01*
X68221989Y-26753500D01*
X68022122Y-26753500D01*
X67822012Y-26753501D01*
X67809412Y-26754492D01*
X67798382Y-26755360D01*
X67728903Y-26740762D01*
X67678345Y-26690918D01*
X67662500Y-26629748D01*
X67662500Y-25122825D01*
X75116855Y-25122825D01*
X75124600Y-25545410D01*
X75124950Y-25550976D01*
X75170231Y-25971208D01*
X75171078Y-25976746D01*
X75253535Y-26391286D01*
X75254864Y-26396698D01*
X75373852Y-26802289D01*
X75375658Y-26807564D01*
X75530219Y-27200948D01*
X75532501Y-27206072D01*
X75721416Y-27584150D01*
X75724140Y-27589043D01*
X75945917Y-27948833D01*
X75949068Y-27953469D01*
X76201955Y-28292127D01*
X76205488Y-28296444D01*
X76341222Y-28447988D01*
X76354717Y-28456351D01*
X76364128Y-28450662D01*
X79555978Y-25258812D01*
X79563592Y-25244868D01*
X79563461Y-25243035D01*
X79559210Y-25236420D01*
X78226480Y-23903690D01*
X78198320Y-23888313D01*
X78169610Y-23866821D01*
X77318371Y-23015581D01*
X76831541Y-22528752D01*
X76816897Y-22501934D01*
X76814340Y-22503578D01*
X76792705Y-22469915D01*
X76363561Y-22040771D01*
X76350253Y-22033504D01*
X76340214Y-22040626D01*
X76096223Y-22333994D01*
X76092828Y-22338467D01*
X75852528Y-22686152D01*
X75849549Y-22690902D01*
X75641106Y-23058575D01*
X75638562Y-23063568D01*
X75463629Y-23448312D01*
X75461538Y-23453511D01*
X75321498Y-23852290D01*
X75319877Y-23857659D01*
X75215840Y-24267303D01*
X75214706Y-24272776D01*
X75147496Y-24690054D01*
X75146851Y-24695632D01*
X75117002Y-25117204D01*
X75116855Y-25122825D01*
X67662500Y-25122825D01*
X67662500Y-23732500D01*
X67682502Y-23664379D01*
X67736158Y-23617886D01*
X67788500Y-23606500D01*
X68923134Y-23606500D01*
X68985316Y-23599745D01*
X69121705Y-23548615D01*
X69238261Y-23461261D01*
X69325615Y-23344705D01*
X69376745Y-23208316D01*
X69383500Y-23146134D01*
X69383500Y-21349866D01*
X69376745Y-21287684D01*
X69325615Y-21151295D01*
X69238261Y-21034739D01*
X69121705Y-20947385D01*
X68985316Y-20896255D01*
X68923134Y-20889500D01*
X67126866Y-20889500D01*
X67064684Y-20896255D01*
X66928295Y-20947385D01*
X66811739Y-21034739D01*
X66724385Y-21151295D01*
X66721233Y-21159703D01*
X66679919Y-21269907D01*
X66637277Y-21326671D01*
X66570716Y-21351371D01*
X66501367Y-21336163D01*
X66468743Y-21310476D01*
X66418151Y-21254875D01*
X66418142Y-21254866D01*
X66414670Y-21251051D01*
X66410619Y-21247852D01*
X66410615Y-21247848D01*
X66243414Y-21115800D01*
X66243410Y-21115798D01*
X66239359Y-21112598D01*
X66043789Y-21004638D01*
X66038920Y-21002914D01*
X66038916Y-21002912D01*
X65838087Y-20931795D01*
X65838083Y-20931794D01*
X65833212Y-20930069D01*
X65828119Y-20929162D01*
X65828116Y-20929161D01*
X65618373Y-20891800D01*
X65618367Y-20891799D01*
X65613284Y-20890894D01*
X65539452Y-20889992D01*
X65395081Y-20888228D01*
X65395079Y-20888228D01*
X65389911Y-20888165D01*
X65169091Y-20921955D01*
X64956756Y-20991357D01*
X64926443Y-21007137D01*
X64763331Y-21092048D01*
X64758607Y-21094507D01*
X64754474Y-21097610D01*
X64754471Y-21097612D01*
X64605714Y-21209302D01*
X64579965Y-21228635D01*
X64540525Y-21269907D01*
X64486280Y-21326671D01*
X64425629Y-21390138D01*
X64299743Y-21574680D01*
X64255285Y-21670456D01*
X64214628Y-21758046D01*
X64205688Y-21777305D01*
X64145989Y-21992570D01*
X64122251Y-22214695D01*
X64122548Y-22219848D01*
X64122548Y-22219851D01*
X64129694Y-22343789D01*
X64135110Y-22437715D01*
X64136247Y-22442761D01*
X64136248Y-22442767D01*
X64150606Y-22506475D01*
X64184222Y-22655639D01*
X64268266Y-22862616D01*
X64384987Y-23053088D01*
X64531250Y-23221938D01*
X64703126Y-23364632D01*
X64896000Y-23477338D01*
X65104692Y-23557030D01*
X65109760Y-23558061D01*
X65109763Y-23558062D01*
X65230621Y-23582651D01*
X65293386Y-23615832D01*
X65328248Y-23677680D01*
X65331500Y-23706121D01*
X65331500Y-26629905D01*
X65311498Y-26698026D01*
X65257842Y-26744519D01*
X65195612Y-26755516D01*
X65172467Y-26753694D01*
X65172441Y-26753693D01*
X65169989Y-26753500D01*
X64970122Y-26753500D01*
X64770012Y-26753501D01*
X64733534Y-26756371D01*
X64636730Y-26784495D01*
X64585017Y-26799519D01*
X64585015Y-26799520D01*
X64577404Y-26801731D01*
X64570582Y-26805766D01*
X64570581Y-26805766D01*
X64444280Y-26880460D01*
X64437459Y-26884494D01*
X64322494Y-26999459D01*
X64318460Y-27006280D01*
X64317150Y-27008496D01*
X64239731Y-27139404D01*
X64237520Y-27147015D01*
X64237519Y-27147017D01*
X64222162Y-27199877D01*
X64194371Y-27295534D01*
X64193867Y-27301941D01*
X64193866Y-27301945D01*
X64191693Y-27329556D01*
X64191500Y-27332011D01*
X64191500Y-27377051D01*
X64171498Y-27445172D01*
X64154599Y-27466142D01*
X63600751Y-28019990D01*
X63538440Y-28054014D01*
X63467624Y-28048949D01*
X63410789Y-28006402D01*
X63385978Y-27939882D01*
X63391295Y-27893624D01*
X63391931Y-27891570D01*
X63392735Y-27889067D01*
X63406563Y-27847500D01*
X63420197Y-27806513D01*
X63420970Y-27800392D01*
X63421969Y-27795995D01*
X63422860Y-27791652D01*
X63424682Y-27785768D01*
X63433780Y-27699205D01*
X63434082Y-27696597D01*
X63444543Y-27613796D01*
X63444543Y-27613791D01*
X63444985Y-27610295D01*
X63445270Y-27589884D01*
X63445355Y-27589075D01*
X63445291Y-27588372D01*
X63445380Y-27582000D01*
X63436105Y-27487403D01*
X63436023Y-27486528D01*
X63427988Y-27398245D01*
X63427430Y-27392112D01*
X63426427Y-27388703D01*
X63426080Y-27385167D01*
X63398639Y-27294279D01*
X63398414Y-27293525D01*
X63397187Y-27289356D01*
X63371590Y-27202381D01*
X63369942Y-27199228D01*
X63368916Y-27195831D01*
X63365611Y-27189614D01*
X63346434Y-27153548D01*
X63324289Y-27111899D01*
X63323922Y-27111201D01*
X63319688Y-27103101D01*
X63279960Y-27027110D01*
X63277735Y-27024342D01*
X63276066Y-27021204D01*
X63253759Y-26993853D01*
X63216059Y-26947628D01*
X63215507Y-26946945D01*
X63176375Y-26898276D01*
X63149277Y-26832654D01*
X63161960Y-26762800D01*
X63180355Y-26735961D01*
X63180309Y-26735924D01*
X63202559Y-26708838D01*
X63204477Y-26706559D01*
X63260078Y-26642145D01*
X63263124Y-26636783D01*
X63266674Y-26631751D01*
X63266930Y-26631932D01*
X63267024Y-26631794D01*
X63266764Y-26631620D01*
X63270189Y-26626504D01*
X63274103Y-26621739D01*
X63277018Y-26616303D01*
X63314272Y-26546825D01*
X63315760Y-26544129D01*
X63354721Y-26475545D01*
X63354722Y-26475543D01*
X63357769Y-26470179D01*
X63359716Y-26464324D01*
X63362219Y-26458703D01*
X63362505Y-26458830D01*
X63362569Y-26458681D01*
X63362280Y-26458561D01*
X63364649Y-26452870D01*
X63367562Y-26447437D01*
X63392419Y-26366133D01*
X63393347Y-26363226D01*
X63404990Y-26328228D01*
X63420197Y-26282513D01*
X63420970Y-26276398D01*
X63422335Y-26270390D01*
X63422638Y-26270459D01*
X63422674Y-26270292D01*
X63422368Y-26270230D01*
X63423584Y-26264200D01*
X63425387Y-26258302D01*
X63429826Y-26214608D01*
X63433978Y-26173732D01*
X63434326Y-26170675D01*
X63444545Y-26089776D01*
X63444985Y-26086295D01*
X63445324Y-26062033D01*
X63445374Y-26061538D01*
X63445336Y-26061138D01*
X63445380Y-26058000D01*
X63436870Y-25971208D01*
X63435920Y-25961517D01*
X63435878Y-25961080D01*
X63427318Y-25870526D01*
X63427317Y-25870522D01*
X63426761Y-25864638D01*
X63426253Y-25862935D01*
X63426080Y-25861167D01*
X63424375Y-25855521D01*
X63424374Y-25855514D01*
X63398154Y-25768669D01*
X63398027Y-25768249D01*
X63371937Y-25680732D01*
X63371936Y-25680730D01*
X63370259Y-25675104D01*
X63369429Y-25673529D01*
X63368916Y-25671831D01*
X63323323Y-25586083D01*
X63278018Y-25500154D01*
X63276901Y-25498775D01*
X63276066Y-25497204D01*
X63214587Y-25421823D01*
X63214431Y-25421630D01*
X63157253Y-25351021D01*
X63157248Y-25351016D01*
X63153553Y-25346453D01*
X63152190Y-25345317D01*
X63151065Y-25343938D01*
X63076080Y-25281905D01*
X63001604Y-25219854D01*
X63000047Y-25219005D01*
X62998675Y-25217870D01*
X62913160Y-25171632D01*
X62876953Y-25151891D01*
X62833104Y-25127983D01*
X62833102Y-25127982D01*
X62827959Y-25125178D01*
X62826263Y-25124646D01*
X62824701Y-25123802D01*
X62808345Y-25118739D01*
X62732163Y-25095157D01*
X62731743Y-25095026D01*
X62667753Y-25074973D01*
X62639232Y-25066035D01*
X62637464Y-25065843D01*
X62635768Y-25065318D01*
X62629917Y-25064703D01*
X62629912Y-25064702D01*
X62562971Y-25057667D01*
X62539219Y-25055170D01*
X62539056Y-25055152D01*
X62442611Y-25044676D01*
X62440842Y-25044831D01*
X62439075Y-25044645D01*
X62433196Y-25045180D01*
X62342824Y-25053404D01*
X62342387Y-25053444D01*
X62251448Y-25061400D01*
X62251446Y-25061400D01*
X62245587Y-25061913D01*
X62243879Y-25062409D01*
X62242112Y-25062570D01*
X62236481Y-25064227D01*
X62236472Y-25064229D01*
X62148943Y-25089991D01*
X62148796Y-25090034D01*
X62055664Y-25117091D01*
X62054089Y-25117907D01*
X62052381Y-25118410D01*
X62047174Y-25121132D01*
X62047172Y-25121133D01*
X61966503Y-25163306D01*
X61966106Y-25163513D01*
X61964109Y-25164548D01*
X61894424Y-25178135D01*
X61828456Y-25151891D01*
X61817034Y-25141775D01*
X61292726Y-24617466D01*
X61258701Y-24555154D01*
X61256903Y-24544839D01*
X61254838Y-24529150D01*
X61193524Y-24381124D01*
X61112494Y-24275525D01*
X61101014Y-24260564D01*
X61101013Y-24260563D01*
X61095987Y-24254013D01*
X61089437Y-24248987D01*
X61089434Y-24248984D01*
X61024972Y-24199521D01*
X60968875Y-24156476D01*
X60820850Y-24095162D01*
X60812662Y-24094084D01*
X60705972Y-24080038D01*
X60705971Y-24080038D01*
X60701885Y-24079500D01*
X60532021Y-24079500D01*
X60362116Y-24079501D01*
X60330105Y-24083715D01*
X60259957Y-24072773D01*
X60224568Y-24047887D01*
X60221770Y-24045089D01*
X60209384Y-24030677D01*
X60200851Y-24019082D01*
X60200846Y-24019077D01*
X60196508Y-24013182D01*
X60190930Y-24008443D01*
X60190927Y-24008440D01*
X60156232Y-23978965D01*
X60148716Y-23972035D01*
X60143021Y-23966340D01*
X60133759Y-23959012D01*
X60120749Y-23948719D01*
X60117345Y-23945928D01*
X60067297Y-23903409D01*
X60067295Y-23903408D01*
X60061715Y-23898667D01*
X60055199Y-23895339D01*
X60050150Y-23891972D01*
X60045021Y-23888805D01*
X60039284Y-23884266D01*
X59973125Y-23853345D01*
X59969225Y-23851439D01*
X59958875Y-23846154D01*
X59904192Y-23818231D01*
X59897084Y-23816492D01*
X59891441Y-23814393D01*
X59885678Y-23812476D01*
X59879050Y-23809378D01*
X59807583Y-23794513D01*
X59803299Y-23793543D01*
X59802057Y-23793239D01*
X59732390Y-23776192D01*
X59726788Y-23775844D01*
X59726785Y-23775844D01*
X59721236Y-23775500D01*
X59721238Y-23775464D01*
X59717245Y-23775225D01*
X59713053Y-23774851D01*
X59705885Y-23773360D01*
X59639675Y-23775151D01*
X59628479Y-23775454D01*
X59625072Y-23775500D01*
X58439710Y-23775500D01*
X58371589Y-23755498D01*
X58350615Y-23738595D01*
X58309381Y-23697361D01*
X58162699Y-23608528D01*
X58155452Y-23606257D01*
X58155450Y-23606256D01*
X58080126Y-23582651D01*
X57999062Y-23557247D01*
X57925635Y-23550500D01*
X57922737Y-23550500D01*
X57668335Y-23550501D01*
X57412366Y-23550501D01*
X57409508Y-23550764D01*
X57409499Y-23550764D01*
X57375619Y-23553877D01*
X57338938Y-23557247D01*
X57332560Y-23559246D01*
X57332559Y-23559246D01*
X57182550Y-23606256D01*
X57182548Y-23606257D01*
X57175301Y-23608528D01*
X57028619Y-23697361D01*
X56932741Y-23793239D01*
X56870429Y-23827265D01*
X56799614Y-23822200D01*
X56754551Y-23793239D01*
X56664443Y-23703131D01*
X56652574Y-23693824D01*
X56518988Y-23612921D01*
X56505243Y-23606715D01*
X56355356Y-23559744D01*
X56342306Y-23557131D01*
X56287414Y-23552087D01*
X56275876Y-23555475D01*
X56274671Y-23556865D01*
X56273000Y-23564548D01*
X56273000Y-25498884D01*
X56277475Y-25514123D01*
X56278865Y-25515328D01*
X56283294Y-25516291D01*
X56342315Y-25510868D01*
X56355351Y-25508257D01*
X56505243Y-25461285D01*
X56518988Y-25455079D01*
X56652574Y-25374176D01*
X56664443Y-25364869D01*
X56754551Y-25274761D01*
X56816863Y-25240735D01*
X56887678Y-25245800D01*
X56932741Y-25274761D01*
X57028619Y-25370639D01*
X57175301Y-25459472D01*
X57182548Y-25461743D01*
X57182550Y-25461744D01*
X57248068Y-25482276D01*
X57338938Y-25510753D01*
X57412365Y-25517500D01*
X57415263Y-25517500D01*
X57669665Y-25517499D01*
X57925634Y-25517499D01*
X57928492Y-25517236D01*
X57928501Y-25517236D01*
X57964004Y-25513974D01*
X57999062Y-25510753D01*
X58016239Y-25505370D01*
X58155450Y-25461744D01*
X58155452Y-25461743D01*
X58162699Y-25459472D01*
X58309381Y-25370639D01*
X58350615Y-25329405D01*
X58412927Y-25295379D01*
X58439710Y-25292500D01*
X59231882Y-25292500D01*
X59300003Y-25312502D01*
X59318535Y-25327028D01*
X59386292Y-25391215D01*
X59395027Y-25399490D01*
X59401355Y-25403166D01*
X59401357Y-25403167D01*
X59459636Y-25437018D01*
X59547970Y-25488326D01*
X59554974Y-25490447D01*
X59554978Y-25490449D01*
X59662474Y-25523006D01*
X59717247Y-25539595D01*
X59893778Y-25550547D01*
X59900994Y-25549307D01*
X59900996Y-25549307D01*
X60060880Y-25521834D01*
X60060883Y-25521833D01*
X60068094Y-25520594D01*
X60137041Y-25491257D01*
X60169925Y-25482276D01*
X60172660Y-25481916D01*
X60180850Y-25480838D01*
X60182600Y-25480113D01*
X60241402Y-25480114D01*
X60243150Y-25480838D01*
X60251332Y-25481915D01*
X60251335Y-25481916D01*
X60258819Y-25482901D01*
X60323747Y-25511623D01*
X60331468Y-25518728D01*
X60849158Y-26036418D01*
X60883184Y-26098730D01*
X60878119Y-26169545D01*
X60849158Y-26214608D01*
X60403171Y-26660595D01*
X60340859Y-26694621D01*
X60314076Y-26697500D01*
X59453866Y-26697500D01*
X59391684Y-26704255D01*
X59255295Y-26755385D01*
X59138739Y-26842739D01*
X59051385Y-26959295D01*
X59000255Y-27095684D01*
X58993500Y-27157866D01*
X58993500Y-31054134D01*
X59000255Y-31116316D01*
X59051385Y-31252705D01*
X59138739Y-31369261D01*
X59255295Y-31456615D01*
X59391684Y-31507745D01*
X59453866Y-31514500D01*
X61293187Y-31514500D01*
X61361308Y-31534502D01*
X61407801Y-31588158D01*
X61417022Y-31631994D01*
X61418719Y-31631851D01*
X61423058Y-31683524D01*
X61423314Y-31689619D01*
X61423350Y-31689617D01*
X61423500Y-31692684D01*
X61423500Y-31695769D01*
X61423801Y-31698837D01*
X61427498Y-31736549D01*
X61427657Y-31738299D01*
X61435268Y-31828934D01*
X61436925Y-31834714D01*
X61436963Y-31834904D01*
X61437295Y-31836645D01*
X61437334Y-31836858D01*
X61437920Y-31842833D01*
X61439702Y-31848735D01*
X61464191Y-31929848D01*
X61464688Y-31931535D01*
X61489783Y-32019050D01*
X61492533Y-32024399D01*
X61492600Y-32024563D01*
X61493240Y-32026148D01*
X61493351Y-32026429D01*
X61495084Y-32032169D01*
X61497975Y-32037606D01*
X61497979Y-32037616D01*
X61537824Y-32112553D01*
X61538568Y-32113975D01*
X61580187Y-32194956D01*
X61583914Y-32199659D01*
X61584060Y-32199878D01*
X61585017Y-32201340D01*
X61585109Y-32201482D01*
X61587934Y-32206796D01*
X61630070Y-32258460D01*
X61645439Y-32277304D01*
X61646531Y-32278663D01*
X61703035Y-32349953D01*
X61707613Y-32353849D01*
X61707743Y-32353980D01*
X61708983Y-32355246D01*
X61709138Y-32355407D01*
X61712935Y-32360062D01*
X61717682Y-32363989D01*
X61717685Y-32363992D01*
X61783011Y-32418034D01*
X61784359Y-32419165D01*
X61806106Y-32437673D01*
X61845019Y-32497055D01*
X61845650Y-32568049D01*
X61813538Y-32622722D01*
X60414015Y-34022245D01*
X60351703Y-34056271D01*
X60280888Y-34051206D01*
X60224052Y-34008659D01*
X60199241Y-33942139D01*
X60198921Y-33933509D01*
X60198920Y-33933295D01*
X60191651Y-33930000D01*
X59721542Y-33930000D01*
X59686390Y-33924997D01*
X59676647Y-33922166D01*
X59676640Y-33922165D01*
X59670466Y-33920371D01*
X59664059Y-33919867D01*
X59664055Y-33919866D01*
X59636444Y-33917693D01*
X59636438Y-33917693D01*
X59633989Y-33917500D01*
X59624070Y-33917500D01*
X59255999Y-33917501D01*
X59187880Y-33897499D01*
X59141387Y-33843844D01*
X59130000Y-33791501D01*
X59130000Y-33403885D01*
X59638000Y-33403885D01*
X59642475Y-33419124D01*
X59643865Y-33420329D01*
X59651548Y-33422000D01*
X60185900Y-33422000D01*
X60199431Y-33418027D01*
X60200566Y-33410129D01*
X60166019Y-33291217D01*
X60159770Y-33276778D01*
X60085146Y-33150595D01*
X60075499Y-33138159D01*
X59971841Y-33034501D01*
X59959405Y-33024854D01*
X59833222Y-32950230D01*
X59818783Y-32943981D01*
X59676564Y-32902662D01*
X59663977Y-32900363D01*
X59656057Y-32899740D01*
X59640970Y-32902910D01*
X59638000Y-32914374D01*
X59638000Y-33403885D01*
X59130000Y-33403885D01*
X59130000Y-32916434D01*
X59125656Y-32901639D01*
X59113997Y-32899579D01*
X59104023Y-32900363D01*
X59091436Y-32902662D01*
X58949217Y-32943981D01*
X58934778Y-32950230D01*
X58808595Y-33024854D01*
X58796159Y-33034501D01*
X58692501Y-33138159D01*
X58682857Y-33150592D01*
X58614719Y-33265806D01*
X58562826Y-33314258D01*
X58492976Y-33326963D01*
X58427345Y-33299887D01*
X58417171Y-33290761D01*
X58377926Y-33251516D01*
X58365499Y-33241876D01*
X58238220Y-33166604D01*
X58223784Y-33160357D01*
X58103395Y-33125381D01*
X58089295Y-33125421D01*
X58086000Y-33132691D01*
X58086000Y-37108000D01*
X58065998Y-37176121D01*
X58012342Y-37222614D01*
X57960000Y-37234000D01*
X57786500Y-37234000D01*
X57718379Y-37213998D01*
X57671886Y-37160342D01*
X57660500Y-37108000D01*
X57660500Y-36744516D01*
X57657606Y-36707746D01*
X57655813Y-36701574D01*
X57655812Y-36701569D01*
X57635503Y-36631667D01*
X57630500Y-36596514D01*
X57630500Y-36347486D01*
X57635503Y-36312333D01*
X57655812Y-36242431D01*
X57655813Y-36242426D01*
X57657606Y-36236254D01*
X57658582Y-36223865D01*
X57660307Y-36201940D01*
X57660307Y-36201932D01*
X57660500Y-36199484D01*
X57660500Y-35728516D01*
X57659043Y-35710000D01*
X57658111Y-35698156D01*
X57658110Y-35698151D01*
X57657606Y-35691746D01*
X57655813Y-35685574D01*
X57655812Y-35685569D01*
X57635503Y-35615667D01*
X57630500Y-35580514D01*
X57630500Y-35331486D01*
X57635503Y-35296333D01*
X57655812Y-35226431D01*
X57655813Y-35226426D01*
X57657606Y-35220254D01*
X57660500Y-35183484D01*
X57660500Y-34712516D01*
X57657606Y-34675746D01*
X57655813Y-34669574D01*
X57655812Y-34669569D01*
X57635503Y-34599667D01*
X57630500Y-34564514D01*
X57630500Y-34315486D01*
X57635503Y-34280333D01*
X57655812Y-34210431D01*
X57655813Y-34210426D01*
X57657606Y-34204254D01*
X57658944Y-34187262D01*
X57660307Y-34169940D01*
X57660307Y-34169932D01*
X57660500Y-34167484D01*
X57660500Y-33696516D01*
X57660130Y-33691810D01*
X57658111Y-33666156D01*
X57658110Y-33666151D01*
X57657606Y-33659746D01*
X57655813Y-33653574D01*
X57655812Y-33653569D01*
X57635503Y-33583667D01*
X57630500Y-33548514D01*
X57630500Y-31360070D01*
X57631933Y-31341120D01*
X57634099Y-31326885D01*
X57634099Y-31326881D01*
X57635199Y-31319651D01*
X57630915Y-31266982D01*
X57630500Y-31256767D01*
X57630500Y-31248707D01*
X57627209Y-31220480D01*
X57626778Y-31216121D01*
X57625356Y-31198638D01*
X57620860Y-31143364D01*
X57618605Y-31136403D01*
X57617418Y-31130463D01*
X57616029Y-31124588D01*
X57615182Y-31117319D01*
X57590264Y-31048670D01*
X57588847Y-31044542D01*
X57568607Y-30982064D01*
X57568606Y-30982062D01*
X57566351Y-30975101D01*
X57562555Y-30968846D01*
X57560049Y-30963372D01*
X57557330Y-30957942D01*
X57554833Y-30951063D01*
X57525277Y-30905983D01*
X57514814Y-30890024D01*
X57512467Y-30886305D01*
X57506612Y-30876656D01*
X57474595Y-30823893D01*
X57467197Y-30815516D01*
X57467224Y-30815492D01*
X57464571Y-30812500D01*
X57461868Y-30809267D01*
X57457856Y-30803148D01*
X57401617Y-30749872D01*
X57399175Y-30747494D01*
X55866665Y-29214984D01*
X55832639Y-29152672D01*
X55837704Y-29081857D01*
X55846641Y-29062889D01*
X55897223Y-28975279D01*
X55897224Y-28975278D01*
X55900527Y-28969556D01*
X55959542Y-28787928D01*
X55979504Y-28598000D01*
X55971062Y-28517679D01*
X55960232Y-28414635D01*
X55960232Y-28414633D01*
X55959542Y-28408072D01*
X55900527Y-28226444D01*
X55892917Y-28213262D01*
X55808341Y-28066774D01*
X55805040Y-28061056D01*
X55798700Y-28054014D01*
X55679875Y-27922046D01*
X55649157Y-27858039D01*
X55655529Y-27793506D01*
X55700478Y-27673606D01*
X55704105Y-27658351D01*
X55709631Y-27607486D01*
X55710000Y-27600672D01*
X55710000Y-27078115D01*
X55705525Y-27062876D01*
X55704135Y-27061671D01*
X55696452Y-27060000D01*
X52801115Y-27060000D01*
X52785876Y-27064475D01*
X52763611Y-27090170D01*
X52763303Y-27089903D01*
X52756096Y-27103101D01*
X52693782Y-27137122D01*
X52667006Y-27140000D01*
X50295116Y-27140000D01*
X50279877Y-27144475D01*
X50278672Y-27145865D01*
X50277001Y-27153548D01*
X50277001Y-27183095D01*
X50277338Y-27189614D01*
X50287257Y-27285206D01*
X50290149Y-27298600D01*
X50341588Y-27452784D01*
X50347761Y-27465962D01*
X50433063Y-27603807D01*
X50442099Y-27615208D01*
X50556828Y-27729738D01*
X50565762Y-27736794D01*
X50606823Y-27794712D01*
X50610053Y-27865635D01*
X50574426Y-27927046D01*
X50566593Y-27933846D01*
X50560652Y-27937522D01*
X50435695Y-28062697D01*
X50431855Y-28068927D01*
X50431854Y-28068928D01*
X50349314Y-28202833D01*
X50342885Y-28213262D01*
X50320665Y-28280255D01*
X50293129Y-28363274D01*
X50287203Y-28381139D01*
X50286503Y-28387975D01*
X50286502Y-28387978D01*
X50282769Y-28424418D01*
X50276500Y-28485600D01*
X50276500Y-28522816D01*
X50256498Y-28590937D01*
X50202842Y-28637430D01*
X50132568Y-28647534D01*
X50067988Y-28618040D01*
X50032518Y-28567046D01*
X50023767Y-28543703D01*
X50020615Y-28535295D01*
X49933261Y-28418739D01*
X49816705Y-28331385D01*
X49680316Y-28280255D01*
X49618134Y-28273500D01*
X49303393Y-28273500D01*
X49265294Y-28267602D01*
X49219058Y-28252935D01*
X49180694Y-28240765D01*
X49026773Y-28223500D01*
X48143843Y-28223500D01*
X48130236Y-28222763D01*
X48098738Y-28219341D01*
X48098733Y-28219341D01*
X48092612Y-28218676D01*
X48069237Y-28220721D01*
X48042612Y-28223050D01*
X48037786Y-28223379D01*
X48035314Y-28223500D01*
X48032231Y-28223500D01*
X48020262Y-28224674D01*
X47989494Y-28227690D01*
X47988181Y-28227812D01*
X47943916Y-28231685D01*
X47895587Y-28235913D01*
X47890468Y-28237400D01*
X47885167Y-28237920D01*
X47796166Y-28264791D01*
X47795033Y-28265126D01*
X47711586Y-28289370D01*
X47711582Y-28289372D01*
X47705664Y-28291091D01*
X47700932Y-28293544D01*
X47695831Y-28295084D01*
X47690388Y-28297978D01*
X47613740Y-28338731D01*
X47612574Y-28339343D01*
X47544537Y-28374611D01*
X47530074Y-28382108D01*
X47525911Y-28385431D01*
X47521204Y-28387934D01*
X47516429Y-28391828D01*
X47516428Y-28391829D01*
X47449102Y-28446739D01*
X47448075Y-28447567D01*
X47411792Y-28476531D01*
X47411787Y-28476536D01*
X47409028Y-28478738D01*
X47406527Y-28481239D01*
X47405809Y-28481881D01*
X47401461Y-28485594D01*
X47391941Y-28493358D01*
X47367938Y-28512935D01*
X47364015Y-28517677D01*
X47364013Y-28517679D01*
X47338703Y-28548273D01*
X47330713Y-28557053D01*
X46776621Y-29111145D01*
X46766478Y-29120247D01*
X46736975Y-29143968D01*
X46722320Y-29161433D01*
X46704709Y-29182421D01*
X46701528Y-29186069D01*
X46699885Y-29187881D01*
X46697691Y-29190075D01*
X46670358Y-29223349D01*
X46669696Y-29224147D01*
X46609846Y-29295474D01*
X46607278Y-29300144D01*
X46603897Y-29304261D01*
X46583879Y-29341595D01*
X46560023Y-29386086D01*
X46559394Y-29387245D01*
X46517538Y-29463381D01*
X46517535Y-29463389D01*
X46514567Y-29468787D01*
X46512955Y-29473869D01*
X46510438Y-29478563D01*
X46483238Y-29567531D01*
X46482918Y-29568559D01*
X46454765Y-29657306D01*
X46454171Y-29662602D01*
X46452613Y-29667698D01*
X46444266Y-29749875D01*
X46443218Y-29760187D01*
X46443089Y-29761393D01*
X46437500Y-29811227D01*
X46437500Y-29814754D01*
X46437445Y-29815739D01*
X46436998Y-29821419D01*
X46432626Y-29864462D01*
X46435419Y-29894008D01*
X46436941Y-29910109D01*
X46437500Y-29921967D01*
X46437500Y-31162269D01*
X46437800Y-31165325D01*
X46437800Y-31165332D01*
X46442780Y-31216121D01*
X46451920Y-31309333D01*
X46453701Y-31315232D01*
X46453702Y-31315237D01*
X46457122Y-31326563D01*
X46462500Y-31362981D01*
X46462500Y-31379572D01*
X46462837Y-31382818D01*
X46462837Y-31382822D01*
X46465984Y-31413147D01*
X46473022Y-31480982D01*
X46526692Y-31641849D01*
X46615929Y-31786055D01*
X46640805Y-31810887D01*
X46674884Y-31873168D01*
X46669882Y-31943988D01*
X46640960Y-31989078D01*
X46615136Y-32014947D01*
X46611296Y-32021177D01*
X46611295Y-32021178D01*
X46606887Y-32028329D01*
X46526151Y-32159308D01*
X46523846Y-32166256D01*
X46523846Y-32166257D01*
X46490658Y-32266316D01*
X46472762Y-32320269D01*
X46462500Y-32420428D01*
X46462500Y-32435015D01*
X46456867Y-32472267D01*
X46453318Y-32483732D01*
X46452674Y-32489860D01*
X46434358Y-32664131D01*
X46432645Y-32680425D01*
X46433204Y-32686565D01*
X46443538Y-32800114D01*
X46450570Y-32877388D01*
X46457149Y-32899740D01*
X46457374Y-32900506D01*
X46462500Y-32936081D01*
X46462500Y-32954572D01*
X46473022Y-33055982D01*
X46526692Y-33216849D01*
X46615929Y-33361055D01*
X46735947Y-33480864D01*
X46880308Y-33569849D01*
X46887256Y-33572154D01*
X46887257Y-33572154D01*
X46976447Y-33601737D01*
X47041269Y-33623238D01*
X47048108Y-33623939D01*
X47048114Y-33623940D01*
X47056571Y-33624807D01*
X47081823Y-33630048D01*
X47229433Y-33676872D01*
X47235306Y-33678735D01*
X47389227Y-33696000D01*
X48328157Y-33696000D01*
X48341764Y-33696737D01*
X48373262Y-33700159D01*
X48373267Y-33700159D01*
X48379388Y-33700824D01*
X48405638Y-33698527D01*
X48429388Y-33696450D01*
X48434214Y-33696121D01*
X48436686Y-33696000D01*
X48439769Y-33696000D01*
X48451738Y-33694826D01*
X48482506Y-33691810D01*
X48483819Y-33691688D01*
X48528084Y-33687815D01*
X48576413Y-33683587D01*
X48581532Y-33682100D01*
X48586833Y-33681580D01*
X48675834Y-33654709D01*
X48676967Y-33654374D01*
X48760414Y-33630130D01*
X48760418Y-33630128D01*
X48766336Y-33628409D01*
X48771068Y-33625956D01*
X48776169Y-33624416D01*
X48852809Y-33583667D01*
X48858260Y-33580769D01*
X48859426Y-33580157D01*
X48936453Y-33540229D01*
X48941926Y-33537392D01*
X48946089Y-33534069D01*
X48950796Y-33531566D01*
X49022918Y-33472745D01*
X49023774Y-33472054D01*
X49062973Y-33440762D01*
X49065477Y-33438258D01*
X49066195Y-33437616D01*
X49070528Y-33433915D01*
X49104062Y-33406565D01*
X49133291Y-33371233D01*
X49141272Y-33362463D01*
X49554094Y-32949641D01*
X49977482Y-32526252D01*
X50039795Y-32492227D01*
X50040607Y-32492097D01*
X50047124Y-32490690D01*
X50053982Y-32489978D01*
X50214849Y-32436308D01*
X50359055Y-32347071D01*
X50478864Y-32227053D01*
X50490898Y-32207531D01*
X50516339Y-32166257D01*
X50567849Y-32082692D01*
X50588253Y-32021178D01*
X50619072Y-31928262D01*
X50619072Y-31928260D01*
X50621238Y-31921731D01*
X50622712Y-31907344D01*
X50649554Y-31841617D01*
X50707669Y-31800836D01*
X50778607Y-31797948D01*
X50839845Y-31833870D01*
X50871941Y-31897198D01*
X50873383Y-31907186D01*
X50875022Y-31922982D01*
X50928692Y-32083849D01*
X51017929Y-32228055D01*
X51137947Y-32347864D01*
X51144177Y-32351704D01*
X51144178Y-32351705D01*
X51175514Y-32371020D01*
X51282308Y-32436849D01*
X51289256Y-32439154D01*
X51289257Y-32439154D01*
X51436738Y-32488072D01*
X51436740Y-32488072D01*
X51443269Y-32490238D01*
X51543428Y-32500500D01*
X52077572Y-32500500D01*
X52080818Y-32500163D01*
X52080822Y-32500163D01*
X52114603Y-32496658D01*
X52178982Y-32489978D01*
X52264409Y-32461477D01*
X52332905Y-32438625D01*
X52332907Y-32438624D01*
X52339849Y-32436308D01*
X52367243Y-32419356D01*
X52433546Y-32400500D01*
X52686705Y-32400500D01*
X52754826Y-32420502D01*
X52787530Y-32450933D01*
X52838739Y-32519261D01*
X52955295Y-32606615D01*
X53091684Y-32657745D01*
X53153866Y-32664500D01*
X53423500Y-32664500D01*
X53491621Y-32684502D01*
X53538114Y-32738158D01*
X53549500Y-32790500D01*
X53549500Y-33918650D01*
X53529498Y-33986771D01*
X53512674Y-34007667D01*
X53483695Y-34036697D01*
X53390885Y-34187262D01*
X53335203Y-34355139D01*
X53324500Y-34459600D01*
X53324500Y-35060400D01*
X53324837Y-35063646D01*
X53324837Y-35063650D01*
X53330216Y-35115486D01*
X53335474Y-35166166D01*
X53337655Y-35172702D01*
X53337655Y-35172704D01*
X53341252Y-35183484D01*
X53391450Y-35333946D01*
X53484522Y-35484348D01*
X53609697Y-35609305D01*
X53614235Y-35612102D01*
X53654824Y-35669353D01*
X53658054Y-35740276D01*
X53622428Y-35801687D01*
X53613932Y-35809062D01*
X53603793Y-35817098D01*
X53489261Y-35931829D01*
X53480249Y-35943240D01*
X53395184Y-36081243D01*
X53389037Y-36094424D01*
X53337862Y-36248710D01*
X53334995Y-36262086D01*
X53325328Y-36356438D01*
X53325000Y-36362855D01*
X53325000Y-36387885D01*
X53329475Y-36403124D01*
X53330865Y-36404329D01*
X53338548Y-36406000D01*
X55772884Y-36406000D01*
X55788123Y-36401525D01*
X55789328Y-36400135D01*
X55790999Y-36392452D01*
X55790999Y-36362905D01*
X55790662Y-36356386D01*
X55780743Y-36260794D01*
X55777851Y-36247400D01*
X55726412Y-36093216D01*
X55720239Y-36080038D01*
X55634937Y-35942193D01*
X55625901Y-35930792D01*
X55511172Y-35816262D01*
X55502238Y-35809206D01*
X55461177Y-35751288D01*
X55457947Y-35680365D01*
X55493574Y-35618954D01*
X55501407Y-35612154D01*
X55507348Y-35608478D01*
X55632305Y-35483303D01*
X55725115Y-35332738D01*
X55766803Y-35207053D01*
X55778632Y-35171389D01*
X55778632Y-35171387D01*
X55780797Y-35164861D01*
X55791500Y-35060400D01*
X55791500Y-34459600D01*
X55791163Y-34456350D01*
X55781238Y-34360692D01*
X55781237Y-34360688D01*
X55780526Y-34353834D01*
X55761750Y-34297554D01*
X55726868Y-34193002D01*
X55724550Y-34186054D01*
X55631478Y-34035652D01*
X55626296Y-34030479D01*
X55626292Y-34030474D01*
X55603483Y-34007705D01*
X55569403Y-33945423D01*
X55566500Y-33918532D01*
X55566500Y-32559583D01*
X55586502Y-32491462D01*
X55591674Y-32484018D01*
X55652615Y-32402705D01*
X55703745Y-32266316D01*
X55710500Y-32204134D01*
X55710500Y-31508371D01*
X55730502Y-31440250D01*
X55784158Y-31393757D01*
X55854432Y-31383653D01*
X55919012Y-31413147D01*
X55925595Y-31419276D01*
X56076595Y-31570276D01*
X56110621Y-31632588D01*
X56113500Y-31659371D01*
X56113500Y-33548514D01*
X56108497Y-33583667D01*
X56088188Y-33653569D01*
X56088187Y-33653574D01*
X56086394Y-33659746D01*
X56085890Y-33666151D01*
X56085889Y-33666156D01*
X56083870Y-33691810D01*
X56083500Y-33696516D01*
X56083500Y-34167484D01*
X56083693Y-34169932D01*
X56083693Y-34169940D01*
X56085057Y-34187262D01*
X56086394Y-34204254D01*
X56088187Y-34210426D01*
X56088188Y-34210431D01*
X56108497Y-34280333D01*
X56113500Y-34315486D01*
X56113500Y-34564514D01*
X56108497Y-34599667D01*
X56088188Y-34669569D01*
X56088187Y-34669574D01*
X56086394Y-34675746D01*
X56083500Y-34712516D01*
X56083500Y-35183484D01*
X56086394Y-35220254D01*
X56088187Y-35226426D01*
X56088188Y-35226431D01*
X56108497Y-35296333D01*
X56113500Y-35331486D01*
X56113500Y-35580514D01*
X56108497Y-35615667D01*
X56088188Y-35685569D01*
X56088187Y-35685574D01*
X56086394Y-35691746D01*
X56085890Y-35698151D01*
X56085889Y-35698156D01*
X56084957Y-35710000D01*
X56083500Y-35728516D01*
X56083500Y-36199484D01*
X56083693Y-36201932D01*
X56083693Y-36201940D01*
X56085419Y-36223865D01*
X56086394Y-36236254D01*
X56088187Y-36242426D01*
X56088188Y-36242431D01*
X56108497Y-36312333D01*
X56113500Y-36347486D01*
X56113500Y-36596514D01*
X56108497Y-36631667D01*
X56088188Y-36701569D01*
X56088187Y-36701574D01*
X56086394Y-36707746D01*
X56083500Y-36744516D01*
X56083500Y-37215484D01*
X56083693Y-37217932D01*
X56083693Y-37217940D01*
X56085427Y-37239962D01*
X56086394Y-37252254D01*
X56104572Y-37314824D01*
X56125974Y-37388489D01*
X56132106Y-37409597D01*
X56136141Y-37416419D01*
X56136141Y-37416420D01*
X56215512Y-37550629D01*
X56213934Y-37551562D01*
X56236235Y-37608351D01*
X56222339Y-37677974D01*
X56173007Y-37729033D01*
X56110729Y-37745500D01*
X55566433Y-37745500D01*
X55498312Y-37725498D01*
X55451819Y-37671842D01*
X55441715Y-37601568D01*
X55471209Y-37536988D01*
X55495160Y-37516588D01*
X55495075Y-37516480D01*
X55498128Y-37514060D01*
X55500129Y-37512356D01*
X55500810Y-37511934D01*
X55512208Y-37502901D01*
X55626739Y-37388171D01*
X55635751Y-37376760D01*
X55720816Y-37238757D01*
X55726963Y-37225576D01*
X55778138Y-37071290D01*
X55781005Y-37057914D01*
X55790672Y-36963562D01*
X55791000Y-36957146D01*
X55791000Y-36932115D01*
X55786525Y-36916876D01*
X55785135Y-36915671D01*
X55777452Y-36914000D01*
X53343116Y-36914000D01*
X53327877Y-36918475D01*
X53326672Y-36919865D01*
X53325001Y-36927548D01*
X53325001Y-36957095D01*
X53325338Y-36963614D01*
X53335257Y-37059206D01*
X53338149Y-37072600D01*
X53389588Y-37226784D01*
X53395761Y-37239962D01*
X53481063Y-37377807D01*
X53490099Y-37389208D01*
X53538989Y-37438013D01*
X53573068Y-37500296D01*
X53568065Y-37571116D01*
X53525568Y-37627988D01*
X53459069Y-37652857D01*
X53383855Y-37634446D01*
X53310120Y-37588996D01*
X53296939Y-37582849D01*
X53148186Y-37533509D01*
X53134810Y-37530642D01*
X53043903Y-37521328D01*
X53038874Y-37521071D01*
X53023876Y-37525475D01*
X53022671Y-37526865D01*
X53021000Y-37534548D01*
X53021000Y-37996000D01*
X52513000Y-37996000D01*
X52513000Y-37539115D01*
X52508525Y-37523876D01*
X52507135Y-37522671D01*
X52499452Y-37521000D01*
X52496562Y-37521000D01*
X52490047Y-37521337D01*
X52397943Y-37530894D01*
X52384544Y-37533788D01*
X52235893Y-37583381D01*
X52222714Y-37589555D01*
X52089827Y-37671788D01*
X52078426Y-37680824D01*
X51968014Y-37791429D01*
X51959002Y-37802840D01*
X51876850Y-37936116D01*
X51824078Y-37983609D01*
X51769590Y-37996000D01*
X46684000Y-37996000D01*
X46684000Y-46886000D01*
X51327500Y-46886000D01*
X51395621Y-46906002D01*
X51442114Y-46959658D01*
X51453500Y-47012000D01*
X51453500Y-47063484D01*
X51453693Y-47065932D01*
X51453693Y-47065940D01*
X51454988Y-47082386D01*
X51456394Y-47100254D01*
X51502106Y-47257597D01*
X51503730Y-47260343D01*
X51513500Y-47307518D01*
X51513500Y-47558110D01*
X51494760Y-47624226D01*
X51436151Y-47719308D01*
X51433846Y-47726256D01*
X51433846Y-47726257D01*
X51385345Y-47872483D01*
X51382762Y-47880269D01*
X51382061Y-47887113D01*
X51381288Y-47894656D01*
X51354446Y-47960383D01*
X51296331Y-48001164D01*
X51225393Y-48004052D01*
X51164155Y-47968130D01*
X51132059Y-47904802D01*
X51130617Y-47894814D01*
X51129690Y-47885876D01*
X51129689Y-47885872D01*
X51128978Y-47879018D01*
X51075308Y-47718151D01*
X50986071Y-47573945D01*
X50866053Y-47454136D01*
X50721692Y-47365151D01*
X50714743Y-47362846D01*
X50567262Y-47313928D01*
X50567260Y-47313928D01*
X50560731Y-47311762D01*
X50460572Y-47301500D01*
X49926428Y-47301500D01*
X49923182Y-47301837D01*
X49923178Y-47301837D01*
X49889397Y-47305342D01*
X49825018Y-47312022D01*
X49664151Y-47365692D01*
X49519945Y-47454929D01*
X49400136Y-47574947D01*
X49396296Y-47581177D01*
X49396295Y-47581178D01*
X49389861Y-47591616D01*
X49337088Y-47639110D01*
X49282601Y-47651500D01*
X39181371Y-47651500D01*
X39113250Y-47631498D01*
X39092276Y-47614595D01*
X38665609Y-47187928D01*
X38631583Y-47125616D01*
X38629782Y-47082389D01*
X38647529Y-46947590D01*
X38649156Y-46881000D01*
X38630852Y-46658361D01*
X38576431Y-46441702D01*
X38487354Y-46236840D01*
X38419461Y-46131894D01*
X38368822Y-46053617D01*
X38368820Y-46053614D01*
X38366014Y-46049277D01*
X38362540Y-46045459D01*
X38362533Y-46045450D01*
X38218435Y-45887088D01*
X38187383Y-45823242D01*
X38195779Y-45752744D01*
X38240956Y-45697976D01*
X38267400Y-45684307D01*
X38374052Y-45644325D01*
X38389649Y-45635786D01*
X38491724Y-45559285D01*
X38504285Y-45546724D01*
X38580786Y-45444649D01*
X38589324Y-45429054D01*
X38634478Y-45308606D01*
X38638105Y-45293351D01*
X38643631Y-45242486D01*
X38644000Y-45235672D01*
X38644000Y-44613115D01*
X38639525Y-44597876D01*
X38638135Y-44596671D01*
X38630452Y-44595000D01*
X35946116Y-44595000D01*
X35930877Y-44599475D01*
X35929672Y-44600865D01*
X35928001Y-44608548D01*
X35928001Y-45235669D01*
X35928371Y-45242490D01*
X35933895Y-45293352D01*
X35937521Y-45308604D01*
X35982676Y-45429054D01*
X35991214Y-45444649D01*
X36067715Y-45546724D01*
X36080276Y-45559285D01*
X36182351Y-45635786D01*
X36197946Y-45644324D01*
X36306827Y-45685142D01*
X36363591Y-45727784D01*
X36388291Y-45794345D01*
X36373083Y-45863694D01*
X36353691Y-45890175D01*
X36230301Y-46019295D01*
X36226629Y-46023138D01*
X36223715Y-46027410D01*
X36223714Y-46027411D01*
X36209645Y-46048035D01*
X36100743Y-46207680D01*
X36085003Y-46241590D01*
X36026106Y-46368473D01*
X36006688Y-46410305D01*
X35946989Y-46625570D01*
X35923251Y-46847695D01*
X35923548Y-46852848D01*
X35923548Y-46852851D01*
X35933414Y-47023950D01*
X35936110Y-47070715D01*
X35937247Y-47075761D01*
X35937248Y-47075767D01*
X35952624Y-47143991D01*
X35985222Y-47288639D01*
X36017850Y-47368993D01*
X36062385Y-47478669D01*
X36069266Y-47495616D01*
X36071965Y-47500020D01*
X36164858Y-47651608D01*
X36185987Y-47686088D01*
X36332250Y-47854938D01*
X36504126Y-47997632D01*
X36697000Y-48110338D01*
X36905692Y-48190030D01*
X36910760Y-48191061D01*
X36910763Y-48191062D01*
X36979871Y-48205122D01*
X37124597Y-48234567D01*
X37129772Y-48234757D01*
X37129774Y-48234757D01*
X37342673Y-48242564D01*
X37342677Y-48242564D01*
X37347837Y-48242753D01*
X37487908Y-48224809D01*
X37558017Y-48235993D01*
X37593012Y-48260693D01*
X38231230Y-48898911D01*
X38243616Y-48913323D01*
X38252149Y-48924918D01*
X38252154Y-48924923D01*
X38256492Y-48930818D01*
X38262070Y-48935557D01*
X38262073Y-48935560D01*
X38296768Y-48965035D01*
X38304284Y-48971965D01*
X38309980Y-48977661D01*
X38312841Y-48979924D01*
X38312846Y-48979929D01*
X38332266Y-48995293D01*
X38335667Y-48998082D01*
X38391285Y-49045333D01*
X38397805Y-49048662D01*
X38402852Y-49052028D01*
X38407976Y-49055193D01*
X38413717Y-49059735D01*
X38420348Y-49062834D01*
X38420351Y-49062836D01*
X38479830Y-49090634D01*
X38483776Y-49092562D01*
X38548808Y-49125769D01*
X38555914Y-49127508D01*
X38561564Y-49129609D01*
X38567321Y-49131524D01*
X38573950Y-49134622D01*
X38645435Y-49149491D01*
X38649701Y-49150457D01*
X38720610Y-49167808D01*
X38726212Y-49168156D01*
X38726215Y-49168156D01*
X38731764Y-49168500D01*
X38731762Y-49168535D01*
X38735734Y-49168775D01*
X38739955Y-49169152D01*
X38747115Y-49170641D01*
X38824542Y-49168546D01*
X38827950Y-49168500D01*
X48593500Y-49168500D01*
X48661621Y-49188502D01*
X48708114Y-49242158D01*
X48719500Y-49294500D01*
X48719500Y-49397001D01*
X48702619Y-49460000D01*
X48643473Y-49562444D01*
X48584458Y-49744072D01*
X48564496Y-49934000D01*
X48565186Y-49940565D01*
X48575971Y-50043174D01*
X48584458Y-50123928D01*
X48643473Y-50305556D01*
X48738960Y-50470944D01*
X48743378Y-50475851D01*
X48743379Y-50475852D01*
X48840370Y-50583571D01*
X48866747Y-50612866D01*
X49021248Y-50725118D01*
X49027276Y-50727802D01*
X49027278Y-50727803D01*
X49107076Y-50763331D01*
X49195712Y-50802794D01*
X49284173Y-50821597D01*
X49376056Y-50841128D01*
X49376061Y-50841128D01*
X49382513Y-50842500D01*
X49573487Y-50842500D01*
X49579939Y-50841128D01*
X49579944Y-50841128D01*
X49671827Y-50821597D01*
X49760288Y-50802794D01*
X49934752Y-50725118D01*
X50005118Y-50715684D01*
X50037247Y-50725118D01*
X50037248Y-50725118D01*
X50211712Y-50802794D01*
X50300173Y-50821597D01*
X50392056Y-50841128D01*
X50392061Y-50841128D01*
X50398513Y-50842500D01*
X50589487Y-50842500D01*
X50595939Y-50841128D01*
X50595944Y-50841128D01*
X50687827Y-50821597D01*
X50776288Y-50802794D01*
X50864924Y-50763331D01*
X50944722Y-50727803D01*
X50944724Y-50727802D01*
X50950752Y-50725118D01*
X51105253Y-50612866D01*
X51131630Y-50583571D01*
X51228621Y-50475852D01*
X51228622Y-50475851D01*
X51233040Y-50470944D01*
X51328527Y-50305556D01*
X51387542Y-50123928D01*
X51396030Y-50043174D01*
X51406814Y-49940565D01*
X51407504Y-49934000D01*
X51387542Y-49744072D01*
X51328527Y-49562444D01*
X51269381Y-49460000D01*
X51252500Y-49397001D01*
X51252500Y-49247260D01*
X51272502Y-49179139D01*
X51326158Y-49132646D01*
X51396432Y-49122542D01*
X51461012Y-49152036D01*
X51485644Y-49180957D01*
X51522075Y-49239829D01*
X51522081Y-49239836D01*
X51525929Y-49246055D01*
X51645947Y-49365864D01*
X51790308Y-49454849D01*
X51797256Y-49457154D01*
X51797257Y-49457154D01*
X51944738Y-49506072D01*
X51944740Y-49506072D01*
X51951269Y-49508238D01*
X52051428Y-49518500D01*
X52585572Y-49518500D01*
X52588818Y-49518163D01*
X52588822Y-49518163D01*
X52622603Y-49514658D01*
X52686982Y-49507978D01*
X52847849Y-49454308D01*
X52992055Y-49365071D01*
X53111864Y-49245053D01*
X53200849Y-49100692D01*
X53205829Y-49085677D01*
X53252072Y-48946262D01*
X53252072Y-48946260D01*
X53254238Y-48939731D01*
X53264500Y-48839572D01*
X53264500Y-47980428D01*
X53253978Y-47879018D01*
X53231744Y-47812375D01*
X53229160Y-47741426D01*
X53265344Y-47680342D01*
X53328808Y-47648518D01*
X53351268Y-47646500D01*
X53523484Y-47646500D01*
X53525932Y-47646307D01*
X53525940Y-47646307D01*
X53560254Y-47643606D01*
X53560355Y-47644887D01*
X53624136Y-47651608D01*
X53679511Y-47696039D01*
X53701086Y-47751672D01*
X53710519Y-47823324D01*
X53708974Y-47823527D01*
X53708974Y-47868473D01*
X53710519Y-47868676D01*
X53697426Y-47968130D01*
X53695500Y-47982756D01*
X53695500Y-48209244D01*
X53710519Y-48323324D01*
X53713678Y-48330951D01*
X53713679Y-48330954D01*
X53734470Y-48381148D01*
X53769314Y-48465268D01*
X53862843Y-48587157D01*
X53869393Y-48592183D01*
X53869394Y-48592184D01*
X53886202Y-48605081D01*
X53984733Y-48680686D01*
X54126676Y-48739481D01*
X54169797Y-48745158D01*
X54236669Y-48753962D01*
X54236670Y-48753962D01*
X54240756Y-48754500D01*
X55717244Y-48754500D01*
X55721330Y-48753962D01*
X55721331Y-48753962D01*
X55788203Y-48745158D01*
X55831324Y-48739481D01*
X55838951Y-48736322D01*
X55838954Y-48736321D01*
X55902296Y-48710083D01*
X55973268Y-48680686D01*
X56095157Y-48587157D01*
X56100186Y-48580604D01*
X56183659Y-48471818D01*
X56188686Y-48465267D01*
X56247481Y-48323324D01*
X56262500Y-48209244D01*
X56262500Y-47982756D01*
X56260575Y-47968130D01*
X56247481Y-47868676D01*
X56249026Y-47868473D01*
X56249026Y-47823527D01*
X56247481Y-47823324D01*
X56261962Y-47713331D01*
X56261962Y-47713330D01*
X56262500Y-47709244D01*
X56262500Y-47482756D01*
X56258837Y-47454929D01*
X56247481Y-47368676D01*
X56249026Y-47368473D01*
X56249026Y-47323527D01*
X56247481Y-47323324D01*
X56261962Y-47213331D01*
X56261962Y-47213330D01*
X56262500Y-47209244D01*
X56262500Y-46982756D01*
X56249104Y-46881000D01*
X56247481Y-46868676D01*
X56249026Y-46868473D01*
X56249026Y-46823527D01*
X56247481Y-46823324D01*
X56261962Y-46713331D01*
X56261962Y-46713330D01*
X56262500Y-46709244D01*
X56262500Y-46482756D01*
X56252344Y-46405610D01*
X56247481Y-46368676D01*
X56248766Y-46368507D01*
X56248765Y-46323427D01*
X56246994Y-46323194D01*
X56254792Y-46263960D01*
X56252581Y-46249778D01*
X56233216Y-46244217D01*
X56173263Y-46206189D01*
X56168033Y-46199816D01*
X56147229Y-46172704D01*
X56121628Y-46106484D01*
X56135892Y-46036935D01*
X56147229Y-46019295D01*
X56168103Y-45992092D01*
X56225442Y-45950225D01*
X56232567Y-45947901D01*
X56252813Y-45941956D01*
X56254842Y-45928417D01*
X56246994Y-45868806D01*
X56248765Y-45868573D01*
X56248766Y-45823493D01*
X56247481Y-45823324D01*
X56261962Y-45713331D01*
X56261962Y-45713330D01*
X56262500Y-45709244D01*
X56262500Y-45482756D01*
X56247481Y-45368676D01*
X56249026Y-45368473D01*
X56249026Y-45323527D01*
X56247481Y-45323324D01*
X56261962Y-45213331D01*
X56261962Y-45213330D01*
X56262500Y-45209244D01*
X56262500Y-44982756D01*
X56247481Y-44868676D01*
X56249026Y-44868473D01*
X56249026Y-44823527D01*
X56247481Y-44823324D01*
X56261962Y-44713331D01*
X56261962Y-44713330D01*
X56262500Y-44709244D01*
X56262500Y-44482756D01*
X56261962Y-44478669D01*
X56251203Y-44396946D01*
X56262142Y-44326797D01*
X56309271Y-44273699D01*
X56376125Y-44254500D01*
X56688292Y-44254500D01*
X56756413Y-44274502D01*
X56762353Y-44278564D01*
X56886102Y-44368473D01*
X56895248Y-44375118D01*
X56901276Y-44377802D01*
X56901278Y-44377803D01*
X57006656Y-44424720D01*
X57069712Y-44452794D01*
X57163112Y-44472647D01*
X57250056Y-44491128D01*
X57250061Y-44491128D01*
X57256513Y-44492500D01*
X57447487Y-44492500D01*
X57453939Y-44491128D01*
X57453944Y-44491128D01*
X57540888Y-44472647D01*
X57634288Y-44452794D01*
X57697344Y-44424720D01*
X57802722Y-44377803D01*
X57802724Y-44377802D01*
X57808752Y-44375118D01*
X57963253Y-44262866D01*
X58006496Y-44214840D01*
X58086621Y-44125852D01*
X58086622Y-44125851D01*
X58091040Y-44120944D01*
X58186527Y-43955556D01*
X58245542Y-43773928D01*
X58252341Y-43709244D01*
X58264814Y-43590565D01*
X58265504Y-43584000D01*
X58256970Y-43502800D01*
X58246232Y-43400635D01*
X58246232Y-43400633D01*
X58245542Y-43394072D01*
X58186527Y-43212444D01*
X58091040Y-43047056D01*
X58057877Y-43010224D01*
X57967675Y-42910045D01*
X57967674Y-42910044D01*
X57963253Y-42905134D01*
X57808752Y-42792882D01*
X57802724Y-42790198D01*
X57802722Y-42790197D01*
X57640319Y-42717891D01*
X57640318Y-42717891D01*
X57634288Y-42715206D01*
X57540887Y-42695353D01*
X57453944Y-42676872D01*
X57453939Y-42676872D01*
X57447487Y-42675500D01*
X57256513Y-42675500D01*
X57250061Y-42676872D01*
X57250056Y-42676872D01*
X57163113Y-42695353D01*
X57069712Y-42715206D01*
X57063682Y-42717891D01*
X57063681Y-42717891D01*
X56901278Y-42790197D01*
X56901276Y-42790198D01*
X56895248Y-42792882D01*
X56740747Y-42905134D01*
X56739961Y-42906007D01*
X56677771Y-42935853D01*
X56657466Y-42937500D01*
X56376125Y-42937500D01*
X56308004Y-42917498D01*
X56261511Y-42863842D01*
X56251203Y-42795054D01*
X56261962Y-42713331D01*
X56261962Y-42713330D01*
X56262500Y-42709244D01*
X56262500Y-42482756D01*
X56247481Y-42368676D01*
X56249026Y-42368473D01*
X56249026Y-42323527D01*
X56247481Y-42323324D01*
X56261962Y-42213331D01*
X56261962Y-42213330D01*
X56262500Y-42209244D01*
X56262500Y-41982756D01*
X56247481Y-41868676D01*
X56249026Y-41868473D01*
X56249026Y-41823527D01*
X56247481Y-41823324D01*
X56261962Y-41713331D01*
X56261962Y-41713330D01*
X56262500Y-41709244D01*
X56262500Y-41482756D01*
X56247481Y-41368676D01*
X56249026Y-41368473D01*
X56249026Y-41323527D01*
X56247481Y-41323324D01*
X56261962Y-41213331D01*
X56261962Y-41213330D01*
X56262500Y-41209244D01*
X56262500Y-40982756D01*
X56247481Y-40868676D01*
X56249026Y-40868473D01*
X56249026Y-40823527D01*
X56247481Y-40823324D01*
X56261962Y-40713331D01*
X56261962Y-40713330D01*
X56262500Y-40709244D01*
X56262500Y-40482756D01*
X56247481Y-40368676D01*
X56237521Y-40344629D01*
X56211579Y-40282000D01*
X56188686Y-40226732D01*
X56095157Y-40104843D01*
X56088605Y-40099815D01*
X56018802Y-40046254D01*
X55973267Y-40011314D01*
X55831324Y-39952519D01*
X55747053Y-39941424D01*
X55682127Y-39912703D01*
X55643035Y-39853438D01*
X55637500Y-39816503D01*
X55637500Y-39388500D01*
X55657502Y-39320379D01*
X55711158Y-39273886D01*
X55763500Y-39262500D01*
X56119500Y-39262500D01*
X56187621Y-39282502D01*
X56234114Y-39336158D01*
X56245500Y-39388500D01*
X56245500Y-39409244D01*
X56260519Y-39523324D01*
X56263678Y-39530951D01*
X56263679Y-39530954D01*
X56283081Y-39577794D01*
X56319314Y-39665268D01*
X56412843Y-39787157D01*
X56419393Y-39792183D01*
X56419394Y-39792184D01*
X56447341Y-39813628D01*
X56534733Y-39880686D01*
X56676676Y-39939481D01*
X56732208Y-39946792D01*
X56786669Y-39953962D01*
X56786670Y-39953962D01*
X56790756Y-39954500D01*
X57017244Y-39954500D01*
X57021330Y-39953962D01*
X57021331Y-39953962D01*
X57131324Y-39939481D01*
X57131493Y-39940766D01*
X57176573Y-39940765D01*
X57176806Y-39938994D01*
X57236040Y-39946792D01*
X57250222Y-39944581D01*
X57255783Y-39925216D01*
X57293811Y-39865263D01*
X57300184Y-39860033D01*
X57327296Y-39839229D01*
X57393516Y-39813628D01*
X57463065Y-39827892D01*
X57480705Y-39839229D01*
X57507908Y-39860103D01*
X57549775Y-39917442D01*
X57552099Y-39924567D01*
X57558044Y-39944813D01*
X57571583Y-39946842D01*
X57631194Y-39938994D01*
X57631427Y-39940765D01*
X57676507Y-39940766D01*
X57676676Y-39939481D01*
X57786669Y-39953962D01*
X57786670Y-39953962D01*
X57790756Y-39954500D01*
X58017244Y-39954500D01*
X58021330Y-39953962D01*
X58021331Y-39953962D01*
X58131324Y-39939481D01*
X58131527Y-39941026D01*
X58176473Y-39941026D01*
X58176676Y-39939481D01*
X58286669Y-39953962D01*
X58286670Y-39953962D01*
X58290756Y-39954500D01*
X58517244Y-39954500D01*
X58521330Y-39953962D01*
X58521331Y-39953962D01*
X58631324Y-39939481D01*
X58631527Y-39941026D01*
X58676473Y-39941026D01*
X58676676Y-39939481D01*
X58786669Y-39953962D01*
X58786670Y-39953962D01*
X58790756Y-39954500D01*
X59017244Y-39954500D01*
X59021330Y-39953962D01*
X59021331Y-39953962D01*
X59131324Y-39939481D01*
X59131527Y-39941026D01*
X59176473Y-39941026D01*
X59176676Y-39939481D01*
X59286669Y-39953962D01*
X59286670Y-39953962D01*
X59290756Y-39954500D01*
X59517244Y-39954500D01*
X59521330Y-39953962D01*
X59521331Y-39953962D01*
X59631324Y-39939481D01*
X59631527Y-39941026D01*
X59676473Y-39941026D01*
X59676676Y-39939481D01*
X59786669Y-39953962D01*
X59786670Y-39953962D01*
X59790756Y-39954500D01*
X60017244Y-39954500D01*
X60021330Y-39953962D01*
X60021331Y-39953962D01*
X60131324Y-39939481D01*
X60131527Y-39941026D01*
X60176473Y-39941026D01*
X60176676Y-39939481D01*
X60286669Y-39953962D01*
X60286670Y-39953962D01*
X60290756Y-39954500D01*
X60517244Y-39954500D01*
X60521330Y-39953962D01*
X60521331Y-39953962D01*
X60631324Y-39939481D01*
X60631527Y-39941026D01*
X60676473Y-39941026D01*
X60676676Y-39939481D01*
X60786669Y-39953962D01*
X60786670Y-39953962D01*
X60790756Y-39954500D01*
X61017244Y-39954500D01*
X61021330Y-39953962D01*
X61021331Y-39953962D01*
X61131324Y-39939481D01*
X61131527Y-39941026D01*
X61176473Y-39941026D01*
X61176676Y-39939481D01*
X61286669Y-39953962D01*
X61286670Y-39953962D01*
X61290756Y-39954500D01*
X61517244Y-39954500D01*
X61521330Y-39953962D01*
X61521331Y-39953962D01*
X61631324Y-39939481D01*
X61631527Y-39941026D01*
X61676473Y-39941026D01*
X61676676Y-39939481D01*
X61786669Y-39953962D01*
X61786670Y-39953962D01*
X61790756Y-39954500D01*
X62017244Y-39954500D01*
X62021330Y-39953962D01*
X62021331Y-39953962D01*
X62131324Y-39939481D01*
X62131527Y-39941026D01*
X62176473Y-39941026D01*
X62176676Y-39939481D01*
X62286669Y-39953962D01*
X62286670Y-39953962D01*
X62290756Y-39954500D01*
X62517244Y-39954500D01*
X62521330Y-39953962D01*
X62521331Y-39953962D01*
X62631324Y-39939481D01*
X62631527Y-39941026D01*
X62676473Y-39941026D01*
X62676676Y-39939481D01*
X62786669Y-39953962D01*
X62786670Y-39953962D01*
X62790756Y-39954500D01*
X63017244Y-39954500D01*
X63021330Y-39953962D01*
X63021331Y-39953962D01*
X63131324Y-39939481D01*
X63131527Y-39941026D01*
X63176473Y-39941026D01*
X63176676Y-39939481D01*
X63286669Y-39953962D01*
X63286670Y-39953962D01*
X63290756Y-39954500D01*
X63517244Y-39954500D01*
X63521330Y-39953962D01*
X63521331Y-39953962D01*
X63631324Y-39939481D01*
X63631527Y-39941026D01*
X63676473Y-39941026D01*
X63676676Y-39939481D01*
X63786669Y-39953962D01*
X63786670Y-39953962D01*
X63790756Y-39954500D01*
X64017244Y-39954500D01*
X64021330Y-39953962D01*
X64021331Y-39953962D01*
X64131324Y-39939481D01*
X64131527Y-39941026D01*
X64176473Y-39941026D01*
X64176676Y-39939481D01*
X64286669Y-39953962D01*
X64286670Y-39953962D01*
X64290756Y-39954500D01*
X64517244Y-39954500D01*
X64521330Y-39953962D01*
X64521331Y-39953962D01*
X64575792Y-39946792D01*
X64631324Y-39939481D01*
X64638951Y-39936322D01*
X64638954Y-39936321D01*
X64719518Y-39902950D01*
X64773268Y-39880686D01*
X64895157Y-39787157D01*
X64900186Y-39780604D01*
X64983659Y-39671818D01*
X64988686Y-39665267D01*
X65047481Y-39523324D01*
X65062500Y-39409244D01*
X65062500Y-37364950D01*
X65082502Y-37296829D01*
X65099405Y-37275855D01*
X65715855Y-36659405D01*
X65778167Y-36625379D01*
X65804950Y-36622500D01*
X70743050Y-36622500D01*
X70811171Y-36642502D01*
X70832145Y-36659405D01*
X74895145Y-40722405D01*
X74929171Y-40784717D01*
X74924106Y-40855532D01*
X74881559Y-40912368D01*
X74815039Y-40937179D01*
X74806050Y-40937500D01*
X70895000Y-40937500D01*
X70826879Y-40917498D01*
X70780386Y-40863842D01*
X70769000Y-40811500D01*
X70769000Y-40808115D01*
X70764525Y-40792876D01*
X70763135Y-40791671D01*
X70755452Y-40790000D01*
X69683000Y-40790000D01*
X69614879Y-40769998D01*
X69568386Y-40716342D01*
X69557000Y-40664000D01*
X69557000Y-40263885D01*
X70065000Y-40263885D01*
X70069475Y-40279124D01*
X70070865Y-40280329D01*
X70078548Y-40282000D01*
X70750885Y-40282000D01*
X70766124Y-40277525D01*
X70767329Y-40276135D01*
X70769000Y-40268452D01*
X70769000Y-40240562D01*
X70768663Y-40234047D01*
X70759106Y-40141943D01*
X70756212Y-40128544D01*
X70706619Y-39979893D01*
X70700445Y-39966714D01*
X70618212Y-39833827D01*
X70609176Y-39822426D01*
X70498571Y-39712014D01*
X70487160Y-39703002D01*
X70354120Y-39620996D01*
X70340939Y-39614849D01*
X70192186Y-39565509D01*
X70178810Y-39562642D01*
X70087903Y-39553328D01*
X70082874Y-39553071D01*
X70067876Y-39557475D01*
X70066671Y-39558865D01*
X70065000Y-39566548D01*
X70065000Y-40263885D01*
X69557000Y-40263885D01*
X69557000Y-39571115D01*
X69552525Y-39555876D01*
X69551135Y-39554671D01*
X69543452Y-39553000D01*
X69540562Y-39553000D01*
X69534047Y-39553337D01*
X69441943Y-39562894D01*
X69428544Y-39565788D01*
X69279893Y-39615381D01*
X69266714Y-39621555D01*
X69133827Y-39703788D01*
X69116689Y-39717371D01*
X69115159Y-39715441D01*
X69063120Y-39743903D01*
X68992301Y-39738887D01*
X68955383Y-39715201D01*
X68954628Y-39716157D01*
X68948882Y-39711619D01*
X68943702Y-39706448D01*
X68876896Y-39665268D01*
X68804331Y-39620538D01*
X68804329Y-39620537D01*
X68798101Y-39616698D01*
X68635757Y-39562851D01*
X68628920Y-39562151D01*
X68628918Y-39562150D01*
X68587599Y-39557917D01*
X68534732Y-39552500D01*
X68105828Y-39552500D01*
X68037707Y-39532498D01*
X67991214Y-39478842D01*
X67985995Y-39465437D01*
X67967568Y-39408725D01*
X67967567Y-39408724D01*
X67965527Y-39402444D01*
X67870040Y-39237056D01*
X67848122Y-39212713D01*
X67746675Y-39100045D01*
X67746674Y-39100044D01*
X67742253Y-39095134D01*
X67587752Y-38982882D01*
X67581724Y-38980198D01*
X67581722Y-38980197D01*
X67419319Y-38907891D01*
X67419318Y-38907891D01*
X67413288Y-38905206D01*
X67319887Y-38885353D01*
X67232944Y-38866872D01*
X67232939Y-38866872D01*
X67226487Y-38865500D01*
X67035513Y-38865500D01*
X67029061Y-38866872D01*
X67029056Y-38866872D01*
X66890340Y-38896358D01*
X66848712Y-38905206D01*
X66842679Y-38907892D01*
X66842676Y-38907893D01*
X66801248Y-38926338D01*
X66730881Y-38935772D01*
X66698752Y-38926338D01*
X66657324Y-38907893D01*
X66657321Y-38907892D01*
X66651288Y-38905206D01*
X66609660Y-38896358D01*
X66470944Y-38866872D01*
X66470939Y-38866872D01*
X66464487Y-38865500D01*
X66273513Y-38865500D01*
X66267061Y-38866872D01*
X66267056Y-38866872D01*
X66180113Y-38885353D01*
X66086712Y-38905206D01*
X66080682Y-38907891D01*
X66080681Y-38907891D01*
X65918278Y-38980197D01*
X65918276Y-38980198D01*
X65912248Y-38982882D01*
X65757747Y-39095134D01*
X65753326Y-39100044D01*
X65753325Y-39100045D01*
X65651879Y-39212713D01*
X65629960Y-39237056D01*
X65626659Y-39242774D01*
X65542524Y-39388500D01*
X65534473Y-39402444D01*
X65475458Y-39584072D01*
X65474768Y-39590633D01*
X65474768Y-39590635D01*
X65472365Y-39613500D01*
X65455496Y-39774000D01*
X65462496Y-39840595D01*
X65464525Y-39859904D01*
X65451753Y-39929743D01*
X65403251Y-39981589D01*
X65387434Y-39989483D01*
X65342366Y-40008151D01*
X65342361Y-40008154D01*
X65334732Y-40011314D01*
X65212843Y-40104843D01*
X65207817Y-40111393D01*
X65207816Y-40111394D01*
X65189717Y-40134981D01*
X65119314Y-40226733D01*
X65060519Y-40368676D01*
X65045500Y-40482756D01*
X65045500Y-40709244D01*
X65046038Y-40713330D01*
X65046038Y-40713331D01*
X65060519Y-40823324D01*
X65058974Y-40823527D01*
X65058974Y-40868473D01*
X65060519Y-40868676D01*
X65045500Y-40982756D01*
X65045500Y-41209244D01*
X65046038Y-41213330D01*
X65046038Y-41213331D01*
X65060519Y-41323324D01*
X65058974Y-41323527D01*
X65058974Y-41368473D01*
X65060519Y-41368676D01*
X65045500Y-41482756D01*
X65045500Y-41709244D01*
X65046038Y-41713330D01*
X65046038Y-41713331D01*
X65060519Y-41823324D01*
X65058974Y-41823527D01*
X65058974Y-41868473D01*
X65060519Y-41868676D01*
X65045500Y-41982756D01*
X65045500Y-42209244D01*
X65046038Y-42213330D01*
X65046038Y-42213331D01*
X65060519Y-42323324D01*
X65058974Y-42323527D01*
X65058974Y-42368473D01*
X65060519Y-42368676D01*
X65045500Y-42482756D01*
X65045500Y-42709244D01*
X65046038Y-42713330D01*
X65046038Y-42713331D01*
X65060519Y-42823324D01*
X65058974Y-42823527D01*
X65058974Y-42868473D01*
X65060519Y-42868676D01*
X65045500Y-42982756D01*
X65045500Y-43209244D01*
X65046038Y-43213330D01*
X65046038Y-43213331D01*
X65060519Y-43323324D01*
X65058974Y-43323527D01*
X65058974Y-43368473D01*
X65060519Y-43368676D01*
X65045500Y-43482756D01*
X65045500Y-43709244D01*
X65046038Y-43713330D01*
X65046038Y-43713331D01*
X65060519Y-43823324D01*
X65058974Y-43823527D01*
X65058974Y-43868473D01*
X65060519Y-43868676D01*
X65048328Y-43961279D01*
X65045500Y-43982756D01*
X65045500Y-44209244D01*
X65046038Y-44213330D01*
X65046038Y-44213331D01*
X65060519Y-44323324D01*
X65058974Y-44323527D01*
X65058974Y-44368473D01*
X65060519Y-44368676D01*
X65046085Y-44478316D01*
X65045500Y-44482756D01*
X65045500Y-44709244D01*
X65046038Y-44713330D01*
X65046038Y-44713331D01*
X65060519Y-44823324D01*
X65058974Y-44823527D01*
X65058974Y-44868473D01*
X65060519Y-44868676D01*
X65045500Y-44982756D01*
X65045500Y-45209244D01*
X65046038Y-45213330D01*
X65046038Y-45213331D01*
X65060519Y-45323324D01*
X65058974Y-45323527D01*
X65058974Y-45368473D01*
X65060519Y-45368676D01*
X65045500Y-45482756D01*
X65045500Y-45709244D01*
X65046038Y-45713330D01*
X65046038Y-45713331D01*
X65060519Y-45823324D01*
X65058974Y-45823527D01*
X65058974Y-45868473D01*
X65060519Y-45868676D01*
X65052016Y-45933266D01*
X65045500Y-45982756D01*
X65045500Y-46209244D01*
X65046038Y-46213330D01*
X65046038Y-46213331D01*
X65060519Y-46323324D01*
X65058974Y-46323527D01*
X65058974Y-46368473D01*
X65060519Y-46368676D01*
X65055657Y-46405610D01*
X65045500Y-46482756D01*
X65045500Y-46709244D01*
X65046038Y-46713330D01*
X65046038Y-46713331D01*
X65060519Y-46823324D01*
X65058974Y-46823527D01*
X65058974Y-46868473D01*
X65060519Y-46868676D01*
X65058897Y-46881000D01*
X65045500Y-46982756D01*
X65045500Y-47209244D01*
X65046038Y-47213330D01*
X65046038Y-47213331D01*
X65060519Y-47323324D01*
X65058974Y-47323527D01*
X65058974Y-47368473D01*
X65060519Y-47368676D01*
X65049164Y-47454929D01*
X65045500Y-47482756D01*
X65045500Y-47709244D01*
X65046038Y-47713330D01*
X65046038Y-47713331D01*
X65060519Y-47823324D01*
X65058974Y-47823527D01*
X65058974Y-47868473D01*
X65060519Y-47868676D01*
X65047426Y-47968130D01*
X65045500Y-47982756D01*
X65045500Y-48209244D01*
X65060519Y-48323324D01*
X65063678Y-48330951D01*
X65063679Y-48330954D01*
X65084470Y-48381148D01*
X65119314Y-48465268D01*
X65212843Y-48587157D01*
X65219393Y-48592183D01*
X65219394Y-48592184D01*
X65236202Y-48605081D01*
X65334733Y-48680686D01*
X65476676Y-48739481D01*
X65519797Y-48745158D01*
X65586669Y-48753962D01*
X65586670Y-48753962D01*
X65590756Y-48754500D01*
X65743408Y-48754500D01*
X65811529Y-48774502D01*
X65858022Y-48828158D01*
X65868126Y-48898432D01*
X65852527Y-48943499D01*
X65831494Y-48979929D01*
X65804473Y-49026732D01*
X65788473Y-49054444D01*
X65729458Y-49236072D01*
X65728768Y-49242633D01*
X65728768Y-49242635D01*
X65725218Y-49276415D01*
X65698205Y-49342072D01*
X65639984Y-49382702D01*
X65567482Y-49384185D01*
X65566176Y-49383620D01*
X65520552Y-49376394D01*
X65508929Y-49373987D01*
X65474201Y-49365071D01*
X65464188Y-49362500D01*
X65442741Y-49362500D01*
X65423031Y-49360949D01*
X65421415Y-49360693D01*
X65401848Y-49357594D01*
X65355859Y-49361941D01*
X65344004Y-49362500D01*
X65183497Y-49362500D01*
X65115376Y-49342498D01*
X65068883Y-49288842D01*
X65058575Y-49252946D01*
X65058349Y-49251224D01*
X65047481Y-49168676D01*
X65043924Y-49160087D01*
X65013102Y-49085677D01*
X64988686Y-49026732D01*
X64895157Y-48904843D01*
X64888605Y-48899815D01*
X64805900Y-48836354D01*
X64773267Y-48811314D01*
X64631324Y-48752519D01*
X64560153Y-48743149D01*
X64521331Y-48738038D01*
X64521330Y-48738038D01*
X64517244Y-48737500D01*
X64290756Y-48737500D01*
X64286670Y-48738038D01*
X64286669Y-48738038D01*
X64176676Y-48752519D01*
X64176473Y-48750974D01*
X64131527Y-48750974D01*
X64131324Y-48752519D01*
X64021331Y-48738038D01*
X64021330Y-48738038D01*
X64017244Y-48737500D01*
X63790756Y-48737500D01*
X63786670Y-48738038D01*
X63786669Y-48738038D01*
X63676676Y-48752519D01*
X63676473Y-48750974D01*
X63631527Y-48750974D01*
X63631324Y-48752519D01*
X63521331Y-48738038D01*
X63521330Y-48738038D01*
X63517244Y-48737500D01*
X63290756Y-48737500D01*
X63286670Y-48738038D01*
X63286669Y-48738038D01*
X63176676Y-48752519D01*
X63176473Y-48750974D01*
X63131527Y-48750974D01*
X63131324Y-48752519D01*
X63021331Y-48738038D01*
X63021330Y-48738038D01*
X63017244Y-48737500D01*
X62790756Y-48737500D01*
X62786670Y-48738038D01*
X62786669Y-48738038D01*
X62676676Y-48752519D01*
X62676473Y-48750974D01*
X62631527Y-48750974D01*
X62631324Y-48752519D01*
X62521331Y-48738038D01*
X62521330Y-48738038D01*
X62517244Y-48737500D01*
X62290756Y-48737500D01*
X62286670Y-48738038D01*
X62286669Y-48738038D01*
X62176676Y-48752519D01*
X62176473Y-48750974D01*
X62131527Y-48750974D01*
X62131324Y-48752519D01*
X62021331Y-48738038D01*
X62021330Y-48738038D01*
X62017244Y-48737500D01*
X61790756Y-48737500D01*
X61786670Y-48738038D01*
X61786669Y-48738038D01*
X61676676Y-48752519D01*
X61676473Y-48750974D01*
X61631527Y-48750974D01*
X61631324Y-48752519D01*
X61521331Y-48738038D01*
X61521330Y-48738038D01*
X61517244Y-48737500D01*
X61290756Y-48737500D01*
X61286670Y-48738038D01*
X61286669Y-48738038D01*
X61176676Y-48752519D01*
X61176473Y-48750974D01*
X61131527Y-48750974D01*
X61131324Y-48752519D01*
X61021331Y-48738038D01*
X61021330Y-48738038D01*
X61017244Y-48737500D01*
X60790756Y-48737500D01*
X60786670Y-48738038D01*
X60786669Y-48738038D01*
X60676676Y-48752519D01*
X60676473Y-48750974D01*
X60631527Y-48750974D01*
X60631324Y-48752519D01*
X60521331Y-48738038D01*
X60521330Y-48738038D01*
X60517244Y-48737500D01*
X60290756Y-48737500D01*
X60286670Y-48738038D01*
X60286669Y-48738038D01*
X60176676Y-48752519D01*
X60176473Y-48750974D01*
X60131527Y-48750974D01*
X60131324Y-48752519D01*
X60021331Y-48738038D01*
X60021330Y-48738038D01*
X60017244Y-48737500D01*
X59790756Y-48737500D01*
X59786670Y-48738038D01*
X59786669Y-48738038D01*
X59676676Y-48752519D01*
X59676473Y-48750974D01*
X59631527Y-48750974D01*
X59631324Y-48752519D01*
X59521331Y-48738038D01*
X59521330Y-48738038D01*
X59517244Y-48737500D01*
X59290756Y-48737500D01*
X59286670Y-48738038D01*
X59286669Y-48738038D01*
X59176676Y-48752519D01*
X59176473Y-48750974D01*
X59131527Y-48750974D01*
X59131324Y-48752519D01*
X59021331Y-48738038D01*
X59021330Y-48738038D01*
X59017244Y-48737500D01*
X58790756Y-48737500D01*
X58786670Y-48738038D01*
X58786669Y-48738038D01*
X58676676Y-48752519D01*
X58676473Y-48750974D01*
X58631527Y-48750974D01*
X58631324Y-48752519D01*
X58521331Y-48738038D01*
X58521330Y-48738038D01*
X58517244Y-48737500D01*
X58290756Y-48737500D01*
X58286670Y-48738038D01*
X58286669Y-48738038D01*
X58176676Y-48752519D01*
X58176473Y-48750974D01*
X58131527Y-48750974D01*
X58131324Y-48752519D01*
X58021331Y-48738038D01*
X58021330Y-48738038D01*
X58017244Y-48737500D01*
X57790756Y-48737500D01*
X57786670Y-48738038D01*
X57786669Y-48738038D01*
X57676676Y-48752519D01*
X57676507Y-48751234D01*
X57631427Y-48751235D01*
X57631194Y-48753006D01*
X57571960Y-48745208D01*
X57557778Y-48747419D01*
X57552217Y-48766784D01*
X57514189Y-48826737D01*
X57507816Y-48831967D01*
X57480704Y-48852771D01*
X57414484Y-48878372D01*
X57344935Y-48864108D01*
X57327295Y-48852771D01*
X57300092Y-48831897D01*
X57258225Y-48774558D01*
X57255901Y-48767433D01*
X57249956Y-48747187D01*
X57236417Y-48745158D01*
X57176806Y-48753006D01*
X57176573Y-48751235D01*
X57131493Y-48751234D01*
X57131324Y-48752519D01*
X57021331Y-48738038D01*
X57021330Y-48738038D01*
X57017244Y-48737500D01*
X56790756Y-48737500D01*
X56786670Y-48738038D01*
X56786669Y-48738038D01*
X56747847Y-48743149D01*
X56676676Y-48752519D01*
X56669049Y-48755678D01*
X56669046Y-48755679D01*
X56642237Y-48766784D01*
X56534732Y-48811314D01*
X56412843Y-48904843D01*
X56407817Y-48911393D01*
X56407816Y-48911394D01*
X56381061Y-48946262D01*
X56319314Y-49026733D01*
X56260519Y-49168676D01*
X56245500Y-49282756D01*
X56245500Y-50759244D01*
X56260519Y-50873324D01*
X56263678Y-50880951D01*
X56263679Y-50880954D01*
X56270662Y-50897812D01*
X56319314Y-51015268D01*
X56412843Y-51137157D01*
X56419393Y-51142183D01*
X56419394Y-51142184D01*
X56445081Y-51161894D01*
X56534733Y-51230686D01*
X56676676Y-51289481D01*
X56729155Y-51296390D01*
X56786669Y-51303962D01*
X56786670Y-51303962D01*
X56790756Y-51304500D01*
X57017244Y-51304500D01*
X57021330Y-51303962D01*
X57021331Y-51303962D01*
X57103054Y-51293203D01*
X57173203Y-51304142D01*
X57226301Y-51351271D01*
X57245500Y-51418125D01*
X57245500Y-51785236D01*
X57225498Y-51853357D01*
X57171842Y-51899850D01*
X57129388Y-51910847D01*
X57116165Y-51911888D01*
X57116157Y-51911889D01*
X57109746Y-51912394D01*
X57033856Y-51934442D01*
X56960016Y-51955894D01*
X56960014Y-51955895D01*
X56952403Y-51958106D01*
X56945576Y-51962143D01*
X56945577Y-51962143D01*
X56935647Y-51968015D01*
X56866830Y-51985474D01*
X56807372Y-51968016D01*
X56798222Y-51962605D01*
X56783784Y-51956357D01*
X56663395Y-51921381D01*
X56649295Y-51921421D01*
X56646000Y-51928691D01*
X56646000Y-52206621D01*
X56628454Y-52270760D01*
X56617568Y-52289168D01*
X56612106Y-52298403D01*
X56566394Y-52455746D01*
X56565890Y-52462151D01*
X56565889Y-52462156D01*
X56565191Y-52471031D01*
X56563500Y-52492516D01*
X56563500Y-52963484D01*
X56563693Y-52965932D01*
X56563693Y-52965940D01*
X56565184Y-52984876D01*
X56566394Y-53000254D01*
X56568187Y-53006426D01*
X56568188Y-53006431D01*
X56588497Y-53076333D01*
X56593500Y-53111486D01*
X56593500Y-53360514D01*
X56588497Y-53395667D01*
X56568188Y-53465569D01*
X56568187Y-53465574D01*
X56566394Y-53471746D01*
X56565890Y-53478151D01*
X56565889Y-53478156D01*
X56565191Y-53487031D01*
X56563500Y-53508516D01*
X56563500Y-53979484D01*
X56563693Y-53981932D01*
X56563693Y-53981940D01*
X56565184Y-54000876D01*
X56566394Y-54016254D01*
X56568187Y-54022426D01*
X56568188Y-54022431D01*
X56588497Y-54092333D01*
X56593500Y-54127486D01*
X56593500Y-54223001D01*
X56576619Y-54286000D01*
X56517473Y-54388444D01*
X56458458Y-54570072D01*
X56438496Y-54760000D01*
X56458458Y-54949928D01*
X56460498Y-54956206D01*
X56507890Y-55102064D01*
X56509918Y-55173031D01*
X56507890Y-55179936D01*
X56458458Y-55332072D01*
X56438496Y-55522000D01*
X56458458Y-55711928D01*
X56517473Y-55893556D01*
X56612960Y-56058944D01*
X56740747Y-56200866D01*
X56895248Y-56313118D01*
X56901276Y-56315802D01*
X56901278Y-56315803D01*
X57063681Y-56388109D01*
X57069712Y-56390794D01*
X57136113Y-56404908D01*
X57250056Y-56429128D01*
X57250061Y-56429128D01*
X57256513Y-56430500D01*
X57447487Y-56430500D01*
X57453939Y-56429128D01*
X57453944Y-56429128D01*
X57593303Y-56399506D01*
X57664094Y-56404908D01*
X57720727Y-56447725D01*
X57745220Y-56514363D01*
X57745500Y-56522753D01*
X57745500Y-65975500D01*
X57725498Y-66043621D01*
X57671842Y-66090114D01*
X57619500Y-66101500D01*
X57479866Y-66101500D01*
X57417684Y-66108255D01*
X57281295Y-66159385D01*
X57164739Y-66246739D01*
X57077385Y-66363295D01*
X57026255Y-66499684D01*
X57019500Y-66561866D01*
X57019500Y-68358134D01*
X57026255Y-68420316D01*
X57077385Y-68556705D01*
X57164739Y-68673261D01*
X57281295Y-68760615D01*
X57417684Y-68811745D01*
X57479866Y-68818500D01*
X59276134Y-68818500D01*
X59338316Y-68811745D01*
X59474705Y-68760615D01*
X59591261Y-68673261D01*
X59678615Y-68556705D01*
X59683346Y-68544086D01*
X59722598Y-68439382D01*
X59765240Y-68382618D01*
X59831802Y-68357918D01*
X59901150Y-68373126D01*
X59935817Y-68401114D01*
X59964250Y-68433938D01*
X60136126Y-68576632D01*
X60329000Y-68689338D01*
X60537692Y-68769030D01*
X60542760Y-68770061D01*
X60542763Y-68770062D01*
X60650017Y-68791883D01*
X60756597Y-68813567D01*
X60761772Y-68813757D01*
X60761774Y-68813757D01*
X60974673Y-68821564D01*
X60974677Y-68821564D01*
X60979837Y-68821753D01*
X60984957Y-68821097D01*
X60984959Y-68821097D01*
X61196288Y-68794025D01*
X61196289Y-68794025D01*
X61201416Y-68793368D01*
X61206366Y-68791883D01*
X61410429Y-68730661D01*
X61410434Y-68730659D01*
X61415384Y-68729174D01*
X61615994Y-68630896D01*
X61797860Y-68501173D01*
X61956096Y-68343489D01*
X61965489Y-68330418D01*
X62086453Y-68162077D01*
X62087776Y-68163028D01*
X62134645Y-68119857D01*
X62204580Y-68107625D01*
X62270026Y-68135144D01*
X62297875Y-68166994D01*
X62357987Y-68265088D01*
X62504250Y-68433938D01*
X62676126Y-68576632D01*
X62869000Y-68689338D01*
X63077692Y-68769030D01*
X63082760Y-68770061D01*
X63082763Y-68770062D01*
X63190017Y-68791883D01*
X63296597Y-68813567D01*
X63301772Y-68813757D01*
X63301774Y-68813757D01*
X63514673Y-68821564D01*
X63514677Y-68821564D01*
X63519837Y-68821753D01*
X63524957Y-68821097D01*
X63524959Y-68821097D01*
X63736288Y-68794025D01*
X63736289Y-68794025D01*
X63741416Y-68793368D01*
X63746366Y-68791883D01*
X63950429Y-68730661D01*
X63950434Y-68730659D01*
X63955384Y-68729174D01*
X64155994Y-68630896D01*
X64337860Y-68501173D01*
X64496096Y-68343489D01*
X64505489Y-68330418D01*
X64626453Y-68162077D01*
X64627776Y-68163028D01*
X64674645Y-68119857D01*
X64744580Y-68107625D01*
X64810026Y-68135144D01*
X64837875Y-68166994D01*
X64897987Y-68265088D01*
X65044250Y-68433938D01*
X65216126Y-68576632D01*
X65409000Y-68689338D01*
X65617692Y-68769030D01*
X65622760Y-68770061D01*
X65622763Y-68770062D01*
X65730017Y-68791883D01*
X65836597Y-68813567D01*
X65841772Y-68813757D01*
X65841774Y-68813757D01*
X66054673Y-68821564D01*
X66054677Y-68821564D01*
X66059837Y-68821753D01*
X66064957Y-68821097D01*
X66064959Y-68821097D01*
X66276288Y-68794025D01*
X66276289Y-68794025D01*
X66281416Y-68793368D01*
X66286366Y-68791883D01*
X66490429Y-68730661D01*
X66490434Y-68730659D01*
X66495384Y-68729174D01*
X66695994Y-68630896D01*
X66877860Y-68501173D01*
X67036096Y-68343489D01*
X67045489Y-68330418D01*
X67163435Y-68166277D01*
X67166453Y-68162077D01*
X67176309Y-68142136D01*
X67263136Y-67966453D01*
X67263137Y-67966451D01*
X67265430Y-67961811D01*
X67301005Y-67844719D01*
X67328865Y-67753023D01*
X67328865Y-67753021D01*
X67330370Y-67748069D01*
X67359529Y-67526590D01*
X67360367Y-67492303D01*
X67361074Y-67463365D01*
X67361074Y-67463361D01*
X67361156Y-67460000D01*
X67342852Y-67237361D01*
X67288431Y-67020702D01*
X67199354Y-66815840D01*
X67133517Y-66714072D01*
X67080822Y-66632617D01*
X67080820Y-66632614D01*
X67078014Y-66628277D01*
X66927670Y-66463051D01*
X66923619Y-66459852D01*
X66923615Y-66459848D01*
X66756414Y-66327800D01*
X66756410Y-66327798D01*
X66752359Y-66324598D01*
X66556789Y-66216638D01*
X66551920Y-66214914D01*
X66551916Y-66214912D01*
X66351087Y-66143795D01*
X66351083Y-66143794D01*
X66346212Y-66142069D01*
X66341119Y-66141162D01*
X66341116Y-66141161D01*
X66131373Y-66103800D01*
X66131367Y-66103799D01*
X66126284Y-66102894D01*
X66052452Y-66101992D01*
X65908081Y-66100228D01*
X65908079Y-66100228D01*
X65902911Y-66100165D01*
X65682091Y-66133955D01*
X65469756Y-66203357D01*
X65271607Y-66306507D01*
X65267474Y-66309610D01*
X65267471Y-66309612D01*
X65219591Y-66345562D01*
X65165147Y-66386439D01*
X65098663Y-66411345D01*
X65029268Y-66396353D01*
X65000400Y-66374774D01*
X63256451Y-64630825D01*
X74862855Y-64630825D01*
X74870600Y-65053410D01*
X74870950Y-65058976D01*
X74916231Y-65479208D01*
X74917078Y-65484746D01*
X74999535Y-65899286D01*
X75000864Y-65904698D01*
X75119852Y-66310289D01*
X75121658Y-66315564D01*
X75276219Y-66708948D01*
X75278501Y-66714072D01*
X75467416Y-67092150D01*
X75470140Y-67097043D01*
X75691917Y-67456833D01*
X75695068Y-67461469D01*
X75947955Y-67800127D01*
X75951488Y-67804444D01*
X76087222Y-67955988D01*
X76100717Y-67964351D01*
X76110128Y-67958662D01*
X76554471Y-67514319D01*
X76566493Y-67492303D01*
X76577834Y-67440172D01*
X76599326Y-67411463D01*
X77423581Y-66587209D01*
X77888481Y-66122308D01*
X77950793Y-66088283D01*
X77968586Y-66085725D01*
X77981635Y-66084792D01*
X77988249Y-66080541D01*
X79301978Y-64766812D01*
X79309592Y-64752868D01*
X79309461Y-64751035D01*
X79305210Y-64744420D01*
X76109561Y-61548771D01*
X76096253Y-61541504D01*
X76086214Y-61548626D01*
X75842223Y-61841994D01*
X75838828Y-61846467D01*
X75598528Y-62194152D01*
X75595549Y-62198902D01*
X75387106Y-62566575D01*
X75384562Y-62571568D01*
X75209629Y-62956312D01*
X75207538Y-62961511D01*
X75067498Y-63360290D01*
X75065877Y-63365659D01*
X74961840Y-63775303D01*
X74960706Y-63780776D01*
X74893496Y-64198054D01*
X74892851Y-64203632D01*
X74863002Y-64625204D01*
X74862855Y-64630825D01*
X63256451Y-64630825D01*
X60599405Y-61973779D01*
X60565379Y-61911467D01*
X60562500Y-61884684D01*
X60562500Y-61178456D01*
X76462031Y-61178456D01*
X76468139Y-61188929D01*
X76825681Y-61546471D01*
X76839625Y-61554085D01*
X76870744Y-61551860D01*
X76890952Y-61545927D01*
X76959072Y-61565932D01*
X76980043Y-61582832D01*
X77423581Y-62026371D01*
X78228621Y-62831410D01*
X78262646Y-62893722D01*
X78257581Y-62964538D01*
X78254967Y-62970262D01*
X78255208Y-62973634D01*
X78259460Y-62980250D01*
X79661188Y-64381978D01*
X79675132Y-64389592D01*
X79676965Y-64389461D01*
X79683580Y-64385210D01*
X81115309Y-62953481D01*
X81127331Y-62931465D01*
X81138672Y-62879334D01*
X81160164Y-62850625D01*
X81984419Y-62026371D01*
X82449319Y-61561470D01*
X82511631Y-61527445D01*
X82529424Y-61524887D01*
X82542473Y-61523954D01*
X82549087Y-61519703D01*
X82876754Y-61192036D01*
X82884316Y-61178187D01*
X82877987Y-61168962D01*
X82704928Y-61015582D01*
X82700561Y-61012046D01*
X82360600Y-60760948D01*
X82355947Y-60757821D01*
X81994995Y-60537926D01*
X81990094Y-60535232D01*
X81611027Y-60348297D01*
X81605904Y-60346048D01*
X81211707Y-60193545D01*
X81206417Y-60191765D01*
X80800218Y-60074904D01*
X80794794Y-60073602D01*
X80379822Y-59993316D01*
X80374293Y-59992500D01*
X79953828Y-59949420D01*
X79948247Y-59949098D01*
X79525635Y-59943566D01*
X79520024Y-59943742D01*
X79098593Y-59975800D01*
X79093036Y-59976472D01*
X78676128Y-60045864D01*
X78670631Y-60047032D01*
X78261547Y-60153209D01*
X78256181Y-60154861D01*
X77858153Y-60296983D01*
X77852965Y-60299100D01*
X77469133Y-60476050D01*
X77464164Y-60478614D01*
X77097581Y-60688984D01*
X77092848Y-60691987D01*
X76746420Y-60934109D01*
X76741979Y-60937517D01*
X76470476Y-61165739D01*
X76462031Y-61178456D01*
X60562500Y-61178456D01*
X60562500Y-53251871D01*
X61615434Y-53251871D01*
X61649981Y-53370783D01*
X61656230Y-53385222D01*
X61730854Y-53511405D01*
X61740501Y-53523841D01*
X61844159Y-53627499D01*
X61856595Y-53637146D01*
X61982778Y-53711770D01*
X61997217Y-53718019D01*
X62139436Y-53759338D01*
X62152023Y-53761637D01*
X62159943Y-53762260D01*
X62175030Y-53759090D01*
X62178000Y-53747626D01*
X62178000Y-53258115D01*
X62173525Y-53242876D01*
X62172135Y-53241671D01*
X62164452Y-53240000D01*
X61630100Y-53240000D01*
X61616569Y-53243973D01*
X61615434Y-53251871D01*
X60562500Y-53251871D01*
X60562500Y-51418125D01*
X60582502Y-51350004D01*
X60636158Y-51303511D01*
X60704946Y-51293203D01*
X60786669Y-51303962D01*
X60786670Y-51303962D01*
X60790756Y-51304500D01*
X61017244Y-51304500D01*
X61021330Y-51303962D01*
X61021331Y-51303962D01*
X61131324Y-51289481D01*
X61131527Y-51291026D01*
X61176473Y-51291026D01*
X61176676Y-51289481D01*
X61286669Y-51303962D01*
X61286670Y-51303962D01*
X61290756Y-51304500D01*
X61517244Y-51304500D01*
X61521330Y-51303962D01*
X61521331Y-51303962D01*
X61578846Y-51296390D01*
X61648995Y-51307329D01*
X61702093Y-51354458D01*
X61721283Y-51422811D01*
X61703746Y-51485451D01*
X61651731Y-51573404D01*
X61649520Y-51581015D01*
X61649519Y-51581017D01*
X61629609Y-51649548D01*
X61606371Y-51729534D01*
X61603500Y-51766011D01*
X61603501Y-52165988D01*
X61606371Y-52202466D01*
X61630802Y-52286557D01*
X61640785Y-52320918D01*
X61651731Y-52358596D01*
X61683523Y-52412353D01*
X61700982Y-52481166D01*
X61683522Y-52540630D01*
X61656229Y-52586780D01*
X61649981Y-52601217D01*
X61617039Y-52714605D01*
X61617079Y-52728705D01*
X61624349Y-52732000D01*
X62094458Y-52732000D01*
X62129610Y-52737003D01*
X62139353Y-52739834D01*
X62139360Y-52739835D01*
X62145534Y-52741629D01*
X62151941Y-52742133D01*
X62151945Y-52742134D01*
X62179556Y-52744307D01*
X62179562Y-52744307D01*
X62182011Y-52744500D01*
X62191930Y-52744500D01*
X62560001Y-52744499D01*
X62628120Y-52764501D01*
X62674613Y-52818156D01*
X62686000Y-52870499D01*
X62686000Y-53745566D01*
X62690344Y-53760361D01*
X62702003Y-53762421D01*
X62711977Y-53761637D01*
X62724563Y-53759338D01*
X62819075Y-53731879D01*
X62890071Y-53732082D01*
X62949687Y-53770635D01*
X62979555Y-53839873D01*
X62982894Y-53872056D01*
X62985788Y-53885456D01*
X63035381Y-54034107D01*
X63041555Y-54047286D01*
X63123788Y-54180173D01*
X63132824Y-54191574D01*
X63243429Y-54301986D01*
X63254840Y-54310998D01*
X63387880Y-54393004D01*
X63401061Y-54399151D01*
X63549814Y-54448491D01*
X63563190Y-54451358D01*
X63654097Y-54460672D01*
X63660513Y-54461000D01*
X63683885Y-54461000D01*
X63699124Y-54456525D01*
X63700329Y-54455135D01*
X63702000Y-54447452D01*
X63702000Y-54442885D01*
X64210000Y-54442885D01*
X64214475Y-54458124D01*
X64215865Y-54459329D01*
X64223548Y-54461000D01*
X64251438Y-54461000D01*
X64257953Y-54460663D01*
X64350057Y-54451106D01*
X64363456Y-54448212D01*
X64512107Y-54398619D01*
X64525286Y-54392445D01*
X64658173Y-54310212D01*
X64669574Y-54301176D01*
X64779986Y-54190571D01*
X64788998Y-54179160D01*
X64871004Y-54046120D01*
X64877151Y-54032939D01*
X64926491Y-53884186D01*
X64929358Y-53870810D01*
X64938672Y-53779903D01*
X64938929Y-53774874D01*
X64934525Y-53759876D01*
X64933135Y-53758671D01*
X64925452Y-53757000D01*
X64228115Y-53757000D01*
X64212876Y-53761475D01*
X64211671Y-53762865D01*
X64210000Y-53770548D01*
X64210000Y-54442885D01*
X63702000Y-54442885D01*
X63702000Y-53375000D01*
X63722002Y-53306879D01*
X63775658Y-53260386D01*
X63828000Y-53249000D01*
X64920885Y-53249000D01*
X64936124Y-53244525D01*
X64937329Y-53243135D01*
X64939000Y-53235452D01*
X64939000Y-53232562D01*
X64938663Y-53226047D01*
X64929106Y-53133943D01*
X64926212Y-53120544D01*
X64876619Y-52971893D01*
X64870445Y-52958714D01*
X64788212Y-52825827D01*
X64774629Y-52808689D01*
X64776559Y-52807159D01*
X64748097Y-52755120D01*
X64753113Y-52684301D01*
X64776799Y-52647383D01*
X64775843Y-52646628D01*
X64780381Y-52640882D01*
X64785552Y-52635702D01*
X64836682Y-52552754D01*
X64871462Y-52496331D01*
X64871463Y-52496329D01*
X64875302Y-52490101D01*
X64929149Y-52327757D01*
X64933677Y-52283569D01*
X64939172Y-52229930D01*
X64939500Y-52226732D01*
X64939500Y-52070100D01*
X64959502Y-52001979D01*
X65013158Y-51955486D01*
X65083432Y-51945382D01*
X65148012Y-51974876D01*
X65154595Y-51981005D01*
X65206074Y-52032484D01*
X65218501Y-52042124D01*
X65345780Y-52117396D01*
X65360216Y-52123643D01*
X65503641Y-52165312D01*
X65511609Y-52166768D01*
X65525031Y-52163948D01*
X65528000Y-52152487D01*
X65528000Y-52150424D01*
X66036000Y-52150424D01*
X66040344Y-52165219D01*
X66050775Y-52167063D01*
X66060359Y-52165312D01*
X66203784Y-52123643D01*
X66218226Y-52117393D01*
X66225861Y-52112878D01*
X66294677Y-52095418D01*
X66354139Y-52112878D01*
X66361774Y-52117393D01*
X66376216Y-52123643D01*
X66519641Y-52165312D01*
X66527609Y-52166768D01*
X66541031Y-52163948D01*
X66544000Y-52152487D01*
X66544000Y-52150424D01*
X67052000Y-52150424D01*
X67056344Y-52165219D01*
X67066775Y-52167063D01*
X67076359Y-52165312D01*
X67219784Y-52123643D01*
X67234220Y-52117396D01*
X67361499Y-52042124D01*
X67373926Y-52032484D01*
X67478484Y-51927926D01*
X67488124Y-51915499D01*
X67563396Y-51788220D01*
X67569643Y-51773784D01*
X67604619Y-51653395D01*
X67604597Y-51645728D01*
X69802435Y-51645728D01*
X69807858Y-51704749D01*
X69810469Y-51717785D01*
X69857441Y-51867677D01*
X69863647Y-51881422D01*
X69944550Y-52015008D01*
X69953857Y-52026877D01*
X70064283Y-52137303D01*
X70076152Y-52146610D01*
X70209738Y-52227513D01*
X70223483Y-52233719D01*
X70373370Y-52280690D01*
X70386420Y-52283303D01*
X70450247Y-52289168D01*
X70456035Y-52289434D01*
X70512611Y-52289434D01*
X70527850Y-52284959D01*
X70529055Y-52283569D01*
X70530726Y-52275886D01*
X70530726Y-52271318D01*
X71038726Y-52271318D01*
X71043201Y-52286557D01*
X71044591Y-52287762D01*
X71052274Y-52289433D01*
X71113431Y-52289433D01*
X71119180Y-52289170D01*
X71183041Y-52283302D01*
X71196077Y-52280691D01*
X71345969Y-52233719D01*
X71359714Y-52227513D01*
X71493300Y-52146610D01*
X71505169Y-52137303D01*
X71615595Y-52026877D01*
X71624902Y-52015008D01*
X71705805Y-51881422D01*
X71712011Y-51867677D01*
X71758982Y-51717790D01*
X71761595Y-51704740D01*
X71766639Y-51649848D01*
X71763251Y-51638310D01*
X71761861Y-51637105D01*
X71754178Y-51635434D01*
X71056841Y-51635434D01*
X71041602Y-51639909D01*
X71040397Y-51641299D01*
X71038726Y-51648982D01*
X71038726Y-52271318D01*
X70530726Y-52271318D01*
X70530726Y-51653549D01*
X70526251Y-51638310D01*
X70524861Y-51637105D01*
X70517178Y-51635434D01*
X69819842Y-51635434D01*
X69804603Y-51639909D01*
X69803398Y-51641299D01*
X69802435Y-51645728D01*
X67604597Y-51645728D01*
X67604579Y-51639295D01*
X67597309Y-51636000D01*
X67070115Y-51636000D01*
X67054876Y-51640475D01*
X67053671Y-51641865D01*
X67052000Y-51649548D01*
X67052000Y-52150424D01*
X66544000Y-52150424D01*
X66544000Y-51654115D01*
X66539525Y-51638876D01*
X66538135Y-51637671D01*
X66530452Y-51636000D01*
X66054115Y-51636000D01*
X66038876Y-51640475D01*
X66037671Y-51641865D01*
X66036000Y-51649548D01*
X66036000Y-52150424D01*
X65528000Y-52150424D01*
X65528000Y-51336500D01*
X65548002Y-51268379D01*
X65601658Y-51221886D01*
X65654000Y-51210500D01*
X66017484Y-51210500D01*
X66019932Y-51210307D01*
X66019940Y-51210307D01*
X66047844Y-51208111D01*
X66047849Y-51208110D01*
X66054254Y-51207606D01*
X66060426Y-51205813D01*
X66060431Y-51205812D01*
X66130333Y-51185503D01*
X66165486Y-51180500D01*
X66414514Y-51180500D01*
X66449667Y-51185503D01*
X66519569Y-51205812D01*
X66519574Y-51205813D01*
X66525746Y-51207606D01*
X66532151Y-51208110D01*
X66532156Y-51208111D01*
X66560060Y-51210307D01*
X66560068Y-51210307D01*
X66562516Y-51210500D01*
X67033484Y-51210500D01*
X67035932Y-51210307D01*
X67035940Y-51210307D01*
X67063844Y-51208111D01*
X67063849Y-51208110D01*
X67070254Y-51207606D01*
X67169005Y-51178916D01*
X67219984Y-51164106D01*
X67219986Y-51164105D01*
X67227597Y-51161894D01*
X67255240Y-51145546D01*
X67319379Y-51128000D01*
X67591558Y-51128000D01*
X67605089Y-51124027D01*
X67606224Y-51116129D01*
X67569643Y-50990216D01*
X67563395Y-50975778D01*
X67557984Y-50966628D01*
X67540526Y-50897812D01*
X67557985Y-50838353D01*
X67563857Y-50828423D01*
X67567894Y-50821597D01*
X67589317Y-50747860D01*
X67598512Y-50716209D01*
X67630414Y-50662267D01*
X68000911Y-50291770D01*
X68015323Y-50279384D01*
X68026918Y-50270851D01*
X68026923Y-50270846D01*
X68032818Y-50266508D01*
X68037557Y-50260930D01*
X68037560Y-50260927D01*
X68067035Y-50226232D01*
X68073965Y-50218716D01*
X68079660Y-50213021D01*
X68097281Y-50190749D01*
X68100072Y-50187345D01*
X68142591Y-50137297D01*
X68142592Y-50137295D01*
X68147333Y-50131715D01*
X68150661Y-50125199D01*
X68154020Y-50120162D01*
X68157194Y-50115023D01*
X68161734Y-50109284D01*
X68192631Y-50043174D01*
X68194564Y-50039220D01*
X68203033Y-50022635D01*
X68221613Y-49995627D01*
X68246617Y-49967857D01*
X68246620Y-49967853D01*
X68251040Y-49962944D01*
X68346527Y-49797556D01*
X68405542Y-49615928D01*
X68415817Y-49518172D01*
X68424814Y-49432565D01*
X68425504Y-49426000D01*
X68407135Y-49251224D01*
X68406232Y-49242635D01*
X68406232Y-49242633D01*
X68405542Y-49236072D01*
X68346527Y-49054444D01*
X68330528Y-49026732D01*
X68303506Y-48979929D01*
X68282473Y-48943499D01*
X68265735Y-48874505D01*
X68288955Y-48807413D01*
X68344762Y-48763526D01*
X68391592Y-48754500D01*
X69948987Y-48754500D01*
X69997202Y-48764090D01*
X70019453Y-48773306D01*
X70074733Y-48817853D01*
X70097155Y-48885216D01*
X70079598Y-48954007D01*
X70060330Y-48978810D01*
X69948087Y-49091053D01*
X69859254Y-49237735D01*
X69856983Y-49244982D01*
X69856982Y-49244984D01*
X69856269Y-49247260D01*
X69807973Y-49401372D01*
X69801226Y-49474799D01*
X69801227Y-49988068D01*
X69801490Y-49990926D01*
X69801490Y-49990935D01*
X69801921Y-49995627D01*
X69807973Y-50061496D01*
X69809972Y-50067874D01*
X69809972Y-50067875D01*
X69848479Y-50190749D01*
X69859254Y-50225133D01*
X69948087Y-50371815D01*
X70043965Y-50467693D01*
X70077991Y-50530005D01*
X70072926Y-50600820D01*
X70043965Y-50645883D01*
X69953857Y-50735991D01*
X69944550Y-50747860D01*
X69863647Y-50881446D01*
X69857441Y-50895191D01*
X69810470Y-51045078D01*
X69807857Y-51058128D01*
X69802813Y-51113020D01*
X69806201Y-51124558D01*
X69807591Y-51125763D01*
X69815274Y-51127434D01*
X71749610Y-51127434D01*
X71764849Y-51122959D01*
X71766054Y-51121569D01*
X71767017Y-51117140D01*
X71761594Y-51058119D01*
X71758983Y-51045083D01*
X71712011Y-50895191D01*
X71705805Y-50881446D01*
X71624902Y-50747860D01*
X71615595Y-50735991D01*
X71525487Y-50645883D01*
X71491461Y-50583571D01*
X71496526Y-50512756D01*
X71525487Y-50467693D01*
X71621365Y-50371815D01*
X71710198Y-50225133D01*
X71720974Y-50190749D01*
X71737724Y-50137297D01*
X71761479Y-50061496D01*
X71768226Y-49988069D01*
X71768225Y-49474800D01*
X71767960Y-49471908D01*
X71762090Y-49408026D01*
X71761479Y-49401372D01*
X71759478Y-49394988D01*
X71712470Y-49244984D01*
X71712469Y-49244982D01*
X71710198Y-49237735D01*
X71663173Y-49160086D01*
X71644949Y-49094816D01*
X71644949Y-48535508D01*
X71654540Y-48487290D01*
X71706127Y-48362748D01*
X71709287Y-48355119D01*
X71724949Y-48236154D01*
X71724948Y-47956385D01*
X71718158Y-47904802D01*
X71710365Y-47845606D01*
X71710365Y-47845604D01*
X71709287Y-47837419D01*
X71669526Y-47741426D01*
X71651133Y-47697021D01*
X71651132Y-47697019D01*
X71647973Y-47689393D01*
X71560154Y-47574947D01*
X71555463Y-47568833D01*
X71555462Y-47568832D01*
X71550436Y-47562282D01*
X71543886Y-47557256D01*
X71543883Y-47557253D01*
X71469295Y-47500020D01*
X71423324Y-47464745D01*
X71275299Y-47403431D01*
X71267111Y-47402353D01*
X71160421Y-47388307D01*
X71160420Y-47388307D01*
X71156334Y-47387769D01*
X70986470Y-47387769D01*
X70816565Y-47387770D01*
X70812480Y-47388308D01*
X70812476Y-47388308D01*
X70742956Y-47397460D01*
X70697599Y-47403431D01*
X70695849Y-47404156D01*
X70637047Y-47404155D01*
X70635299Y-47403431D01*
X70627115Y-47402354D01*
X70627113Y-47402353D01*
X70520421Y-47388307D01*
X70520420Y-47388307D01*
X70516334Y-47387769D01*
X70346470Y-47387769D01*
X70176565Y-47387770D01*
X70172480Y-47388308D01*
X70172476Y-47388308D01*
X70065786Y-47402353D01*
X70065784Y-47402353D01*
X70057599Y-47403431D01*
X69998504Y-47427909D01*
X69950286Y-47437500D01*
X67726125Y-47437500D01*
X67658004Y-47417498D01*
X67611511Y-47363842D01*
X67601203Y-47295054D01*
X67611962Y-47213331D01*
X67611962Y-47213330D01*
X67612500Y-47209244D01*
X67612500Y-46982756D01*
X67599104Y-46881000D01*
X67597481Y-46868676D01*
X67599026Y-46868473D01*
X67599026Y-46823527D01*
X67597481Y-46823324D01*
X67611962Y-46713331D01*
X67611962Y-46713330D01*
X67612500Y-46709244D01*
X67612500Y-46482756D01*
X67602344Y-46405610D01*
X67597481Y-46368676D01*
X67599026Y-46368473D01*
X67599026Y-46323527D01*
X67597481Y-46323324D01*
X67611962Y-46213331D01*
X67611962Y-46213330D01*
X67612500Y-46209244D01*
X67612500Y-45982756D01*
X67605985Y-45933266D01*
X67597481Y-45868676D01*
X67599026Y-45868473D01*
X67599026Y-45823527D01*
X67597481Y-45823324D01*
X67611962Y-45713331D01*
X67611962Y-45713330D01*
X67612500Y-45709244D01*
X67612500Y-45482756D01*
X67597481Y-45368676D01*
X67599026Y-45368473D01*
X67599026Y-45323527D01*
X67597481Y-45323324D01*
X67611962Y-45213331D01*
X67611962Y-45213330D01*
X67612500Y-45209244D01*
X67612500Y-44982756D01*
X67597481Y-44868676D01*
X67599026Y-44868473D01*
X67599026Y-44823527D01*
X67597481Y-44823324D01*
X67611962Y-44713331D01*
X67611962Y-44713330D01*
X67612500Y-44709244D01*
X67612500Y-44482756D01*
X67611962Y-44478669D01*
X67601140Y-44396466D01*
X67612080Y-44326317D01*
X67659208Y-44273219D01*
X67726062Y-44254020D01*
X78623570Y-44254020D01*
X78691691Y-44274022D01*
X78712665Y-44290925D01*
X81356595Y-46934855D01*
X81390621Y-46997167D01*
X81393500Y-47023950D01*
X81393500Y-48297134D01*
X81400255Y-48359316D01*
X81451385Y-48495705D01*
X81538739Y-48612261D01*
X81655295Y-48699615D01*
X81791684Y-48750745D01*
X81853866Y-48757500D01*
X83650134Y-48757500D01*
X83712316Y-48750745D01*
X83848705Y-48699615D01*
X83965261Y-48612261D01*
X84052615Y-48495705D01*
X84103745Y-48359316D01*
X84110500Y-48297134D01*
X84110500Y-46500866D01*
X84103745Y-46438684D01*
X84052615Y-46302295D01*
X83965261Y-46185739D01*
X83848705Y-46098385D01*
X83836132Y-46093672D01*
X83730203Y-46053960D01*
X83673439Y-46011318D01*
X83648739Y-45944756D01*
X83663947Y-45875408D01*
X83685493Y-45846727D01*
X83740816Y-45791597D01*
X83790096Y-45742489D01*
X83852686Y-45655386D01*
X83917435Y-45565277D01*
X83920453Y-45561077D01*
X83925677Y-45550508D01*
X84017136Y-45365453D01*
X84017137Y-45365451D01*
X84019430Y-45360811D01*
X84084370Y-45147069D01*
X84113529Y-44925590D01*
X84115156Y-44859000D01*
X84096852Y-44636361D01*
X84042431Y-44419702D01*
X83953354Y-44214840D01*
X83867756Y-44082525D01*
X83834822Y-44031617D01*
X83834820Y-44031614D01*
X83832014Y-44027277D01*
X83681670Y-43862051D01*
X83677619Y-43858852D01*
X83677615Y-43858848D01*
X83510414Y-43726800D01*
X83510410Y-43726798D01*
X83506359Y-43723598D01*
X83487761Y-43713331D01*
X83454136Y-43694769D01*
X83310789Y-43615638D01*
X83305920Y-43613914D01*
X83305916Y-43613912D01*
X83105087Y-43542795D01*
X83105083Y-43542794D01*
X83100212Y-43541069D01*
X83095119Y-43540162D01*
X83095116Y-43540161D01*
X82885373Y-43502800D01*
X82885367Y-43502799D01*
X82880284Y-43501894D01*
X82806452Y-43500992D01*
X82662081Y-43499228D01*
X82662079Y-43499228D01*
X82656911Y-43499165D01*
X82436091Y-43532955D01*
X82223756Y-43602357D01*
X82025607Y-43705507D01*
X82021474Y-43708610D01*
X82021471Y-43708612D01*
X81851100Y-43836530D01*
X81846965Y-43839635D01*
X81692629Y-44001138D01*
X81689715Y-44005410D01*
X81689714Y-44005411D01*
X81594149Y-44145504D01*
X81539238Y-44190507D01*
X81490061Y-44200500D01*
X81303950Y-44200500D01*
X81235829Y-44180498D01*
X81214855Y-44163595D01*
X79739655Y-42688395D01*
X79731665Y-42679615D01*
X79731663Y-42679613D01*
X79727416Y-42672920D01*
X79675742Y-42624395D01*
X79672901Y-42621641D01*
X79652333Y-42601073D01*
X79648826Y-42598353D01*
X79639804Y-42590647D01*
X79611913Y-42564456D01*
X79606133Y-42559028D01*
X79599181Y-42555206D01*
X79587342Y-42548697D01*
X79570818Y-42537843D01*
X79560132Y-42529555D01*
X79553868Y-42524696D01*
X79546596Y-42521549D01*
X79546594Y-42521548D01*
X79511465Y-42506346D01*
X79500807Y-42501125D01*
X79497062Y-42499066D01*
X79482235Y-42490915D01*
X79432177Y-42440572D01*
X79417282Y-42371155D01*
X79442281Y-42304705D01*
X79499237Y-42262320D01*
X79542935Y-42254500D01*
X82371944Y-42254500D01*
X82383800Y-42255059D01*
X82383803Y-42255059D01*
X82391537Y-42256788D01*
X82462369Y-42254562D01*
X82466327Y-42254500D01*
X82495432Y-42254500D01*
X82499832Y-42253944D01*
X82511664Y-42253012D01*
X82557831Y-42251562D01*
X82578421Y-42245580D01*
X82597782Y-42241570D01*
X82604770Y-42240688D01*
X82611204Y-42239875D01*
X82611205Y-42239875D01*
X82619064Y-42238882D01*
X82626429Y-42235966D01*
X82626433Y-42235965D01*
X82662021Y-42221874D01*
X82673231Y-42218035D01*
X82717600Y-42205145D01*
X82736065Y-42194225D01*
X82753805Y-42185534D01*
X82773756Y-42177635D01*
X82811129Y-42150482D01*
X82821048Y-42143967D01*
X82853977Y-42124493D01*
X82853981Y-42124490D01*
X82860807Y-42120453D01*
X82875971Y-42105289D01*
X82891005Y-42092448D01*
X82901943Y-42084501D01*
X82908357Y-42079841D01*
X82937803Y-42044247D01*
X82945792Y-42035468D01*
X84314905Y-40666355D01*
X84377217Y-40632329D01*
X84448032Y-40637394D01*
X84504868Y-40679941D01*
X84529679Y-40746461D01*
X84530000Y-40755450D01*
X84530000Y-63345403D01*
X84509998Y-63413524D01*
X84456342Y-63460017D01*
X84386068Y-63470121D01*
X84321488Y-63440627D01*
X84284065Y-63384025D01*
X84185847Y-63079025D01*
X84183910Y-63073815D01*
X84019098Y-62684599D01*
X84016683Y-62679536D01*
X83817936Y-62306535D01*
X83815085Y-62301713D01*
X83583974Y-61947865D01*
X83580692Y-61943297D01*
X83319030Y-61611380D01*
X83315382Y-61607155D01*
X83262103Y-61550715D01*
X83248389Y-61542705D01*
X83247517Y-61542742D01*
X83239438Y-61547772D01*
X76470736Y-68316474D01*
X76463122Y-68330418D01*
X76463171Y-68331110D01*
X76468617Y-68339274D01*
X76546268Y-68411812D01*
X76550507Y-68415433D01*
X76883802Y-68675363D01*
X76888359Y-68678602D01*
X77243448Y-68907880D01*
X77248250Y-68910686D01*
X77622316Y-69107491D01*
X77627374Y-69109871D01*
X77962509Y-69249718D01*
X78017673Y-69294411D01*
X78039917Y-69361833D01*
X78022179Y-69430578D01*
X77970091Y-69478820D01*
X77913986Y-69492000D01*
X41330361Y-69492000D01*
X41262240Y-69471998D01*
X41215747Y-69418342D01*
X41205643Y-69348068D01*
X41235137Y-69283488D01*
X41294863Y-69245104D01*
X41312934Y-69241211D01*
X41374305Y-69232640D01*
X41379792Y-69231623D01*
X41791543Y-69136185D01*
X41796929Y-69134681D01*
X42198567Y-69003018D01*
X42203784Y-69001046D01*
X42592126Y-68834202D01*
X42597169Y-68831764D01*
X42969131Y-68631063D01*
X42973935Y-68628188D01*
X43326563Y-68395231D01*
X43331126Y-68391916D01*
X43661658Y-68128529D01*
X43665873Y-68124852D01*
X43703823Y-68088649D01*
X43711763Y-68074890D01*
X43711713Y-68073843D01*
X43706822Y-68066032D01*
X43319319Y-67678529D01*
X43305375Y-67670915D01*
X43303540Y-67671046D01*
X43296930Y-67675294D01*
X43229601Y-67742622D01*
X43167288Y-67776647D01*
X43096473Y-67771581D01*
X43051410Y-67742621D01*
X42255209Y-66946419D01*
X41818216Y-66509427D01*
X41784191Y-66447115D01*
X41789256Y-66376299D01*
X41818216Y-66331237D01*
X41882313Y-66267139D01*
X41889924Y-66253201D01*
X41889792Y-66251365D01*
X41885543Y-66244753D01*
X40512812Y-64872022D01*
X40498868Y-64864408D01*
X40497035Y-64864539D01*
X40490420Y-64868790D01*
X38938879Y-66420331D01*
X38053581Y-67305628D01*
X37527494Y-67831716D01*
X37296736Y-68062474D01*
X37289122Y-68076418D01*
X37289171Y-68077110D01*
X37295576Y-68086713D01*
X37316734Y-68154483D01*
X37297894Y-68222934D01*
X37245037Y-68270334D01*
X37174945Y-68281632D01*
X37107336Y-68251061D01*
X37075494Y-68222934D01*
X36988042Y-68145685D01*
X36980320Y-68138256D01*
X36977350Y-68135144D01*
X36703827Y-67848596D01*
X36696761Y-67840532D01*
X36674992Y-67813448D01*
X36647906Y-67747822D01*
X36660600Y-67677969D01*
X36709045Y-67626069D01*
X36777858Y-67608598D01*
X36845193Y-67631104D01*
X36867058Y-67650447D01*
X36913222Y-67701988D01*
X36926717Y-67710351D01*
X36936128Y-67704662D01*
X37168283Y-67472507D01*
X38053581Y-66587210D01*
X38078924Y-66561867D01*
X38579668Y-66061122D01*
X40127978Y-64512812D01*
X40134356Y-64501132D01*
X40864408Y-64501132D01*
X40864539Y-64502965D01*
X40868790Y-64509580D01*
X44062142Y-67702932D01*
X44075903Y-67710446D01*
X44085263Y-67703989D01*
X44254244Y-67511303D01*
X44257744Y-67506935D01*
X44507073Y-67165645D01*
X44510168Y-67160987D01*
X44728160Y-66798903D01*
X44730841Y-66793964D01*
X44915779Y-66413946D01*
X44918014Y-66408780D01*
X45068442Y-66013815D01*
X45070201Y-66008496D01*
X45184920Y-65601730D01*
X45186204Y-65596259D01*
X45264315Y-65180883D01*
X45265102Y-65175346D01*
X45306035Y-64754102D01*
X45306308Y-64749665D01*
X45312788Y-64502233D01*
X45312746Y-64497762D01*
X45293917Y-64074973D01*
X45293419Y-64069386D01*
X45237155Y-63650499D01*
X45236162Y-63644976D01*
X45142883Y-63232748D01*
X45141410Y-63227361D01*
X45011847Y-62825025D01*
X45009910Y-62819815D01*
X44845098Y-62430599D01*
X44842683Y-62425536D01*
X44643936Y-62052535D01*
X44641085Y-62047713D01*
X44409974Y-61693865D01*
X44406692Y-61689297D01*
X44145030Y-61357380D01*
X44141382Y-61353155D01*
X44088103Y-61296715D01*
X44074389Y-61288705D01*
X44073517Y-61288742D01*
X44065438Y-61293772D01*
X43499717Y-61859493D01*
X42614419Y-62744790D01*
X42088332Y-63270878D01*
X40872022Y-64487188D01*
X40864408Y-64501132D01*
X40134356Y-64501132D01*
X40135592Y-64498868D01*
X40135461Y-64497035D01*
X40131210Y-64490420D01*
X38758481Y-63117691D01*
X38744537Y-63110077D01*
X38742702Y-63110208D01*
X38736092Y-63114456D01*
X38668763Y-63181784D01*
X38606450Y-63215809D01*
X38535635Y-63210743D01*
X38490572Y-63181783D01*
X37694371Y-62385581D01*
X37257378Y-61948589D01*
X37223353Y-61886277D01*
X37228418Y-61815461D01*
X37257378Y-61770399D01*
X37321475Y-61706301D01*
X37329086Y-61692363D01*
X37328954Y-61690527D01*
X37324705Y-61683915D01*
X36935561Y-61294771D01*
X36922253Y-61287504D01*
X36912214Y-61294626D01*
X36668223Y-61587994D01*
X36664828Y-61592467D01*
X36424528Y-61940152D01*
X36421549Y-61944902D01*
X36213106Y-62312575D01*
X36210562Y-62317568D01*
X36035629Y-62702312D01*
X36033538Y-62707511D01*
X35893498Y-63106290D01*
X35891877Y-63111659D01*
X35787840Y-63521303D01*
X35786706Y-63526776D01*
X35758397Y-63702537D01*
X35727817Y-63766611D01*
X35667451Y-63803980D01*
X35596464Y-63802780D01*
X35537395Y-63763393D01*
X35508997Y-63698323D01*
X35508000Y-63682501D01*
X35508000Y-60924456D01*
X37288031Y-60924456D01*
X37294139Y-60934929D01*
X40487188Y-64127978D01*
X40501132Y-64135592D01*
X40502965Y-64135461D01*
X40509580Y-64131210D01*
X41729121Y-62911669D01*
X42614419Y-62026372D01*
X42695284Y-61945507D01*
X43140506Y-61500284D01*
X43702754Y-60938036D01*
X43710316Y-60924187D01*
X43703987Y-60914962D01*
X43530928Y-60761582D01*
X43526561Y-60758046D01*
X43186600Y-60506948D01*
X43181947Y-60503821D01*
X42820995Y-60283926D01*
X42816094Y-60281232D01*
X42437027Y-60094297D01*
X42431904Y-60092048D01*
X42037707Y-59939545D01*
X42032417Y-59937765D01*
X41626218Y-59820904D01*
X41620794Y-59819602D01*
X41205822Y-59739316D01*
X41200293Y-59738500D01*
X40779828Y-59695420D01*
X40774247Y-59695098D01*
X40351635Y-59689566D01*
X40346024Y-59689742D01*
X39924593Y-59721800D01*
X39919036Y-59722472D01*
X39502128Y-59791864D01*
X39496631Y-59793032D01*
X39087547Y-59899209D01*
X39082181Y-59900861D01*
X38684153Y-60042983D01*
X38678965Y-60045100D01*
X38295133Y-60222050D01*
X38290164Y-60224614D01*
X37923581Y-60434984D01*
X37918848Y-60437987D01*
X37572420Y-60680109D01*
X37567979Y-60683517D01*
X37296476Y-60911739D01*
X37288031Y-60924456D01*
X35508000Y-60924456D01*
X35508000Y-54012775D01*
X55606937Y-54012775D01*
X55608688Y-54022359D01*
X55650357Y-54165784D01*
X55656604Y-54180220D01*
X55731876Y-54307499D01*
X55741516Y-54319926D01*
X55846074Y-54424484D01*
X55858501Y-54434124D01*
X55985780Y-54509396D01*
X56000216Y-54515643D01*
X56120605Y-54550619D01*
X56134705Y-54550579D01*
X56138000Y-54543309D01*
X56138000Y-54016115D01*
X56133525Y-54000876D01*
X56132135Y-53999671D01*
X56124452Y-53998000D01*
X55623576Y-53998000D01*
X55608781Y-54002344D01*
X55606937Y-54012775D01*
X35508000Y-54012775D01*
X35508000Y-52996775D01*
X55606937Y-52996775D01*
X55608688Y-53006359D01*
X55650357Y-53149784D01*
X55656607Y-53164226D01*
X55661122Y-53171861D01*
X55678582Y-53240677D01*
X55661122Y-53300139D01*
X55656607Y-53307774D01*
X55650357Y-53322216D01*
X55608688Y-53465641D01*
X55607232Y-53473609D01*
X55610052Y-53487031D01*
X55621513Y-53490000D01*
X56119885Y-53490000D01*
X56135124Y-53485525D01*
X56136329Y-53484135D01*
X56138000Y-53476452D01*
X56138000Y-53000115D01*
X56133525Y-52984876D01*
X56132135Y-52983671D01*
X56124452Y-52982000D01*
X55623576Y-52982000D01*
X55608781Y-52986344D01*
X55606937Y-52996775D01*
X35508000Y-52996775D01*
X35508000Y-52457609D01*
X55607232Y-52457609D01*
X55610052Y-52471031D01*
X55621513Y-52474000D01*
X56119885Y-52474000D01*
X56135124Y-52469525D01*
X56136329Y-52468135D01*
X56138000Y-52460452D01*
X56138000Y-51934442D01*
X56134027Y-51920911D01*
X56126129Y-51919776D01*
X56000216Y-51956357D01*
X55985780Y-51962604D01*
X55858501Y-52037876D01*
X55846074Y-52047516D01*
X55741516Y-52152074D01*
X55731876Y-52164501D01*
X55656604Y-52291780D01*
X55650357Y-52306216D01*
X55608688Y-52449641D01*
X55607232Y-52457609D01*
X35508000Y-52457609D01*
X35508000Y-44068885D01*
X35928000Y-44068885D01*
X35932475Y-44084124D01*
X35933865Y-44085329D01*
X35941548Y-44087000D01*
X37013885Y-44087000D01*
X37029124Y-44082525D01*
X37030329Y-44081135D01*
X37032000Y-44073452D01*
X37032000Y-44068885D01*
X37540000Y-44068885D01*
X37544475Y-44084124D01*
X37545865Y-44085329D01*
X37553548Y-44087000D01*
X38625884Y-44087000D01*
X38641123Y-44082525D01*
X38642328Y-44081135D01*
X38643999Y-44073452D01*
X38643999Y-43446331D01*
X38643629Y-43439510D01*
X38638105Y-43388648D01*
X38634479Y-43373396D01*
X38589324Y-43252946D01*
X38580786Y-43237351D01*
X38504285Y-43135276D01*
X38491724Y-43122715D01*
X38389649Y-43046214D01*
X38374054Y-43037676D01*
X38253606Y-42992522D01*
X38238351Y-42988895D01*
X38187486Y-42983369D01*
X38180672Y-42983000D01*
X37558115Y-42983000D01*
X37542876Y-42987475D01*
X37541671Y-42988865D01*
X37540000Y-42996548D01*
X37540000Y-44068885D01*
X37032000Y-44068885D01*
X37032000Y-43001116D01*
X37027525Y-42985877D01*
X37026135Y-42984672D01*
X37018452Y-42983001D01*
X36391331Y-42983001D01*
X36384510Y-42983371D01*
X36333648Y-42988895D01*
X36318396Y-42992521D01*
X36197946Y-43037676D01*
X36182351Y-43046214D01*
X36080276Y-43122715D01*
X36067715Y-43135276D01*
X35991214Y-43237351D01*
X35982676Y-43252946D01*
X35937522Y-43373394D01*
X35933895Y-43388649D01*
X35928369Y-43439514D01*
X35928000Y-43446328D01*
X35928000Y-44068885D01*
X35508000Y-44068885D01*
X35508000Y-29076418D01*
X37289122Y-29076418D01*
X37289171Y-29077110D01*
X37294617Y-29085274D01*
X37372268Y-29157812D01*
X37376507Y-29161433D01*
X37709802Y-29421363D01*
X37714359Y-29424602D01*
X38069448Y-29653880D01*
X38074250Y-29656686D01*
X38448316Y-29853491D01*
X38453374Y-29855871D01*
X38843435Y-30018638D01*
X38848690Y-30020561D01*
X39251676Y-30148008D01*
X39257075Y-30149455D01*
X39669796Y-30240575D01*
X39675307Y-30241537D01*
X40094501Y-30295610D01*
X40100064Y-30296077D01*
X40522405Y-30312670D01*
X40527997Y-30312641D01*
X40950125Y-30291626D01*
X40955708Y-30291098D01*
X41374305Y-30232640D01*
X41379792Y-30231623D01*
X41791543Y-30136185D01*
X41796929Y-30134681D01*
X42198567Y-30003018D01*
X42203784Y-30001046D01*
X42592126Y-29834202D01*
X42597169Y-29831764D01*
X42969131Y-29631063D01*
X42973935Y-29628188D01*
X43326563Y-29395231D01*
X43331126Y-29391916D01*
X43661658Y-29128529D01*
X43665873Y-29124852D01*
X43703823Y-29088649D01*
X43711763Y-29074890D01*
X43711713Y-29073843D01*
X43706822Y-29066032D01*
X43261319Y-28620529D01*
X43247375Y-28612915D01*
X43245540Y-28613046D01*
X43238929Y-28617295D01*
X43229599Y-28626624D01*
X43167286Y-28660647D01*
X43096470Y-28655581D01*
X43051410Y-28626621D01*
X42255209Y-27830419D01*
X41818216Y-27393427D01*
X41784191Y-27331115D01*
X41789256Y-27260299D01*
X41818214Y-27215239D01*
X41824313Y-27209140D01*
X41831923Y-27195203D01*
X41831792Y-27193366D01*
X41827540Y-27186750D01*
X40512812Y-25872022D01*
X40498868Y-25864408D01*
X40497035Y-25864539D01*
X40490420Y-25868790D01*
X37296736Y-29062474D01*
X37289122Y-29076418D01*
X35508000Y-29076418D01*
X35508000Y-26328228D01*
X35528002Y-26260107D01*
X35581658Y-26213614D01*
X35651932Y-26203510D01*
X35716512Y-26233004D01*
X35754896Y-26292730D01*
X35757579Y-26303647D01*
X35825535Y-26645286D01*
X35826864Y-26650698D01*
X35945852Y-27056289D01*
X35947658Y-27061564D01*
X36102219Y-27454948D01*
X36104501Y-27460072D01*
X36293416Y-27838150D01*
X36296140Y-27843043D01*
X36517917Y-28202833D01*
X36521068Y-28207469D01*
X36773955Y-28546127D01*
X36777488Y-28550444D01*
X36913222Y-28701988D01*
X36926717Y-28710351D01*
X36936128Y-28704662D01*
X37213471Y-28427319D01*
X37221085Y-28413375D01*
X37218723Y-28380350D01*
X37213709Y-28363274D01*
X37233709Y-28295153D01*
X37250614Y-28274175D01*
X38053581Y-27471209D01*
X38499704Y-27025085D01*
X38562016Y-26991060D01*
X38632832Y-26996125D01*
X38637044Y-26998049D01*
X38640635Y-26997792D01*
X38647249Y-26993541D01*
X40139658Y-25501132D01*
X40864408Y-25501132D01*
X40864539Y-25502965D01*
X40868790Y-25509580D01*
X44062142Y-28702932D01*
X44075903Y-28710446D01*
X44085263Y-28703989D01*
X44254244Y-28511303D01*
X44257744Y-28506935D01*
X44507073Y-28165645D01*
X44510168Y-28160987D01*
X44728160Y-27798903D01*
X44730841Y-27793964D01*
X44915779Y-27413946D01*
X44918014Y-27408780D01*
X45068442Y-27013815D01*
X45070201Y-27008496D01*
X45184920Y-26601730D01*
X45186204Y-26596259D01*
X45217444Y-26430134D01*
X47861500Y-26430134D01*
X47868255Y-26492316D01*
X47919385Y-26628705D01*
X48006739Y-26745261D01*
X48123295Y-26832615D01*
X48259684Y-26883745D01*
X48321866Y-26890500D01*
X48636752Y-26890500D01*
X48674011Y-26896135D01*
X48766232Y-26924682D01*
X48772357Y-26925326D01*
X48772358Y-26925326D01*
X48956796Y-26944711D01*
X48956798Y-26944711D01*
X48962925Y-26945355D01*
X49045424Y-26937847D01*
X49153749Y-26927989D01*
X49153752Y-26927988D01*
X49159888Y-26927430D01*
X49165794Y-26925692D01*
X49165798Y-26925691D01*
X49267950Y-26895626D01*
X49303525Y-26890500D01*
X49618134Y-26890500D01*
X49680316Y-26883745D01*
X49816705Y-26832615D01*
X49933261Y-26745261D01*
X50020615Y-26628705D01*
X50034311Y-26592171D01*
X50076953Y-26535407D01*
X50143515Y-26510708D01*
X50212864Y-26525916D01*
X50262982Y-26576202D01*
X50273189Y-26600905D01*
X50281475Y-26629124D01*
X50282865Y-26630329D01*
X50290548Y-26632000D01*
X51237885Y-26632000D01*
X51253124Y-26627525D01*
X51254329Y-26626135D01*
X51256000Y-26618452D01*
X51256000Y-26613885D01*
X51764000Y-26613885D01*
X51768475Y-26629124D01*
X51769865Y-26630329D01*
X51777548Y-26632000D01*
X52635885Y-26632000D01*
X52651124Y-26627525D01*
X52673389Y-26601830D01*
X52673697Y-26602097D01*
X52680904Y-26588899D01*
X52743218Y-26554878D01*
X52769994Y-26552000D01*
X53929885Y-26552000D01*
X53945124Y-26547525D01*
X53946329Y-26546135D01*
X53948000Y-26538452D01*
X53948000Y-26533885D01*
X54456000Y-26533885D01*
X54460475Y-26549124D01*
X54461865Y-26550329D01*
X54469548Y-26552000D01*
X55691884Y-26552000D01*
X55707123Y-26547525D01*
X55708328Y-26546135D01*
X55709999Y-26538452D01*
X55709999Y-26011331D01*
X55709629Y-26004510D01*
X55704105Y-25953648D01*
X55700479Y-25938396D01*
X55655324Y-25817946D01*
X55646789Y-25802356D01*
X55578679Y-25711477D01*
X55553832Y-25644970D01*
X55568885Y-25575588D01*
X55619060Y-25525358D01*
X55691036Y-25510441D01*
X55750586Y-25515913D01*
X55762124Y-25512525D01*
X55763329Y-25511135D01*
X55765000Y-25503452D01*
X55765000Y-24806115D01*
X55760525Y-24790876D01*
X55759135Y-24789671D01*
X55751452Y-24788000D01*
X55129116Y-24788000D01*
X55113877Y-24792475D01*
X55112672Y-24793865D01*
X55111001Y-24801548D01*
X55111001Y-24862705D01*
X55111264Y-24868454D01*
X55117132Y-24932315D01*
X55119743Y-24945351D01*
X55166715Y-25095243D01*
X55172921Y-25108988D01*
X55253824Y-25242574D01*
X55263131Y-25254443D01*
X55341731Y-25333043D01*
X55375757Y-25395355D01*
X55370692Y-25466170D01*
X55328145Y-25523006D01*
X55261625Y-25547817D01*
X55250089Y-25547916D01*
X55250089Y-25548000D01*
X54474115Y-25548000D01*
X54458876Y-25552475D01*
X54457671Y-25553865D01*
X54456000Y-25561548D01*
X54456000Y-26533885D01*
X53948000Y-26533885D01*
X53948000Y-25566116D01*
X53943525Y-25550877D01*
X53942135Y-25549672D01*
X53934452Y-25548001D01*
X53157331Y-25548001D01*
X53150510Y-25548371D01*
X53099648Y-25553895D01*
X53084396Y-25557521D01*
X52963946Y-25602676D01*
X52948351Y-25611214D01*
X52846276Y-25687715D01*
X52833715Y-25700276D01*
X52757214Y-25802351D01*
X52748676Y-25817946D01*
X52703522Y-25938394D01*
X52699895Y-25953648D01*
X52696420Y-25985632D01*
X52669178Y-26051194D01*
X52610814Y-26091619D01*
X52539860Y-26094074D01*
X52482139Y-26061196D01*
X52463171Y-26042261D01*
X52451760Y-26033249D01*
X52313757Y-25948184D01*
X52300576Y-25942037D01*
X52146290Y-25890862D01*
X52132914Y-25887995D01*
X52038562Y-25878328D01*
X52032145Y-25878000D01*
X51782115Y-25878000D01*
X51766876Y-25882475D01*
X51765671Y-25883865D01*
X51764000Y-25891548D01*
X51764000Y-26613885D01*
X51256000Y-26613885D01*
X51256000Y-25896116D01*
X51251525Y-25880877D01*
X51250135Y-25879672D01*
X51242452Y-25878001D01*
X50987905Y-25878001D01*
X50981386Y-25878338D01*
X50885794Y-25888257D01*
X50872400Y-25891149D01*
X50718216Y-25942588D01*
X50705038Y-25948761D01*
X50567193Y-26034063D01*
X50555792Y-26043099D01*
X50441261Y-26157829D01*
X50432249Y-26169240D01*
X50347184Y-26307243D01*
X50341037Y-26320424D01*
X50324093Y-26371508D01*
X50283662Y-26429868D01*
X50218098Y-26457104D01*
X50148216Y-26444570D01*
X50096204Y-26396245D01*
X50078500Y-26331840D01*
X50078500Y-25919924D01*
X50098502Y-25851803D01*
X50115405Y-25830829D01*
X50152379Y-25793855D01*
X50162522Y-25784753D01*
X50187218Y-25764897D01*
X50192025Y-25761032D01*
X50224292Y-25722578D01*
X50227473Y-25718930D01*
X50229117Y-25717117D01*
X50231309Y-25714925D01*
X50258580Y-25681724D01*
X50259362Y-25680782D01*
X50264948Y-25674126D01*
X50319154Y-25609526D01*
X50321723Y-25604853D01*
X50325103Y-25600738D01*
X50336142Y-25580152D01*
X50369028Y-25518820D01*
X50369657Y-25517662D01*
X50411465Y-25441612D01*
X50411465Y-25441611D01*
X50414433Y-25436213D01*
X50416044Y-25431135D01*
X50418563Y-25426437D01*
X50445753Y-25337502D01*
X50446136Y-25336272D01*
X50448315Y-25329405D01*
X50474235Y-25247694D01*
X50474828Y-25242403D01*
X50476388Y-25237302D01*
X50485795Y-25144689D01*
X50485915Y-25143569D01*
X50491500Y-25093773D01*
X50491500Y-25090244D01*
X50491555Y-25089261D01*
X50492004Y-25083556D01*
X50495752Y-25046664D01*
X50495752Y-25046661D01*
X50496374Y-25040537D01*
X50492059Y-24994888D01*
X50491500Y-24983031D01*
X50491500Y-24261885D01*
X55111000Y-24261885D01*
X55115475Y-24277124D01*
X55116865Y-24278329D01*
X55124548Y-24280000D01*
X55746885Y-24280000D01*
X55762124Y-24275525D01*
X55763329Y-24274135D01*
X55765000Y-24266452D01*
X55765000Y-23569116D01*
X55760525Y-23553877D01*
X55759135Y-23552672D01*
X55754706Y-23551709D01*
X55695685Y-23557132D01*
X55682649Y-23559743D01*
X55532757Y-23606715D01*
X55519012Y-23612921D01*
X55385426Y-23693824D01*
X55373557Y-23703131D01*
X55263131Y-23813557D01*
X55253824Y-23825426D01*
X55172921Y-23959012D01*
X55166715Y-23972757D01*
X55119744Y-24122644D01*
X55117131Y-24135694D01*
X55111266Y-24199521D01*
X55111000Y-24205309D01*
X55111000Y-24261885D01*
X50491500Y-24261885D01*
X50491500Y-23411804D01*
X50511502Y-23343683D01*
X50565158Y-23297190D01*
X50635432Y-23287086D01*
X50700012Y-23316580D01*
X50722628Y-23344612D01*
X50722828Y-23344462D01*
X50727021Y-23350057D01*
X50728020Y-23351295D01*
X50728212Y-23351646D01*
X50804715Y-23453724D01*
X50817276Y-23466285D01*
X50919351Y-23542786D01*
X50934946Y-23551324D01*
X51055394Y-23596478D01*
X51070649Y-23600105D01*
X51121514Y-23605631D01*
X51128328Y-23606000D01*
X51750885Y-23606000D01*
X51766124Y-23601525D01*
X51767329Y-23600135D01*
X51769000Y-23592452D01*
X51769000Y-23587884D01*
X52277000Y-23587884D01*
X52281475Y-23603123D01*
X52282865Y-23604328D01*
X52290548Y-23605999D01*
X52917669Y-23605999D01*
X52924490Y-23605629D01*
X52975352Y-23600105D01*
X52990604Y-23596479D01*
X53111054Y-23551324D01*
X53126649Y-23542786D01*
X53228724Y-23466285D01*
X53241285Y-23453724D01*
X53317786Y-23351649D01*
X53326324Y-23336054D01*
X53371478Y-23215606D01*
X53375105Y-23200351D01*
X53380631Y-23149486D01*
X53381000Y-23142672D01*
X53381000Y-22520115D01*
X53376525Y-22504876D01*
X53375135Y-22503671D01*
X53367452Y-22502000D01*
X52295115Y-22502000D01*
X52279876Y-22506475D01*
X52278671Y-22507865D01*
X52277000Y-22515548D01*
X52277000Y-23587884D01*
X51769000Y-23587884D01*
X51769000Y-21975885D01*
X52277000Y-21975885D01*
X52281475Y-21991124D01*
X52282865Y-21992329D01*
X52290548Y-21994000D01*
X53362884Y-21994000D01*
X53378123Y-21989525D01*
X53379328Y-21988135D01*
X53380999Y-21980452D01*
X53380999Y-21353331D01*
X53380629Y-21346510D01*
X53375105Y-21295648D01*
X53371479Y-21280396D01*
X53326324Y-21159946D01*
X53317786Y-21144351D01*
X53241285Y-21042276D01*
X53228724Y-21029715D01*
X53126649Y-20953214D01*
X53111054Y-20944676D01*
X52990606Y-20899522D01*
X52975351Y-20895895D01*
X52924486Y-20890369D01*
X52917672Y-20890000D01*
X52295115Y-20890000D01*
X52279876Y-20894475D01*
X52278671Y-20895865D01*
X52277000Y-20903548D01*
X52277000Y-21975885D01*
X51769000Y-21975885D01*
X51769000Y-20908116D01*
X51764525Y-20892877D01*
X51763135Y-20891672D01*
X51755452Y-20890001D01*
X51128331Y-20890001D01*
X51121510Y-20890371D01*
X51070648Y-20895895D01*
X51055396Y-20899521D01*
X50934946Y-20944676D01*
X50919351Y-20953214D01*
X50817276Y-21029715D01*
X50804715Y-21042276D01*
X50728214Y-21144351D01*
X50719676Y-21159946D01*
X50678297Y-21270322D01*
X50635655Y-21327087D01*
X50569093Y-21351786D01*
X50499744Y-21336578D01*
X50467121Y-21310891D01*
X50416151Y-21254876D01*
X50416148Y-21254873D01*
X50412670Y-21251051D01*
X50408619Y-21247852D01*
X50408615Y-21247848D01*
X50241414Y-21115800D01*
X50241410Y-21115798D01*
X50237359Y-21112598D01*
X50041789Y-21004638D01*
X50036920Y-21002914D01*
X50036916Y-21002912D01*
X49836087Y-20931795D01*
X49836083Y-20931794D01*
X49831212Y-20930069D01*
X49826119Y-20929162D01*
X49826116Y-20929161D01*
X49616373Y-20891800D01*
X49616367Y-20891799D01*
X49611284Y-20890894D01*
X49537452Y-20889992D01*
X49393081Y-20888228D01*
X49393079Y-20888228D01*
X49387911Y-20888165D01*
X49167091Y-20921955D01*
X48954756Y-20991357D01*
X48924443Y-21007137D01*
X48761331Y-21092048D01*
X48756607Y-21094507D01*
X48752474Y-21097610D01*
X48752471Y-21097612D01*
X48603714Y-21209302D01*
X48577965Y-21228635D01*
X48538525Y-21269907D01*
X48484280Y-21326671D01*
X48423629Y-21390138D01*
X48297743Y-21574680D01*
X48253285Y-21670456D01*
X48212628Y-21758046D01*
X48203688Y-21777305D01*
X48143989Y-21992570D01*
X48120251Y-22214695D01*
X48120548Y-22219848D01*
X48120548Y-22219851D01*
X48127694Y-22343789D01*
X48133110Y-22437715D01*
X48134247Y-22442761D01*
X48134248Y-22442767D01*
X48148606Y-22506475D01*
X48182222Y-22655639D01*
X48266266Y-22862616D01*
X48382987Y-23053088D01*
X48386367Y-23056990D01*
X48443737Y-23123219D01*
X48473220Y-23187804D01*
X48474500Y-23205717D01*
X48474500Y-24567076D01*
X48454498Y-24635197D01*
X48437595Y-24656171D01*
X48300621Y-24793145D01*
X48290478Y-24802247D01*
X48260975Y-24825968D01*
X48257008Y-24830696D01*
X48228709Y-24864421D01*
X48225528Y-24868069D01*
X48223885Y-24869881D01*
X48221691Y-24872075D01*
X48194358Y-24905349D01*
X48193696Y-24906147D01*
X48133846Y-24977474D01*
X48131278Y-24982144D01*
X48127897Y-24986261D01*
X48103711Y-25031369D01*
X48068234Y-25072651D01*
X48006739Y-25118739D01*
X47919385Y-25235295D01*
X47868255Y-25371684D01*
X47861500Y-25433866D01*
X47861500Y-26430134D01*
X45217444Y-26430134D01*
X45264315Y-26180883D01*
X45265102Y-26175346D01*
X45306035Y-25754102D01*
X45306308Y-25749665D01*
X45312788Y-25502233D01*
X45312746Y-25497762D01*
X45293917Y-25074973D01*
X45293419Y-25069386D01*
X45237155Y-24650499D01*
X45236162Y-24644976D01*
X45142883Y-24232748D01*
X45141410Y-24227361D01*
X45011847Y-23825025D01*
X45009910Y-23819815D01*
X44845098Y-23430599D01*
X44842679Y-23425529D01*
X44643936Y-23052535D01*
X44641085Y-23047713D01*
X44409974Y-22693865D01*
X44406692Y-22689297D01*
X44145030Y-22357380D01*
X44141382Y-22353155D01*
X44088103Y-22296715D01*
X44074389Y-22288705D01*
X44073517Y-22288742D01*
X44065438Y-22293772D01*
X40872022Y-25487188D01*
X40864408Y-25501132D01*
X40139658Y-25501132D01*
X41774309Y-23866481D01*
X41781923Y-23852537D01*
X41779561Y-23819512D01*
X41774547Y-23802436D01*
X41794547Y-23734315D01*
X41811452Y-23713337D01*
X42614419Y-22910371D01*
X43060542Y-22464247D01*
X43122854Y-22430222D01*
X43193670Y-22435287D01*
X43197882Y-22437211D01*
X43201473Y-22436954D01*
X43208087Y-22432703D01*
X43702754Y-21938036D01*
X43710316Y-21924187D01*
X43703987Y-21914962D01*
X43530928Y-21761582D01*
X43526561Y-21758046D01*
X43186600Y-21506948D01*
X43181947Y-21503821D01*
X42820995Y-21283926D01*
X42816094Y-21281232D01*
X42437027Y-21094297D01*
X42431904Y-21092048D01*
X42037707Y-20939545D01*
X42032417Y-20937765D01*
X41626218Y-20820904D01*
X41620794Y-20819602D01*
X41205822Y-20739316D01*
X41200293Y-20738500D01*
X41032849Y-20721344D01*
X40967121Y-20694503D01*
X40926339Y-20636388D01*
X40923451Y-20565450D01*
X40959372Y-20504212D01*
X41022700Y-20472115D01*
X41045691Y-20470000D01*
X78277927Y-20470000D01*
X78346048Y-20490002D01*
G37*
%TD.AperFunction*%
%TA.AperFunction,Conductor*%
G36*
X81502365Y-66121257D02*
G01*
X81547428Y-66150217D01*
X81984419Y-66587209D01*
X82780622Y-67383411D01*
X82814647Y-67445723D01*
X82809582Y-67516539D01*
X82780622Y-67561601D01*
X82690112Y-67652112D01*
X82690111Y-67652113D01*
X82599601Y-67742622D01*
X82537289Y-67776647D01*
X82466473Y-67771581D01*
X82421410Y-67742621D01*
X81625209Y-66946419D01*
X81188216Y-66509427D01*
X81154191Y-66447115D01*
X81159256Y-66376299D01*
X81188216Y-66331237D01*
X81278726Y-66240726D01*
X81278727Y-66240725D01*
X81369237Y-66150216D01*
X81431549Y-66116191D01*
X81502365Y-66121257D01*
G37*
%TD.AperFunction*%
%TA.AperFunction,Conductor*%
G36*
X53484121Y-45664002D02*
G01*
X53530614Y-45717658D01*
X53542000Y-45770000D01*
X53542000Y-45818652D01*
X53521998Y-45886773D01*
X53468342Y-45933266D01*
X53446041Y-45939986D01*
X53446172Y-45940437D01*
X53446169Y-45940438D01*
X53425579Y-45946420D01*
X53406218Y-45950430D01*
X53399230Y-45951312D01*
X53392796Y-45952125D01*
X53392795Y-45952125D01*
X53384936Y-45953118D01*
X53377571Y-45956034D01*
X53377567Y-45956035D01*
X53341979Y-45970126D01*
X53330769Y-45973965D01*
X53286400Y-45986855D01*
X53267935Y-45997775D01*
X53250195Y-46006466D01*
X53230244Y-46014365D01*
X53223313Y-46019401D01*
X53192868Y-46041520D01*
X53182949Y-46048035D01*
X53176326Y-46051952D01*
X53112185Y-46069500D01*
X53052516Y-46069500D01*
X53050068Y-46069693D01*
X53050060Y-46069693D01*
X53022156Y-46071889D01*
X53022151Y-46071890D01*
X53015746Y-46072394D01*
X53009574Y-46074187D01*
X53009569Y-46074188D01*
X52939667Y-46094497D01*
X52904514Y-46099500D01*
X52655486Y-46099500D01*
X52620333Y-46094497D01*
X52550431Y-46074188D01*
X52550426Y-46074187D01*
X52544254Y-46072394D01*
X52537849Y-46071890D01*
X52537844Y-46071889D01*
X52509940Y-46069693D01*
X52509932Y-46069693D01*
X52507484Y-46069500D01*
X52144000Y-46069500D01*
X52075879Y-46049498D01*
X52029386Y-45995842D01*
X52018000Y-45943500D01*
X52018000Y-45770000D01*
X52038002Y-45701879D01*
X52091658Y-45655386D01*
X52144000Y-45644000D01*
X53416000Y-45644000D01*
X53484121Y-45664002D01*
G37*
%TD.AperFunction*%
%TA.AperFunction,Conductor*%
G36*
X37571527Y-22444419D02*
G01*
X37616590Y-22473379D01*
X38053581Y-22910371D01*
X38849784Y-23706573D01*
X38883809Y-23768885D01*
X38878744Y-23839701D01*
X38849784Y-23884763D01*
X38759274Y-23975274D01*
X38759273Y-23975275D01*
X38668763Y-24065784D01*
X38606451Y-24099809D01*
X38535635Y-24094743D01*
X38490572Y-24065783D01*
X37694371Y-23269581D01*
X37257378Y-22832589D01*
X37223353Y-22770277D01*
X37228418Y-22699461D01*
X37257378Y-22654399D01*
X37347888Y-22563888D01*
X37347889Y-22563887D01*
X37438399Y-22473378D01*
X37500711Y-22439353D01*
X37571527Y-22444419D01*
G37*
%TD.AperFunction*%
%TA.AperFunction,Conductor*%
G36*
X82808539Y-22190418D02*
G01*
X82853601Y-22219378D01*
X82944112Y-22309888D01*
X82944113Y-22309889D01*
X83034622Y-22400399D01*
X83068647Y-22462711D01*
X83063581Y-22533527D01*
X83034621Y-22578590D01*
X82238419Y-23374791D01*
X81801427Y-23811784D01*
X81739115Y-23845809D01*
X81668299Y-23840744D01*
X81623237Y-23811784D01*
X81532726Y-23721274D01*
X81532725Y-23721273D01*
X81442216Y-23630763D01*
X81408191Y-23568451D01*
X81413257Y-23497635D01*
X81442217Y-23452572D01*
X82238419Y-22656371D01*
X82675411Y-22219378D01*
X82737723Y-22185353D01*
X82808539Y-22190418D01*
G37*
%TD.AperFunction*%
%TD*%
M02*
