%TF.GenerationSoftware,KiCad,Pcbnew,(6.0.1)*%
%TF.CreationDate,2022-05-08T06:10:33+05:45*%
%TF.ProjectId,STM32F4_Breakout,53544d33-3246-4345-9f42-7265616b6f75,rev?*%
%TF.SameCoordinates,Original*%
%TF.FileFunction,Copper,L3,Inr*%
%TF.FilePolarity,Positive*%
%FSLAX46Y46*%
G04 Gerber Fmt 4.6, Leading zero omitted, Abs format (unit mm)*
G04 Created by KiCad (PCBNEW (6.0.1)) date 2022-05-08 06:10:33*
%MOMM*%
%LPD*%
G01*
G04 APERTURE LIST*
%TA.AperFunction,ComponentPad*%
%ADD10C,0.900000*%
%TD*%
%TA.AperFunction,ComponentPad*%
%ADD11C,8.600000*%
%TD*%
%TA.AperFunction,ComponentPad*%
%ADD12R,1.700000X1.700000*%
%TD*%
%TA.AperFunction,ComponentPad*%
%ADD13O,1.700000X1.700000*%
%TD*%
%TA.AperFunction,ViaPad*%
%ADD14C,1.000000*%
%TD*%
%TA.AperFunction,ViaPad*%
%ADD15C,0.800000*%
%TD*%
G04 APERTURE END LIST*
D10*
%TO.N,GND*%
%TO.C,H3*%
X76733000Y-25296000D03*
X77677581Y-23015581D03*
X79958000Y-28521000D03*
X79958000Y-22071000D03*
X82238419Y-23015581D03*
X83183000Y-25296000D03*
X82238419Y-27576419D03*
X77677581Y-27576419D03*
D11*
X79928000Y-25246000D03*
%TD*%
%TO.N,GND*%
%TO.C,H1*%
X40500000Y-64500000D03*
D10*
X38053581Y-62385581D03*
X38053581Y-66946419D03*
X40334000Y-67891000D03*
X42614419Y-62385581D03*
X43559000Y-64666000D03*
X42614419Y-66946419D03*
X37109000Y-64666000D03*
X40334000Y-61441000D03*
%TD*%
D12*
%TO.N,GND*%
%TO.C,J2*%
X37286000Y-44341000D03*
D13*
%TO.N,+3V3*%
X37286000Y-46881000D03*
%TD*%
D10*
%TO.N,GND*%
%TO.C,H4*%
X77423581Y-66946419D03*
X81984419Y-62385581D03*
X81984419Y-66946419D03*
D11*
X79674000Y-64754000D03*
D10*
X79704000Y-61441000D03*
X77423581Y-62385581D03*
X79704000Y-67891000D03*
X82929000Y-64666000D03*
X76479000Y-64666000D03*
%TD*%
%TO.N,GND*%
%TO.C,H2*%
X40334000Y-22325000D03*
X43559000Y-25550000D03*
D11*
X40500000Y-25500000D03*
D10*
X38053581Y-23269581D03*
X40334000Y-28775000D03*
X38053581Y-27830419D03*
X37109000Y-25550000D03*
X42614419Y-27830419D03*
X42614419Y-23269581D03*
%TD*%
D12*
%TO.N,SPI1_CS*%
%TO.C,J3*%
X58378000Y-67460000D03*
D13*
%TO.N,SPI1_SCK*%
X60918000Y-67460000D03*
%TO.N,SPI1_MISO*%
X63458000Y-67460000D03*
%TO.N,SPI1_MOSI*%
X65998000Y-67460000D03*
%TD*%
D12*
%TO.N,USART1_TX*%
%TO.C,J5*%
X82752000Y-47399000D03*
D13*
%TO.N,USART1_RX*%
X82752000Y-44859000D03*
%TD*%
D12*
%TO.N,GND*%
%TO.C,J6*%
X52023000Y-22248000D03*
D13*
%TO.N,VCC*%
X49483000Y-22248000D03*
%TD*%
D12*
%TO.N,I2C1_SCL*%
%TO.C,J1*%
X68025000Y-22248000D03*
D13*
%TO.N,I2C1_SDA*%
X65485000Y-22248000D03*
%TD*%
D14*
%TO.N,GND*%
X74878000Y-34440000D03*
D15*
X52780000Y-44727000D03*
D14*
X60908000Y-23010000D03*
X74878000Y-31900000D03*
X59638000Y-23010000D03*
D15*
X51256000Y-39774000D03*
D14*
X74878000Y-35710000D03*
X58368000Y-23010000D03*
X54558000Y-23010000D03*
X55828000Y-23010000D03*
X74878000Y-33170000D03*
D15*
X69544000Y-51458000D03*
X71068000Y-40536000D03*
D14*
X57098000Y-23010000D03*
D15*
X48716000Y-45362000D03*
X56082000Y-51712000D03*
X63448000Y-54760000D03*
X62178000Y-54506000D03*
X67766000Y-51458000D03*
%TO.N,+3V3*%
X49478000Y-49934000D03*
X55066000Y-28598000D03*
X67131000Y-39774000D03*
D14*
X62432000Y-30376000D03*
D15*
X68020000Y-28598000D03*
X78688000Y-32154000D03*
X66369000Y-39774000D03*
X57352000Y-54760000D03*
X57352000Y-55522000D03*
X77672000Y-32154000D03*
D14*
X62432000Y-31646000D03*
D15*
X66623000Y-49426000D03*
X67512000Y-49426000D03*
X50494000Y-49934000D03*
D14*
X62432000Y-26058000D03*
X62432000Y-27582000D03*
D15*
%TO.N,NRST*%
X81736000Y-40028000D03*
X57352000Y-43584000D03*
%TD*%
%TA.AperFunction,Conductor*%
%TO.N,+3V3*%
G36*
X78344562Y-20490002D02*
G01*
X78391055Y-20543658D01*
X78401159Y-20613932D01*
X78371665Y-20678512D01*
X78318811Y-20714662D01*
X78111964Y-20788520D01*
X78111959Y-20788522D01*
X78109321Y-20789464D01*
X78106781Y-20790635D01*
X78106776Y-20790637D01*
X78036849Y-20822874D01*
X77720361Y-20968777D01*
X77348880Y-21181957D01*
X77346577Y-21183566D01*
X77346570Y-21183571D01*
X77056360Y-21386401D01*
X76997820Y-21427315D01*
X76669961Y-21702909D01*
X76367899Y-22006557D01*
X76094025Y-22335855D01*
X76092431Y-22338162D01*
X76092429Y-22338164D01*
X75876494Y-22650596D01*
X75850508Y-22688194D01*
X75639276Y-23060786D01*
X75638117Y-23063335D01*
X75638115Y-23063339D01*
X75579192Y-23192934D01*
X75462002Y-23450680D01*
X75461080Y-23453306D01*
X75461075Y-23453318D01*
X75388341Y-23660435D01*
X75320089Y-23854790D01*
X75319398Y-23857510D01*
X75319397Y-23857514D01*
X75224133Y-24232618D01*
X75214661Y-24269914D01*
X75146552Y-24692768D01*
X75116302Y-25120001D01*
X75124151Y-25548233D01*
X75170036Y-25974071D01*
X75253594Y-26394144D01*
X75374163Y-26805127D01*
X75375190Y-26807740D01*
X75375190Y-26807741D01*
X75455191Y-27011355D01*
X75530789Y-27203765D01*
X75591510Y-27325286D01*
X75700161Y-27542731D01*
X75722231Y-27586901D01*
X75946974Y-27951502D01*
X76203239Y-28294682D01*
X76205100Y-28296760D01*
X76205101Y-28296761D01*
X76487127Y-28611637D01*
X76487133Y-28611643D01*
X76488995Y-28613722D01*
X76801981Y-28906098D01*
X77139719Y-29169493D01*
X77499533Y-29401822D01*
X77502012Y-29403126D01*
X77502015Y-29403128D01*
X77876077Y-29599932D01*
X77876083Y-29599935D01*
X77878577Y-29601247D01*
X77881175Y-29602331D01*
X77881179Y-29602333D01*
X78271263Y-29765109D01*
X78271268Y-29765111D01*
X78273847Y-29766187D01*
X78276512Y-29767030D01*
X78276518Y-29767032D01*
X78482626Y-29832215D01*
X78682214Y-29895336D01*
X79100446Y-29987673D01*
X79103220Y-29988031D01*
X79103221Y-29988031D01*
X79522460Y-30042109D01*
X79522467Y-30042110D01*
X79525230Y-30042466D01*
X79528017Y-30042576D01*
X79528023Y-30042576D01*
X79776238Y-30052328D01*
X79953203Y-30059281D01*
X79955995Y-30059142D01*
X79956000Y-30059142D01*
X80378172Y-30038125D01*
X80378181Y-30038124D01*
X80380976Y-30037985D01*
X80383753Y-30037597D01*
X80383755Y-30037597D01*
X80458066Y-30027219D01*
X80805163Y-29978747D01*
X81222404Y-29882036D01*
X81436307Y-29811915D01*
X81626744Y-29749487D01*
X81626750Y-29749485D01*
X81629397Y-29748617D01*
X82022918Y-29579547D01*
X82399852Y-29376164D01*
X82757214Y-29140080D01*
X83092175Y-28873162D01*
X83402082Y-28577525D01*
X83403919Y-28575431D01*
X83403927Y-28575422D01*
X83682635Y-28257616D01*
X83684482Y-28255510D01*
X83719374Y-28207750D01*
X83935490Y-27911923D01*
X83937139Y-27909666D01*
X83938585Y-27907265D01*
X84156601Y-27545142D01*
X84156606Y-27545133D01*
X84158052Y-27542731D01*
X84290704Y-27270150D01*
X84338498Y-27217650D01*
X84407088Y-27199324D01*
X84474698Y-27220990D01*
X84519862Y-27275769D01*
X84530000Y-27325286D01*
X84530000Y-63343767D01*
X84509998Y-63411888D01*
X84456342Y-63458381D01*
X84386068Y-63468485D01*
X84321488Y-63438991D01*
X84284065Y-63382390D01*
X84186318Y-63078856D01*
X84186316Y-63078849D01*
X84185463Y-63076202D01*
X84018456Y-62681801D01*
X83817050Y-62303807D01*
X83652769Y-62052280D01*
X83584381Y-61947573D01*
X83584378Y-61947569D01*
X83582840Y-61945214D01*
X83317680Y-61608860D01*
X83023670Y-61297409D01*
X83021579Y-61295556D01*
X83021571Y-61295548D01*
X82705237Y-61015188D01*
X82705235Y-61015186D01*
X82703137Y-61013327D01*
X82358621Y-60758863D01*
X82165733Y-60641355D01*
X81995237Y-60537487D01*
X81995230Y-60537483D01*
X81992848Y-60536032D01*
X81875514Y-60478169D01*
X81611228Y-60347838D01*
X81608714Y-60346598D01*
X81209262Y-60192062D01*
X80962678Y-60121122D01*
X80800335Y-60074417D01*
X80800329Y-60074415D01*
X80797654Y-60073646D01*
X80794917Y-60073117D01*
X80794911Y-60073115D01*
X80641654Y-60043464D01*
X80377148Y-59992289D01*
X80374374Y-59992005D01*
X80374362Y-59992003D01*
X80091111Y-59962982D01*
X79951076Y-59948634D01*
X79948286Y-59948597D01*
X79948278Y-59948597D01*
X79680825Y-59945096D01*
X79522809Y-59943028D01*
X79520009Y-59943241D01*
X79520008Y-59943241D01*
X79445364Y-59948919D01*
X79095740Y-59975514D01*
X78673249Y-60045836D01*
X78587671Y-60068048D01*
X78261400Y-60152731D01*
X78261389Y-60152734D01*
X78258682Y-60153437D01*
X78000575Y-60245599D01*
X77857964Y-60296520D01*
X77857959Y-60296522D01*
X77855321Y-60297464D01*
X77852781Y-60298635D01*
X77852776Y-60298637D01*
X77750930Y-60345589D01*
X77466361Y-60476777D01*
X77094880Y-60689957D01*
X77092577Y-60691566D01*
X77092570Y-60691571D01*
X76992962Y-60761188D01*
X76743820Y-60935315D01*
X76415961Y-61210909D01*
X76113899Y-61514557D01*
X75840025Y-61843855D01*
X75838431Y-61846162D01*
X75838429Y-61846164D01*
X75697683Y-62049807D01*
X75596508Y-62196194D01*
X75385276Y-62568786D01*
X75208002Y-62958680D01*
X75207080Y-62961306D01*
X75207075Y-62961318D01*
X75126281Y-63191388D01*
X75066089Y-63362790D01*
X74960661Y-63777914D01*
X74892552Y-64200768D01*
X74862302Y-64628001D01*
X74870151Y-65056233D01*
X74916036Y-65482071D01*
X74999594Y-65902144D01*
X75120163Y-66313127D01*
X75121190Y-66315740D01*
X75121190Y-66315741D01*
X75245692Y-66632617D01*
X75276789Y-66711765D01*
X75468231Y-67094901D01*
X75692974Y-67459502D01*
X75949239Y-67802682D01*
X75951100Y-67804760D01*
X75951101Y-67804761D01*
X76233127Y-68119637D01*
X76233133Y-68119643D01*
X76234995Y-68121722D01*
X76237046Y-68123638D01*
X76237047Y-68123639D01*
X76256848Y-68142136D01*
X76547981Y-68414098D01*
X76885719Y-68677493D01*
X77245533Y-68909822D01*
X77248012Y-68911126D01*
X77248015Y-68911128D01*
X77622077Y-69107932D01*
X77622083Y-69107935D01*
X77624577Y-69109247D01*
X77627175Y-69110331D01*
X77627179Y-69110333D01*
X77961208Y-69249718D01*
X78016372Y-69294411D01*
X78038616Y-69361833D01*
X78020878Y-69430578D01*
X77968790Y-69478820D01*
X77912685Y-69492000D01*
X41333982Y-69492000D01*
X41265861Y-69471998D01*
X41219368Y-69418342D01*
X41209264Y-69348068D01*
X41238758Y-69283488D01*
X41298484Y-69245104D01*
X41316555Y-69241211D01*
X41323019Y-69240308D01*
X41377163Y-69232747D01*
X41794404Y-69136036D01*
X42023444Y-69060953D01*
X42198744Y-69003487D01*
X42198750Y-69003485D01*
X42201397Y-69002617D01*
X42594918Y-68833547D01*
X42617127Y-68821564D01*
X42785599Y-68730661D01*
X42971852Y-68630164D01*
X43329214Y-68394080D01*
X43374323Y-68358134D01*
X57019500Y-68358134D01*
X57026255Y-68420316D01*
X57077385Y-68556705D01*
X57164739Y-68673261D01*
X57281295Y-68760615D01*
X57417684Y-68811745D01*
X57479866Y-68818500D01*
X59276134Y-68818500D01*
X59338316Y-68811745D01*
X59474705Y-68760615D01*
X59591261Y-68673261D01*
X59678615Y-68556705D01*
X59683346Y-68544086D01*
X59722598Y-68439382D01*
X59765240Y-68382618D01*
X59831802Y-68357918D01*
X59901150Y-68373126D01*
X59935817Y-68401114D01*
X59964250Y-68433938D01*
X60136126Y-68576632D01*
X60329000Y-68689338D01*
X60537692Y-68769030D01*
X60542760Y-68770061D01*
X60542763Y-68770062D01*
X60650017Y-68791883D01*
X60756597Y-68813567D01*
X60761772Y-68813757D01*
X60761774Y-68813757D01*
X60974673Y-68821564D01*
X60974677Y-68821564D01*
X60979837Y-68821753D01*
X60984957Y-68821097D01*
X60984959Y-68821097D01*
X61196288Y-68794025D01*
X61196289Y-68794025D01*
X61201416Y-68793368D01*
X61206366Y-68791883D01*
X61410429Y-68730661D01*
X61410434Y-68730659D01*
X61415384Y-68729174D01*
X61615994Y-68630896D01*
X61797860Y-68501173D01*
X61956096Y-68343489D01*
X62086453Y-68162077D01*
X62087776Y-68163028D01*
X62134645Y-68119857D01*
X62204580Y-68107625D01*
X62270026Y-68135144D01*
X62297875Y-68166994D01*
X62357987Y-68265088D01*
X62504250Y-68433938D01*
X62676126Y-68576632D01*
X62869000Y-68689338D01*
X63077692Y-68769030D01*
X63082760Y-68770061D01*
X63082763Y-68770062D01*
X63190017Y-68791883D01*
X63296597Y-68813567D01*
X63301772Y-68813757D01*
X63301774Y-68813757D01*
X63514673Y-68821564D01*
X63514677Y-68821564D01*
X63519837Y-68821753D01*
X63524957Y-68821097D01*
X63524959Y-68821097D01*
X63736288Y-68794025D01*
X63736289Y-68794025D01*
X63741416Y-68793368D01*
X63746366Y-68791883D01*
X63950429Y-68730661D01*
X63950434Y-68730659D01*
X63955384Y-68729174D01*
X64155994Y-68630896D01*
X64337860Y-68501173D01*
X64496096Y-68343489D01*
X64626453Y-68162077D01*
X64627776Y-68163028D01*
X64674645Y-68119857D01*
X64744580Y-68107625D01*
X64810026Y-68135144D01*
X64837875Y-68166994D01*
X64897987Y-68265088D01*
X65044250Y-68433938D01*
X65216126Y-68576632D01*
X65409000Y-68689338D01*
X65617692Y-68769030D01*
X65622760Y-68770061D01*
X65622763Y-68770062D01*
X65730017Y-68791883D01*
X65836597Y-68813567D01*
X65841772Y-68813757D01*
X65841774Y-68813757D01*
X66054673Y-68821564D01*
X66054677Y-68821564D01*
X66059837Y-68821753D01*
X66064957Y-68821097D01*
X66064959Y-68821097D01*
X66276288Y-68794025D01*
X66276289Y-68794025D01*
X66281416Y-68793368D01*
X66286366Y-68791883D01*
X66490429Y-68730661D01*
X66490434Y-68730659D01*
X66495384Y-68729174D01*
X66695994Y-68630896D01*
X66877860Y-68501173D01*
X67036096Y-68343489D01*
X67166453Y-68162077D01*
X67174552Y-68145691D01*
X67263136Y-67966453D01*
X67263137Y-67966451D01*
X67265430Y-67961811D01*
X67314457Y-67800444D01*
X67328865Y-67753023D01*
X67328865Y-67753021D01*
X67330370Y-67748069D01*
X67359529Y-67526590D01*
X67361156Y-67460000D01*
X67342852Y-67237361D01*
X67288431Y-67020702D01*
X67199354Y-66815840D01*
X67132025Y-66711765D01*
X67080822Y-66632617D01*
X67080820Y-66632614D01*
X67078014Y-66628277D01*
X66927670Y-66463051D01*
X66923619Y-66459852D01*
X66923615Y-66459848D01*
X66756414Y-66327800D01*
X66756410Y-66327798D01*
X66752359Y-66324598D01*
X66556789Y-66216638D01*
X66551920Y-66214914D01*
X66551916Y-66214912D01*
X66351087Y-66143795D01*
X66351083Y-66143794D01*
X66346212Y-66142069D01*
X66341119Y-66141162D01*
X66341116Y-66141161D01*
X66131373Y-66103800D01*
X66131367Y-66103799D01*
X66126284Y-66102894D01*
X66052452Y-66101992D01*
X65908081Y-66100228D01*
X65908079Y-66100228D01*
X65902911Y-66100165D01*
X65682091Y-66133955D01*
X65469756Y-66203357D01*
X65271607Y-66306507D01*
X65267474Y-66309610D01*
X65267471Y-66309612D01*
X65131621Y-66411611D01*
X65092965Y-66440635D01*
X65089393Y-66444373D01*
X64981729Y-66557037D01*
X64938629Y-66602138D01*
X64831201Y-66759621D01*
X64776293Y-66804621D01*
X64705768Y-66812792D01*
X64642021Y-66781538D01*
X64621324Y-66757054D01*
X64540822Y-66632617D01*
X64540820Y-66632614D01*
X64538014Y-66628277D01*
X64387670Y-66463051D01*
X64383619Y-66459852D01*
X64383615Y-66459848D01*
X64216414Y-66327800D01*
X64216410Y-66327798D01*
X64212359Y-66324598D01*
X64016789Y-66216638D01*
X64011920Y-66214914D01*
X64011916Y-66214912D01*
X63811087Y-66143795D01*
X63811083Y-66143794D01*
X63806212Y-66142069D01*
X63801119Y-66141162D01*
X63801116Y-66141161D01*
X63591373Y-66103800D01*
X63591367Y-66103799D01*
X63586284Y-66102894D01*
X63512452Y-66101992D01*
X63368081Y-66100228D01*
X63368079Y-66100228D01*
X63362911Y-66100165D01*
X63142091Y-66133955D01*
X62929756Y-66203357D01*
X62731607Y-66306507D01*
X62727474Y-66309610D01*
X62727471Y-66309612D01*
X62591621Y-66411611D01*
X62552965Y-66440635D01*
X62549393Y-66444373D01*
X62441729Y-66557037D01*
X62398629Y-66602138D01*
X62291201Y-66759621D01*
X62236293Y-66804621D01*
X62165768Y-66812792D01*
X62102021Y-66781538D01*
X62081324Y-66757054D01*
X62000822Y-66632617D01*
X62000820Y-66632614D01*
X61998014Y-66628277D01*
X61847670Y-66463051D01*
X61843619Y-66459852D01*
X61843615Y-66459848D01*
X61676414Y-66327800D01*
X61676410Y-66327798D01*
X61672359Y-66324598D01*
X61476789Y-66216638D01*
X61471920Y-66214914D01*
X61471916Y-66214912D01*
X61271087Y-66143795D01*
X61271083Y-66143794D01*
X61266212Y-66142069D01*
X61261119Y-66141162D01*
X61261116Y-66141161D01*
X61051373Y-66103800D01*
X61051367Y-66103799D01*
X61046284Y-66102894D01*
X60972452Y-66101992D01*
X60828081Y-66100228D01*
X60828079Y-66100228D01*
X60822911Y-66100165D01*
X60602091Y-66133955D01*
X60389756Y-66203357D01*
X60191607Y-66306507D01*
X60187474Y-66309610D01*
X60187471Y-66309612D01*
X60051621Y-66411611D01*
X60012965Y-66440635D01*
X59956537Y-66499684D01*
X59932283Y-66525064D01*
X59870759Y-66560494D01*
X59799846Y-66557037D01*
X59742060Y-66515791D01*
X59723207Y-66482243D01*
X59681767Y-66371703D01*
X59678615Y-66363295D01*
X59591261Y-66246739D01*
X59474705Y-66159385D01*
X59338316Y-66108255D01*
X59276134Y-66101500D01*
X57479866Y-66101500D01*
X57417684Y-66108255D01*
X57281295Y-66159385D01*
X57164739Y-66246739D01*
X57077385Y-66363295D01*
X57026255Y-66499684D01*
X57019500Y-66561866D01*
X57019500Y-68358134D01*
X43374323Y-68358134D01*
X43664175Y-68127162D01*
X43974082Y-67831525D01*
X43975919Y-67829431D01*
X43975927Y-67829422D01*
X44254635Y-67511616D01*
X44256482Y-67509510D01*
X44290194Y-67463365D01*
X44490225Y-67189556D01*
X44509139Y-67163666D01*
X44510585Y-67161265D01*
X44728601Y-66799142D01*
X44728606Y-66799133D01*
X44730052Y-66796731D01*
X44892438Y-66463051D01*
X44916238Y-66414145D01*
X44916239Y-66414142D01*
X44917471Y-66411611D01*
X45035074Y-66102831D01*
X45068918Y-66013971D01*
X45068920Y-66013964D01*
X45069914Y-66011355D01*
X45186173Y-65599132D01*
X45250589Y-65256581D01*
X45264811Y-65180954D01*
X45264813Y-65180942D01*
X45265327Y-65178207D01*
X45306750Y-64751911D01*
X45308194Y-64696780D01*
X45313289Y-64502234D01*
X45313289Y-64502220D01*
X45313347Y-64500000D01*
X45294291Y-64072121D01*
X45237275Y-63647630D01*
X45208666Y-63521193D01*
X45143368Y-63232618D01*
X45143368Y-63232617D01*
X45142750Y-63229887D01*
X45102901Y-63106143D01*
X45012318Y-62824856D01*
X45012316Y-62824849D01*
X45011463Y-62822202D01*
X44844456Y-62427801D01*
X44643050Y-62049807D01*
X44641516Y-62047458D01*
X44410381Y-61693573D01*
X44410378Y-61693569D01*
X44408840Y-61691214D01*
X44143680Y-61354860D01*
X43849670Y-61043409D01*
X43847579Y-61041556D01*
X43847571Y-61041548D01*
X43531237Y-60761188D01*
X43531235Y-60761186D01*
X43529137Y-60759327D01*
X43184621Y-60504863D01*
X42991733Y-60387355D01*
X42821237Y-60283487D01*
X42821230Y-60283483D01*
X42818848Y-60282032D01*
X42701514Y-60224169D01*
X42632555Y-60190163D01*
X42434714Y-60092598D01*
X42035262Y-59938062D01*
X41788678Y-59867122D01*
X41626335Y-59820417D01*
X41626329Y-59820415D01*
X41623654Y-59819646D01*
X41620917Y-59819117D01*
X41620911Y-59819115D01*
X41475828Y-59791046D01*
X41203148Y-59738289D01*
X41200374Y-59738005D01*
X41200362Y-59738003D01*
X40917111Y-59708982D01*
X40777076Y-59694634D01*
X40774286Y-59694597D01*
X40774278Y-59694597D01*
X40506825Y-59691096D01*
X40348809Y-59689028D01*
X40346009Y-59689241D01*
X40346008Y-59689241D01*
X40271364Y-59694919D01*
X39921740Y-59721514D01*
X39499249Y-59791836D01*
X39413671Y-59814048D01*
X39087400Y-59898731D01*
X39087389Y-59898734D01*
X39084682Y-59899437D01*
X38870336Y-59975973D01*
X38683964Y-60042520D01*
X38683959Y-60042522D01*
X38681321Y-60043464D01*
X38678781Y-60044635D01*
X38678776Y-60044637D01*
X38576930Y-60091589D01*
X38292361Y-60222777D01*
X37920880Y-60435957D01*
X37918577Y-60437566D01*
X37918570Y-60437571D01*
X37775610Y-60537487D01*
X37569820Y-60681315D01*
X37241961Y-60956909D01*
X36939899Y-61260557D01*
X36666025Y-61589855D01*
X36664431Y-61592162D01*
X36664429Y-61592164D01*
X36488879Y-61846164D01*
X36422508Y-61942194D01*
X36211276Y-62314786D01*
X36034002Y-62704680D01*
X36033080Y-62707306D01*
X36033075Y-62707318D01*
X35993633Y-62819634D01*
X35892089Y-63108790D01*
X35891398Y-63111510D01*
X35891397Y-63111514D01*
X35787352Y-63521193D01*
X35786661Y-63523914D01*
X35767176Y-63644888D01*
X35758397Y-63699391D01*
X35727817Y-63763464D01*
X35667450Y-63800833D01*
X35596464Y-63799633D01*
X35537395Y-63760246D01*
X35508997Y-63695176D01*
X35508000Y-63679354D01*
X35508000Y-54506000D01*
X61264496Y-54506000D01*
X61284458Y-54695928D01*
X61343473Y-54877556D01*
X61438960Y-55042944D01*
X61443378Y-55047851D01*
X61443379Y-55047852D01*
X61562325Y-55179955D01*
X61566747Y-55184866D01*
X61721248Y-55297118D01*
X61727276Y-55299802D01*
X61727278Y-55299803D01*
X61889679Y-55372108D01*
X61895712Y-55374794D01*
X61989112Y-55394647D01*
X62076056Y-55413128D01*
X62076061Y-55413128D01*
X62082513Y-55414500D01*
X62273487Y-55414500D01*
X62279939Y-55413128D01*
X62279944Y-55413128D01*
X62366888Y-55394647D01*
X62460288Y-55374794D01*
X62466315Y-55372111D01*
X62466323Y-55372108D01*
X62604208Y-55310718D01*
X62674575Y-55301284D01*
X62738872Y-55331391D01*
X62749091Y-55341514D01*
X62836747Y-55438866D01*
X62991248Y-55551118D01*
X62997276Y-55553802D01*
X62997278Y-55553803D01*
X63159681Y-55626109D01*
X63165712Y-55628794D01*
X63259112Y-55648647D01*
X63346056Y-55667128D01*
X63346061Y-55667128D01*
X63352513Y-55668500D01*
X63543487Y-55668500D01*
X63549939Y-55667128D01*
X63549944Y-55667128D01*
X63636888Y-55648647D01*
X63730288Y-55628794D01*
X63736319Y-55626109D01*
X63898722Y-55553803D01*
X63898724Y-55553802D01*
X63904752Y-55551118D01*
X64059253Y-55438866D01*
X64187040Y-55296944D01*
X64282527Y-55131556D01*
X64341542Y-54949928D01*
X64361504Y-54760000D01*
X64341542Y-54570072D01*
X64282527Y-54388444D01*
X64187040Y-54223056D01*
X64107254Y-54134444D01*
X64063675Y-54086045D01*
X64063674Y-54086044D01*
X64059253Y-54081134D01*
X63904752Y-53968882D01*
X63898724Y-53966198D01*
X63898722Y-53966197D01*
X63736319Y-53893891D01*
X63736318Y-53893891D01*
X63730288Y-53891206D01*
X63636887Y-53871353D01*
X63549944Y-53852872D01*
X63549939Y-53852872D01*
X63543487Y-53851500D01*
X63352513Y-53851500D01*
X63346061Y-53852872D01*
X63346056Y-53852872D01*
X63259112Y-53871353D01*
X63165712Y-53891206D01*
X63159685Y-53893889D01*
X63159677Y-53893892D01*
X63021792Y-53955282D01*
X62951425Y-53964716D01*
X62887128Y-53934609D01*
X62876908Y-53924485D01*
X62793675Y-53832045D01*
X62793674Y-53832044D01*
X62789253Y-53827134D01*
X62634752Y-53714882D01*
X62628724Y-53712198D01*
X62628722Y-53712197D01*
X62466319Y-53639891D01*
X62466318Y-53639891D01*
X62460288Y-53637206D01*
X62366887Y-53617353D01*
X62279944Y-53598872D01*
X62279939Y-53598872D01*
X62273487Y-53597500D01*
X62082513Y-53597500D01*
X62076061Y-53598872D01*
X62076056Y-53598872D01*
X61989113Y-53617353D01*
X61895712Y-53637206D01*
X61889682Y-53639891D01*
X61889681Y-53639891D01*
X61727278Y-53712197D01*
X61727276Y-53712198D01*
X61721248Y-53714882D01*
X61566747Y-53827134D01*
X61438960Y-53969056D01*
X61343473Y-54134444D01*
X61284458Y-54316072D01*
X61264496Y-54506000D01*
X35508000Y-54506000D01*
X35508000Y-51712000D01*
X55168496Y-51712000D01*
X55188458Y-51901928D01*
X55247473Y-52083556D01*
X55342960Y-52248944D01*
X55470747Y-52390866D01*
X55625248Y-52503118D01*
X55631276Y-52505802D01*
X55631278Y-52505803D01*
X55793681Y-52578109D01*
X55799712Y-52580794D01*
X55893113Y-52600647D01*
X55980056Y-52619128D01*
X55980061Y-52619128D01*
X55986513Y-52620500D01*
X56177487Y-52620500D01*
X56183939Y-52619128D01*
X56183944Y-52619128D01*
X56270888Y-52600647D01*
X56364288Y-52580794D01*
X56370319Y-52578109D01*
X56532722Y-52505803D01*
X56532724Y-52505802D01*
X56538752Y-52503118D01*
X56693253Y-52390866D01*
X56821040Y-52248944D01*
X56916527Y-52083556D01*
X56975542Y-51901928D01*
X56995504Y-51712000D01*
X56975542Y-51522072D01*
X56954724Y-51458000D01*
X66852496Y-51458000D01*
X66872458Y-51647928D01*
X66931473Y-51829556D01*
X66934776Y-51835278D01*
X66934777Y-51835279D01*
X66965309Y-51888162D01*
X67026960Y-51994944D01*
X67031378Y-51999851D01*
X67031379Y-51999852D01*
X67150325Y-52131955D01*
X67154747Y-52136866D01*
X67309248Y-52249118D01*
X67315276Y-52251802D01*
X67315278Y-52251803D01*
X67477681Y-52324109D01*
X67483712Y-52326794D01*
X67577113Y-52346647D01*
X67664056Y-52365128D01*
X67664061Y-52365128D01*
X67670513Y-52366500D01*
X67861487Y-52366500D01*
X67867939Y-52365128D01*
X67867944Y-52365128D01*
X67954887Y-52346647D01*
X68048288Y-52326794D01*
X68054319Y-52324109D01*
X68216722Y-52251803D01*
X68216724Y-52251802D01*
X68222752Y-52249118D01*
X68377253Y-52136866D01*
X68381675Y-52131955D01*
X68500621Y-51999852D01*
X68500622Y-51999851D01*
X68505040Y-51994944D01*
X68545882Y-51924204D01*
X68597263Y-51875212D01*
X68666977Y-51861776D01*
X68732888Y-51888162D01*
X68764118Y-51924204D01*
X68804960Y-51994944D01*
X68809378Y-51999851D01*
X68809379Y-51999852D01*
X68928325Y-52131955D01*
X68932747Y-52136866D01*
X69087248Y-52249118D01*
X69093276Y-52251802D01*
X69093278Y-52251803D01*
X69255681Y-52324109D01*
X69261712Y-52326794D01*
X69355113Y-52346647D01*
X69442056Y-52365128D01*
X69442061Y-52365128D01*
X69448513Y-52366500D01*
X69639487Y-52366500D01*
X69645939Y-52365128D01*
X69645944Y-52365128D01*
X69732887Y-52346647D01*
X69826288Y-52326794D01*
X69832319Y-52324109D01*
X69994722Y-52251803D01*
X69994724Y-52251802D01*
X70000752Y-52249118D01*
X70155253Y-52136866D01*
X70159675Y-52131955D01*
X70278621Y-51999852D01*
X70278622Y-51999851D01*
X70283040Y-51994944D01*
X70344691Y-51888162D01*
X70375223Y-51835279D01*
X70375224Y-51835278D01*
X70378527Y-51829556D01*
X70437542Y-51647928D01*
X70457504Y-51458000D01*
X70437542Y-51268072D01*
X70378527Y-51086444D01*
X70352168Y-51040788D01*
X70286341Y-50926774D01*
X70283040Y-50921056D01*
X70155253Y-50779134D01*
X70000752Y-50666882D01*
X69994724Y-50664198D01*
X69994722Y-50664197D01*
X69832319Y-50591891D01*
X69832318Y-50591891D01*
X69826288Y-50589206D01*
X69732888Y-50569353D01*
X69645944Y-50550872D01*
X69645939Y-50550872D01*
X69639487Y-50549500D01*
X69448513Y-50549500D01*
X69442061Y-50550872D01*
X69442056Y-50550872D01*
X69355112Y-50569353D01*
X69261712Y-50589206D01*
X69255682Y-50591891D01*
X69255681Y-50591891D01*
X69093278Y-50664197D01*
X69093276Y-50664198D01*
X69087248Y-50666882D01*
X68932747Y-50779134D01*
X68804960Y-50921056D01*
X68801659Y-50926774D01*
X68764119Y-50991795D01*
X68712737Y-51040788D01*
X68643023Y-51054224D01*
X68577112Y-51027838D01*
X68545881Y-50991795D01*
X68508341Y-50926774D01*
X68505040Y-50921056D01*
X68377253Y-50779134D01*
X68222752Y-50666882D01*
X68216724Y-50664198D01*
X68216722Y-50664197D01*
X68054319Y-50591891D01*
X68054318Y-50591891D01*
X68048288Y-50589206D01*
X67954888Y-50569353D01*
X67867944Y-50550872D01*
X67867939Y-50550872D01*
X67861487Y-50549500D01*
X67670513Y-50549500D01*
X67664061Y-50550872D01*
X67664056Y-50550872D01*
X67577112Y-50569353D01*
X67483712Y-50589206D01*
X67477682Y-50591891D01*
X67477681Y-50591891D01*
X67315278Y-50664197D01*
X67315276Y-50664198D01*
X67309248Y-50666882D01*
X67154747Y-50779134D01*
X67026960Y-50921056D01*
X67023659Y-50926774D01*
X66957833Y-51040788D01*
X66931473Y-51086444D01*
X66872458Y-51268072D01*
X66852496Y-51458000D01*
X56954724Y-51458000D01*
X56916527Y-51340444D01*
X56821040Y-51175056D01*
X56741254Y-51086444D01*
X56697675Y-51038045D01*
X56697674Y-51038044D01*
X56693253Y-51033134D01*
X56538752Y-50920882D01*
X56532724Y-50918198D01*
X56532722Y-50918197D01*
X56370319Y-50845891D01*
X56370318Y-50845891D01*
X56364288Y-50843206D01*
X56270888Y-50823353D01*
X56183944Y-50804872D01*
X56183939Y-50804872D01*
X56177487Y-50803500D01*
X55986513Y-50803500D01*
X55980061Y-50804872D01*
X55980056Y-50804872D01*
X55893112Y-50823353D01*
X55799712Y-50843206D01*
X55793682Y-50845891D01*
X55793681Y-50845891D01*
X55631278Y-50918197D01*
X55631276Y-50918198D01*
X55625248Y-50920882D01*
X55470747Y-51033134D01*
X55466326Y-51038044D01*
X55466325Y-51038045D01*
X55422747Y-51086444D01*
X55342960Y-51175056D01*
X55247473Y-51340444D01*
X55188458Y-51522072D01*
X55168496Y-51712000D01*
X35508000Y-51712000D01*
X35508000Y-47148966D01*
X35954257Y-47148966D01*
X35984565Y-47283446D01*
X35987645Y-47293275D01*
X36067770Y-47490603D01*
X36072413Y-47499794D01*
X36183694Y-47681388D01*
X36189777Y-47689699D01*
X36329213Y-47850667D01*
X36336580Y-47857883D01*
X36500434Y-47993916D01*
X36508881Y-47999831D01*
X36692756Y-48107279D01*
X36702042Y-48111729D01*
X36901001Y-48187703D01*
X36910899Y-48190579D01*
X37014250Y-48211606D01*
X37028299Y-48210410D01*
X37032000Y-48200065D01*
X37032000Y-48199517D01*
X37540000Y-48199517D01*
X37544064Y-48213359D01*
X37557478Y-48215393D01*
X37564184Y-48214534D01*
X37574262Y-48212392D01*
X37778255Y-48151191D01*
X37787842Y-48147433D01*
X37979095Y-48053739D01*
X37987945Y-48048464D01*
X38161328Y-47924792D01*
X38169200Y-47918139D01*
X38320052Y-47767812D01*
X38326730Y-47759965D01*
X38451003Y-47587020D01*
X38456313Y-47578183D01*
X38550670Y-47387267D01*
X38554469Y-47377672D01*
X38616377Y-47173910D01*
X38618555Y-47163837D01*
X38619986Y-47152962D01*
X38617775Y-47138778D01*
X38604617Y-47135000D01*
X37558115Y-47135000D01*
X37542876Y-47139475D01*
X37541671Y-47140865D01*
X37540000Y-47148548D01*
X37540000Y-48199517D01*
X37032000Y-48199517D01*
X37032000Y-47153115D01*
X37027525Y-47137876D01*
X37026135Y-47136671D01*
X37018452Y-47135000D01*
X35969225Y-47135000D01*
X35955694Y-47138973D01*
X35954257Y-47148966D01*
X35508000Y-47148966D01*
X35508000Y-46886000D01*
X46684000Y-46886000D01*
X51764000Y-46886000D01*
X51764000Y-45488000D01*
X51784002Y-45419879D01*
X51837658Y-45373386D01*
X51890000Y-45362000D01*
X52073152Y-45362000D01*
X52141273Y-45382002D01*
X52158969Y-45397045D01*
X52159423Y-45396541D01*
X52164325Y-45400954D01*
X52168747Y-45405866D01*
X52323248Y-45518118D01*
X52329276Y-45520802D01*
X52329278Y-45520803D01*
X52429169Y-45565277D01*
X52497712Y-45595794D01*
X52591113Y-45615647D01*
X52678056Y-45634128D01*
X52678061Y-45634128D01*
X52684513Y-45635500D01*
X52875487Y-45635500D01*
X52881939Y-45634128D01*
X52881944Y-45634128D01*
X52968887Y-45615647D01*
X53062288Y-45595794D01*
X53130831Y-45565277D01*
X53230722Y-45520803D01*
X53230724Y-45520802D01*
X53236752Y-45518118D01*
X53391253Y-45405866D01*
X53395675Y-45400954D01*
X53400577Y-45396541D01*
X53402090Y-45398222D01*
X53453649Y-45366452D01*
X53486848Y-45362000D01*
X54050000Y-45362000D01*
X54050000Y-44825695D01*
X81389251Y-44825695D01*
X81389548Y-44830848D01*
X81389548Y-44830851D01*
X81395011Y-44925590D01*
X81402110Y-45048715D01*
X81403247Y-45053761D01*
X81403248Y-45053767D01*
X81413342Y-45098556D01*
X81451222Y-45266639D01*
X81535266Y-45473616D01*
X81584685Y-45554261D01*
X81640148Y-45644768D01*
X81651987Y-45664088D01*
X81798250Y-45832938D01*
X81802230Y-45836242D01*
X81806981Y-45840187D01*
X81846616Y-45899090D01*
X81848113Y-45970071D01*
X81810997Y-46030593D01*
X81770724Y-46055112D01*
X81655295Y-46098385D01*
X81538739Y-46185739D01*
X81451385Y-46302295D01*
X81400255Y-46438684D01*
X81393500Y-46500866D01*
X81393500Y-48297134D01*
X81400255Y-48359316D01*
X81451385Y-48495705D01*
X81538739Y-48612261D01*
X81655295Y-48699615D01*
X81791684Y-48750745D01*
X81853866Y-48757500D01*
X83650134Y-48757500D01*
X83712316Y-48750745D01*
X83848705Y-48699615D01*
X83965261Y-48612261D01*
X84052615Y-48495705D01*
X84103745Y-48359316D01*
X84110500Y-48297134D01*
X84110500Y-46500866D01*
X84103745Y-46438684D01*
X84052615Y-46302295D01*
X83965261Y-46185739D01*
X83848705Y-46098385D01*
X83836132Y-46093672D01*
X83730203Y-46053960D01*
X83673439Y-46011318D01*
X83648739Y-45944756D01*
X83663947Y-45875408D01*
X83685493Y-45846727D01*
X83786435Y-45746137D01*
X83790096Y-45742489D01*
X83825841Y-45692745D01*
X83917435Y-45565277D01*
X83920453Y-45561077D01*
X83977876Y-45444891D01*
X84017136Y-45365453D01*
X84017137Y-45365451D01*
X84019430Y-45360811D01*
X84057437Y-45235717D01*
X84082865Y-45152023D01*
X84082865Y-45152021D01*
X84084370Y-45147069D01*
X84113529Y-44925590D01*
X84115156Y-44859000D01*
X84096852Y-44636361D01*
X84042431Y-44419702D01*
X83953354Y-44214840D01*
X83832014Y-44027277D01*
X83681670Y-43862051D01*
X83677619Y-43858852D01*
X83677615Y-43858848D01*
X83510414Y-43726800D01*
X83510410Y-43726798D01*
X83506359Y-43723598D01*
X83310789Y-43615638D01*
X83305920Y-43613914D01*
X83305916Y-43613912D01*
X83105087Y-43542795D01*
X83105083Y-43542794D01*
X83100212Y-43541069D01*
X83095119Y-43540162D01*
X83095116Y-43540161D01*
X82885373Y-43502800D01*
X82885367Y-43502799D01*
X82880284Y-43501894D01*
X82806452Y-43500992D01*
X82662081Y-43499228D01*
X82662079Y-43499228D01*
X82656911Y-43499165D01*
X82436091Y-43532955D01*
X82223756Y-43602357D01*
X82025607Y-43705507D01*
X82021474Y-43708610D01*
X82021471Y-43708612D01*
X81926117Y-43780206D01*
X81846965Y-43839635D01*
X81692629Y-44001138D01*
X81689715Y-44005410D01*
X81689714Y-44005411D01*
X81614803Y-44115226D01*
X81566743Y-44185680D01*
X81551003Y-44219590D01*
X81480611Y-44371237D01*
X81472688Y-44388305D01*
X81412989Y-44603570D01*
X81389251Y-44825695D01*
X54050000Y-44825695D01*
X54050000Y-43710000D01*
X54070002Y-43641879D01*
X54123658Y-43595386D01*
X54176000Y-43584000D01*
X56082000Y-43584000D01*
X56438496Y-43584000D01*
X56458458Y-43773928D01*
X56517473Y-43955556D01*
X56612960Y-44120944D01*
X56740747Y-44262866D01*
X56895248Y-44375118D01*
X56901276Y-44377802D01*
X56901278Y-44377803D01*
X57006656Y-44424720D01*
X57069712Y-44452794D01*
X57163112Y-44472647D01*
X57250056Y-44491128D01*
X57250061Y-44491128D01*
X57256513Y-44492500D01*
X57447487Y-44492500D01*
X57453939Y-44491128D01*
X57453944Y-44491128D01*
X57540888Y-44472647D01*
X57634288Y-44452794D01*
X57697344Y-44424720D01*
X57802722Y-44377803D01*
X57802724Y-44377802D01*
X57808752Y-44375118D01*
X57963253Y-44262866D01*
X58091040Y-44120944D01*
X58186527Y-43955556D01*
X58245542Y-43773928D01*
X58265504Y-43584000D01*
X58256970Y-43502800D01*
X58246232Y-43400635D01*
X58246232Y-43400633D01*
X58245542Y-43394072D01*
X58186527Y-43212444D01*
X58091040Y-43047056D01*
X58085034Y-43040385D01*
X57967675Y-42910045D01*
X57967674Y-42910044D01*
X57963253Y-42905134D01*
X57808752Y-42792882D01*
X57802724Y-42790198D01*
X57802722Y-42790197D01*
X57640319Y-42717891D01*
X57640318Y-42717891D01*
X57634288Y-42715206D01*
X57540887Y-42695353D01*
X57453944Y-42676872D01*
X57453939Y-42676872D01*
X57447487Y-42675500D01*
X57256513Y-42675500D01*
X57250061Y-42676872D01*
X57250056Y-42676872D01*
X57163113Y-42695353D01*
X57069712Y-42715206D01*
X57063682Y-42717891D01*
X57063681Y-42717891D01*
X56901278Y-42790197D01*
X56901276Y-42790198D01*
X56895248Y-42792882D01*
X56740747Y-42905134D01*
X56736326Y-42910044D01*
X56736325Y-42910045D01*
X56618967Y-43040385D01*
X56612960Y-43047056D01*
X56517473Y-43212444D01*
X56458458Y-43394072D01*
X56457768Y-43400633D01*
X56457768Y-43400635D01*
X56447030Y-43502800D01*
X56438496Y-43584000D01*
X56082000Y-43584000D01*
X56082000Y-42060000D01*
X54176000Y-42060000D01*
X54107879Y-42039998D01*
X54061386Y-41986342D01*
X54050000Y-41934000D01*
X54050000Y-40536000D01*
X70154496Y-40536000D01*
X70155186Y-40542565D01*
X70172863Y-40710749D01*
X70174458Y-40725928D01*
X70233473Y-40907556D01*
X70328960Y-41072944D01*
X70456747Y-41214866D01*
X70611248Y-41327118D01*
X70617276Y-41329802D01*
X70617278Y-41329803D01*
X70779681Y-41402109D01*
X70785712Y-41404794D01*
X70879113Y-41424647D01*
X70966056Y-41443128D01*
X70966061Y-41443128D01*
X70972513Y-41444500D01*
X71163487Y-41444500D01*
X71169939Y-41443128D01*
X71169944Y-41443128D01*
X71256887Y-41424647D01*
X71350288Y-41404794D01*
X71356319Y-41402109D01*
X71518722Y-41329803D01*
X71518724Y-41329802D01*
X71524752Y-41327118D01*
X71679253Y-41214866D01*
X71807040Y-41072944D01*
X71902527Y-40907556D01*
X71961542Y-40725928D01*
X71963138Y-40710749D01*
X71980814Y-40542565D01*
X71981504Y-40536000D01*
X71961542Y-40346072D01*
X71902527Y-40164444D01*
X71823751Y-40028000D01*
X80822496Y-40028000D01*
X80842458Y-40217928D01*
X80901473Y-40399556D01*
X80996960Y-40564944D01*
X81124747Y-40706866D01*
X81279248Y-40819118D01*
X81285276Y-40821802D01*
X81285278Y-40821803D01*
X81447681Y-40894109D01*
X81453712Y-40896794D01*
X81547113Y-40916647D01*
X81634056Y-40935128D01*
X81634061Y-40935128D01*
X81640513Y-40936500D01*
X81831487Y-40936500D01*
X81837939Y-40935128D01*
X81837944Y-40935128D01*
X81924887Y-40916647D01*
X82018288Y-40896794D01*
X82024319Y-40894109D01*
X82186722Y-40821803D01*
X82186724Y-40821802D01*
X82192752Y-40819118D01*
X82347253Y-40706866D01*
X82475040Y-40564944D01*
X82570527Y-40399556D01*
X82629542Y-40217928D01*
X82649504Y-40028000D01*
X82632062Y-39862045D01*
X82630232Y-39844635D01*
X82630232Y-39844633D01*
X82629542Y-39838072D01*
X82570527Y-39656444D01*
X82475040Y-39491056D01*
X82395254Y-39402444D01*
X82351675Y-39354045D01*
X82351674Y-39354044D01*
X82347253Y-39349134D01*
X82192752Y-39236882D01*
X82186724Y-39234198D01*
X82186722Y-39234197D01*
X82024319Y-39161891D01*
X82024318Y-39161891D01*
X82018288Y-39159206D01*
X81924887Y-39139353D01*
X81837944Y-39120872D01*
X81837939Y-39120872D01*
X81831487Y-39119500D01*
X81640513Y-39119500D01*
X81634061Y-39120872D01*
X81634056Y-39120872D01*
X81547113Y-39139353D01*
X81453712Y-39159206D01*
X81447682Y-39161891D01*
X81447681Y-39161891D01*
X81285278Y-39234197D01*
X81285276Y-39234198D01*
X81279248Y-39236882D01*
X81124747Y-39349134D01*
X81120326Y-39354044D01*
X81120325Y-39354045D01*
X81076747Y-39402444D01*
X80996960Y-39491056D01*
X80901473Y-39656444D01*
X80842458Y-39838072D01*
X80841768Y-39844633D01*
X80841768Y-39844635D01*
X80839938Y-39862045D01*
X80822496Y-40028000D01*
X71823751Y-40028000D01*
X71807040Y-39999056D01*
X71679253Y-39857134D01*
X71524752Y-39744882D01*
X71518724Y-39742198D01*
X71518722Y-39742197D01*
X71356319Y-39669891D01*
X71356318Y-39669891D01*
X71350288Y-39667206D01*
X71256887Y-39647353D01*
X71169944Y-39628872D01*
X71169939Y-39628872D01*
X71163487Y-39627500D01*
X70972513Y-39627500D01*
X70966061Y-39628872D01*
X70966056Y-39628872D01*
X70879113Y-39647353D01*
X70785712Y-39667206D01*
X70779682Y-39669891D01*
X70779681Y-39669891D01*
X70617278Y-39742197D01*
X70617276Y-39742198D01*
X70611248Y-39744882D01*
X70456747Y-39857134D01*
X70328960Y-39999056D01*
X70233473Y-40164444D01*
X70174458Y-40346072D01*
X70154496Y-40536000D01*
X54050000Y-40536000D01*
X54050000Y-37996000D01*
X46684000Y-37996000D01*
X46684000Y-46886000D01*
X35508000Y-46886000D01*
X35508000Y-45239134D01*
X35927500Y-45239134D01*
X35934255Y-45301316D01*
X35985385Y-45437705D01*
X36072739Y-45554261D01*
X36189295Y-45641615D01*
X36197704Y-45644767D01*
X36197705Y-45644768D01*
X36306960Y-45685726D01*
X36363725Y-45728367D01*
X36388425Y-45794929D01*
X36373218Y-45864278D01*
X36353825Y-45890759D01*
X36230590Y-46019717D01*
X36224104Y-46027727D01*
X36104098Y-46203649D01*
X36099000Y-46212623D01*
X36009338Y-46405783D01*
X36005775Y-46415470D01*
X35950389Y-46615183D01*
X35951912Y-46623607D01*
X35964292Y-46627000D01*
X38604344Y-46627000D01*
X38617875Y-46623027D01*
X38619180Y-46613947D01*
X38577214Y-46446875D01*
X38573894Y-46437124D01*
X38488972Y-46241814D01*
X38484105Y-46232739D01*
X38368426Y-46053926D01*
X38362136Y-46045757D01*
X38218293Y-45887677D01*
X38187241Y-45823831D01*
X38195635Y-45753333D01*
X38240812Y-45698564D01*
X38267256Y-45684895D01*
X38374297Y-45644767D01*
X38382705Y-45641615D01*
X38499261Y-45554261D01*
X38586615Y-45437705D01*
X38637745Y-45301316D01*
X38644500Y-45239134D01*
X38644500Y-43442866D01*
X38637745Y-43380684D01*
X38586615Y-43244295D01*
X38499261Y-43127739D01*
X38382705Y-43040385D01*
X38246316Y-42989255D01*
X38184134Y-42982500D01*
X36387866Y-42982500D01*
X36325684Y-42989255D01*
X36189295Y-43040385D01*
X36072739Y-43127739D01*
X35985385Y-43244295D01*
X35934255Y-43380684D01*
X35927500Y-43442866D01*
X35927500Y-45239134D01*
X35508000Y-45239134D01*
X35508000Y-35695851D01*
X73864719Y-35695851D01*
X73881268Y-35892934D01*
X73935783Y-36083050D01*
X74026187Y-36258956D01*
X74149035Y-36413953D01*
X74299650Y-36542136D01*
X74472294Y-36638624D01*
X74660392Y-36699740D01*
X74856777Y-36723158D01*
X74862912Y-36722686D01*
X74862914Y-36722686D01*
X75047830Y-36708457D01*
X75047834Y-36708456D01*
X75053972Y-36707984D01*
X75244463Y-36654798D01*
X75249967Y-36652018D01*
X75249969Y-36652017D01*
X75415495Y-36568404D01*
X75415497Y-36568403D01*
X75420996Y-36565625D01*
X75576847Y-36443861D01*
X75706078Y-36294145D01*
X75803769Y-36122179D01*
X75866197Y-35934513D01*
X75890985Y-35738295D01*
X75891380Y-35710000D01*
X75872080Y-35513167D01*
X75814916Y-35323831D01*
X75722066Y-35149204D01*
X75718167Y-35144424D01*
X75717715Y-35143743D01*
X75696676Y-35075935D01*
X75713105Y-35011775D01*
X75800723Y-34857542D01*
X75800725Y-34857537D01*
X75803769Y-34852179D01*
X75866197Y-34664513D01*
X75890985Y-34468295D01*
X75891380Y-34440000D01*
X75872080Y-34243167D01*
X75814916Y-34053831D01*
X75722066Y-33879204D01*
X75718167Y-33874424D01*
X75717715Y-33873743D01*
X75696676Y-33805935D01*
X75713105Y-33741775D01*
X75800723Y-33587542D01*
X75800725Y-33587537D01*
X75803769Y-33582179D01*
X75866197Y-33394513D01*
X75890985Y-33198295D01*
X75891380Y-33170000D01*
X75872080Y-32973167D01*
X75814916Y-32783831D01*
X75722066Y-32609204D01*
X75718167Y-32604424D01*
X75717715Y-32603743D01*
X75696676Y-32535935D01*
X75713105Y-32471775D01*
X75800723Y-32317542D01*
X75800725Y-32317537D01*
X75803769Y-32312179D01*
X75866197Y-32124513D01*
X75890985Y-31928295D01*
X75891380Y-31900000D01*
X75872080Y-31703167D01*
X75814916Y-31513831D01*
X75722066Y-31339204D01*
X75651709Y-31252938D01*
X75600960Y-31190713D01*
X75600957Y-31190710D01*
X75597065Y-31185938D01*
X75590724Y-31180692D01*
X75449425Y-31063799D01*
X75449421Y-31063797D01*
X75444675Y-31059870D01*
X75270701Y-30965802D01*
X75081768Y-30907318D01*
X75075643Y-30906674D01*
X75075642Y-30906674D01*
X74891204Y-30887289D01*
X74891202Y-30887289D01*
X74885075Y-30886645D01*
X74802576Y-30894153D01*
X74694251Y-30904011D01*
X74694248Y-30904012D01*
X74688112Y-30904570D01*
X74682206Y-30906308D01*
X74682202Y-30906309D01*
X74577076Y-30937249D01*
X74498381Y-30960410D01*
X74492923Y-30963263D01*
X74492919Y-30963265D01*
X74402147Y-31010720D01*
X74323110Y-31052040D01*
X74168975Y-31175968D01*
X74041846Y-31327474D01*
X74038879Y-31332872D01*
X74038875Y-31332877D01*
X74035397Y-31339204D01*
X73946567Y-31500787D01*
X73944706Y-31506654D01*
X73944705Y-31506656D01*
X73888627Y-31683436D01*
X73886765Y-31689306D01*
X73864719Y-31885851D01*
X73881268Y-32082934D01*
X73935783Y-32273050D01*
X74026187Y-32448956D01*
X74030016Y-32453787D01*
X74031839Y-32456088D01*
X74032414Y-32457509D01*
X74033353Y-32458966D01*
X74033076Y-32459144D01*
X74058474Y-32521898D01*
X74045301Y-32591662D01*
X74041846Y-32597474D01*
X73946567Y-32770787D01*
X73944706Y-32776654D01*
X73944705Y-32776656D01*
X73888627Y-32953436D01*
X73886765Y-32959306D01*
X73864719Y-33155851D01*
X73881268Y-33352934D01*
X73935783Y-33543050D01*
X74026187Y-33718956D01*
X74030016Y-33723787D01*
X74031839Y-33726088D01*
X74032414Y-33727509D01*
X74033353Y-33728966D01*
X74033076Y-33729144D01*
X74058474Y-33791898D01*
X74045301Y-33861662D01*
X74041846Y-33867474D01*
X73946567Y-34040787D01*
X73944706Y-34046654D01*
X73944705Y-34046656D01*
X73888627Y-34223436D01*
X73886765Y-34229306D01*
X73864719Y-34425851D01*
X73881268Y-34622934D01*
X73935783Y-34813050D01*
X74026187Y-34988956D01*
X74030016Y-34993787D01*
X74031839Y-34996088D01*
X74032414Y-34997509D01*
X74033353Y-34998966D01*
X74033076Y-34999144D01*
X74058474Y-35061898D01*
X74045301Y-35131662D01*
X74041846Y-35137474D01*
X73946567Y-35310787D01*
X73944706Y-35316654D01*
X73944705Y-35316656D01*
X73888627Y-35493436D01*
X73886765Y-35499306D01*
X73864719Y-35695851D01*
X35508000Y-35695851D01*
X35508000Y-26330792D01*
X35528002Y-26262671D01*
X35581658Y-26216178D01*
X35651932Y-26206074D01*
X35716512Y-26235568D01*
X35754896Y-26295294D01*
X35757579Y-26306211D01*
X35825594Y-26648144D01*
X35946163Y-27059127D01*
X35947190Y-27061740D01*
X35947190Y-27061741D01*
X36085651Y-27414145D01*
X36102789Y-27457765D01*
X36104044Y-27460276D01*
X36272161Y-27796731D01*
X36294231Y-27840901D01*
X36518974Y-28205502D01*
X36775239Y-28548682D01*
X36777100Y-28550760D01*
X36777101Y-28550761D01*
X37059127Y-28865637D01*
X37059133Y-28865643D01*
X37060995Y-28867722D01*
X37373981Y-29160098D01*
X37711719Y-29423493D01*
X38071533Y-29655822D01*
X38074012Y-29657126D01*
X38074015Y-29657128D01*
X38448077Y-29853932D01*
X38448083Y-29853935D01*
X38450577Y-29855247D01*
X38453175Y-29856331D01*
X38453179Y-29856333D01*
X38843263Y-30019109D01*
X38843268Y-30019111D01*
X38845847Y-30020187D01*
X38848512Y-30021030D01*
X38848518Y-30021032D01*
X39070561Y-30091254D01*
X39254214Y-30149336D01*
X39672446Y-30241673D01*
X39675220Y-30242031D01*
X39675221Y-30242031D01*
X40094460Y-30296109D01*
X40094467Y-30296110D01*
X40097230Y-30296466D01*
X40100017Y-30296576D01*
X40100023Y-30296576D01*
X40348238Y-30306328D01*
X40525203Y-30313281D01*
X40527995Y-30313142D01*
X40528000Y-30313142D01*
X40950172Y-30292125D01*
X40950181Y-30292124D01*
X40952976Y-30291985D01*
X40955753Y-30291597D01*
X40955755Y-30291597D01*
X41030066Y-30281219D01*
X41377163Y-30232747D01*
X41794404Y-30136036D01*
X42080927Y-30042109D01*
X42198744Y-30003487D01*
X42198750Y-30003485D01*
X42201397Y-30002617D01*
X42594918Y-29833547D01*
X42971852Y-29630164D01*
X43329214Y-29394080D01*
X43664175Y-29127162D01*
X43974082Y-28831525D01*
X43975919Y-28829431D01*
X43975927Y-28829422D01*
X44254635Y-28511616D01*
X44256482Y-28509510D01*
X44509139Y-28163666D01*
X44635519Y-27953750D01*
X44728601Y-27799142D01*
X44728606Y-27799133D01*
X44730052Y-27796731D01*
X44917471Y-27411611D01*
X45050724Y-27061741D01*
X45068918Y-27013971D01*
X45068920Y-27013964D01*
X45069914Y-27011355D01*
X45186173Y-26599132D01*
X45186689Y-26596389D01*
X45264811Y-26180954D01*
X45264813Y-26180942D01*
X45265327Y-26178207D01*
X45306750Y-25751911D01*
X45311248Y-25580152D01*
X45313289Y-25502234D01*
X45313289Y-25502220D01*
X45313347Y-25500000D01*
X45294291Y-25072121D01*
X45237275Y-24647630D01*
X45228109Y-24607119D01*
X45143368Y-24232618D01*
X45143368Y-24232617D01*
X45142750Y-24229887D01*
X45127012Y-24181015D01*
X45012318Y-23824856D01*
X45012316Y-23824849D01*
X45011463Y-23822202D01*
X44882301Y-23517174D01*
X44845550Y-23430384D01*
X44845548Y-23430379D01*
X44844456Y-23427801D01*
X44643050Y-23049807D01*
X44635531Y-23038295D01*
X44410381Y-22693573D01*
X44410378Y-22693569D01*
X44408840Y-22691214D01*
X44205081Y-22432747D01*
X44145409Y-22357053D01*
X44145407Y-22357051D01*
X44143680Y-22354860D01*
X44011364Y-22214695D01*
X48120251Y-22214695D01*
X48120548Y-22219848D01*
X48120548Y-22219851D01*
X48128333Y-22354860D01*
X48133110Y-22437715D01*
X48134247Y-22442761D01*
X48134248Y-22442767D01*
X48135699Y-22449204D01*
X48182222Y-22655639D01*
X48266266Y-22862616D01*
X48268965Y-22867020D01*
X48358742Y-23013523D01*
X48382987Y-23053088D01*
X48386367Y-23056990D01*
X48388112Y-23059005D01*
X48529250Y-23221938D01*
X48701126Y-23364632D01*
X48894000Y-23477338D01*
X49102692Y-23557030D01*
X49107760Y-23558061D01*
X49107763Y-23558062D01*
X49215017Y-23579883D01*
X49321597Y-23601567D01*
X49326772Y-23601757D01*
X49326774Y-23601757D01*
X49539673Y-23609564D01*
X49539677Y-23609564D01*
X49544837Y-23609753D01*
X49549957Y-23609097D01*
X49549959Y-23609097D01*
X49761288Y-23582025D01*
X49761289Y-23582025D01*
X49766416Y-23581368D01*
X49771366Y-23579883D01*
X49975429Y-23518661D01*
X49975434Y-23518659D01*
X49980384Y-23517174D01*
X50180994Y-23418896D01*
X50362860Y-23289173D01*
X50471091Y-23181319D01*
X50533462Y-23147404D01*
X50604268Y-23152592D01*
X50661030Y-23195238D01*
X50678012Y-23226341D01*
X50700201Y-23285529D01*
X50722385Y-23344705D01*
X50809739Y-23461261D01*
X50926295Y-23548615D01*
X51062684Y-23599745D01*
X51124866Y-23606500D01*
X52921134Y-23606500D01*
X52983316Y-23599745D01*
X53119705Y-23548615D01*
X53236261Y-23461261D01*
X53323615Y-23344705D01*
X53334831Y-23314786D01*
X53348997Y-23277000D01*
X53391639Y-23220235D01*
X53458201Y-23195536D01*
X53527550Y-23210744D01*
X53577668Y-23261030D01*
X53588098Y-23286500D01*
X53610502Y-23364632D01*
X53615783Y-23383050D01*
X53638649Y-23427542D01*
X53683543Y-23514895D01*
X53706187Y-23558956D01*
X53829035Y-23713953D01*
X53833728Y-23717947D01*
X53833729Y-23717948D01*
X53964051Y-23828860D01*
X53979650Y-23842136D01*
X54152294Y-23938624D01*
X54340392Y-23999740D01*
X54536777Y-24023158D01*
X54542912Y-24022686D01*
X54542914Y-24022686D01*
X54727830Y-24008457D01*
X54727834Y-24008456D01*
X54733972Y-24007984D01*
X54924463Y-23954798D01*
X54929967Y-23952018D01*
X54929969Y-23952017D01*
X55095493Y-23868405D01*
X55095495Y-23868404D01*
X55100996Y-23865625D01*
X55105850Y-23861833D01*
X55105859Y-23861827D01*
X55114548Y-23855038D01*
X55180542Y-23828860D01*
X55253592Y-23844339D01*
X55422294Y-23938624D01*
X55610392Y-23999740D01*
X55806777Y-24023158D01*
X55812912Y-24022686D01*
X55812914Y-24022686D01*
X55997830Y-24008457D01*
X55997834Y-24008456D01*
X56003972Y-24007984D01*
X56194463Y-23954798D01*
X56199967Y-23952018D01*
X56199969Y-23952017D01*
X56365493Y-23868405D01*
X56365495Y-23868404D01*
X56370996Y-23865625D01*
X56375850Y-23861833D01*
X56375859Y-23861827D01*
X56384548Y-23855038D01*
X56450542Y-23828860D01*
X56523592Y-23844339D01*
X56692294Y-23938624D01*
X56880392Y-23999740D01*
X57076777Y-24023158D01*
X57082912Y-24022686D01*
X57082914Y-24022686D01*
X57267830Y-24008457D01*
X57267834Y-24008456D01*
X57273972Y-24007984D01*
X57464463Y-23954798D01*
X57469967Y-23952018D01*
X57469969Y-23952017D01*
X57635493Y-23868405D01*
X57635495Y-23868404D01*
X57640996Y-23865625D01*
X57645850Y-23861833D01*
X57645859Y-23861827D01*
X57654548Y-23855038D01*
X57720542Y-23828860D01*
X57793592Y-23844339D01*
X57962294Y-23938624D01*
X58150392Y-23999740D01*
X58346777Y-24023158D01*
X58352912Y-24022686D01*
X58352914Y-24022686D01*
X58537830Y-24008457D01*
X58537834Y-24008456D01*
X58543972Y-24007984D01*
X58734463Y-23954798D01*
X58739967Y-23952018D01*
X58739969Y-23952017D01*
X58905493Y-23868405D01*
X58905495Y-23868404D01*
X58910996Y-23865625D01*
X58915850Y-23861833D01*
X58915859Y-23861827D01*
X58924548Y-23855038D01*
X58990542Y-23828860D01*
X59063592Y-23844339D01*
X59232294Y-23938624D01*
X59420392Y-23999740D01*
X59616777Y-24023158D01*
X59622912Y-24022686D01*
X59622914Y-24022686D01*
X59807830Y-24008457D01*
X59807834Y-24008456D01*
X59813972Y-24007984D01*
X60004463Y-23954798D01*
X60009967Y-23952018D01*
X60009969Y-23952017D01*
X60175493Y-23868405D01*
X60175495Y-23868404D01*
X60180996Y-23865625D01*
X60185850Y-23861833D01*
X60185859Y-23861827D01*
X60194548Y-23855038D01*
X60260542Y-23828860D01*
X60333592Y-23844339D01*
X60502294Y-23938624D01*
X60690392Y-23999740D01*
X60886777Y-24023158D01*
X60892912Y-24022686D01*
X60892914Y-24022686D01*
X61077830Y-24008457D01*
X61077834Y-24008456D01*
X61083972Y-24007984D01*
X61274463Y-23954798D01*
X61279967Y-23952018D01*
X61279969Y-23952017D01*
X61445495Y-23868404D01*
X61445497Y-23868403D01*
X61450996Y-23865625D01*
X61606847Y-23743861D01*
X61723172Y-23609097D01*
X61732049Y-23598813D01*
X61732050Y-23598811D01*
X61736078Y-23594145D01*
X61833769Y-23422179D01*
X61896197Y-23234513D01*
X61920985Y-23038295D01*
X61921380Y-23010000D01*
X61902080Y-22813167D01*
X61844916Y-22623831D01*
X61752066Y-22449204D01*
X61675121Y-22354860D01*
X61630960Y-22300713D01*
X61630957Y-22300710D01*
X61627065Y-22295938D01*
X61620724Y-22290692D01*
X61528860Y-22214695D01*
X64122251Y-22214695D01*
X64122548Y-22219848D01*
X64122548Y-22219851D01*
X64130333Y-22354860D01*
X64135110Y-22437715D01*
X64136247Y-22442761D01*
X64136248Y-22442767D01*
X64137699Y-22449204D01*
X64184222Y-22655639D01*
X64268266Y-22862616D01*
X64270965Y-22867020D01*
X64360742Y-23013523D01*
X64384987Y-23053088D01*
X64388367Y-23056990D01*
X64390112Y-23059005D01*
X64531250Y-23221938D01*
X64703126Y-23364632D01*
X64896000Y-23477338D01*
X65104692Y-23557030D01*
X65109760Y-23558061D01*
X65109763Y-23558062D01*
X65217017Y-23579883D01*
X65323597Y-23601567D01*
X65328772Y-23601757D01*
X65328774Y-23601757D01*
X65541673Y-23609564D01*
X65541677Y-23609564D01*
X65546837Y-23609753D01*
X65551957Y-23609097D01*
X65551959Y-23609097D01*
X65763288Y-23582025D01*
X65763289Y-23582025D01*
X65768416Y-23581368D01*
X65773366Y-23579883D01*
X65977429Y-23518661D01*
X65977434Y-23518659D01*
X65982384Y-23517174D01*
X66182994Y-23418896D01*
X66364860Y-23289173D01*
X66473091Y-23181319D01*
X66535462Y-23147404D01*
X66606268Y-23152592D01*
X66663030Y-23195238D01*
X66680012Y-23226341D01*
X66702201Y-23285529D01*
X66724385Y-23344705D01*
X66811739Y-23461261D01*
X66928295Y-23548615D01*
X67064684Y-23599745D01*
X67126866Y-23606500D01*
X68923134Y-23606500D01*
X68985316Y-23599745D01*
X69121705Y-23548615D01*
X69238261Y-23461261D01*
X69325615Y-23344705D01*
X69376745Y-23208316D01*
X69383500Y-23146134D01*
X69383500Y-21349866D01*
X69376745Y-21287684D01*
X69325615Y-21151295D01*
X69238261Y-21034739D01*
X69121705Y-20947385D01*
X68985316Y-20896255D01*
X68923134Y-20889500D01*
X67126866Y-20889500D01*
X67064684Y-20896255D01*
X66928295Y-20947385D01*
X66811739Y-21034739D01*
X66724385Y-21151295D01*
X66721233Y-21159703D01*
X66679919Y-21269907D01*
X66637277Y-21326671D01*
X66570716Y-21351371D01*
X66501367Y-21336163D01*
X66468743Y-21310476D01*
X66418151Y-21254875D01*
X66418142Y-21254866D01*
X66414670Y-21251051D01*
X66410619Y-21247852D01*
X66410615Y-21247848D01*
X66243414Y-21115800D01*
X66243410Y-21115798D01*
X66239359Y-21112598D01*
X66043789Y-21004638D01*
X66038920Y-21002914D01*
X66038916Y-21002912D01*
X65838087Y-20931795D01*
X65838083Y-20931794D01*
X65833212Y-20930069D01*
X65828119Y-20929162D01*
X65828116Y-20929161D01*
X65618373Y-20891800D01*
X65618367Y-20891799D01*
X65613284Y-20890894D01*
X65539452Y-20889992D01*
X65395081Y-20888228D01*
X65395079Y-20888228D01*
X65389911Y-20888165D01*
X65169091Y-20921955D01*
X64956756Y-20991357D01*
X64926443Y-21007137D01*
X64856660Y-21043464D01*
X64758607Y-21094507D01*
X64754474Y-21097610D01*
X64754471Y-21097612D01*
X64605714Y-21209302D01*
X64579965Y-21228635D01*
X64540525Y-21269907D01*
X64486280Y-21326671D01*
X64425629Y-21390138D01*
X64422715Y-21394410D01*
X64422714Y-21394411D01*
X64347369Y-21504863D01*
X64299743Y-21574680D01*
X64252716Y-21675992D01*
X64214809Y-21757656D01*
X64205688Y-21777305D01*
X64145989Y-21992570D01*
X64122251Y-22214695D01*
X61528860Y-22214695D01*
X61479425Y-22173799D01*
X61479421Y-22173797D01*
X61474675Y-22169870D01*
X61300701Y-22075802D01*
X61111768Y-22017318D01*
X61105643Y-22016674D01*
X61105642Y-22016674D01*
X60921204Y-21997289D01*
X60921202Y-21997289D01*
X60915075Y-21996645D01*
X60832576Y-22004153D01*
X60724251Y-22014011D01*
X60724248Y-22014012D01*
X60718112Y-22014570D01*
X60712206Y-22016308D01*
X60712202Y-22016309D01*
X60607076Y-22047249D01*
X60528381Y-22070410D01*
X60522923Y-22073263D01*
X60522919Y-22073265D01*
X60427135Y-22123340D01*
X60353110Y-22162040D01*
X60348310Y-22165900D01*
X60343153Y-22169274D01*
X60341769Y-22167158D01*
X60286365Y-22190027D01*
X60216512Y-22177334D01*
X60206898Y-22171709D01*
X60204675Y-22169870D01*
X60030701Y-22075802D01*
X59841768Y-22017318D01*
X59835643Y-22016674D01*
X59835642Y-22016674D01*
X59651204Y-21997289D01*
X59651202Y-21997289D01*
X59645075Y-21996645D01*
X59562576Y-22004153D01*
X59454251Y-22014011D01*
X59454248Y-22014012D01*
X59448112Y-22014570D01*
X59442206Y-22016308D01*
X59442202Y-22016309D01*
X59337076Y-22047249D01*
X59258381Y-22070410D01*
X59252923Y-22073263D01*
X59252919Y-22073265D01*
X59157135Y-22123340D01*
X59083110Y-22162040D01*
X59078310Y-22165900D01*
X59073153Y-22169274D01*
X59071769Y-22167158D01*
X59016365Y-22190027D01*
X58946512Y-22177334D01*
X58936898Y-22171709D01*
X58934675Y-22169870D01*
X58760701Y-22075802D01*
X58571768Y-22017318D01*
X58565643Y-22016674D01*
X58565642Y-22016674D01*
X58381204Y-21997289D01*
X58381202Y-21997289D01*
X58375075Y-21996645D01*
X58292576Y-22004153D01*
X58184251Y-22014011D01*
X58184248Y-22014012D01*
X58178112Y-22014570D01*
X58172206Y-22016308D01*
X58172202Y-22016309D01*
X58067076Y-22047249D01*
X57988381Y-22070410D01*
X57982923Y-22073263D01*
X57982919Y-22073265D01*
X57887135Y-22123340D01*
X57813110Y-22162040D01*
X57808310Y-22165900D01*
X57803153Y-22169274D01*
X57801769Y-22167158D01*
X57746365Y-22190027D01*
X57676512Y-22177334D01*
X57666898Y-22171709D01*
X57664675Y-22169870D01*
X57490701Y-22075802D01*
X57301768Y-22017318D01*
X57295643Y-22016674D01*
X57295642Y-22016674D01*
X57111204Y-21997289D01*
X57111202Y-21997289D01*
X57105075Y-21996645D01*
X57022576Y-22004153D01*
X56914251Y-22014011D01*
X56914248Y-22014012D01*
X56908112Y-22014570D01*
X56902206Y-22016308D01*
X56902202Y-22016309D01*
X56797076Y-22047249D01*
X56718381Y-22070410D01*
X56712923Y-22073263D01*
X56712919Y-22073265D01*
X56617135Y-22123340D01*
X56543110Y-22162040D01*
X56538310Y-22165900D01*
X56533153Y-22169274D01*
X56531769Y-22167158D01*
X56476365Y-22190027D01*
X56406512Y-22177334D01*
X56396898Y-22171709D01*
X56394675Y-22169870D01*
X56220701Y-22075802D01*
X56031768Y-22017318D01*
X56025643Y-22016674D01*
X56025642Y-22016674D01*
X55841204Y-21997289D01*
X55841202Y-21997289D01*
X55835075Y-21996645D01*
X55752576Y-22004153D01*
X55644251Y-22014011D01*
X55644248Y-22014012D01*
X55638112Y-22014570D01*
X55632206Y-22016308D01*
X55632202Y-22016309D01*
X55527076Y-22047249D01*
X55448381Y-22070410D01*
X55442923Y-22073263D01*
X55442919Y-22073265D01*
X55347135Y-22123340D01*
X55273110Y-22162040D01*
X55268310Y-22165900D01*
X55263153Y-22169274D01*
X55261769Y-22167158D01*
X55206365Y-22190027D01*
X55136512Y-22177334D01*
X55126898Y-22171709D01*
X55124675Y-22169870D01*
X54950701Y-22075802D01*
X54761768Y-22017318D01*
X54755643Y-22016674D01*
X54755642Y-22016674D01*
X54571204Y-21997289D01*
X54571202Y-21997289D01*
X54565075Y-21996645D01*
X54482576Y-22004153D01*
X54374251Y-22014011D01*
X54374248Y-22014012D01*
X54368112Y-22014570D01*
X54362206Y-22016308D01*
X54362202Y-22016309D01*
X54257076Y-22047249D01*
X54178381Y-22070410D01*
X54172923Y-22073263D01*
X54172919Y-22073265D01*
X54082147Y-22120720D01*
X54003110Y-22162040D01*
X53848975Y-22285968D01*
X53721846Y-22437474D01*
X53718879Y-22442872D01*
X53718875Y-22442877D01*
X53715397Y-22449204D01*
X53626567Y-22610787D01*
X53624705Y-22616656D01*
X53623311Y-22619909D01*
X53578092Y-22674642D01*
X53510459Y-22696238D01*
X53441888Y-22677842D01*
X53394147Y-22625293D01*
X53381500Y-22570273D01*
X53381500Y-21349866D01*
X53374745Y-21287684D01*
X53323615Y-21151295D01*
X53236261Y-21034739D01*
X53119705Y-20947385D01*
X52983316Y-20896255D01*
X52921134Y-20889500D01*
X51124866Y-20889500D01*
X51062684Y-20896255D01*
X50926295Y-20947385D01*
X50809739Y-21034739D01*
X50722385Y-21151295D01*
X50719233Y-21159703D01*
X50677919Y-21269907D01*
X50635277Y-21326671D01*
X50568716Y-21351371D01*
X50499367Y-21336163D01*
X50466743Y-21310476D01*
X50416151Y-21254875D01*
X50416142Y-21254866D01*
X50412670Y-21251051D01*
X50408619Y-21247852D01*
X50408615Y-21247848D01*
X50241414Y-21115800D01*
X50241410Y-21115798D01*
X50237359Y-21112598D01*
X50041789Y-21004638D01*
X50036920Y-21002914D01*
X50036916Y-21002912D01*
X49836087Y-20931795D01*
X49836083Y-20931794D01*
X49831212Y-20930069D01*
X49826119Y-20929162D01*
X49826116Y-20929161D01*
X49616373Y-20891800D01*
X49616367Y-20891799D01*
X49611284Y-20890894D01*
X49537452Y-20889992D01*
X49393081Y-20888228D01*
X49393079Y-20888228D01*
X49387911Y-20888165D01*
X49167091Y-20921955D01*
X48954756Y-20991357D01*
X48924443Y-21007137D01*
X48854660Y-21043464D01*
X48756607Y-21094507D01*
X48752474Y-21097610D01*
X48752471Y-21097612D01*
X48603714Y-21209302D01*
X48577965Y-21228635D01*
X48538525Y-21269907D01*
X48484280Y-21326671D01*
X48423629Y-21390138D01*
X48420715Y-21394410D01*
X48420714Y-21394411D01*
X48345369Y-21504863D01*
X48297743Y-21574680D01*
X48250715Y-21675993D01*
X48212809Y-21757656D01*
X48203688Y-21777305D01*
X48143989Y-21992570D01*
X48120251Y-22214695D01*
X44011364Y-22214695D01*
X43875159Y-22070410D01*
X43851596Y-22045449D01*
X43851593Y-22045446D01*
X43849670Y-22043409D01*
X43847579Y-22041556D01*
X43847571Y-22041548D01*
X43531237Y-21761188D01*
X43531235Y-21761186D01*
X43529137Y-21759327D01*
X43184621Y-21504863D01*
X42892122Y-21326671D01*
X42821237Y-21283487D01*
X42821230Y-21283483D01*
X42818848Y-21282032D01*
X42815306Y-21280285D01*
X42475270Y-21112598D01*
X42434714Y-21092598D01*
X42035262Y-20938062D01*
X41788678Y-20867122D01*
X41626335Y-20820417D01*
X41626329Y-20820415D01*
X41623654Y-20819646D01*
X41620917Y-20819117D01*
X41620911Y-20819115D01*
X41467654Y-20789464D01*
X41203148Y-20738289D01*
X41200374Y-20738005D01*
X41200362Y-20738003D01*
X41037765Y-20721344D01*
X40972038Y-20694503D01*
X40931256Y-20636388D01*
X40928368Y-20565450D01*
X40964290Y-20504211D01*
X41027617Y-20472115D01*
X41050608Y-20470000D01*
X78276441Y-20470000D01*
X78344562Y-20490002D01*
G37*
%TD.AperFunction*%
%TD*%
M02*
