M48
; DRILL file {KiCad (6.0.1)} date Sun May  8 06:10:04 2022
; FORMAT={-:-/ absolute / inch / decimal}
; #@! TF.CreationDate,2022-05-08T06:10:04+05:45
; #@! TF.GenerationSoftware,Kicad,Pcbnew,(6.0.1)
; #@! TF.FileFunction,Plated,1,4,PTH
FMAT,2
INCH
; #@! TA.AperFunction,Plated,PTH,ViaDrill
T1C0.0157
; #@! TA.AperFunction,Plated,PTH,ComponentDrill
T2C0.0236
; #@! TA.AperFunction,Plated,PTH,ViaDrill
T3C0.0315
; #@! TA.AperFunction,Plated,PTH,ComponentDrill
T4C0.0394
; #@! TA.AperFunction,Plated,PTH,ComponentDrill
T5C0.1693
%
G90
G05
T1
X1.918Y-1.7859
X1.948Y-1.9659
X1.988Y-1.9659
X2.018Y-1.5659
X2.078Y-1.7609
X2.168Y-1.1259
X2.208Y-2.0359
X2.258Y-1.7159
X2.258Y-2.1559
X2.258Y-2.1859
X2.448Y-2.1459
X2.498Y-2.1559
X2.613Y-1.5659
X2.623Y-1.9459
X2.643Y-1.5659
X2.658Y-1.9459
X2.668Y-2.0259
X2.678Y-1.1259
X2.738Y-2.0259
X2.798Y-1.5959
X3.058Y-1.2659
X3.098Y-1.2659
X3.218Y-1.5759
T2
X1.461Y-1.0059
X1.461Y-2.5459
X1.4982Y-0.9161
X1.4982Y-1.0957
X1.4982Y-2.4561
X1.4982Y-2.6357
X1.588Y-0.8789
X1.588Y-1.1329
X1.588Y-2.4189
X1.588Y-2.6729
X1.6777Y-0.9161
X1.6777Y-1.0957
X1.6777Y-2.4561
X1.6777Y-2.6357
X1.7149Y-1.0059
X1.7149Y-2.5459
X3.011Y-2.5459
X3.021Y-0.9959
X3.0482Y-2.4561
X3.0482Y-2.6357
X3.0582Y-0.9061
X3.0582Y-1.0857
X3.138Y-2.4189
X3.138Y-2.6729
X3.148Y-0.8689
X3.148Y-1.1229
X3.2277Y-2.4561
X3.2277Y-2.6357
X3.2377Y-0.9061
X3.2377Y-1.0857
X3.2649Y-2.5459
X3.2749Y-0.9959
T3
X2.148Y-0.9059
X2.198Y-0.9059
X2.248Y-0.9059
X2.298Y-0.9059
X2.348Y-0.9059
X2.398Y-0.9059
X2.458Y-1.0259
X2.458Y-1.0859
X2.458Y-1.1959
X2.458Y-1.2459
X2.948Y-1.2559
X2.948Y-1.3059
X2.948Y-1.3559
X2.948Y-1.4059
T4
X1.468Y-1.7457
X1.468Y-1.8457
X1.9481Y-0.8759
X2.0481Y-0.8759
X2.2983Y-2.6559
X2.3983Y-2.6559
X2.4983Y-2.6559
X2.5781Y-0.8759
X2.5983Y-2.6559
X2.6781Y-0.8759
X3.258Y-1.7661
X3.258Y-1.8661
T5
X1.5945Y-1.0039
X1.5945Y-2.5394
X3.1368Y-2.5494
X3.1468Y-0.9939
T0
M30
