%TF.GenerationSoftware,KiCad,Pcbnew,(6.0.1)*%
%TF.CreationDate,2022-05-08T06:10:33+05:45*%
%TF.ProjectId,STM32F4_Breakout,53544d33-3246-4345-9f42-7265616b6f75,rev?*%
%TF.SameCoordinates,Original*%
%TF.FileFunction,Legend,Bot*%
%TF.FilePolarity,Positive*%
%FSLAX46Y46*%
G04 Gerber Fmt 4.6, Leading zero omitted, Abs format (unit mm)*
G04 Created by KiCad (PCBNEW (6.0.1)) date 2022-05-08 06:10:33*
%MOMM*%
%LPD*%
G01*
G04 APERTURE LIST*
%ADD10C,0.150000*%
G04 APERTURE END LIST*
D10*
X50025619Y-26375333D02*
X49025619Y-26042000D01*
X50025619Y-25708666D01*
X49120857Y-24803904D02*
X49073238Y-24851523D01*
X49025619Y-24994380D01*
X49025619Y-25089619D01*
X49073238Y-25232476D01*
X49168476Y-25327714D01*
X49263714Y-25375333D01*
X49454190Y-25422952D01*
X49597047Y-25422952D01*
X49787523Y-25375333D01*
X49882761Y-25327714D01*
X49978000Y-25232476D01*
X50025619Y-25089619D01*
X50025619Y-24994380D01*
X49978000Y-24851523D01*
X49930380Y-24803904D01*
X49120857Y-23803904D02*
X49073238Y-23851523D01*
X49025619Y-23994380D01*
X49025619Y-24089619D01*
X49073238Y-24232476D01*
X49168476Y-24327714D01*
X49263714Y-24375333D01*
X49454190Y-24422952D01*
X49597047Y-24422952D01*
X49787523Y-24375333D01*
X49882761Y-24327714D01*
X49978000Y-24232476D01*
X50025619Y-24089619D01*
X50025619Y-23994380D01*
X49978000Y-23851523D01*
X49930380Y-23803904D01*
X79870666Y-45306380D02*
X80204000Y-44830190D01*
X80442095Y-45306380D02*
X80442095Y-44306380D01*
X80061142Y-44306380D01*
X79965904Y-44354000D01*
X79918285Y-44401619D01*
X79870666Y-44496857D01*
X79870666Y-44639714D01*
X79918285Y-44734952D01*
X79965904Y-44782571D01*
X80061142Y-44830190D01*
X80442095Y-44830190D01*
X79537333Y-44306380D02*
X78870666Y-45306380D01*
X78870666Y-44306380D02*
X79537333Y-45306380D01*
X41826095Y-46338380D02*
X41207047Y-46338380D01*
X41540380Y-46719333D01*
X41397523Y-46719333D01*
X41302285Y-46766952D01*
X41254666Y-46814571D01*
X41207047Y-46909809D01*
X41207047Y-47147904D01*
X41254666Y-47243142D01*
X41302285Y-47290761D01*
X41397523Y-47338380D01*
X41683238Y-47338380D01*
X41778476Y-47290761D01*
X41826095Y-47243142D01*
X40921333Y-46338380D02*
X40588000Y-47338380D01*
X40254666Y-46338380D01*
X40016571Y-46338380D02*
X39397523Y-46338380D01*
X39730857Y-46719333D01*
X39588000Y-46719333D01*
X39492761Y-46766952D01*
X39445142Y-46814571D01*
X39397523Y-46909809D01*
X39397523Y-47147904D01*
X39445142Y-47243142D01*
X39492761Y-47290761D01*
X39588000Y-47338380D01*
X39873714Y-47338380D01*
X39968952Y-47290761D01*
X40016571Y-47243142D01*
X65075238Y-26256285D02*
X65027619Y-26113428D01*
X65027619Y-25875333D01*
X65075238Y-25780095D01*
X65122857Y-25732476D01*
X65218095Y-25684857D01*
X65313333Y-25684857D01*
X65408571Y-25732476D01*
X65456190Y-25780095D01*
X65503809Y-25875333D01*
X65551428Y-26065809D01*
X65599047Y-26161047D01*
X65646666Y-26208666D01*
X65741904Y-26256285D01*
X65837142Y-26256285D01*
X65932380Y-26208666D01*
X65980000Y-26161047D01*
X66027619Y-26065809D01*
X66027619Y-25827714D01*
X65980000Y-25684857D01*
X65027619Y-25256285D02*
X66027619Y-25256285D01*
X66027619Y-25018190D01*
X65980000Y-24875333D01*
X65884761Y-24780095D01*
X65789523Y-24732476D01*
X65599047Y-24684857D01*
X65456190Y-24684857D01*
X65265714Y-24732476D01*
X65170476Y-24780095D01*
X65075238Y-24875333D01*
X65027619Y-25018190D01*
X65027619Y-25256285D01*
X65313333Y-24303904D02*
X65313333Y-23827714D01*
X65027619Y-24399142D02*
X66027619Y-24065809D01*
X65027619Y-23732476D01*
X52518000Y-25803904D02*
X52565619Y-25899142D01*
X52565619Y-26042000D01*
X52518000Y-26184857D01*
X52422761Y-26280095D01*
X52327523Y-26327714D01*
X52137047Y-26375333D01*
X51994190Y-26375333D01*
X51803714Y-26327714D01*
X51708476Y-26280095D01*
X51613238Y-26184857D01*
X51565619Y-26042000D01*
X51565619Y-25946761D01*
X51613238Y-25803904D01*
X51660857Y-25756285D01*
X51994190Y-25756285D01*
X51994190Y-25946761D01*
X51565619Y-25327714D02*
X52565619Y-25327714D01*
X51565619Y-24756285D01*
X52565619Y-24756285D01*
X51565619Y-24280095D02*
X52565619Y-24280095D01*
X52565619Y-24042000D01*
X52518000Y-23899142D01*
X52422761Y-23803904D01*
X52327523Y-23756285D01*
X52137047Y-23708666D01*
X51994190Y-23708666D01*
X51803714Y-23756285D01*
X51708476Y-23803904D01*
X51613238Y-23899142D01*
X51565619Y-24042000D01*
X51565619Y-24280095D01*
X58010857Y-65086666D02*
X57963238Y-65134285D01*
X57915619Y-65277142D01*
X57915619Y-65372380D01*
X57963238Y-65515238D01*
X58058476Y-65610476D01*
X58153714Y-65658095D01*
X58344190Y-65705714D01*
X58487047Y-65705714D01*
X58677523Y-65658095D01*
X58772761Y-65610476D01*
X58868000Y-65515238D01*
X58915619Y-65372380D01*
X58915619Y-65277142D01*
X58868000Y-65134285D01*
X58820380Y-65086666D01*
X57963238Y-64705714D02*
X57915619Y-64562857D01*
X57915619Y-64324761D01*
X57963238Y-64229523D01*
X58010857Y-64181904D01*
X58106095Y-64134285D01*
X58201333Y-64134285D01*
X58296571Y-64181904D01*
X58344190Y-64229523D01*
X58391809Y-64324761D01*
X58439428Y-64515238D01*
X58487047Y-64610476D01*
X58534666Y-64658095D01*
X58629904Y-64705714D01*
X58725142Y-64705714D01*
X58820380Y-64658095D01*
X58868000Y-64610476D01*
X58915619Y-64515238D01*
X58915619Y-64277142D01*
X58868000Y-64134285D01*
X80465904Y-46846380D02*
X79894476Y-46846380D01*
X80180190Y-47846380D02*
X80180190Y-46846380D01*
X79656380Y-46846380D02*
X78989714Y-47846380D01*
X78989714Y-46846380D02*
X79656380Y-47846380D01*
X67615238Y-26232476D02*
X67567619Y-26089619D01*
X67567619Y-25851523D01*
X67615238Y-25756285D01*
X67662857Y-25708666D01*
X67758095Y-25661047D01*
X67853333Y-25661047D01*
X67948571Y-25708666D01*
X67996190Y-25756285D01*
X68043809Y-25851523D01*
X68091428Y-26042000D01*
X68139047Y-26137238D01*
X68186666Y-26184857D01*
X68281904Y-26232476D01*
X68377142Y-26232476D01*
X68472380Y-26184857D01*
X68520000Y-26137238D01*
X68567619Y-26042000D01*
X68567619Y-25803904D01*
X68520000Y-25661047D01*
X67662857Y-24661047D02*
X67615238Y-24708666D01*
X67567619Y-24851523D01*
X67567619Y-24946761D01*
X67615238Y-25089619D01*
X67710476Y-25184857D01*
X67805714Y-25232476D01*
X67996190Y-25280095D01*
X68139047Y-25280095D01*
X68329523Y-25232476D01*
X68424761Y-25184857D01*
X68520000Y-25089619D01*
X68567619Y-24946761D01*
X68567619Y-24851523D01*
X68520000Y-24708666D01*
X68472380Y-24661047D01*
X67567619Y-23756285D02*
X67567619Y-24232476D01*
X68567619Y-24232476D01*
X62995619Y-65729428D02*
X63995619Y-65729428D01*
X63281333Y-65396095D01*
X63995619Y-65062761D01*
X62995619Y-65062761D01*
X62995619Y-64586571D02*
X63995619Y-64586571D01*
X63043238Y-64158000D02*
X62995619Y-64015142D01*
X62995619Y-63777047D01*
X63043238Y-63681809D01*
X63090857Y-63634190D01*
X63186095Y-63586571D01*
X63281333Y-63586571D01*
X63376571Y-63634190D01*
X63424190Y-63681809D01*
X63471809Y-63777047D01*
X63519428Y-63967523D01*
X63567047Y-64062761D01*
X63614666Y-64110380D01*
X63709904Y-64158000D01*
X63805142Y-64158000D01*
X63900380Y-64110380D01*
X63948000Y-64062761D01*
X63995619Y-63967523D01*
X63995619Y-63729428D01*
X63948000Y-63586571D01*
X63995619Y-62967523D02*
X63995619Y-62777047D01*
X63948000Y-62681809D01*
X63852761Y-62586571D01*
X63662285Y-62538952D01*
X63328952Y-62538952D01*
X63138476Y-62586571D01*
X63043238Y-62681809D01*
X62995619Y-62777047D01*
X62995619Y-62967523D01*
X63043238Y-63062761D01*
X63138476Y-63158000D01*
X63328952Y-63205619D01*
X63662285Y-63205619D01*
X63852761Y-63158000D01*
X63948000Y-63062761D01*
X63995619Y-62967523D01*
X65535619Y-65729428D02*
X66535619Y-65729428D01*
X65821333Y-65396095D01*
X66535619Y-65062761D01*
X65535619Y-65062761D01*
X66535619Y-64396095D02*
X66535619Y-64205619D01*
X66488000Y-64110380D01*
X66392761Y-64015142D01*
X66202285Y-63967523D01*
X65868952Y-63967523D01*
X65678476Y-64015142D01*
X65583238Y-64110380D01*
X65535619Y-64205619D01*
X65535619Y-64396095D01*
X65583238Y-64491333D01*
X65678476Y-64586571D01*
X65868952Y-64634190D01*
X66202285Y-64634190D01*
X66392761Y-64586571D01*
X66488000Y-64491333D01*
X66535619Y-64396095D01*
X65583238Y-63586571D02*
X65535619Y-63443714D01*
X65535619Y-63205619D01*
X65583238Y-63110380D01*
X65630857Y-63062761D01*
X65726095Y-63015142D01*
X65821333Y-63015142D01*
X65916571Y-63062761D01*
X65964190Y-63110380D01*
X66011809Y-63205619D01*
X66059428Y-63396095D01*
X66107047Y-63491333D01*
X66154666Y-63538952D01*
X66249904Y-63586571D01*
X66345142Y-63586571D01*
X66440380Y-63538952D01*
X66488000Y-63491333D01*
X66535619Y-63396095D01*
X66535619Y-63158000D01*
X66488000Y-63015142D01*
X65535619Y-62586571D02*
X66535619Y-62586571D01*
X41349904Y-43846000D02*
X41445142Y-43798380D01*
X41588000Y-43798380D01*
X41730857Y-43846000D01*
X41826095Y-43941238D01*
X41873714Y-44036476D01*
X41921333Y-44226952D01*
X41921333Y-44369809D01*
X41873714Y-44560285D01*
X41826095Y-44655523D01*
X41730857Y-44750761D01*
X41588000Y-44798380D01*
X41492761Y-44798380D01*
X41349904Y-44750761D01*
X41302285Y-44703142D01*
X41302285Y-44369809D01*
X41492761Y-44369809D01*
X40873714Y-44798380D02*
X40873714Y-43798380D01*
X40302285Y-44798380D01*
X40302285Y-43798380D01*
X39826095Y-44798380D02*
X39826095Y-43798380D01*
X39588000Y-43798380D01*
X39445142Y-43846000D01*
X39349904Y-43941238D01*
X39302285Y-44036476D01*
X39254666Y-44226952D01*
X39254666Y-44369809D01*
X39302285Y-44560285D01*
X39349904Y-44655523D01*
X39445142Y-44750761D01*
X39588000Y-44798380D01*
X39826095Y-44798380D01*
X60503238Y-65697714D02*
X60455619Y-65554857D01*
X60455619Y-65316761D01*
X60503238Y-65221523D01*
X60550857Y-65173904D01*
X60646095Y-65126285D01*
X60741333Y-65126285D01*
X60836571Y-65173904D01*
X60884190Y-65221523D01*
X60931809Y-65316761D01*
X60979428Y-65507238D01*
X61027047Y-65602476D01*
X61074666Y-65650095D01*
X61169904Y-65697714D01*
X61265142Y-65697714D01*
X61360380Y-65650095D01*
X61408000Y-65602476D01*
X61455619Y-65507238D01*
X61455619Y-65269142D01*
X61408000Y-65126285D01*
X60550857Y-64126285D02*
X60503238Y-64173904D01*
X60455619Y-64316761D01*
X60455619Y-64412000D01*
X60503238Y-64554857D01*
X60598476Y-64650095D01*
X60693714Y-64697714D01*
X60884190Y-64745333D01*
X61027047Y-64745333D01*
X61217523Y-64697714D01*
X61312761Y-64650095D01*
X61408000Y-64554857D01*
X61455619Y-64412000D01*
X61455619Y-64316761D01*
X61408000Y-64173904D01*
X61360380Y-64126285D01*
X60455619Y-63697714D02*
X61455619Y-63697714D01*
X60455619Y-63126285D02*
X61027047Y-63554857D01*
X61455619Y-63126285D02*
X60884190Y-63697714D01*
M02*
